# MagicaVoxel @ Ephtracy

# group
g cheese

# material
mtllib cheese.mtl
usemtl palette

# normals
vn -1 0 0
vn 1 0 0
vn 0 0 1
vn 0 0 -1
vn 0 -1 0
vn 0 1 0

# texcoords
vt 0.416016 0.5
vt 0.427734 0.5

# verts
v -4 0 4
v -4 0 -4
v -4 1 4
v -4 1 3
v -4 1 1
v -4 1 -3
v -4 2 -0
v -4 2 -2
v -4 3 3
v -4 3 1
v -4 4 4
v -4 4 -0
v -4 4 -2
v -4 4 -3
v -4 5 4
v -4 5 -4
v -3 1 3
v -3 1 1
v -3 2 -0
v -3 2 -2
v -3 3 3
v -3 3 1
v -3 4 -0
v -3 4 -2
v -1 2 4
v -1 2 3
v -1 4 4
v -1 4 3
v 3 1 4
v 3 1 3
v 3 3 4
v 3 3 3
v -3 2 4
v -3 2 3
v -3 4 4
v -3 4 3
v 0 0 -3
v 0 0 -4
v 0 5 -3
v 0 5 -4
v 1 1 4
v 1 1 3
v 1 3 4
v 1 3 3
v 2 0 -2
v 2 0 -3
v 2 5 -2
v 2 5 -3
v 3 0 -0
v 3 0 -2
v 3 5 -0
v 3 5 -2
v 4 0 4
v 4 0 -0
v 4 5 4
v 4 5 -0
v -4 0 4
v -4 1 4
v -4 4 4
v -4 5 4
v -3 2 4
v -3 4 4
v -1 2 4
v -1 4 4
v 1 1 4
v 1 3 4
v 3 1 4
v 3 3 4
v 3 4 4
v 4 0 4
v 4 5 4
v -3 2 3
v -3 4 3
v -1 2 3
v -1 4 3
v 1 1 3
v 1 3 3
v 3 1 3
v 3 3 3
v -4 1 1
v -4 3 1
v -3 1 1
v -3 3 1
v -4 2 -2
v -4 4 -2
v -3 2 -2
v -3 4 -2
v -4 1 3
v -4 3 3
v -3 1 3
v -3 3 3
v -4 2 -0
v -4 4 -0
v -3 2 -0
v -3 4 -0
v 3 0 -0
v 3 5 -0
v 4 0 -0
v 4 5 -0
v 2 0 -2
v 2 5 -2
v 3 0 -2
v 3 5 -2
v 0 0 -3
v 0 5 -3
v 2 0 -3
v 2 5 -3
v -4 0 -4
v -4 5 -4
v 0 0 -4
v 0 5 -4
v -4 0 4
v 4 0 4
v 3 0 -0
v 4 0 -0
v 2 0 -2
v 3 0 -2
v 0 0 -3
v 2 0 -3
v -4 0 -4
v 0 0 -4
v 1 3 4
v 3 3 4
v -4 3 3
v -3 3 3
v 1 3 3
v 3 3 3
v -4 3 1
v -3 3 1
v -3 4 4
v -1 4 4
v -3 4 3
v -1 4 3
v -4 4 -0
v -3 4 -0
v -4 4 -2
v -3 4 -2
v 1 1 4
v 3 1 4
v -4 1 3
v -3 1 3
v 1 1 3
v 3 1 3
v -4 1 1
v -3 1 1
v -3 2 4
v -1 2 4
v -3 2 3
v -1 2 3
v -4 2 -0
v -3 2 -0
v -4 2 -2
v -3 2 -2
v -4 5 4
v 4 5 4
v 3 5 -0
v 4 5 -0
v 2 5 -2
v 3 5 -2
v 0 5 -3
v 2 5 -3
v -4 5 -4
v 0 5 -4

# faces
f 3/2/1 2/2/1 1/2/1
f 4/2/1 2/2/1 3/2/1
f 5/2/1 2/2/1 4/2/1
f 6/2/1 2/2/1 5/2/1
f 7/1/1 6/1/1 5/1/1
f 8/1/1 6/1/1 7/1/1
f 9/1/1 4/1/1 3/1/1
f 10/1/1 7/1/1 5/1/1
f 11/1/1 9/1/1 3/1/1
f 11/1/1 10/1/1 9/1/1
f 12/1/1 7/1/1 10/1/1
f 12/1/1 10/1/1 11/1/1
f 13/1/1 6/1/1 8/1/1
f 14/2/1 2/2/1 6/2/1
f 14/1/1 6/1/1 13/1/1
f 15/2/1 12/2/1 11/2/1
f 15/2/1 13/2/1 12/2/1
f 15/2/1 14/2/1 13/2/1
f 16/2/1 2/2/1 14/2/1
f 16/2/1 14/2/1 15/2/1
f 21/1/1 18/1/1 17/1/1
f 22/1/1 18/1/1 21/1/1
f 23/1/1 20/1/1 19/1/1
f 24/1/1 20/1/1 23/1/1
f 27/1/1 26/1/1 25/1/1
f 28/1/1 26/1/1 27/1/1
f 31/2/1 30/2/1 29/2/1
f 32/2/1 30/2/1 31/2/1
f 33/1/2 34/1/2 35/1/2
f 35/1/2 34/1/2 36/1/2
f 37/2/2 38/2/2 39/2/2
f 39/2/2 38/2/2 40/2/2
f 41/1/2 42/1/2 43/1/2
f 43/1/2 42/1/2 44/1/2
f 45/2/2 46/2/2 47/2/2
f 47/2/2 46/2/2 48/2/2
f 49/2/2 50/2/2 51/2/2
f 51/2/2 50/2/2 52/2/2
f 53/2/2 54/2/2 55/2/2
f 55/2/2 54/2/2 56/2/2
f 61/1/3 59/1/3 58/1/3
f 62/2/3 60/2/3 59/2/3
f 62/1/3 59/1/3 61/1/3
f 63/1/3 61/1/3 58/1/3
f 64/2/3 60/2/3 62/2/3
f 65/2/3 58/2/3 57/2/3
f 65/1/3 64/1/3 63/1/3
f 65/1/3 63/1/3 58/1/3
f 66/1/3 64/1/3 65/1/3
f 67/2/3 65/2/3 57/2/3
f 68/1/3 64/1/3 66/1/3
f 69/2/3 60/2/3 64/2/3
f 69/1/3 64/1/3 68/1/3
f 70/2/3 68/2/3 67/2/3
f 70/2/3 67/2/3 57/2/3
f 70/2/3 69/2/3 68/2/3
f 71/2/3 60/2/3 69/2/3
f 71/2/3 69/2/3 70/2/3
f 74/1/3 73/1/3 72/1/3
f 75/1/3 73/1/3 74/1/3
f 78/1/3 77/1/3 76/1/3
f 79/1/3 77/1/3 78/1/3
f 82/1/3 81/1/3 80/1/3
f 83/1/3 81/1/3 82/1/3
f 86/1/3 85/1/3 84/1/3
f 87/1/3 85/1/3 86/1/3
f 88/1/4 89/1/4 90/1/4
f 90/1/4 89/1/4 91/1/4
f 92/1/4 93/1/4 94/1/4
f 94/1/4 93/1/4 95/1/4
f 96/2/4 97/2/4 98/2/4
f 98/2/4 97/2/4 99/2/4
f 100/2/4 101/2/4 102/2/4
f 102/2/4 101/2/4 103/2/4
f 104/2/4 105/2/4 106/2/4
f 106/2/4 105/2/4 107/2/4
f 108/2/4 109/2/4 110/2/4
f 110/2/4 109/2/4 111/2/4
f 114/2/5 113/2/5 112/2/5
f 115/2/5 113/2/5 114/2/5
f 116/2/5 114/2/5 112/2/5
f 117/2/5 114/2/5 116/2/5
f 118/2/5 116/2/5 112/2/5
f 119/2/5 116/2/5 118/2/5
f 120/2/5 118/2/5 112/2/5
f 121/2/5 118/2/5 120/2/5
f 126/1/5 123/1/5 122/1/5
f 127/1/5 123/1/5 126/1/5
f 128/1/5 125/1/5 124/1/5
f 129/1/5 125/1/5 128/1/5
f 132/2/5 131/2/5 130/2/5
f 133/2/5 131/2/5 132/2/5
f 136/2/5 135/2/5 134/2/5
f 137/2/5 135/2/5 136/2/5
f 138/2/6 139/2/6 142/2/6
f 142/2/6 139/2/6 143/2/6
f 140/2/6 141/2/6 144/2/6
f 144/2/6 141/2/6 145/2/6
f 146/1/6 147/1/6 148/1/6
f 148/1/6 147/1/6 149/1/6
f 150/1/6 151/1/6 152/1/6
f 152/1/6 151/1/6 153/1/6
f 154/2/6 155/2/6 156/2/6
f 156/2/6 155/2/6 157/2/6
f 154/2/6 156/2/6 158/2/6
f 158/2/6 156/2/6 159/2/6
f 154/2/6 158/2/6 160/2/6
f 160/2/6 158/2/6 161/2/6
f 154/2/6 160/2/6 162/2/6
f 162/2/6 160/2/6 163/2/6
