# MagicaVoxel @ Ephtracy

# group
g chef

# material
mtllib chef.mtl
usemtl palette

# normals
vn -1 0 0
vn 1 0 0
vn 0 0 1
vn 0 0 -1
vn 0 -1 0
vn 0 1 0

# texcoords
vt 0.146484 0.5
vt 0.177734 0.5
vt 0.794922 0.5
vt 0.962891 0.5
vt 0.966797 0.5
vt 0.982422 0.5

# verts
v -4 11 2
v -4 11 -3
v -4 12 2
v -4 12 1
v -4 12 -0
v -4 12 -1
v -4 12 -2
v -4 12 -3
v -4 14 1
v -4 14 -0
v -4 14 -1
v -4 14 -2
v -4 15 2
v -4 15 -3
v -3 0 2
v -3 0 -2
v -3 2 2
v -3 2 -2
v -3 3 -0
v -3 3 -2
v -3 6 -0
v -3 6 -2
v -3 7 1
v -3 7 -2
v -3 8 1
v -3 8 -2
v -3 11 3
v -3 11 2
v -3 11 1
v -3 11 -2
v -3 11 -3
v -3 11 -4
v -3 12 2
v -3 12 -3
v -3 14 3
v -3 14 2
v -3 14 -3
v -3 14 -4
v -3 15 3
v -3 15 2
v -3 15 -3
v -3 15 -4
v -2 2 1
v -2 2 -2
v -2 3 1
v -2 3 -0
v -2 3 -2
v -2 4 1
v -2 4 -0
v -2 6 1
v -2 6 -0
v -2 6 -2
v -2 7 2
v -2 7 1
v -2 7 -2
v -2 7 -3
v -2 8 2
v -2 8 1
v -2 8 -2
v -2 8 -3
v -2 9 2
v -2 9 1
v -2 11 2
v -2 11 1
v -2 11 -2
v -2 11 -3
v 1 0 2
v 1 0 -2
v 1 1 1
v 1 1 -2
v 1 2 2
v 1 2 1
v -1 0 2
v -1 0 -2
v -1 1 1
v -1 1 -2
v -1 2 2
v -1 2 1
v 2 2 1
v 2 2 -2
v 2 3 1
v 2 3 -0
v 2 3 -2
v 2 4 1
v 2 4 -0
v 2 6 1
v 2 6 -0
v 2 6 -2
v 2 7 2
v 2 7 1
v 2 7 -2
v 2 7 -3
v 2 8 2
v 2 8 1
v 2 8 -2
v 2 8 -3
v 2 9 2
v 2 9 1
v 2 11 2
v 2 11 1
v 2 11 -2
v 2 11 -3
v 3 0 2
v 3 0 -2
v 3 2 2
v 3 2 -2
v 3 3 -0
v 3 3 -2
v 3 6 -0
v 3 6 -2
v 3 7 1
v 3 7 -2
v 3 8 1
v 3 8 -2
v 3 11 3
v 3 11 2
v 3 11 1
v 3 11 -2
v 3 11 -3
v 3 11 -4
v 3 12 3
v 3 12 2
v 3 12 -3
v 3 12 -4
v 3 14 2
v 3 15 3
v 3 15 2
v 3 15 -3
v 3 15 -4
v 4 11 2
v 4 11 -3
v 4 12 1
v 4 12 -1
v 4 12 -2
v 4 12 -3
v 4 14 2
v 4 14 1
v 4 14 -1
v 4 14 -2
v 4 15 2
v 4 15 -3
v -3 11 3
v -3 14 3
v -3 15 3
v -2 12 3
v -2 14 3
v -1 12 3
v -1 14 3
v 0 12 3
v 0 14 3
v 1 12 3
v 1 14 3
v 2 12 3
v 2 14 3
v 3 11 3
v 3 12 3
v 3 15 3
v -4 11 2
v -4 12 2
v -4 15 2
v -3 0 2
v -3 2 2
v -3 11 2
v -3 12 2
v -3 14 2
v -3 15 2
v -2 7 2
v -2 8 2
v -2 9 2
v -2 11 2
v -1 0 2
v -1 2 2
v -1 8 2
v -1 9 2
v 1 0 2
v 1 2 2
v 1 8 2
v 1 9 2
v 2 7 2
v 2 8 2
v 2 9 2
v 2 11 2
v 3 0 2
v 3 2 2
v 3 11 2
v 3 12 2
v 3 14 2
v 3 15 2
v 4 11 2
v 4 14 2
v 4 15 2
v -3 7 1
v -3 8 1
v -3 11 1
v -2 2 1
v -2 3 1
v -2 4 1
v -2 6 1
v -2 7 1
v -2 8 1
v -2 9 1
v -2 11 1
v -1 1 1
v -1 2 1
v -1 3 1
v -1 4 1
v -1 5 1
v -1 6 1
v 0 3 1
v 0 4 1
v 0 5 1
v 0 6 1
v 1 1 1
v 1 2 1
v 2 2 1
v 2 3 1
v 2 4 1
v 2 6 1
v 2 7 1
v 2 8 1
v 2 9 1
v 2 11 1
v 3 7 1
v 3 8 1
v 3 11 1
v -3 3 -0
v -3 6 -0
v -2 3 -0
v -2 4 -0
v -2 6 -0
v 2 3 -0
v 2 4 -0
v 2 6 -0
v 3 3 -0
v 3 6 -0
v -3 0 -2
v -3 2 -2
v -3 3 -2
v -3 6 -2
v -3 7 -2
v -3 8 -2
v -3 11 -2
v -2 2 -2
v -2 3 -2
v -2 4 -2
v -2 6 -2
v -2 7 -2
v -2 8 -2
v -2 11 -2
v -1 0 -2
v -1 1 -2
v -1 2 -2
v 1 0 -2
v 1 1 -2
v 1 2 -2
v 2 2 -2
v 2 3 -2
v 2 4 -2
v 2 6 -2
v 2 7 -2
v 2 8 -2
v 2 11 -2
v 3 0 -2
v 3 2 -2
v 3 3 -2
v 3 6 -2
v 3 7 -2
v 3 8 -2
v 3 11 -2
v -4 11 -3
v -4 12 -3
v -4 15 -3
v -3 11 -3
v -3 12 -3
v -3 14 -3
v -3 15 -3
v -2 7 -3
v -2 8 -3
v -2 11 -3
v 2 7 -3
v 2 8 -3
v 2 11 -3
v 3 11 -3
v 3 12 -3
v 3 15 -3
v 4 11 -3
v 4 12 -3
v 4 15 -3
v -3 11 -4
v -3 14 -4
v -3 15 -4
v -2 12 -4
v -2 14 -4
v -1 12 -4
v -1 14 -4
v 0 12 -4
v 0 14 -4
v 1 12 -4
v 1 14 -4
v 2 12 -4
v 2 14 -4
v 3 11 -4
v 3 12 -4
v 3 15 -4
v -3 0 2
v -1 0 2
v 1 0 2
v 3 0 2
v -3 0 -2
v -1 0 -2
v 1 0 -2
v 3 0 -2
v -1 1 1
v 1 1 1
v -1 1 -2
v 1 1 -2
v -3 3 -0
v -2 3 -0
v 2 3 -0
v 3 3 -0
v -3 3 -2
v -2 3 -2
v 2 3 -2
v 3 3 -2
v -2 7 2
v 2 7 2
v -3 7 1
v -2 7 1
v 2 7 1
v 3 7 1
v -3 7 -2
v -2 7 -2
v 2 7 -2
v 3 7 -2
v -2 7 -3
v 2 7 -3
v -3 11 3
v 3 11 3
v -4 11 2
v -3 11 2
v -2 11 2
v 2 11 2
v 3 11 2
v 4 11 2
v -3 11 1
v -2 11 1
v 2 11 1
v 3 11 1
v -3 11 -2
v -2 11 -2
v 2 11 -2
v 3 11 -2
v -4 11 -3
v -3 11 -3
v -2 11 -3
v 2 11 -3
v 3 11 -3
v 4 11 -3
v -3 11 -4
v 3 11 -4
v -3 2 2
v -1 2 2
v 1 2 2
v 3 2 2
v -2 2 1
v -1 2 1
v 1 2 1
v 2 2 1
v -3 2 -2
v -2 2 -2
v 2 2 -2
v 3 2 -2
v -3 6 -0
v -2 6 -0
v 2 6 -0
v 3 6 -0
v -3 6 -2
v -2 6 -2
v 2 6 -2
v 3 6 -2
v -3 15 3
v 3 15 3
v -4 15 2
v -3 15 2
v 3 15 2
v 4 15 2
v -4 15 -3
v -3 15 -3
v 3 15 -3
v 4 15 -3
v -3 15 -4
v 3 15 -4

# faces
f 3/5/1 2/5/1 1/5/1
f 4/5/1 2/5/1 3/5/1
f 5/5/1 2/5/1 4/5/1
f 6/5/1 2/5/1 5/5/1
f 7/5/1 2/5/1 6/5/1
f 8/5/1 2/5/1 7/5/1
f 9/4/1 4/4/1 3/4/1
f 9/5/1 5/5/1 4/5/1
f 10/4/1 6/4/1 5/4/1
f 10/5/1 5/5/1 9/5/1
f 11/5/1 7/5/1 6/5/1
f 11/4/1 6/4/1 10/4/1
f 12/4/1 8/4/1 7/4/1
f 12/5/1 7/5/1 11/5/1
f 13/4/1 11/4/1 10/4/1
f 13/4/1 9/4/1 3/4/1
f 13/4/1 12/4/1 11/4/1
f 13/4/1 10/4/1 9/4/1
f 14/4/1 8/4/1 12/4/1
f 14/4/1 12/4/1 13/4/1
f 17/2/1 16/2/1 15/2/1
f 18/2/1 16/2/1 17/2/1
f 21/4/1 20/4/1 19/4/1
f 22/4/1 20/4/1 21/4/1
f 25/5/1 24/5/1 23/5/1
f 26/5/1 24/5/1 25/5/1
f 29/4/1 26/4/1 25/4/1
f 30/4/1 26/4/1 29/4/1
f 33/5/1 28/5/1 27/5/1
f 34/5/1 32/5/1 31/5/1
f 35/5/1 33/5/1 27/5/1
f 36/5/1 33/5/1 35/5/1
f 37/5/1 32/5/1 34/5/1
f 38/5/1 32/5/1 37/5/1
f 39/4/1 36/4/1 35/4/1
f 40/4/1 36/4/1 39/4/1
f 41/4/1 38/4/1 37/4/1
f 42/4/1 38/4/1 41/4/1
f 45/4/1 44/4/1 43/4/1
f 46/4/1 44/4/1 45/4/1
f 47/4/1 44/4/1 46/4/1
f 48/5/1 46/5/1 45/5/1
f 49/5/1 46/5/1 48/5/1
f 50/4/1 49/4/1 48/4/1
f 51/4/1 49/4/1 50/4/1
f 54/1/1 51/1/1 50/1/1
f 54/1/1 52/1/1 51/1/1
f 55/1/1 52/1/1 54/1/1
f 57/5/1 54/5/1 53/5/1
f 58/5/1 54/5/1 57/5/1
f 59/5/1 56/5/1 55/5/1
f 60/5/1 56/5/1 59/5/1
f 61/1/1 58/1/1 57/1/1
f 62/1/1 58/1/1 61/1/1
f 63/4/1 62/4/1 61/4/1
f 64/4/1 62/4/1 63/4/1
f 65/4/1 60/4/1 59/4/1
f 66/4/1 60/4/1 65/4/1
f 69/2/1 68/2/1 67/2/1
f 70/2/1 68/2/1 69/2/1
f 71/2/1 69/2/1 67/2/1
f 72/2/1 69/2/1 71/2/1
f 73/2/2 74/2/2 75/2/2
f 75/2/2 74/2/2 76/2/2
f 73/2/2 75/2/2 77/2/2
f 77/2/2 75/2/2 78/2/2
f 79/4/2 80/4/2 81/4/2
f 81/4/2 80/4/2 82/4/2
f 82/4/2 80/4/2 83/4/2
f 81/5/2 82/5/2 84/5/2
f 84/5/2 82/5/2 85/5/2
f 84/4/2 85/4/2 86/4/2
f 86/4/2 85/4/2 87/4/2
f 86/1/2 87/1/2 90/1/2
f 87/1/2 88/1/2 90/1/2
f 90/1/2 88/1/2 91/1/2
f 89/5/2 90/5/2 93/5/2
f 93/5/2 90/5/2 94/5/2
f 91/5/2 92/5/2 95/5/2
f 95/5/2 92/5/2 96/5/2
f 93/1/2 94/1/2 97/1/2
f 97/1/2 94/1/2 98/1/2
f 97/4/2 98/4/2 99/4/2
f 99/4/2 98/4/2 100/4/2
f 95/4/2 96/4/2 101/4/2
f 101/4/2 96/4/2 102/4/2
f 103/2/2 104/2/2 105/2/2
f 105/2/2 104/2/2 106/2/2
f 107/4/2 108/4/2 109/4/2
f 109/4/2 108/4/2 110/4/2
f 111/5/2 112/5/2 113/5/2
f 113/5/2 112/5/2 114/5/2
f 113/4/2 114/4/2 117/4/2
f 117/4/2 114/4/2 118/4/2
f 115/5/2 116/5/2 121/5/2
f 121/5/2 116/5/2 122/5/2
f 119/5/2 120/5/2 123/5/2
f 123/5/2 120/5/2 124/5/2
f 121/4/2 122/4/2 125/4/2
f 121/4/2 125/4/2 126/4/2
f 126/4/2 125/4/2 127/4/2
f 123/4/2 124/4/2 128/4/2
f 128/4/2 124/4/2 129/4/2
f 130/5/2 131/5/2 132/5/2
f 132/5/2 131/5/2 133/5/2
f 133/5/2 131/5/2 134/5/2
f 134/5/2 131/5/2 135/5/2
f 130/5/2 132/5/2 136/5/2
f 132/4/2 133/4/2 137/4/2
f 136/5/2 132/5/2 137/5/2
f 133/5/2 134/5/2 138/5/2
f 137/4/2 133/4/2 138/4/2
f 134/4/2 135/4/2 139/4/2
f 138/5/2 134/5/2 139/5/2
f 136/4/2 137/4/2 140/4/2
f 137/4/2 138/4/2 140/4/2
f 138/4/2 139/4/2 140/4/2
f 139/4/2 135/4/2 141/4/2
f 140/4/2 139/4/2 141/4/2
f 145/5/3 143/5/3 142/5/3
f 146/4/3 144/4/3 143/4/3
f 146/5/3 143/5/3 145/5/3
f 147/5/3 145/5/3 142/5/3
f 147/4/3 146/4/3 145/4/3
f 148/4/3 144/4/3 146/4/3
f 148/4/3 146/4/3 147/4/3
f 149/5/3 147/5/3 142/5/3
f 149/5/3 148/5/3 147/5/3
f 150/4/3 144/4/3 148/4/3
f 150/5/3 148/5/3 149/5/3
f 151/5/3 149/5/3 142/5/3
f 151/4/3 150/4/3 149/4/3
f 152/4/3 144/4/3 150/4/3
f 152/4/3 150/4/3 151/4/3
f 153/5/3 151/5/3 142/5/3
f 153/5/3 152/5/3 151/5/3
f 154/4/3 144/4/3 152/4/3
f 154/5/3 152/5/3 153/5/3
f 155/5/3 153/5/3 142/5/3
f 156/4/3 154/4/3 153/4/3
f 156/5/3 153/5/3 155/5/3
f 157/4/3 144/4/3 154/4/3
f 157/4/3 154/4/3 156/4/3
f 163/5/3 159/5/3 158/5/3
f 164/4/3 160/4/3 159/4/3
f 164/5/3 159/5/3 163/5/3
f 165/4/3 160/4/3 164/4/3
f 166/4/3 160/4/3 165/4/3
f 171/2/3 162/2/3 161/2/3
f 172/2/3 162/2/3 171/2/3
f 173/5/3 168/5/3 167/5/3
f 173/1/3 169/1/3 168/1/3
f 174/4/3 170/4/3 169/4/3
f 174/1/3 169/1/3 173/1/3
f 177/5/3 173/5/3 167/5/3
f 177/4/3 174/4/3 173/4/3
f 178/4/3 170/4/3 174/4/3
f 178/4/3 174/4/3 177/4/3
f 179/5/3 177/5/3 167/5/3
f 180/1/3 178/1/3 177/1/3
f 180/5/3 177/5/3 179/5/3
f 181/4/3 170/4/3 178/4/3
f 181/1/3 178/1/3 180/1/3
f 182/4/3 170/4/3 181/4/3
f 183/2/3 176/2/3 175/2/3
f 184/2/3 176/2/3 183/2/3
f 189/5/3 186/5/3 185/5/3
f 189/5/3 187/5/3 186/5/3
f 190/4/3 188/4/3 187/4/3
f 190/5/3 187/5/3 189/5/3
f 191/4/3 188/4/3 190/4/3
f 199/5/3 193/5/3 192/5/3
f 200/4/3 194/4/3 193/4/3
f 200/5/3 193/5/3 199/5/3
f 201/4/3 194/4/3 200/4/3
f 202/4/3 194/4/3 201/4/3
f 204/4/3 196/4/3 195/4/3
f 205/5/3 197/5/3 196/5/3
f 205/4/3 196/4/3 204/4/3
f 206/4/3 198/4/3 197/4/3
f 206/5/3 197/5/3 205/5/3
f 207/4/3 198/4/3 206/4/3
f 208/1/3 199/1/3 198/1/3
f 208/4/3 198/4/3 207/4/3
f 209/4/3 205/4/3 204/4/3
f 209/4/3 204/4/3 203/4/3
f 209/6/3 206/6/3 205/6/3
f 210/4/3 207/4/3 206/4/3
f 210/6/3 206/6/3 209/6/3
f 211/6/3 208/6/3 207/6/3
f 211/4/3 207/4/3 210/4/3
f 212/1/3 199/1/3 208/1/3
f 212/6/3 208/6/3 211/6/3
f 213/4/3 209/4/3 203/4/3
f 214/4/3 209/4/3 213/4/3
f 215/4/3 209/4/3 214/4/3
f 216/5/3 210/5/3 209/5/3
f 216/4/3 209/4/3 215/4/3
f 217/4/3 211/4/3 210/4/3
f 217/5/3 210/5/3 216/5/3
f 217/4/3 212/4/3 211/4/3
f 218/1/3 199/1/3 212/1/3
f 218/4/3 212/4/3 217/4/3
f 219/1/3 199/1/3 218/1/3
f 223/5/3 220/5/3 219/5/3
f 224/4/3 222/4/3 221/4/3
f 224/5/3 220/5/3 223/5/3
f 224/4/3 221/4/3 220/4/3
f 225/4/3 222/4/3 224/4/3
f 228/4/3 227/4/3 226/4/3
f 229/4/3 227/4/3 228/4/3
f 230/4/3 227/4/3 229/4/3
f 234/4/3 232/4/3 231/4/3
f 234/4/3 233/4/3 232/4/3
f 235/4/3 233/4/3 234/4/3
f 236/2/4 237/2/4 243/2/4
f 238/4/4 239/4/4 244/4/4
f 244/4/4 239/4/4 245/4/4
f 245/4/4 239/4/4 246/4/4
f 240/5/4 241/5/4 247/5/4
f 241/4/4 242/4/4 248/4/4
f 247/5/4 241/5/4 248/5/4
f 248/4/4 242/4/4 249/4/4
f 236/2/4 243/2/4 250/2/4
f 250/2/4 243/2/4 251/2/4
f 243/4/4 244/4/4 252/4/4
f 251/2/4 243/2/4 252/2/4
f 251/4/4 252/4/4 254/4/4
f 252/4/4 244/4/4 255/4/4
f 254/4/4 252/4/4 255/4/4
f 253/2/4 254/2/4 256/2/4
f 255/4/4 244/4/4 256/4/4
f 254/2/4 255/2/4 256/2/4
f 244/5/4 245/5/4 257/5/4
f 256/4/4 244/4/4 257/4/4
f 245/4/4 246/4/4 258/4/4
f 257/5/4 245/5/4 258/5/4
f 246/1/4 247/1/4 259/1/4
f 258/4/4 246/4/4 259/4/4
f 259/1/4 247/1/4 260/1/4
f 253/2/4 256/2/4 263/2/4
f 263/2/4 256/2/4 264/2/4
f 257/4/4 258/4/4 265/4/4
f 258/4/4 259/4/4 265/4/4
f 265/4/4 259/4/4 266/4/4
f 260/5/4 261/5/4 267/5/4
f 261/4/4 262/4/4 268/4/4
f 267/5/4 261/5/4 268/5/4
f 268/4/4 262/4/4 269/4/4
f 270/5/4 271/5/4 273/5/4
f 271/4/4 272/4/4 274/4/4
f 273/5/4 271/5/4 274/5/4
f 274/4/4 272/4/4 275/4/4
f 275/4/4 272/4/4 276/4/4
f 277/5/4 278/5/4 280/5/4
f 278/4/4 279/4/4 281/4/4
f 280/5/4 278/5/4 281/5/4
f 281/4/4 279/4/4 282/4/4
f 283/5/4 284/5/4 286/5/4
f 284/4/4 285/4/4 287/4/4
f 286/5/4 284/5/4 287/5/4
f 287/4/4 285/4/4 288/4/4
f 289/5/4 290/5/4 292/5/4
f 290/4/4 291/4/4 293/4/4
f 292/5/4 290/5/4 293/5/4
f 289/5/4 292/5/4 294/5/4
f 292/4/4 293/4/4 294/4/4
f 293/4/4 291/4/4 295/4/4
f 294/4/4 293/4/4 295/4/4
f 289/5/4 294/5/4 296/5/4
f 294/5/4 295/5/4 296/5/4
f 295/4/4 291/4/4 297/4/4
f 296/5/4 295/5/4 297/5/4
f 289/5/4 296/5/4 298/5/4
f 296/4/4 297/4/4 298/4/4
f 297/4/4 291/4/4 299/4/4
f 298/4/4 297/4/4 299/4/4
f 289/5/4 298/5/4 300/5/4
f 298/5/4 299/5/4 300/5/4
f 299/4/4 291/4/4 301/4/4
f 300/5/4 299/5/4 301/5/4
f 289/5/4 300/5/4 302/5/4
f 300/4/4 301/4/4 303/4/4
f 302/5/4 300/5/4 303/5/4
f 301/4/4 291/4/4 304/4/4
f 303/4/4 301/4/4 304/4/4
f 309/2/5 306/2/5 305/2/5
f 310/2/5 306/2/5 309/2/5
f 311/2/5 308/2/5 307/2/5
f 312/2/5 308/2/5 311/2/5
f 315/4/5 314/4/5 313/4/5
f 316/4/5 314/4/5 315/4/5
f 321/4/5 318/4/5 317/4/5
f 322/4/5 318/4/5 321/4/5
f 323/4/5 320/4/5 319/4/5
f 324/4/5 320/4/5 323/4/5
f 328/5/5 326/5/5 325/5/5
f 329/5/5 326/5/5 328/5/5
f 331/5/5 328/5/5 327/5/5
f 332/5/5 328/5/5 331/5/5
f 333/5/5 330/5/5 329/5/5
f 334/5/5 330/5/5 333/5/5
f 335/5/5 333/5/5 332/5/5
f 336/5/5 333/5/5 335/5/5
f 340/5/5 338/5/5 337/5/5
f 341/5/5 338/5/5 340/5/5
f 342/5/5 338/5/5 341/5/5
f 343/5/5 338/5/5 342/5/5
f 345/5/5 340/5/5 339/5/5
f 345/5/5 341/5/5 340/5/5
f 346/5/5 341/5/5 345/5/5
f 347/5/5 344/5/5 343/5/5
f 347/5/5 343/5/5 342/5/5
f 348/5/5 344/5/5 347/5/5
f 349/5/5 345/5/5 339/5/5
f 352/5/5 344/5/5 348/5/5
f 353/5/5 350/5/5 349/5/5
f 353/5/5 349/5/5 339/5/5
f 354/5/5 350/5/5 353/5/5
f 355/5/5 350/5/5 354/5/5
f 356/5/5 352/5/5 351/5/5
f 357/5/5 344/5/5 352/5/5
f 357/5/5 352/5/5 356/5/5
f 358/5/5 344/5/5 357/5/5
f 359/5/5 355/5/5 354/5/5
f 359/5/5 356/5/5 355/5/5
f 359/5/5 357/5/5 356/5/5
f 360/5/5 357/5/5 359/5/5
f 361/2/6 362/2/6 365/2/6
f 365/2/6 362/2/6 366/2/6
f 363/2/6 364/2/6 367/2/6
f 367/2/6 364/2/6 368/2/6
f 361/2/6 365/2/6 369/2/6
f 369/2/6 365/2/6 370/2/6
f 368/2/6 364/2/6 371/2/6
f 371/2/6 364/2/6 372/2/6
f 373/4/6 374/4/6 377/4/6
f 377/4/6 374/4/6 378/4/6
f 375/4/6 376/4/6 379/4/6
f 379/4/6 376/4/6 380/4/6
f 381/4/6 382/4/6 384/4/6
f 384/4/6 382/4/6 385/4/6
f 383/4/6 384/4/6 387/4/6
f 385/4/6 386/4/6 387/4/6
f 384/4/6 385/4/6 387/4/6
f 387/4/6 386/4/6 388/4/6
f 388/4/6 386/4/6 389/4/6
f 389/4/6 386/4/6 390/4/6
f 388/4/6 389/4/6 391/4/6
f 391/4/6 389/4/6 392/4/6
