# MagicaVoxel @ Ephtracy

# group
g cuttingboard

# material
mtllib cuttingboard.mtl
usemtl palette

# normals
vn -1 0 0
vn 1 0 0
vn 0 0 1
vn 0 0 -1
vn 0 -1 0
vn 0 1 0

# texcoords
vt 0.267578 0.5
vt 0.271484 0.5
vt 0.298828 0.5

# verts
v -7 0 7
v -7 0 3
v -7 0 -4
v -7 0 -6
v -7 0 -7
v -7 1 7
v -7 1 3
v -7 1 -4
v -7 1 -6
v -7 1 -7
v 7 0 7
v 7 0 3
v 7 0 -1
v 7 0 -7
v 7 1 7
v 7 1 3
v 7 1 -1
v 7 1 -7
v -7 0 7
v -7 1 7
v -6 0 7
v -6 1 7
v -4 0 7
v -4 1 7
v -3 0 7
v -3 1 7
v -2 0 7
v -2 1 7
v -1 0 7
v -1 1 7
v 0 0 7
v 0 1 7
v 1 0 7
v 1 1 7
v 5 0 7
v 5 1 7
v 6 0 7
v 6 1 7
v 7 0 7
v 7 1 7
v -7 0 -7
v -7 1 -7
v -6 0 -7
v -6 1 -7
v -5 0 -7
v -5 1 -7
v 0 0 -7
v 0 1 -7
v 1 0 -7
v 1 1 -7
v 5 0 -7
v 5 1 -7
v 6 0 -7
v 6 1 -7
v 7 0 -7
v 7 1 -7
v -7 0 7
v -6 0 7
v -4 0 7
v -3 0 7
v -2 0 7
v -1 0 7
v 0 0 7
v 1 0 7
v 5 0 7
v 6 0 7
v 7 0 7
v 0 0 6
v 1 0 6
v 2 0 6
v 3 0 6
v -5 0 4
v -4 0 4
v -2 0 4
v -1 0 4
v 1 0 4
v 2 0 4
v -7 0 3
v -6 0 3
v -1 0 3
v 0 0 3
v 2 0 3
v 3 0 3
v 6 0 3
v 7 0 3
v 3 0 2
v 4 0 2
v 5 0 2
v 6 0 2
v -6 0 1
v -5 0 1
v -2 0 1
v -1 0 1
v 2 0 1
v 3 0 1
v -4 0 -1
v -3 0 -1
v 1 0 -1
v 2 0 -1
v 5 0 -1
v 6 0 -1
v 7 0 -1
v -3 0 -2
v -2 0 -2
v -1 0 -2
v 0 0 -2
v -5 0 -3
v -4 0 -3
v -7 0 -4
v -6 0 -4
v -2 0 -4
v -1 0 -4
v 0 0 -5
v 1 0 -5
v 2 0 -5
v 3 0 -5
v -7 0 -6
v -6 0 -6
v -3 0 -6
v -2 0 -6
v 3 0 -6
v 4 0 -6
v -7 0 -7
v -6 0 -7
v -5 0 -7
v 0 0 -7
v 1 0 -7
v 5 0 -7
v 6 0 -7
v 7 0 -7
v -7 1 7
v -6 1 7
v -4 1 7
v -3 1 7
v -2 1 7
v -1 1 7
v 0 1 7
v 1 1 7
v 5 1 7
v 6 1 7
v 7 1 7
v 0 1 6
v 1 1 6
v 2 1 6
v 3 1 6
v -5 1 4
v -4 1 4
v -2 1 4
v -1 1 4
v 1 1 4
v 2 1 4
v -7 1 3
v -6 1 3
v -1 1 3
v 0 1 3
v 2 1 3
v 3 1 3
v 6 1 3
v 7 1 3
v 3 1 2
v 4 1 2
v 5 1 2
v 6 1 2
v -6 1 1
v -5 1 1
v -2 1 1
v -1 1 1
v 2 1 1
v 3 1 1
v -4 1 -1
v -3 1 -1
v 1 1 -1
v 2 1 -1
v 5 1 -1
v 6 1 -1
v 7 1 -1
v -3 1 -2
v -2 1 -2
v -1 1 -2
v 0 1 -2
v -5 1 -3
v -4 1 -3
v -7 1 -4
v -6 1 -4
v -2 1 -4
v -1 1 -4
v 0 1 -5
v 1 1 -5
v 2 1 -5
v 3 1 -5
v -7 1 -6
v -6 1 -6
v -3 1 -6
v -2 1 -6
v 3 1 -6
v 4 1 -6
v -7 1 -7
v -6 1 -7
v -5 1 -7
v 0 1 -7
v 1 1 -7
v 5 1 -7
v 6 1 -7
v 7 1 -7

# faces
f 6/3/1 2/3/1 1/3/1
f 7/1/1 3/1/1 2/1/1
f 7/3/1 2/3/1 6/3/1
f 8/3/1 4/3/1 3/3/1
f 8/1/1 3/1/1 7/1/1
f 9/1/1 5/1/1 4/1/1
f 9/3/1 4/3/1 8/3/1
f 10/1/1 5/1/1 9/1/1
f 11/1/2 12/1/2 15/1/2
f 12/3/2 13/3/2 16/3/2
f 15/1/2 12/1/2 16/1/2
f 13/1/2 14/1/2 17/1/2
f 16/3/2 13/3/2 17/3/2
f 17/1/2 14/1/2 18/1/2
f 21/3/3 20/3/3 19/3/3
f 22/3/3 20/3/3 21/3/3
f 23/1/3 22/1/3 21/1/3
f 24/1/3 22/1/3 23/1/3
f 25/2/3 24/2/3 23/2/3
f 26/2/3 24/2/3 25/2/3
f 27/1/3 26/1/3 25/1/3
f 28/1/3 26/1/3 27/1/3
f 29/3/3 28/3/3 27/3/3
f 30/3/3 28/3/3 29/3/3
f 31/1/3 30/1/3 29/1/3
f 32/1/3 30/1/3 31/1/3
f 33/2/3 32/2/3 31/2/3
f 34/2/3 32/2/3 33/2/3
f 35/1/3 34/1/3 33/1/3
f 36/1/3 34/1/3 35/1/3
f 37/2/3 36/2/3 35/2/3
f 38/2/3 36/2/3 37/2/3
f 39/1/3 38/1/3 37/1/3
f 40/1/3 38/1/3 39/1/3
f 41/1/4 42/1/4 43/1/4
f 43/1/4 42/1/4 44/1/4
f 43/2/4 44/2/4 45/2/4
f 45/2/4 44/2/4 46/2/4
f 45/1/4 46/1/4 47/1/4
f 47/1/4 46/1/4 48/1/4
f 47/3/4 48/3/4 49/3/4
f 49/3/4 48/3/4 50/3/4
f 49/1/4 50/1/4 51/1/4
f 51/1/4 50/1/4 52/1/4
f 51/3/4 52/3/4 53/3/4
f 53/3/4 52/3/4 54/3/4
f 53/1/4 54/1/4 55/1/4
f 55/1/4 54/1/4 56/1/4
f 68/1/5 63/1/5 62/1/5
f 68/2/5 64/2/5 63/2/5
f 69/1/5 65/1/5 64/1/5
f 69/2/5 64/2/5 68/2/5
f 70/1/5 65/1/5 69/1/5
f 71/1/5 65/1/5 70/1/5
f 72/1/5 59/1/5 58/1/5
f 73/2/5 60/2/5 59/2/5
f 73/1/5 59/1/5 72/1/5
f 74/1/5 61/1/5 60/1/5
f 74/3/5 62/3/5 61/3/5
f 75/1/5 68/1/5 62/1/5
f 75/3/5 62/3/5 74/3/5
f 75/1/5 69/1/5 68/1/5
f 75/1/5 70/1/5 69/1/5
f 76/1/5 70/1/5 75/1/5
f 77/3/5 71/3/5 70/3/5
f 77/1/5 70/1/5 76/1/5
f 78/3/5 58/3/5 57/3/5
f 79/1/5 72/1/5 58/1/5
f 79/3/5 58/3/5 78/3/5
f 80/1/5 76/1/5 75/1/5
f 80/1/5 75/1/5 74/1/5
f 81/1/5 76/1/5 80/1/5
f 82/3/5 71/3/5 77/3/5
f 82/2/5 77/2/5 76/2/5
f 83/1/5 65/1/5 71/1/5
f 83/3/5 71/3/5 82/3/5
f 84/1/5 67/1/5 66/1/5
f 84/2/5 66/2/5 65/2/5
f 85/1/5 67/1/5 84/1/5
f 86/1/5 65/1/5 83/1/5
f 86/1/5 83/1/5 82/1/5
f 87/1/5 65/1/5 86/1/5
f 88/2/5 84/2/5 65/2/5
f 88/1/5 65/1/5 87/1/5
f 89/3/5 85/3/5 84/3/5
f 89/2/5 84/2/5 88/2/5
f 90/1/5 72/1/5 79/1/5
f 90/1/5 79/1/5 78/1/5
f 91/3/5 73/3/5 72/3/5
f 91/1/5 72/1/5 90/1/5
f 92/1/5 74/1/5 60/1/5
f 92/1/5 80/1/5 74/1/5
f 93/3/5 81/3/5 80/3/5
f 93/1/5 80/1/5 92/1/5
f 94/2/5 82/2/5 76/2/5
f 94/1/5 86/1/5 82/1/5
f 95/2/5 87/2/5 86/2/5
f 95/1/5 86/1/5 94/1/5
f 96/2/5 60/2/5 73/2/5
f 96/3/5 73/3/5 91/3/5
f 97/1/5 92/1/5 60/1/5
f 97/2/5 60/2/5 96/2/5
f 98/1/5 76/1/5 81/1/5
f 98/2/5 94/2/5 76/2/5
f 99/3/5 95/3/5 94/3/5
f 99/2/5 94/2/5 98/2/5
f 100/1/5 88/1/5 87/1/5
f 100/1/5 89/1/5 88/1/5
f 101/3/5 85/3/5 89/3/5
f 101/1/5 89/1/5 100/1/5
f 102/3/5 85/3/5 101/3/5
f 103/1/5 92/1/5 97/1/5
f 103/1/5 97/1/5 96/1/5
f 104/2/5 93/2/5 92/2/5
f 104/1/5 92/1/5 103/1/5
f 105/3/5 81/3/5 93/3/5
f 105/2/5 93/2/5 104/2/5
f 106/1/5 98/1/5 81/1/5
f 106/3/5 81/3/5 105/3/5
f 106/1/5 99/1/5 98/1/5
f 107/3/5 96/3/5 91/3/5
f 107/2/5 91/2/5 90/2/5
f 108/1/5 103/1/5 96/1/5
f 108/3/5 96/3/5 107/3/5
f 109/1/5 90/1/5 78/1/5
f 110/2/5 107/2/5 90/2/5
f 110/1/5 90/1/5 109/1/5
f 111/3/5 104/3/5 103/3/5
f 111/2/5 105/2/5 104/2/5
f 112/1/5 106/1/5 105/1/5
f 112/2/5 105/2/5 111/2/5
f 113/1/5 99/1/5 106/1/5
f 113/1/5 106/1/5 112/1/5
f 113/1/5 112/1/5 111/1/5
f 114/1/5 99/1/5 113/1/5
f 115/3/5 95/3/5 99/3/5
f 115/1/5 99/1/5 114/1/5
f 116/2/5 87/2/5 95/2/5
f 116/3/5 95/3/5 115/3/5
f 117/3/5 110/3/5 109/3/5
f 118/2/5 107/2/5 110/2/5
f 118/3/5 110/3/5 117/3/5
f 119/1/5 103/1/5 108/1/5
f 119/1/5 108/1/5 107/1/5
f 119/3/5 111/3/5 103/3/5
f 120/1/5 113/1/5 111/1/5
f 120/3/5 111/3/5 119/3/5
f 121/1/5 115/1/5 114/1/5
f 121/2/5 87/2/5 116/2/5
f 121/1/5 116/1/5 115/1/5
f 122/1/5 100/1/5 87/1/5
f 122/2/5 87/2/5 121/2/5
f 123/1/5 118/1/5 117/1/5
f 124/2/5 107/2/5 118/2/5
f 124/1/5 118/1/5 123/1/5
f 125/1/5 120/1/5 119/1/5
f 125/2/5 107/2/5 124/2/5
f 125/1/5 119/1/5 107/1/5
f 126/1/5 113/1/5 120/1/5
f 126/1/5 120/1/5 125/1/5
f 126/3/5 114/3/5 113/3/5
f 127/1/5 121/1/5 114/1/5
f 127/3/5 114/3/5 126/3/5
f 127/1/5 122/1/5 121/1/5
f 128/3/5 101/3/5 100/3/5
f 128/1/5 122/1/5 127/1/5
f 128/1/5 100/1/5 122/1/5
f 129/1/5 102/1/5 101/1/5
f 129/3/5 101/3/5 128/3/5
f 130/1/5 102/1/5 129/1/5
f 136/1/6 137/1/6 142/1/6
f 137/2/6 138/2/6 142/2/6
f 138/1/6 139/1/6 143/1/6
f 142/2/6 138/2/6 143/2/6
f 143/1/6 139/1/6 144/1/6
f 144/1/6 139/1/6 145/1/6
f 132/1/6 133/1/6 146/1/6
f 133/2/6 134/2/6 147/2/6
f 146/1/6 133/1/6 147/1/6
f 134/1/6 135/1/6 148/1/6
f 135/3/6 136/3/6 148/3/6
f 136/1/6 142/1/6 149/1/6
f 148/3/6 136/3/6 149/3/6
f 142/1/6 143/1/6 149/1/6
f 143/1/6 144/1/6 149/1/6
f 149/1/6 144/1/6 150/1/6
f 144/3/6 145/3/6 151/3/6
f 150/1/6 144/1/6 151/1/6
f 131/3/6 132/3/6 152/3/6
f 132/1/6 146/1/6 153/1/6
f 152/3/6 132/3/6 153/3/6
f 149/1/6 150/1/6 154/1/6
f 148/1/6 149/1/6 154/1/6
f 154/1/6 150/1/6 155/1/6
f 151/3/6 145/3/6 156/3/6
f 150/2/6 151/2/6 156/2/6
f 145/1/6 139/1/6 157/1/6
f 156/3/6 145/3/6 157/3/6
f 140/1/6 141/1/6 158/1/6
f 139/2/6 140/2/6 158/2/6
f 158/1/6 141/1/6 159/1/6
f 157/1/6 139/1/6 160/1/6
f 156/1/6 157/1/6 160/1/6
f 160/1/6 139/1/6 161/1/6
f 139/2/6 158/2/6 162/2/6
f 161/1/6 139/1/6 162/1/6
f 158/3/6 159/3/6 163/3/6
f 162/2/6 158/2/6 163/2/6
f 153/1/6 146/1/6 164/1/6
f 152/1/6 153/1/6 164/1/6
f 146/3/6 147/3/6 165/3/6
f 164/1/6 146/1/6 165/1/6
f 134/1/6 148/1/6 166/1/6
f 148/1/6 154/1/6 166/1/6
f 154/3/6 155/3/6 167/3/6
f 166/1/6 154/1/6 167/1/6
f 150/2/6 156/2/6 168/2/6
f 156/1/6 160/1/6 168/1/6
f 160/2/6 161/2/6 169/2/6
f 168/1/6 160/1/6 169/1/6
f 147/2/6 134/2/6 170/2/6
f 165/3/6 147/3/6 170/3/6
f 134/1/6 166/1/6 171/1/6
f 170/2/6 134/2/6 171/2/6
f 155/1/6 150/1/6 172/1/6
f 150/2/6 168/2/6 172/2/6
f 168/3/6 169/3/6 173/3/6
f 172/2/6 168/2/6 173/2/6
f 161/1/6 162/1/6 174/1/6
f 162/1/6 163/1/6 174/1/6
f 163/3/6 159/3/6 175/3/6
f 174/1/6 163/1/6 175/1/6
f 175/3/6 159/3/6 176/3/6
f 171/1/6 166/1/6 177/1/6
f 170/1/6 171/1/6 177/1/6
f 166/2/6 167/2/6 178/2/6
f 177/1/6 166/1/6 178/1/6
f 167/3/6 155/3/6 179/3/6
f 178/2/6 167/2/6 179/2/6
f 155/1/6 172/1/6 180/1/6
f 179/3/6 155/3/6 180/3/6
f 172/1/6 173/1/6 180/1/6
f 165/3/6 170/3/6 181/3/6
f 164/2/6 165/2/6 181/2/6
f 170/1/6 177/1/6 182/1/6
f 181/3/6 170/3/6 182/3/6
f 152/1/6 164/1/6 183/1/6
f 164/2/6 181/2/6 184/2/6
f 183/1/6 164/1/6 184/1/6
f 177/3/6 178/3/6 185/3/6
f 178/2/6 179/2/6 185/2/6
f 179/1/6 180/1/6 186/1/6
f 185/2/6 179/2/6 186/2/6
f 180/1/6 173/1/6 187/1/6
f 186/1/6 180/1/6 187/1/6
f 185/1/6 186/1/6 187/1/6
f 187/1/6 173/1/6 188/1/6
f 173/3/6 169/3/6 189/3/6
f 188/1/6 173/1/6 189/1/6
f 169/2/6 161/2/6 190/2/6
f 189/3/6 169/3/6 190/3/6
f 183/3/6 184/3/6 191/3/6
f 184/2/6 181/2/6 192/2/6
f 191/3/6 184/3/6 192/3/6
f 182/1/6 177/1/6 193/1/6
f 181/1/6 182/1/6 193/1/6
f 177/3/6 185/3/6 193/3/6
f 185/1/6 187/1/6 194/1/6
f 193/3/6 185/3/6 194/3/6
f 188/1/6 189/1/6 195/1/6
f 190/2/6 161/2/6 195/2/6
f 189/1/6 190/1/6 195/1/6
f 161/1/6 174/1/6 196/1/6
f 195/2/6 161/2/6 196/2/6
f 191/1/6 192/1/6 197/1/6
f 192/2/6 181/2/6 198/2/6
f 197/1/6 192/1/6 198/1/6
f 193/1/6 194/1/6 199/1/6
f 198/2/6 181/2/6 199/2/6
f 181/1/6 193/1/6 199/1/6
f 194/1/6 187/1/6 200/1/6
f 199/1/6 194/1/6 200/1/6
f 187/3/6 188/3/6 200/3/6
f 188/1/6 195/1/6 201/1/6
f 200/3/6 188/3/6 201/3/6
f 195/1/6 196/1/6 201/1/6
f 174/3/6 175/3/6 202/3/6
f 201/1/6 196/1/6 202/1/6
f 196/1/6 174/1/6 202/1/6
f 175/1/6 176/1/6 203/1/6
f 202/3/6 175/3/6 203/3/6
f 203/1/6 176/1/6 204/1/6
