# MagicaVoxel @ Ephtracy

# group
g fishman

# material
mtllib fishman.mtl
usemtl palette

# normals
vn -1 0 0
vn 1 0 0
vn 0 0 1
vn 0 0 -1
vn 0 -1 0
vn 0 1 0

# texcoords
vt 0.279297 0.5
vt 0.615234 0.5
vt 0.638672 0.5
vt 0.685547 0.5
vt 0.779297 0.5
vt 0.873047 0.5
vt 0.896484 0.5
vt 0.962891 0.5
vt 0.990234 0.5

# verts
v -4 7 -1
v -4 7 -2
v -4 8 -1
v -4 8 -2
v -3 2 -0
v -3 2 -1
v -3 3 -0
v -3 3 -1
v -3 4 3
v -3 4 2
v -3 5 -0
v -3 5 -1
v -3 7 3
v -3 7 2
v -3 7 -0
v -3 7 -1
v -3 8 -0
v -3 8 -1
v -2 0 1
v -2 0 -2
v -2 1 1
v -2 1 -2
v -2 2 -0
v -2 2 -1
v -2 3 1
v -2 3 -0
v -2 3 -1
v -2 3 -2
v -2 5 2
v -2 5 1
v -2 5 -0
v -2 5 -1
v -2 5 -2
v -2 6 -2
v -2 6 -3
v -2 7 2
v -2 7 -0
v -2 7 -2
v -2 8 2
v -2 8 1
v -2 8 -0
v -2 8 -2
v -2 9 2
v -2 9 1
v -2 9 -0
v -2 9 -2
v -2 9 -3
v -2 10 1
v -2 10 -2
v -1 5 -2
v -1 5 -4
v -1 6 -2
v -1 6 -3
v -1 7 3
v -1 7 2
v -1 8 2
v -1 9 3
v -1 9 2
v -1 9 1
v -1 9 -2
v -1 9 -3
v -1 10 2
v -1 10 1
v -1 10 -2
v -1 10 -3
v -1 10 -4
v -1 11 -2
v -1 11 -3
v -1 12 1
v -1 12 -2
v 1 5 3
v 1 5 2
v 1 6 3
v 1 6 2
v 2 4 3
v 2 4 2
v 2 5 3
v 2 5 2
v -2 4 3
v -2 4 2
v -2 5 3
v -2 5 2
v -1 5 3
v -1 5 2
v -1 6 3
v -1 6 2
v 1 5 -2
v 1 5 -4
v 1 6 -2
v 1 6 -3
v 1 7 3
v 1 7 2
v 1 8 2
v 1 9 3
v 1 9 2
v 1 9 1
v 1 9 -2
v 1 9 -3
v 1 10 2
v 1 10 1
v 1 10 -2
v 1 10 -3
v 1 10 -4
v 1 11 -2
v 1 11 -3
v 1 12 1
v 1 12 -2
v 2 0 1
v 2 0 -2
v 2 1 1
v 2 1 -2
v 2 2 -0
v 2 2 -1
v 2 3 1
v 2 3 -0
v 2 3 -1
v 2 3 -2
v 2 5 2
v 2 5 1
v 2 5 -0
v 2 5 -1
v 2 5 -2
v 2 6 -2
v 2 6 -3
v 2 7 2
v 2 7 -0
v 2 7 -2
v 2 8 2
v 2 8 1
v 2 8 -0
v 2 8 -2
v 2 9 2
v 2 9 1
v 2 9 -0
v 2 9 -2
v 2 9 -3
v 2 10 1
v 2 10 -2
v 3 2 -0
v 3 2 -1
v 3 3 -0
v 3 3 -1
v 3 4 3
v 3 4 2
v 3 5 -0
v 3 5 -1
v 3 7 3
v 3 7 2
v 3 7 -0
v 3 7 -1
v 3 8 -0
v 3 8 -1
v 4 7 -1
v 4 7 -2
v 4 8 -1
v 4 8 -2
v -3 4 3
v -3 7 3
v -2 4 3
v -2 5 3
v -2 6 3
v -1 5 3
v -1 6 3
v -1 7 3
v -1 9 3
v 1 5 3
v 1 6 3
v 1 7 3
v 1 9 3
v 2 4 3
v 2 5 3
v 2 6 3
v 3 4 3
v 3 7 3
v -2 7 2
v -2 8 2
v -2 9 2
v -1 5 2
v -1 6 2
v -1 7 2
v -1 8 2
v -1 9 2
v -1 10 2
v 1 5 2
v 1 6 2
v 1 7 2
v 1 8 2
v 1 9 2
v 1 10 2
v 2 7 2
v 2 8 2
v 2 9 2
v -2 0 1
v -2 1 1
v -2 3 1
v -2 5 1
v -2 9 1
v -2 10 1
v -1 9 1
v -1 10 1
v -1 12 1
v 1 9 1
v 1 10 1
v 1 12 1
v 2 0 1
v 2 1 1
v 2 3 1
v 2 5 1
v 2 9 1
v 2 10 1
v -3 2 -0
v -3 3 -0
v -3 5 -0
v -3 7 -0
v -3 8 -0
v -2 2 -0
v -2 3 -0
v -2 5 -0
v -2 7 -0
v -2 8 -0
v 2 2 -0
v 2 3 -0
v 2 5 -0
v 2 7 -0
v 2 8 -0
v 3 2 -0
v 3 3 -0
v 3 5 -0
v 3 7 -0
v 3 8 -0
v -4 7 -1
v -4 8 -1
v -3 7 -1
v -3 8 -1
v 3 7 -1
v 3 8 -1
v 4 7 -1
v 4 8 -1
v -3 4 2
v -3 7 2
v -2 4 2
v -2 5 2
v -2 7 2
v 2 4 2
v 2 5 2
v 2 7 2
v 3 4 2
v 3 7 2
v -3 2 -1
v -3 3 -1
v -3 5 -1
v -2 2 -1
v -2 3 -1
v -2 5 -1
v 2 2 -1
v 2 3 -1
v 2 5 -1
v 3 2 -1
v 3 3 -1
v 3 5 -1
v -4 7 -2
v -4 8 -2
v -2 0 -2
v -2 1 -2
v -2 3 -2
v -2 5 -2
v -2 6 -2
v -2 7 -2
v -2 8 -2
v -2 9 -2
v -2 10 -2
v -1 5 -2
v -1 6 -2
v -1 9 -2
v -1 10 -2
v -1 11 -2
v -1 12 -2
v 1 5 -2
v 1 6 -2
v 1 9 -2
v 1 10 -2
v 1 11 -2
v 1 12 -2
v 2 0 -2
v 2 1 -2
v 2 3 -2
v 2 5 -2
v 2 6 -2
v 2 7 -2
v 2 8 -2
v 2 9 -2
v 2 10 -2
v 4 7 -2
v 4 8 -2
v -2 6 -3
v -2 9 -3
v -1 6 -3
v -1 9 -3
v -1 10 -3
v -1 11 -3
v 1 6 -3
v 1 9 -3
v 1 10 -3
v 1 11 -3
v 2 6 -3
v 2 9 -3
v -1 5 -4
v -1 10 -4
v 1 5 -4
v 1 10 -4
v -2 0 1
v 2 0 1
v -2 0 -2
v 2 0 -2
v -3 2 -0
v -2 2 -0
v 2 2 -0
v 3 2 -0
v -3 2 -1
v -2 2 -1
v 2 2 -1
v 3 2 -1
v -3 4 3
v -2 4 3
v 2 4 3
v 3 4 3
v -3 4 2
v -2 4 2
v 2 4 2
v 3 4 2
v -2 5 3
v -1 5 3
v 1 5 3
v 2 5 3
v -2 5 2
v -1 5 2
v 1 5 2
v 2 5 2
v -2 5 1
v 2 5 1
v -1 5 -2
v 1 5 -2
v -1 5 -4
v 1 5 -4
v -1 6 3
v 1 6 3
v -1 6 2
v 1 6 2
v -2 6 -2
v -1 6 -2
v 1 6 -2
v 2 6 -2
v -2 6 -3
v -1 6 -3
v 1 6 -3
v 2 6 -3
v -3 7 -0
v -2 7 -0
v 2 7 -0
v 3 7 -0
v -4 7 -1
v -3 7 -1
v 3 7 -1
v 4 7 -1
v -4 7 -2
v -2 7 -2
v 2 7 -2
v 4 7 -2
v -3 5 -0
v -2 5 -0
v 2 5 -0
v 3 5 -0
v -3 5 -1
v -2 5 -1
v 2 5 -1
v 3 5 -1
v -3 7 3
v -1 7 3
v 1 7 3
v 3 7 3
v -3 7 2
v -2 7 2
v -1 7 2
v 1 7 2
v 2 7 2
v 3 7 2
v -3 8 -0
v -2 8 -0
v 2 8 -0
v 3 8 -0
v -4 8 -1
v -3 8 -1
v 3 8 -1
v 4 8 -1
v -4 8 -2
v -2 8 -2
v 2 8 -2
v 4 8 -2
v -1 9 3
v 1 9 3
v -2 9 2
v -1 9 2
v 1 9 2
v 2 9 2
v -2 9 1
v -1 9 1
v 1 9 1
v 2 9 1
v -2 9 -2
v -1 9 -2
v 1 9 -2
v 2 9 -2
v -2 9 -3
v -1 9 -3
v 1 9 -3
v 2 9 -3
v -1 10 2
v 1 10 2
v -2 10 1
v -1 10 1
v 1 10 1
v 2 10 1
v -2 10 -2
v -1 10 -2
v 1 10 -2
v 2 10 -2
v -1 10 -3
v 1 10 -3
v -1 10 -4
v 1 10 -4
v -1 11 -2
v 1 11 -2
v -1 11 -3
v 1 11 -3
v -1 12 1
v 1 12 1
v -1 12 -2
v 1 12 -2

# faces
f 3/3/1 2/3/1 1/3/1
f 4/3/1 2/3/1 3/3/1
f 7/4/1 6/4/1 5/4/1
f 8/4/1 6/4/1 7/4/1
f 11/8/1 8/8/1 7/8/1
f 12/8/1 8/8/1 11/8/1
f 13/3/1 10/3/1 9/3/1
f 14/3/1 10/3/1 13/3/1
f 17/3/1 16/3/1 15/3/1
f 18/3/1 16/3/1 17/3/1
f 21/6/1 20/6/1 19/6/1
f 22/6/1 20/6/1 21/6/1
f 23/1/1 22/1/1 21/1/1
f 24/1/1 22/1/1 23/1/1
f 25/1/1 23/1/1 21/1/1
f 26/1/1 23/1/1 25/1/1
f 27/1/1 22/1/1 24/1/1
f 28/1/1 22/1/1 27/1/1
f 30/8/1 26/8/1 25/8/1
f 31/8/1 26/8/1 30/8/1
f 32/8/1 28/8/1 27/8/1
f 33/8/1 28/8/1 32/8/1
f 34/4/1 31/4/1 30/4/1
f 34/4/1 30/4/1 29/4/1
f 34/4/1 33/4/1 32/4/1
f 34/4/1 32/4/1 31/4/1
f 36/4/1 34/4/1 29/4/1
f 36/4/1 35/4/1 34/4/1
f 37/4/1 35/4/1 36/4/1
f 38/4/1 35/4/1 37/4/1
f 39/8/1 37/8/1 36/8/1
f 40/8/1 37/8/1 39/8/1
f 41/8/1 37/8/1 40/8/1
f 42/4/1 35/4/1 38/4/1
f 43/9/1 40/9/1 39/9/1
f 44/8/1 41/8/1 40/8/1
f 44/9/1 40/9/1 43/9/1
f 45/4/1 42/4/1 41/4/1
f 45/8/1 41/8/1 44/8/1
f 46/4/1 35/4/1 42/4/1
f 46/4/1 42/4/1 45/4/1
f 47/4/1 35/4/1 46/4/1
f 48/4/1 45/4/1 44/4/1
f 48/4/1 46/4/1 45/4/1
f 49/4/1 46/4/1 48/4/1
f 52/3/1 51/3/1 50/3/1
f 53/3/1 51/3/1 52/3/1
f 56/4/1 55/4/1 54/4/1
f 57/4/1 56/4/1 54/4/1
f 58/4/1 56/4/1 57/4/1
f 61/3/1 51/3/1 53/3/1
f 62/4/1 59/4/1 58/4/1
f 63/4/1 59/4/1 62/4/1
f 64/3/1 61/3/1 60/3/1
f 65/3/1 51/3/1 61/3/1
f 65/3/1 61/3/1 64/3/1
f 66/3/1 51/3/1 65/3/1
f 67/3/1 64/3/1 63/3/1
f 67/3/1 65/3/1 64/3/1
f 68/3/1 65/3/1 67/3/1
f 69/3/1 67/3/1 63/3/1
f 70/3/1 67/3/1 69/3/1
f 73/2/1 72/2/1 71/2/1
f 74/2/1 72/2/1 73/2/1
f 77/3/1 76/3/1 75/3/1
f 78/3/1 76/3/1 77/3/1
f 79/3/2 80/3/2 81/3/2
f 81/3/2 80/3/2 82/3/2
f 83/2/2 84/2/2 85/2/2
f 85/2/2 84/2/2 86/2/2
f 87/3/2 88/3/2 89/3/2
f 89/3/2 88/3/2 90/3/2
f 91/4/2 92/4/2 93/4/2
f 91/4/2 93/4/2 94/4/2
f 94/4/2 93/4/2 95/4/2
f 90/3/2 88/3/2 98/3/2
f 95/4/2 96/4/2 99/4/2
f 99/4/2 96/4/2 100/4/2
f 97/3/2 98/3/2 101/3/2
f 98/3/2 88/3/2 102/3/2
f 101/3/2 98/3/2 102/3/2
f 102/3/2 88/3/2 103/3/2
f 100/3/2 101/3/2 104/3/2
f 101/3/2 102/3/2 104/3/2
f 104/3/2 102/3/2 105/3/2
f 100/3/2 104/3/2 106/3/2
f 106/3/2 104/3/2 107/3/2
f 108/6/2 109/6/2 110/6/2
f 110/6/2 109/6/2 111/6/2
f 110/1/2 111/1/2 112/1/2
f 112/1/2 111/1/2 113/1/2
f 110/1/2 112/1/2 114/1/2
f 114/1/2 112/1/2 115/1/2
f 113/1/2 111/1/2 116/1/2
f 116/1/2 111/1/2 117/1/2
f 114/8/2 115/8/2 119/8/2
f 119/8/2 115/8/2 120/8/2
f 116/8/2 117/8/2 121/8/2
f 121/8/2 117/8/2 122/8/2
f 119/4/2 120/4/2 123/4/2
f 118/4/2 119/4/2 123/4/2
f 121/4/2 122/4/2 123/4/2
f 120/4/2 121/4/2 123/4/2
f 118/4/2 123/4/2 125/4/2
f 123/4/2 124/4/2 125/4/2
f 125/4/2 124/4/2 126/4/2
f 126/4/2 124/4/2 127/4/2
f 125/8/2 126/8/2 128/8/2
f 128/8/2 126/8/2 129/8/2
f 129/8/2 126/8/2 130/8/2
f 127/4/2 124/4/2 131/4/2
f 128/9/2 129/9/2 132/9/2
f 129/8/2 130/8/2 133/8/2
f 132/9/2 129/9/2 133/9/2
f 130/4/2 131/4/2 134/4/2
f 133/8/2 130/8/2 134/8/2
f 131/4/2 124/4/2 135/4/2
f 134/4/2 131/4/2 135/4/2
f 135/4/2 124/4/2 136/4/2
f 133/4/2 134/4/2 137/4/2
f 134/4/2 135/4/2 137/4/2
f 137/4/2 135/4/2 138/4/2
f 139/4/2 140/4/2 141/4/2
f 141/4/2 140/4/2 142/4/2
f 141/8/2 142/8/2 145/8/2
f 145/8/2 142/8/2 146/8/2
f 143/3/2 144/3/2 147/3/2
f 147/3/2 144/3/2 148/3/2
f 149/3/2 150/3/2 151/3/2
f 151/3/2 150/3/2 152/3/2
f 153/3/2 154/3/2 155/3/2
f 155/3/2 154/3/2 156/3/2
f 159/3/3 158/3/3 157/3/3
f 160/3/3 158/3/3 159/3/3
f 161/3/3 158/3/3 160/3/3
f 162/2/3 161/2/3 160/2/3
f 163/3/3 158/3/3 161/3/3
f 163/2/3 161/2/3 162/2/3
f 164/3/3 158/3/3 163/3/3
f 167/2/3 164/2/3 163/2/3
f 168/4/3 165/4/3 164/4/3
f 168/2/3 164/2/3 167/2/3
f 169/4/3 165/4/3 168/4/3
f 171/2/3 167/2/3 166/2/3
f 172/3/3 168/3/3 167/3/3
f 172/2/3 167/2/3 171/2/3
f 173/3/3 171/3/3 170/3/3
f 173/3/3 172/3/3 171/3/3
f 174/3/3 168/3/3 172/3/3
f 174/3/3 172/3/3 173/3/3
f 180/8/3 176/8/3 175/8/3
f 181/9/3 177/9/3 176/9/3
f 181/8/3 176/8/3 180/8/3
f 182/9/3 177/9/3 181/9/3
f 184/4/3 179/4/3 178/4/3
f 185/4/3 179/4/3 184/4/3
f 188/4/3 183/4/3 182/4/3
f 189/4/3 183/4/3 188/4/3
f 190/8/3 187/8/3 186/8/3
f 191/9/3 188/9/3 187/9/3
f 191/8/3 187/8/3 190/8/3
f 192/9/3 188/9/3 191/9/3
f 199/4/3 198/4/3 197/4/3
f 200/4/3 198/4/3 199/4/3
f 203/3/3 201/3/3 200/3/3
f 204/3/3 201/3/3 203/3/3
f 205/6/3 194/6/3 193/6/3
f 206/1/3 195/1/3 194/1/3
f 206/6/3 194/6/3 205/6/3
f 207/8/3 196/8/3 195/8/3
f 207/1/3 195/1/3 206/1/3
f 208/8/3 196/8/3 207/8/3
f 209/4/3 203/4/3 202/4/3
f 210/4/3 203/4/3 209/4/3
f 216/4/3 212/4/3 211/4/3
f 217/8/3 213/8/3 212/8/3
f 217/4/3 212/4/3 216/4/3
f 218/8/3 213/8/3 217/8/3
f 219/3/3 215/3/3 214/3/3
f 220/3/3 215/3/3 219/3/3
f 226/4/3 222/4/3 221/4/3
f 227/8/3 223/8/3 222/8/3
f 227/4/3 222/4/3 226/4/3
f 228/8/3 223/8/3 227/8/3
f 229/3/3 225/3/3 224/3/3
f 230/3/3 225/3/3 229/3/3
f 233/3/3 232/3/3 231/3/3
f 234/3/3 232/3/3 233/3/3
f 237/3/3 236/3/3 235/3/3
f 238/3/3 236/3/3 237/3/3
f 239/3/4 240/3/4 241/3/4
f 241/3/4 240/3/4 242/3/4
f 242/3/4 240/3/4 243/3/4
f 244/3/4 245/3/4 247/3/4
f 245/3/4 246/3/4 247/3/4
f 247/3/4 246/3/4 248/3/4
f 249/4/4 250/4/4 252/4/4
f 250/8/4 251/8/4 253/8/4
f 252/4/4 250/4/4 253/4/4
f 253/8/4 251/8/4 254/8/4
f 255/4/4 256/4/4 258/4/4
f 256/8/4 257/8/4 259/8/4
f 258/4/4 256/4/4 259/4/4
f 259/8/4 257/8/4 260/8/4
f 261/3/4 262/3/4 268/3/4
f 268/3/4 262/3/4 269/3/4
f 266/4/4 267/4/4 272/4/4
f 265/8/4 266/8/4 272/8/4
f 272/4/4 267/4/4 273/4/4
f 270/4/4 271/4/4 274/4/4
f 274/4/4 271/4/4 275/4/4
f 265/8/4 272/8/4 278/8/4
f 276/3/4 277/3/4 282/3/4
f 282/3/4 277/3/4 283/3/4
f 263/6/4 264/6/4 284/6/4
f 264/1/4 265/1/4 285/1/4
f 284/6/4 264/6/4 285/6/4
f 265/8/4 278/8/4 286/8/4
f 285/1/4 265/1/4 286/1/4
f 278/4/4 279/4/4 287/4/4
f 286/8/4 278/8/4 287/8/4
f 287/4/4 279/4/4 288/4/4
f 280/4/4 281/4/4 291/4/4
f 291/4/4 281/4/4 292/4/4
f 289/3/4 290/3/4 293/3/4
f 293/3/4 290/3/4 294/3/4
f 295/4/4 296/4/4 297/4/4
f 297/4/4 296/4/4 298/4/4
f 299/3/4 300/3/4 303/3/4
f 303/3/4 300/3/4 304/3/4
f 301/4/4 302/4/4 305/4/4
f 305/4/4 302/4/4 306/4/4
f 307/3/4 308/3/4 309/3/4
f 309/3/4 308/3/4 310/3/4
f 313/6/5 312/6/5 311/6/5
f 314/6/5 312/6/5 313/6/5
f 319/4/5 316/4/5 315/4/5
f 320/4/5 316/4/5 319/4/5
f 321/4/5 318/4/5 317/4/5
f 322/4/5 318/4/5 321/4/5
f 327/3/5 324/3/5 323/3/5
f 328/3/5 324/3/5 327/3/5
f 329/3/5 326/3/5 325/3/5
f 330/3/5 326/3/5 329/3/5
f 335/2/5 332/2/5 331/2/5
f 336/2/5 332/2/5 335/2/5
f 337/2/5 334/2/5 333/2/5
f 338/2/5 334/2/5 337/2/5
f 339/4/5 336/4/5 335/4/5
f 339/4/5 337/4/5 336/4/5
f 339/4/5 338/4/5 337/4/5
f 340/4/5 338/4/5 339/4/5
f 343/3/5 342/3/5 341/3/5
f 344/3/5 342/3/5 343/3/5
f 347/2/5 346/2/5 345/2/5
f 348/2/5 346/2/5 347/2/5
f 353/4/5 350/4/5 349/4/5
f 354/4/5 350/4/5 353/4/5
f 355/4/5 352/4/5 351/4/5
f 356/4/5 352/4/5 355/4/5
f 362/3/5 358/3/5 357/3/5
f 363/3/5 360/3/5 359/3/5
f 365/3/5 362/3/5 361/3/5
f 366/3/5 358/3/5 362/3/5
f 366/3/5 362/3/5 365/3/5
f 367/3/5 364/3/5 363/3/5
f 367/3/5 363/3/5 359/3/5
f 368/3/5 364/3/5 367/3/5
f 369/8/6 370/8/6 373/8/6
f 373/8/6 370/8/6 374/8/6
f 371/8/6 372/8/6 375/8/6
f 375/8/6 372/8/6 376/8/6
f 377/3/6 378/3/6 381/3/6
f 381/3/6 378/3/6 382/3/6
f 382/3/6 378/3/6 383/3/6
f 379/3/6 380/3/6 384/3/6
f 384/3/6 380/3/6 385/3/6
f 385/3/6 380/3/6 386/3/6
f 387/3/6 388/3/6 392/3/6
f 389/3/6 390/3/6 393/3/6
f 391/3/6 392/3/6 395/3/6
f 392/3/6 388/3/6 396/3/6
f 395/3/6 392/3/6 396/3/6
f 393/3/6 394/3/6 397/3/6
f 389/3/6 393/3/6 397/3/6
f 397/3/6 394/3/6 398/3/6
f 399/4/6 400/4/6 402/4/6
f 402/4/6 400/4/6 403/4/6
f 401/9/6 402/9/6 405/9/6
f 405/9/6 402/9/6 406/9/6
f 403/9/6 404/9/6 407/9/6
f 407/9/6 404/9/6 408/9/6
f 409/4/6 410/4/6 413/4/6
f 413/4/6 410/4/6 414/4/6
f 411/4/6 412/4/6 415/4/6
f 415/4/6 412/4/6 416/4/6
f 417/4/6 418/4/6 420/4/6
f 420/4/6 418/4/6 421/4/6
f 419/4/6 420/4/6 423/4/6
f 423/4/6 420/4/6 424/4/6
f 421/4/6 422/4/6 425/4/6
f 425/4/6 422/4/6 426/4/6
f 427/3/6 428/3/6 429/3/6
f 429/3/6 428/3/6 430/3/6
f 431/3/6 432/3/6 433/3/6
f 433/3/6 432/3/6 434/3/6
f 435/3/6 436/3/6 437/3/6
f 437/3/6 436/3/6 438/3/6
