# MagicaVoxel @ Ephtracy

# group
g goatman

# material
mtllib goatman.mtl
usemtl palette

# normals
vn -1 0 0
vn 1 0 0
vn 0 0 1
vn 0 0 -1
vn 0 -1 0
vn 0 1 0

# texcoords
vt 0.0214844 0.5
vt 0.0839844 0.5
vt 0.251953 0.5
vt 0.349609 0.5
vt 0.361328 0.5
vt 0.396484 0.5
vt 0.529297 0.5
vt 0.779297 0.5
vt 0.908203 0.5
vt 0.935547 0.5
vt 0.978516 0.5
vt 0.990234 0.5

# verts
v -4 9 -1
v -4 9 -2
v -4 11 -1
v -4 11 -2
v -3 2 -0
v -3 2 -1
v -3 5 -0
v -3 5 -1
v -3 9 -2
v -3 9 -3
v -3 11 -1
v -3 11 -2
v -3 11 -3
v -3 12 -1
v -3 12 -2
v -2 0 1
v -2 0 -2
v -2 1 1
v -2 1 -2
v -2 2 -0
v -2 2 -1
v -2 3 1
v -2 3 -0
v -2 3 -1
v -2 3 -2
v -2 5 1
v -2 5 -0
v -2 5 -1
v -2 5 -2
v -2 6 2
v -2 6 1
v -2 6 -2
v -2 6 -3
v -2 7 1
v -2 7 -1
v -2 8 1
v -2 8 -1
v -2 9 1
v -2 9 -1
v -2 9 -3
v -2 10 2
v -2 10 1
v -2 10 -1
v -2 11 1
v -2 11 -0
v -2 11 -1
v -2 12 -0
v -2 12 -1
v -2 12 -2
v -2 12 -3
v -2 13 -1
v -2 13 -2
v -2 14 -2
v -2 14 -3
v -1 4 3
v -1 4 2
v -1 5 2
v -1 5 1
v -1 6 2
v -1 6 1
v -1 7 3
v -1 7 2
v -1 8 3
v -1 8 2
v 1 11 -0
v 1 11 -2
v 1 12 -0
v 1 12 -1
v 1 12 -2
v 1 12 -3
v 1 13 -1
v 1 13 -2
v 1 14 -2
v 1 14 -3
v -1 11 -0
v -1 11 -2
v -1 12 -0
v -1 12 -1
v -1 12 -2
v -1 12 -3
v -1 13 -1
v -1 13 -2
v -1 14 -2
v -1 14 -3
v 1 4 3
v 1 4 2
v 1 5 2
v 1 5 1
v 1 6 2
v 1 6 1
v 1 7 3
v 1 7 2
v 1 8 3
v 1 8 2
v 2 0 1
v 2 0 -2
v 2 1 1
v 2 1 -2
v 2 2 -0
v 2 2 -1
v 2 3 1
v 2 3 -0
v 2 3 -1
v 2 3 -2
v 2 5 1
v 2 5 -0
v 2 5 -1
v 2 5 -2
v 2 6 2
v 2 6 1
v 2 6 -2
v 2 6 -3
v 2 7 1
v 2 7 -1
v 2 8 1
v 2 8 -1
v 2 9 1
v 2 9 -1
v 2 9 -3
v 2 10 2
v 2 10 1
v 2 10 -1
v 2 11 1
v 2 11 -0
v 2 11 -1
v 2 12 -0
v 2 12 -1
v 2 12 -2
v 2 12 -3
v 2 13 -1
v 2 13 -2
v 2 14 -2
v 2 14 -3
v 3 2 -0
v 3 2 -1
v 3 5 -0
v 3 5 -1
v 3 9 -2
v 3 9 -3
v 3 11 -1
v 3 11 -2
v 3 11 -3
v 3 12 -1
v 3 12 -2
v 4 9 -1
v 4 9 -2
v 4 11 -1
v 4 11 -2
v -1 4 3
v -1 7 3
v -1 8 3
v 1 4 3
v 1 7 3
v 1 8 3
v -2 6 2
v -2 10 2
v -1 6 2
v -1 7 2
v -1 8 2
v 1 6 2
v 1 7 2
v 1 8 2
v 2 6 2
v 2 10 2
v -2 0 1
v -2 1 1
v -2 3 1
v -2 5 1
v -2 6 1
v -2 10 1
v -2 11 1
v -1 5 1
v -1 6 1
v 1 5 1
v 1 6 1
v 2 0 1
v 2 1 1
v 2 3 1
v 2 5 1
v 2 6 1
v 2 10 1
v 2 11 1
v -3 2 -0
v -3 5 -0
v -2 2 -0
v -2 3 -0
v -2 5 -0
v -2 11 -0
v -2 12 -0
v -1 11 -0
v -1 12 -0
v 1 11 -0
v 1 12 -0
v 2 2 -0
v 2 3 -0
v 2 5 -0
v 2 11 -0
v 2 12 -0
v 3 2 -0
v 3 5 -0
v -4 9 -1
v -4 11 -1
v -3 10 -1
v -3 11 -1
v -3 12 -1
v -2 9 -1
v -2 10 -1
v -2 11 -1
v -2 12 -1
v -2 13 -1
v -1 12 -1
v -1 13 -1
v 1 12 -1
v 1 13 -1
v 2 9 -1
v 2 10 -1
v 2 11 -1
v 2 12 -1
v 2 13 -1
v 3 10 -1
v 3 11 -1
v 3 12 -1
v 4 9 -1
v 4 11 -1
v -2 13 -2
v -2 14 -2
v -1 13 -2
v -1 14 -2
v 1 13 -2
v 1 14 -2
v 2 13 -2
v 2 14 -2
v -1 4 2
v -1 5 2
v 1 4 2
v 1 5 2
v -3 2 -1
v -3 5 -1
v -2 2 -1
v -2 3 -1
v -2 5 -1
v 2 2 -1
v 2 3 -1
v 2 5 -1
v 3 2 -1
v 3 5 -1
v -4 9 -2
v -4 11 -2
v -3 9 -2
v -3 11 -2
v -3 12 -2
v -2 0 -2
v -2 1 -2
v -2 3 -2
v -2 5 -2
v -2 6 -2
v -2 11 -2
v -2 12 -2
v -1 5 -2
v -1 6 -2
v -1 11 -2
v -1 12 -2
v 1 5 -2
v 1 6 -2
v 1 11 -2
v 1 12 -2
v 2 0 -2
v 2 1 -2
v 2 3 -2
v 2 5 -2
v 2 6 -2
v 2 11 -2
v 2 12 -2
v 3 9 -2
v 3 11 -2
v 3 12 -2
v 4 9 -2
v 4 11 -2
v -3 9 -3
v -3 11 -3
v -2 6 -3
v -2 9 -3
v -2 12 -3
v -2 14 -3
v -1 12 -3
v -1 14 -3
v 1 12 -3
v 1 14 -3
v 2 6 -3
v 2 9 -3
v 2 12 -3
v 2 14 -3
v 3 9 -3
v 3 11 -3
v -2 0 1
v 2 0 1
v -2 0 -2
v 2 0 -2
v -3 2 -0
v -2 2 -0
v 2 2 -0
v 3 2 -0
v -3 2 -1
v -2 2 -1
v 2 2 -1
v 3 2 -1
v -1 4 3
v 1 4 3
v -1 4 2
v 1 4 2
v -1 5 2
v 1 5 2
v -1 5 1
v 1 5 1
v -2 6 2
v -1 6 2
v 1 6 2
v 2 6 2
v -2 6 1
v -1 6 1
v 1 6 1
v 2 6 1
v -2 6 -2
v -1 6 -2
v 1 6 -2
v 2 6 -2
v -2 6 -3
v 2 6 -3
v -4 9 -1
v -2 9 -1
v 2 9 -1
v 4 9 -1
v -4 9 -2
v -3 9 -2
v 3 9 -2
v 4 9 -2
v -3 9 -3
v -2 9 -3
v 2 9 -3
v 3 9 -3
v -2 12 -2
v -1 12 -2
v 1 12 -2
v 2 12 -2
v -2 12 -3
v -1 12 -3
v 1 12 -3
v 2 12 -3
v -3 5 -0
v -2 5 -0
v 2 5 -0
v 3 5 -0
v -3 5 -1
v -2 5 -1
v 2 5 -1
v 3 5 -1
v -1 8 3
v 1 8 3
v -1 8 2
v 1 8 2
v -2 10 2
v 2 10 2
v -2 10 1
v 2 10 1
v -2 11 1
v 2 11 1
v -2 11 -0
v -1 11 -0
v 1 11 -0
v 2 11 -0
v -4 11 -1
v -3 11 -1
v 3 11 -1
v 4 11 -1
v -4 11 -2
v -3 11 -2
v -2 11 -2
v -1 11 -2
v 1 11 -2
v 2 11 -2
v 3 11 -2
v 4 11 -2
v -3 11 -3
v 3 11 -3
v -2 12 -0
v -1 12 -0
v 1 12 -0
v 2 12 -0
v -3 12 -1
v -2 12 -1
v -1 12 -1
v 1 12 -1
v 2 12 -1
v 3 12 -1
v -3 12 -2
v -2 12 -2
v 2 12 -2
v 3 12 -2
v -2 13 -1
v -1 13 -1
v 1 13 -1
v 2 13 -1
v -2 13 -2
v -1 13 -2
v 1 13 -2
v 2 13 -2
v -2 14 -2
v -1 14 -2
v 1 14 -2
v 2 14 -2
v -2 14 -3
v -1 14 -3
v 1 14 -3
v 2 14 -3

# faces
f 3/4/1 2/4/1 1/4/1
f 4/4/1 2/4/1 3/4/1
f 7/7/1 6/7/1 5/7/1
f 8/7/1 6/7/1 7/7/1
f 12/4/1 10/4/1 9/4/1
f 13/4/1 10/4/1 12/4/1
f 14/4/1 12/4/1 11/4/1
f 15/4/1 12/4/1 14/4/1
f 18/9/1 17/9/1 16/9/1
f 19/9/1 17/9/1 18/9/1
f 20/8/1 19/8/1 18/8/1
f 21/8/1 19/8/1 20/8/1
f 22/8/1 20/8/1 18/8/1
f 23/8/1 20/8/1 22/8/1
f 24/8/1 19/8/1 21/8/1
f 25/8/1 19/8/1 24/8/1
f 26/7/1 23/7/1 22/7/1
f 27/7/1 23/7/1 26/7/1
f 28/7/1 25/7/1 24/7/1
f 29/7/1 25/7/1 28/7/1
f 31/5/1 27/5/1 26/5/1
f 31/5/1 28/5/1 27/5/1
f 31/5/1 29/5/1 28/5/1
f 32/5/1 29/5/1 31/5/1
f 34/4/1 32/4/1 31/4/1
f 34/4/1 33/4/1 32/4/1
f 34/4/1 31/4/1 30/4/1
f 35/4/1 33/4/1 34/4/1
f 36/4/1 34/4/1 30/4/1
f 36/6/1 35/6/1 34/6/1
f 37/4/1 33/4/1 35/4/1
f 37/6/1 35/6/1 36/6/1
f 38/4/1 36/4/1 30/4/1
f 38/12/1 37/12/1 36/12/1
f 39/4/1 33/4/1 37/4/1
f 39/12/1 37/12/1 38/12/1
f 40/4/1 33/4/1 39/4/1
f 41/4/1 38/4/1 30/4/1
f 42/6/1 39/6/1 38/6/1
f 42/4/1 38/4/1 41/4/1
f 43/6/1 39/6/1 42/6/1
f 44/4/1 43/4/1 42/4/1
f 45/4/1 43/4/1 44/4/1
f 46/4/1 43/4/1 45/4/1
f 47/10/1 46/10/1 45/10/1
f 48/10/1 46/10/1 47/10/1
f 51/10/1 50/10/1 49/10/1
f 51/10/1 49/10/1 48/10/1
f 52/10/1 50/10/1 51/10/1
f 53/10/1 50/10/1 52/10/1
f 54/10/1 50/10/1 53/10/1
f 57/4/1 56/4/1 55/4/1
f 59/4/1 57/4/1 55/4/1
f 59/5/1 58/5/1 57/5/1
f 60/5/1 58/5/1 59/5/1
f 61/4/1 59/4/1 55/4/1
f 62/4/1 59/4/1 61/4/1
f 63/11/1 62/11/1 61/11/1
f 64/11/1 62/11/1 63/11/1
f 67/10/1 66/10/1 65/10/1
f 68/10/1 66/10/1 67/10/1
f 69/10/1 66/10/1 68/10/1
f 71/10/1 70/10/1 69/10/1
f 71/10/1 69/10/1 68/10/1
f 72/10/1 70/10/1 71/10/1
f 73/10/1 70/10/1 72/10/1
f 74/10/1 70/10/1 73/10/1
f 75/10/2 76/10/2 77/10/2
f 77/10/2 76/10/2 78/10/2
f 78/10/2 76/10/2 79/10/2
f 79/10/2 80/10/2 81/10/2
f 78/10/2 79/10/2 81/10/2
f 81/10/2 80/10/2 82/10/2
f 82/10/2 80/10/2 83/10/2
f 83/10/2 80/10/2 84/10/2
f 85/4/2 86/4/2 87/4/2
f 85/4/2 87/4/2 89/4/2
f 87/5/2 88/5/2 89/5/2
f 89/5/2 88/5/2 90/5/2
f 85/4/2 89/4/2 91/4/2
f 91/4/2 89/4/2 92/4/2
f 91/11/2 92/11/2 93/11/2
f 93/11/2 92/11/2 94/11/2
f 95/9/2 96/9/2 97/9/2
f 97/9/2 96/9/2 98/9/2
f 97/8/2 98/8/2 99/8/2
f 99/8/2 98/8/2 100/8/2
f 97/8/2 99/8/2 101/8/2
f 101/8/2 99/8/2 102/8/2
f 100/8/2 98/8/2 103/8/2
f 103/8/2 98/8/2 104/8/2
f 101/7/2 102/7/2 105/7/2
f 105/7/2 102/7/2 106/7/2
f 103/7/2 104/7/2 107/7/2
f 107/7/2 104/7/2 108/7/2
f 105/5/2 106/5/2 110/5/2
f 106/5/2 107/5/2 110/5/2
f 107/5/2 108/5/2 110/5/2
f 110/5/2 108/5/2 111/5/2
f 110/4/2 111/4/2 113/4/2
f 111/4/2 112/4/2 113/4/2
f 109/4/2 110/4/2 113/4/2
f 113/4/2 112/4/2 114/4/2
f 109/4/2 113/4/2 115/4/2
f 113/6/2 114/6/2 115/6/2
f 114/4/2 112/4/2 116/4/2
f 115/6/2 114/6/2 116/6/2
f 109/4/2 115/4/2 117/4/2
f 115/12/2 116/12/2 117/12/2
f 116/4/2 112/4/2 118/4/2
f 117/12/2 116/12/2 118/12/2
f 118/4/2 112/4/2 119/4/2
f 109/4/2 117/4/2 120/4/2
f 117/6/2 118/6/2 121/6/2
f 120/4/2 117/4/2 121/4/2
f 121/6/2 118/6/2 122/6/2
f 121/4/2 122/4/2 123/4/2
f 123/4/2 122/4/2 124/4/2
f 124/4/2 122/4/2 125/4/2
f 124/10/2 125/10/2 126/10/2
f 126/10/2 125/10/2 127/10/2
f 128/10/2 129/10/2 130/10/2
f 127/10/2 128/10/2 130/10/2
f 130/10/2 129/10/2 131/10/2
f 131/10/2 129/10/2 132/10/2
f 132/10/2 129/10/2 133/10/2
f 134/7/2 135/7/2 136/7/2
f 136/7/2 135/7/2 137/7/2
f 138/4/2 139/4/2 141/4/2
f 141/4/2 139/4/2 142/4/2
f 140/4/2 141/4/2 143/4/2
f 143/4/2 141/4/2 144/4/2
f 145/4/2 146/4/2 147/4/2
f 147/4/2 146/4/2 148/4/2
f 152/4/3 150/4/3 149/4/3
f 153/11/3 151/11/3 150/11/3
f 153/4/3 150/4/3 152/4/3
f 154/11/3 151/11/3 153/11/3
f 157/4/3 156/4/3 155/4/3
f 158/4/3 156/4/3 157/4/3
f 159/4/3 156/4/3 158/4/3
f 162/4/3 156/4/3 159/4/3
f 163/4/3 161/4/3 160/4/3
f 163/4/3 162/4/3 161/4/3
f 164/4/3 156/4/3 162/4/3
f 164/4/3 162/4/3 163/4/3
f 172/7/3 168/7/3 167/7/3
f 172/5/3 169/5/3 168/5/3
f 173/5/3 169/5/3 172/5/3
f 174/7/3 172/7/3 167/7/3
f 176/9/3 166/9/3 165/9/3
f 177/8/3 167/8/3 166/8/3
f 177/9/3 166/9/3 176/9/3
f 178/7/3 174/7/3 167/7/3
f 178/8/3 167/8/3 177/8/3
f 179/5/3 175/5/3 174/5/3
f 179/7/3 174/7/3 178/7/3
f 180/5/3 175/5/3 179/5/3
f 181/4/3 171/4/3 170/4/3
f 182/4/3 171/4/3 181/4/3
f 185/7/3 184/7/3 183/7/3
f 186/7/3 184/7/3 185/7/3
f 187/7/3 184/7/3 186/7/3
f 190/10/3 189/10/3 188/10/3
f 191/10/3 189/10/3 190/10/3
f 197/10/3 193/10/3 192/10/3
f 198/10/3 193/10/3 197/10/3
f 199/7/3 196/7/3 195/7/3
f 199/7/3 195/7/3 194/7/3
f 200/7/3 196/7/3 199/7/3
f 203/4/3 202/4/3 201/4/3
f 204/4/3 202/4/3 203/4/3
f 206/4/3 203/4/3 201/4/3
f 207/2/3 204/2/3 203/2/3
f 207/4/3 203/4/3 206/4/3
f 208/4/3 205/4/3 204/4/3
f 208/2/3 204/2/3 207/2/3
f 209/4/3 205/4/3 208/4/3
f 211/10/3 210/10/3 209/10/3
f 212/10/3 210/10/3 211/10/3
f 218/10/3 214/10/3 213/10/3
f 219/10/3 214/10/3 218/10/3
f 220/2/3 217/2/3 216/2/3
f 220/4/3 216/4/3 215/4/3
f 221/4/3 218/4/3 217/4/3
f 221/2/3 217/2/3 220/2/3
f 222/4/3 218/4/3 221/4/3
f 223/4/3 220/4/3 215/4/3
f 223/4/3 221/4/3 220/4/3
f 224/4/3 221/4/3 223/4/3
f 227/10/3 226/10/3 225/10/3
f 228/10/3 226/10/3 227/10/3
f 231/10/3 230/10/3 229/10/3
f 232/10/3 230/10/3 231/10/3
f 233/4/4 234/4/4 235/4/4
f 235/4/4 234/4/4 236/4/4
f 237/7/4 238/7/4 239/7/4
f 239/7/4 238/7/4 240/7/4
f 240/7/4 238/7/4 241/7/4
f 242/7/4 243/7/4 245/7/4
f 243/7/4 244/7/4 245/7/4
f 245/7/4 244/7/4 246/7/4
f 247/4/4 248/4/4 249/4/4
f 249/4/4 248/4/4 250/4/4
f 250/4/4 251/4/4 257/4/4
f 257/4/4 251/4/4 258/4/4
f 255/5/4 256/5/4 259/5/4
f 254/7/4 255/7/4 259/7/4
f 259/5/4 256/5/4 260/5/4
f 257/10/4 258/10/4 261/10/4
f 261/10/4 258/10/4 262/10/4
f 259/4/4 260/4/4 263/4/4
f 254/7/4 259/7/4 263/7/4
f 263/4/4 260/4/4 264/4/4
f 252/9/4 253/9/4 267/9/4
f 253/8/4 254/8/4 268/8/4
f 267/9/4 253/9/4 268/9/4
f 254/7/4 263/7/4 269/7/4
f 268/8/4 254/8/4 269/8/4
f 263/5/4 264/5/4 270/5/4
f 269/7/4 263/7/4 270/7/4
f 270/5/4 264/5/4 271/5/4
f 265/10/4 266/10/4 272/10/4
f 272/10/4 266/10/4 273/10/4
f 272/4/4 273/4/4 275/4/4
f 275/4/4 273/4/4 276/4/4
f 274/4/4 275/4/4 277/4/4
f 277/4/4 275/4/4 278/4/4
f 279/4/4 280/4/4 282/4/4
f 283/10/4 284/10/4 285/10/4
f 285/10/4 284/10/4 286/10/4
f 281/4/4 282/4/4 289/4/4
f 282/4/4 280/4/4 290/4/4
f 289/4/4 282/4/4 290/4/4
f 287/10/4 288/10/4 291/10/4
f 291/10/4 288/10/4 292/10/4
f 290/4/4 280/4/4 293/4/4
f 293/4/4 280/4/4 294/4/4
f 297/9/5 296/9/5 295/9/5
f 298/9/5 296/9/5 297/9/5
f 303/7/5 300/7/5 299/7/5
f 304/7/5 300/7/5 303/7/5
f 305/7/5 302/7/5 301/7/5
f 306/7/5 302/7/5 305/7/5
f 309/4/5 308/4/5 307/4/5
f 310/4/5 308/4/5 309/4/5
f 313/5/5 312/5/5 311/5/5
f 314/5/5 312/5/5 313/5/5
f 319/4/5 316/4/5 315/4/5
f 320/4/5 316/4/5 319/4/5
f 321/4/5 318/4/5 317/4/5
f 322/4/5 318/4/5 321/4/5
f 327/4/5 324/4/5 323/4/5
f 327/4/5 326/4/5 325/4/5
f 327/4/5 325/4/5 324/4/5
f 328/4/5 326/4/5 327/4/5
f 333/4/5 330/4/5 329/4/5
f 334/4/5 330/4/5 333/4/5
f 335/4/5 332/4/5 331/4/5
f 336/4/5 332/4/5 335/4/5
f 337/4/5 330/4/5 334/4/5
f 338/4/5 330/4/5 337/4/5
f 339/4/5 335/4/5 331/4/5
f 340/4/5 335/4/5 339/4/5
f 345/10/5 342/10/5 341/10/5
f 346/10/5 342/10/5 345/10/5
f 347/10/5 344/10/5 343/10/5
f 348/10/5 344/10/5 347/10/5
f 349/7/6 350/7/6 353/7/6
f 353/7/6 350/7/6 354/7/6
f 351/7/6 352/7/6 355/7/6
f 355/7/6 352/7/6 356/7/6
f 357/11/6 358/11/6 359/11/6
f 359/11/6 358/11/6 360/11/6
f 361/4/6 362/4/6 363/4/6
f 363/4/6 362/4/6 364/4/6
f 365/4/6 366/4/6 367/4/6
f 367/4/6 366/4/6 368/4/6
f 368/4/6 366/4/6 369/4/6
f 369/4/6 366/4/6 370/4/6
f 371/4/6 372/4/6 375/4/6
f 375/4/6 372/4/6 376/4/6
f 368/4/6 369/4/6 378/4/6
f 378/4/6 369/4/6 379/4/6
f 373/4/6 374/4/6 381/4/6
f 381/4/6 374/4/6 382/4/6
f 379/4/6 380/4/6 383/4/6
f 376/4/6 377/4/6 383/4/6
f 380/4/6 381/4/6 383/4/6
f 378/4/6 379/4/6 383/4/6
f 377/4/6 378/4/6 383/4/6
f 383/4/6 381/4/6 384/4/6
f 385/10/6 386/10/6 390/10/6
f 390/10/6 386/10/6 391/10/6
f 387/10/6 388/10/6 392/10/6
f 392/10/6 388/10/6 393/10/6
f 389/4/6 390/4/6 395/4/6
f 395/4/6 390/4/6 396/4/6
f 393/4/6 394/4/6 397/4/6
f 397/4/6 394/4/6 398/4/6
f 399/10/6 400/10/6 403/10/6
f 403/10/6 400/10/6 404/10/6
f 401/10/6 402/10/6 405/10/6
f 405/10/6 402/10/6 406/10/6
f 407/10/6 408/10/6 411/10/6
f 411/10/6 408/10/6 412/10/6
f 409/10/6 410/10/6 413/10/6
f 413/10/6 410/10/6 414/10/6
