# MagicaVoxel @ Ephtracy

# group
g goatman

# material
mtllib goatman.mtl
usemtl palette

# normals
vn -1 0 0
vn 1 0 0
vn 0 0 1
vn 0 0 -1
vn 0 -1 0
vn 0 1 0

# texcoords
vt 0.0214844 0.5
vt 0.0839844 0.5
vt 0.251953 0.5
vt 0.349609 0.5
vt 0.361328 0.5
vt 0.396484 0.5
vt 0.529297 0.5
vt 0.779297 0.5
vt 0.908203 0.5
vt 0.935547 0.5
vt 0.978516 0.5
vt 0.990234 0.5

# verts
v -4 9 -1
v -4 9 -2
v -4 11 -1
v -4 11 -2
v -3 2 -0
v -3 2 -1
v -3 3 -0
v -3 3 -1
v -3 5 -0
v -3 5 -1
v -3 9 -2
v -3 9 -3
v -3 11 -1
v -3 11 -2
v -3 11 -3
v -3 12 -1
v -3 12 -2
v -2 0 1
v -2 0 -2
v -2 1 1
v -2 1 -2
v -2 2 -0
v -2 2 -1
v -2 3 1
v -2 3 -0
v -2 3 -1
v -2 3 -2
v -2 5 1
v -2 5 -0
v -2 5 -1
v -2 5 -2
v -2 6 2
v -2 6 1
v -2 6 -2
v -2 6 -3
v -2 7 1
v -2 7 -1
v -2 8 1
v -2 8 -1
v -2 9 1
v -2 9 -1
v -2 9 -3
v -2 10 2
v -2 10 1
v -2 10 -1
v -2 11 1
v -2 11 -0
v -2 11 -1
v -2 12 -0
v -2 12 -1
v -2 12 -2
v -2 12 -3
v -2 13 -1
v -2 13 -2
v -2 14 -2
v -2 14 -3
v -1 4 3
v -1 4 2
v -1 5 2
v -1 5 1
v -1 6 2
v -1 6 1
v -1 7 3
v -1 7 2
v -1 8 3
v -1 8 2
v 1 11 -0
v 1 11 -2
v 1 12 -0
v 1 12 -1
v 1 12 -2
v 1 12 -3
v 1 13 -1
v 1 13 -2
v 1 14 -2
v 1 14 -3
v -1 11 -0
v -1 11 -2
v -1 12 -0
v -1 12 -1
v -1 12 -2
v -1 12 -3
v -1 13 -1
v -1 13 -2
v -1 14 -2
v -1 14 -3
v 1 4 3
v 1 4 2
v 1 5 2
v 1 5 1
v 1 6 2
v 1 6 1
v 1 7 3
v 1 7 2
v 1 8 3
v 1 8 2
v 2 0 1
v 2 0 -2
v 2 1 1
v 2 1 -2
v 2 2 -0
v 2 2 -1
v 2 3 1
v 2 3 -0
v 2 3 -1
v 2 3 -2
v 2 5 1
v 2 5 -0
v 2 5 -1
v 2 5 -2
v 2 6 2
v 2 6 1
v 2 6 -2
v 2 6 -3
v 2 7 1
v 2 7 -1
v 2 8 1
v 2 8 -1
v 2 9 1
v 2 9 -1
v 2 9 -3
v 2 10 2
v 2 10 1
v 2 10 -1
v 2 11 1
v 2 11 -0
v 2 11 -1
v 2 12 -0
v 2 12 -1
v 2 12 -2
v 2 12 -3
v 2 13 -1
v 2 13 -2
v 2 14 -2
v 2 14 -3
v 3 2 -0
v 3 2 -1
v 3 3 -0
v 3 3 -1
v 3 5 -0
v 3 5 -1
v 3 9 -2
v 3 9 -3
v 3 11 -1
v 3 11 -2
v 3 11 -3
v 3 12 -1
v 3 12 -2
v 4 9 -1
v 4 9 -2
v 4 11 -1
v 4 11 -2
v -1 4 3
v -1 7 3
v -1 8 3
v 1 4 3
v 1 7 3
v 1 8 3
v -2 6 2
v -2 10 2
v -1 6 2
v -1 7 2
v -1 8 2
v 1 6 2
v 1 7 2
v 1 8 2
v 2 6 2
v 2 10 2
v -2 0 1
v -2 1 1
v -2 3 1
v -2 5 1
v -2 6 1
v -2 10 1
v -2 11 1
v -1 5 1
v -1 6 1
v 1 5 1
v 1 6 1
v 2 0 1
v 2 1 1
v 2 3 1
v 2 5 1
v 2 6 1
v 2 10 1
v 2 11 1
v -3 2 -0
v -3 3 -0
v -3 5 -0
v -2 2 -0
v -2 3 -0
v -2 5 -0
v -2 11 -0
v -2 12 -0
v -1 11 -0
v -1 12 -0
v 1 11 -0
v 1 12 -0
v 2 2 -0
v 2 3 -0
v 2 5 -0
v 2 11 -0
v 2 12 -0
v 3 2 -0
v 3 3 -0
v 3 5 -0
v -4 9 -1
v -4 11 -1
v -3 10 -1
v -3 11 -1
v -3 12 -1
v -2 9 -1
v -2 10 -1
v -2 11 -1
v -2 12 -1
v -2 13 -1
v -1 12 -1
v -1 13 -1
v 1 12 -1
v 1 13 -1
v 2 9 -1
v 2 10 -1
v 2 11 -1
v 2 12 -1
v 2 13 -1
v 3 10 -1
v 3 11 -1
v 3 12 -1
v 4 9 -1
v 4 11 -1
v -2 13 -2
v -2 14 -2
v -1 13 -2
v -1 14 -2
v 1 13 -2
v 1 14 -2
v 2 13 -2
v 2 14 -2
v -1 4 2
v -1 5 2
v 1 4 2
v 1 5 2
v -3 2 -1
v -3 3 -1
v -3 5 -1
v -2 2 -1
v -2 3 -1
v -2 5 -1
v 2 2 -1
v 2 3 -1
v 2 5 -1
v 3 2 -1
v 3 3 -1
v 3 5 -1
v -4 9 -2
v -4 11 -2
v -3 9 -2
v -3 11 -2
v -3 12 -2
v -2 0 -2
v -2 1 -2
v -2 3 -2
v -2 5 -2
v -2 6 -2
v -2 11 -2
v -2 12 -2
v -1 5 -2
v -1 6 -2
v -1 11 -2
v -1 12 -2
v 1 5 -2
v 1 6 -2
v 1 11 -2
v 1 12 -2
v 2 0 -2
v 2 1 -2
v 2 3 -2
v 2 5 -2
v 2 6 -2
v 2 11 -2
v 2 12 -2
v 3 9 -2
v 3 11 -2
v 3 12 -2
v 4 9 -2
v 4 11 -2
v -3 9 -3
v -3 11 -3
v -2 6 -3
v -2 9 -3
v -2 12 -3
v -2 14 -3
v -1 12 -3
v -1 14 -3
v 1 12 -3
v 1 14 -3
v 2 6 -3
v 2 9 -3
v 2 12 -3
v 2 14 -3
v 3 9 -3
v 3 11 -3
v -2 0 1
v 2 0 1
v -2 0 -2
v 2 0 -2
v -3 2 -0
v -2 2 -0
v 2 2 -0
v 3 2 -0
v -3 2 -1
v -2 2 -1
v 2 2 -1
v 3 2 -1
v -1 4 3
v 1 4 3
v -1 4 2
v 1 4 2
v -1 5 2
v 1 5 2
v -1 5 1
v 1 5 1
v -2 6 2
v -1 6 2
v 1 6 2
v 2 6 2
v -2 6 1
v -1 6 1
v 1 6 1
v 2 6 1
v -2 6 -2
v -1 6 -2
v 1 6 -2
v 2 6 -2
v -2 6 -3
v 2 6 -3
v -4 9 -1
v -2 9 -1
v 2 9 -1
v 4 9 -1
v -4 9 -2
v -3 9 -2
v 3 9 -2
v 4 9 -2
v -3 9 -3
v -2 9 -3
v 2 9 -3
v 3 9 -3
v -2 12 -2
v -1 12 -2
v 1 12 -2
v 2 12 -2
v -2 12 -3
v -1 12 -3
v 1 12 -3
v 2 12 -3
v -3 5 -0
v -2 5 -0
v 2 5 -0
v 3 5 -0
v -3 5 -1
v -2 5 -1
v 2 5 -1
v 3 5 -1
v -1 8 3
v 1 8 3
v -1 8 2
v 1 8 2
v -2 10 2
v 2 10 2
v -2 10 1
v 2 10 1
v -2 11 1
v 2 11 1
v -2 11 -0
v -1 11 -0
v 1 11 -0
v 2 11 -0
v -4 11 -1
v -3 11 -1
v 3 11 -1
v 4 11 -1
v -4 11 -2
v -3 11 -2
v -2 11 -2
v -1 11 -2
v 1 11 -2
v 2 11 -2
v 3 11 -2
v 4 11 -2
v -3 11 -3
v 3 11 -3
v -2 12 -0
v -1 12 -0
v 1 12 -0
v 2 12 -0
v -3 12 -1
v -2 12 -1
v -1 12 -1
v 1 12 -1
v 2 12 -1
v 3 12 -1
v -3 12 -2
v -2 12 -2
v 2 12 -2
v 3 12 -2
v -2 13 -1
v -1 13 -1
v 1 13 -1
v 2 13 -1
v -2 13 -2
v -1 13 -2
v 1 13 -2
v 2 13 -2
v -2 14 -2
v -1 14 -2
v 1 14 -2
v 2 14 -2
v -2 14 -3
v -1 14 -3
v 1 14 -3
v 2 14 -3

# faces
f 3/4/1 2/4/1 1/4/1
f 4/4/1 2/4/1 3/4/1
f 7/4/1 6/4/1 5/4/1
f 8/4/1 6/4/1 7/4/1
f 9/7/1 8/7/1 7/7/1
f 10/7/1 8/7/1 9/7/1
f 14/4/1 12/4/1 11/4/1
f 15/4/1 12/4/1 14/4/1
f 16/4/1 14/4/1 13/4/1
f 17/4/1 14/4/1 16/4/1
f 20/9/1 19/9/1 18/9/1
f 21/9/1 19/9/1 20/9/1
f 22/8/1 21/8/1 20/8/1
f 23/8/1 21/8/1 22/8/1
f 24/8/1 22/8/1 20/8/1
f 25/8/1 22/8/1 24/8/1
f 26/8/1 21/8/1 23/8/1
f 27/8/1 21/8/1 26/8/1
f 28/7/1 25/7/1 24/7/1
f 29/7/1 25/7/1 28/7/1
f 30/7/1 27/7/1 26/7/1
f 31/7/1 27/7/1 30/7/1
f 33/5/1 29/5/1 28/5/1
f 33/5/1 30/5/1 29/5/1
f 33/5/1 31/5/1 30/5/1
f 34/5/1 31/5/1 33/5/1
f 36/4/1 34/4/1 33/4/1
f 36/4/1 35/4/1 34/4/1
f 36/4/1 33/4/1 32/4/1
f 37/4/1 35/4/1 36/4/1
f 38/4/1 36/4/1 32/4/1
f 38/6/1 37/6/1 36/6/1
f 39/4/1 35/4/1 37/4/1
f 39/6/1 37/6/1 38/6/1
f 40/4/1 38/4/1 32/4/1
f 40/12/1 39/12/1 38/12/1
f 41/4/1 35/4/1 39/4/1
f 41/12/1 39/12/1 40/12/1
f 42/4/1 35/4/1 41/4/1
f 43/4/1 40/4/1 32/4/1
f 44/6/1 41/6/1 40/6/1
f 44/4/1 40/4/1 43/4/1
f 45/6/1 41/6/1 44/6/1
f 46/4/1 45/4/1 44/4/1
f 47/4/1 45/4/1 46/4/1
f 48/4/1 45/4/1 47/4/1
f 49/10/1 48/10/1 47/10/1
f 50/10/1 48/10/1 49/10/1
f 53/10/1 52/10/1 51/10/1
f 53/10/1 51/10/1 50/10/1
f 54/10/1 52/10/1 53/10/1
f 55/10/1 52/10/1 54/10/1
f 56/10/1 52/10/1 55/10/1
f 59/4/1 58/4/1 57/4/1
f 61/4/1 59/4/1 57/4/1
f 61/5/1 60/5/1 59/5/1
f 62/5/1 60/5/1 61/5/1
f 63/4/1 61/4/1 57/4/1
f 64/4/1 61/4/1 63/4/1
f 65/11/1 64/11/1 63/11/1
f 66/11/1 64/11/1 65/11/1
f 69/10/1 68/10/1 67/10/1
f 70/10/1 68/10/1 69/10/1
f 71/10/1 68/10/1 70/10/1
f 73/10/1 72/10/1 71/10/1
f 73/10/1 71/10/1 70/10/1
f 74/10/1 72/10/1 73/10/1
f 75/10/1 72/10/1 74/10/1
f 76/10/1 72/10/1 75/10/1
f 77/10/2 78/10/2 79/10/2
f 79/10/2 78/10/2 80/10/2
f 80/10/2 78/10/2 81/10/2
f 81/10/2 82/10/2 83/10/2
f 80/10/2 81/10/2 83/10/2
f 83/10/2 82/10/2 84/10/2
f 84/10/2 82/10/2 85/10/2
f 85/10/2 82/10/2 86/10/2
f 87/4/2 88/4/2 89/4/2
f 87/4/2 89/4/2 91/4/2
f 89/5/2 90/5/2 91/5/2
f 91/5/2 90/5/2 92/5/2
f 87/4/2 91/4/2 93/4/2
f 93/4/2 91/4/2 94/4/2
f 93/11/2 94/11/2 95/11/2
f 95/11/2 94/11/2 96/11/2
f 97/9/2 98/9/2 99/9/2
f 99/9/2 98/9/2 100/9/2
f 99/8/2 100/8/2 101/8/2
f 101/8/2 100/8/2 102/8/2
f 99/8/2 101/8/2 103/8/2
f 103/8/2 101/8/2 104/8/2
f 102/8/2 100/8/2 105/8/2
f 105/8/2 100/8/2 106/8/2
f 103/7/2 104/7/2 107/7/2
f 107/7/2 104/7/2 108/7/2
f 105/7/2 106/7/2 109/7/2
f 109/7/2 106/7/2 110/7/2
f 107/5/2 108/5/2 112/5/2
f 108/5/2 109/5/2 112/5/2
f 109/5/2 110/5/2 112/5/2
f 112/5/2 110/5/2 113/5/2
f 112/4/2 113/4/2 115/4/2
f 113/4/2 114/4/2 115/4/2
f 111/4/2 112/4/2 115/4/2
f 115/4/2 114/4/2 116/4/2
f 111/4/2 115/4/2 117/4/2
f 115/6/2 116/6/2 117/6/2
f 116/4/2 114/4/2 118/4/2
f 117/6/2 116/6/2 118/6/2
f 111/4/2 117/4/2 119/4/2
f 117/12/2 118/12/2 119/12/2
f 118/4/2 114/4/2 120/4/2
f 119/12/2 118/12/2 120/12/2
f 120/4/2 114/4/2 121/4/2
f 111/4/2 119/4/2 122/4/2
f 119/6/2 120/6/2 123/6/2
f 122/4/2 119/4/2 123/4/2
f 123/6/2 120/6/2 124/6/2
f 123/4/2 124/4/2 125/4/2
f 125/4/2 124/4/2 126/4/2
f 126/4/2 124/4/2 127/4/2
f 126/10/2 127/10/2 128/10/2
f 128/10/2 127/10/2 129/10/2
f 130/10/2 131/10/2 132/10/2
f 129/10/2 130/10/2 132/10/2
f 132/10/2 131/10/2 133/10/2
f 133/10/2 131/10/2 134/10/2
f 134/10/2 131/10/2 135/10/2
f 136/4/2 137/4/2 138/4/2
f 138/4/2 137/4/2 139/4/2
f 138/7/2 139/7/2 140/7/2
f 140/7/2 139/7/2 141/7/2
f 142/4/2 143/4/2 145/4/2
f 145/4/2 143/4/2 146/4/2
f 144/4/2 145/4/2 147/4/2
f 147/4/2 145/4/2 148/4/2
f 149/4/2 150/4/2 151/4/2
f 151/4/2 150/4/2 152/4/2
f 156/4/3 154/4/3 153/4/3
f 157/11/3 155/11/3 154/11/3
f 157/4/3 154/4/3 156/4/3
f 158/11/3 155/11/3 157/11/3
f 161/4/3 160/4/3 159/4/3
f 162/4/3 160/4/3 161/4/3
f 163/4/3 160/4/3 162/4/3
f 166/4/3 160/4/3 163/4/3
f 167/4/3 165/4/3 164/4/3
f 167/4/3 166/4/3 165/4/3
f 168/4/3 160/4/3 166/4/3
f 168/4/3 166/4/3 167/4/3
f 176/7/3 172/7/3 171/7/3
f 176/5/3 173/5/3 172/5/3
f 177/5/3 173/5/3 176/5/3
f 178/7/3 176/7/3 171/7/3
f 180/9/3 170/9/3 169/9/3
f 181/8/3 171/8/3 170/8/3
f 181/9/3 170/9/3 180/9/3
f 182/7/3 178/7/3 171/7/3
f 182/8/3 171/8/3 181/8/3
f 183/5/3 179/5/3 178/5/3
f 183/7/3 178/7/3 182/7/3
f 184/5/3 179/5/3 183/5/3
f 185/4/3 175/4/3 174/4/3
f 186/4/3 175/4/3 185/4/3
f 190/4/3 188/4/3 187/4/3
f 191/7/3 189/7/3 188/7/3
f 191/4/3 188/4/3 190/4/3
f 192/7/3 189/7/3 191/7/3
f 195/10/3 194/10/3 193/10/3
f 196/10/3 194/10/3 195/10/3
f 202/10/3 198/10/3 197/10/3
f 203/10/3 198/10/3 202/10/3
f 204/4/3 200/4/3 199/4/3
f 205/7/3 201/7/3 200/7/3
f 205/4/3 200/4/3 204/4/3
f 206/7/3 201/7/3 205/7/3
f 209/4/3 208/4/3 207/4/3
f 210/4/3 208/4/3 209/4/3
f 212/4/3 209/4/3 207/4/3
f 213/2/3 210/2/3 209/2/3
f 213/4/3 209/4/3 212/4/3
f 214/4/3 211/4/3 210/4/3
f 214/2/3 210/2/3 213/2/3
f 215/4/3 211/4/3 214/4/3
f 217/10/3 216/10/3 215/10/3
f 218/10/3 216/10/3 217/10/3
f 224/10/3 220/10/3 219/10/3
f 225/10/3 220/10/3 224/10/3
f 226/2/3 223/2/3 222/2/3
f 226/4/3 222/4/3 221/4/3
f 227/4/3 224/4/3 223/4/3
f 227/2/3 223/2/3 226/2/3
f 228/4/3 224/4/3 227/4/3
f 229/4/3 226/4/3 221/4/3
f 229/4/3 227/4/3 226/4/3
f 230/4/3 227/4/3 229/4/3
f 233/10/3 232/10/3 231/10/3
f 234/10/3 232/10/3 233/10/3
f 237/10/3 236/10/3 235/10/3
f 238/10/3 236/10/3 237/10/3
f 239/4/4 240/4/4 241/4/4
f 241/4/4 240/4/4 242/4/4
f 243/4/4 244/4/4 246/4/4
f 244/7/4 245/7/4 247/7/4
f 246/4/4 244/4/4 247/4/4
f 247/7/4 245/7/4 248/7/4
f 249/4/4 250/4/4 252/4/4
f 250/7/4 251/7/4 253/7/4
f 252/4/4 250/4/4 253/4/4
f 253/7/4 251/7/4 254/7/4
f 255/4/4 256/4/4 257/4/4
f 257/4/4 256/4/4 258/4/4
f 258/4/4 259/4/4 265/4/4
f 265/4/4 259/4/4 266/4/4
f 263/5/4 264/5/4 267/5/4
f 262/7/4 263/7/4 267/7/4
f 267/5/4 264/5/4 268/5/4
f 265/10/4 266/10/4 269/10/4
f 269/10/4 266/10/4 270/10/4
f 267/4/4 268/4/4 271/4/4
f 262/7/4 267/7/4 271/7/4
f 271/4/4 268/4/4 272/4/4
f 260/9/4 261/9/4 275/9/4
f 261/8/4 262/8/4 276/8/4
f 275/9/4 261/9/4 276/9/4
f 262/7/4 271/7/4 277/7/4
f 276/8/4 262/8/4 277/8/4
f 271/5/4 272/5/4 278/5/4
f 277/7/4 271/7/4 278/7/4
f 278/5/4 272/5/4 279/5/4
f 273/10/4 274/10/4 280/10/4
f 280/10/4 274/10/4 281/10/4
f 280/4/4 281/4/4 283/4/4
f 283/4/4 281/4/4 284/4/4
f 282/4/4 283/4/4 285/4/4
f 285/4/4 283/4/4 286/4/4
f 287/4/4 288/4/4 290/4/4
f 291/10/4 292/10/4 293/10/4
f 293/10/4 292/10/4 294/10/4
f 289/4/4 290/4/4 297/4/4
f 290/4/4 288/4/4 298/4/4
f 297/4/4 290/4/4 298/4/4
f 295/10/4 296/10/4 299/10/4
f 299/10/4 296/10/4 300/10/4
f 298/4/4 288/4/4 301/4/4
f 301/4/4 288/4/4 302/4/4
f 305/9/5 304/9/5 303/9/5
f 306/9/5 304/9/5 305/9/5
f 311/4/5 308/4/5 307/4/5
f 312/4/5 308/4/5 311/4/5
f 313/4/5 310/4/5 309/4/5
f 314/4/5 310/4/5 313/4/5
f 317/4/5 316/4/5 315/4/5
f 318/4/5 316/4/5 317/4/5
f 321/5/5 320/5/5 319/5/5
f 322/5/5 320/5/5 321/5/5
f 327/4/5 324/4/5 323/4/5
f 328/4/5 324/4/5 327/4/5
f 329/4/5 326/4/5 325/4/5
f 330/4/5 326/4/5 329/4/5
f 335/4/5 332/4/5 331/4/5
f 335/4/5 334/4/5 333/4/5
f 335/4/5 333/4/5 332/4/5
f 336/4/5 334/4/5 335/4/5
f 341/4/5 338/4/5 337/4/5
f 342/4/5 338/4/5 341/4/5
f 343/4/5 340/4/5 339/4/5
f 344/4/5 340/4/5 343/4/5
f 345/4/5 338/4/5 342/4/5
f 346/4/5 338/4/5 345/4/5
f 347/4/5 343/4/5 339/4/5
f 348/4/5 343/4/5 347/4/5
f 353/10/5 350/10/5 349/10/5
f 354/10/5 350/10/5 353/10/5
f 355/10/5 352/10/5 351/10/5
f 356/10/5 352/10/5 355/10/5
f 357/7/6 358/7/6 361/7/6
f 361/7/6 358/7/6 362/7/6
f 359/7/6 360/7/6 363/7/6
f 363/7/6 360/7/6 364/7/6
f 365/11/6 366/11/6 367/11/6
f 367/11/6 366/11/6 368/11/6
f 369/4/6 370/4/6 371/4/6
f 371/4/6 370/4/6 372/4/6
f 373/4/6 374/4/6 375/4/6
f 375/4/6 374/4/6 376/4/6
f 376/4/6 374/4/6 377/4/6
f 377/4/6 374/4/6 378/4/6
f 379/4/6 380/4/6 383/4/6
f 383/4/6 380/4/6 384/4/6
f 376/4/6 377/4/6 386/4/6
f 386/4/6 377/4/6 387/4/6
f 381/4/6 382/4/6 389/4/6
f 389/4/6 382/4/6 390/4/6
f 387/4/6 388/4/6 391/4/6
f 384/4/6 385/4/6 391/4/6
f 388/4/6 389/4/6 391/4/6
f 386/4/6 387/4/6 391/4/6
f 385/4/6 386/4/6 391/4/6
f 391/4/6 389/4/6 392/4/6
f 393/10/6 394/10/6 398/10/6
f 398/10/6 394/10/6 399/10/6
f 395/10/6 396/10/6 400/10/6
f 400/10/6 396/10/6 401/10/6
f 397/4/6 398/4/6 403/4/6
f 403/4/6 398/4/6 404/4/6
f 401/4/6 402/4/6 405/4/6
f 405/4/6 402/4/6 406/4/6
f 407/10/6 408/10/6 411/10/6
f 411/10/6 408/10/6 412/10/6
f 409/10/6 410/10/6 413/10/6
f 413/10/6 410/10/6 414/10/6
f 415/10/6 416/10/6 419/10/6
f 419/10/6 416/10/6 420/10/6
f 417/10/6 418/10/6 421/10/6
f 421/10/6 418/10/6 422/10/6
