# MagicaVoxel @ Ephtracy

# group
g grilled_cheese

# material
mtllib grilled_cheese.mtl
usemtl palette

# normals
vn -1 0 0
vn 1 0 0
vn 0 0 1
vn 0 0 -1
vn 0 -1 0
vn 0 1 0

# texcoords
vt 0.177734 0.5
vt 0.224609 0.5
vt 0.271484 0.5
vt 0.279297 0.5
vt 0.330078 0.5
vt 0.373047 0.5

# verts
v -4 0 4
v -4 0 1
v -4 0 -0
v -4 0 -1
v -4 0 -2
v -4 0 -3
v -4 0 -4
v -4 1 4
v -4 1 2
v -4 1 1
v -4 1 -0
v -4 1 -1
v -4 1 -2
v -4 1 -3
v -4 1 -4
v -4 2 1
v -4 2 -0
v -4 2 -2
v -4 2 -3
v -4 3 4
v -4 3 2
v -4 3 1
v -4 3 -2
v -4 3 -3
v -4 3 -4
v -4 4 4
v -4 4 1
v -4 4 -2
v -4 4 -3
v -4 4 -4
v -3 1 3
v -3 1 2
v -3 1 -0
v -3 1 -1
v -3 1 -2
v -3 2 4
v -3 2 3
v -3 2 2
v -3 2 1
v -3 2 -0
v -3 2 -1
v -3 2 -2
v -3 2 -3
v -3 3 4
v -3 3 2
v -3 3 1
v -3 3 -0
v -3 3 -1
v -3 3 -2
v -3 3 -3
v -2 1 -3
v -2 1 -4
v -2 2 -3
v -2 2 -4
v -1 2 -3
v -1 2 -4
v -1 3 -3
v -1 3 -4
v 2 1 -3
v 2 1 -4
v 2 2 -3
v 2 2 -4
v -3 0 4
v -3 0 3
v -3 1 4
v -3 1 3
v -3 3 4
v -3 3 3
v -3 4 4
v -3 4 3
v -2 0 3
v -2 0 2
v -2 1 3
v -2 1 2
v -2 2 4
v -2 2 3
v -2 2 2
v -2 3 4
v -2 3 3
v -2 3 2
v -2 4 3
v -2 4 2
v -1 2 2
v -1 2 1
v -1 3 2
v -1 3 1
v -1 4 2
v -1 4 1
v 0 0 2
v 0 0 1
v 0 0 -0
v 0 1 2
v 0 1 1
v 0 1 -0
v 0 2 2
v 0 2 1
v 0 2 -0
v 0 2 -3
v 0 2 -4
v 0 3 1
v 0 3 -0
v 0 3 -3
v 0 3 -4
v 0 4 1
v 0 4 -0
v 1 0 -0
v 1 0 -1
v 1 1 -0
v 1 1 -1
v 1 1 -3
v 1 1 -4
v 1 2 -0
v 1 2 -1
v 1 2 -3
v 1 2 -4
v 1 3 -0
v 1 3 -1
v 1 4 -0
v 1 4 -1
v 2 1 -0
v 2 1 -1
v 2 1 -2
v 2 2 -0
v 2 2 -1
v 2 2 -2
v 2 3 -1
v 2 3 -2
v 2 4 -1
v 2 4 -2
v 3 0 -1
v 3 0 -2
v 3 0 -3
v 3 1 -1
v 3 1 -2
v 3 1 -3
v 3 1 -4
v 3 2 -2
v 3 2 -3
v 3 2 -4
v 3 3 -2
v 3 3 -3
v 3 4 -2
v 3 4 -3
v 4 0 -3
v 4 0 -4
v 4 1 -3
v 4 1 -4
v 4 3 -3
v 4 3 -4
v 4 4 -3
v 4 4 -4
v -4 0 4
v -4 1 4
v -4 3 4
v -4 4 4
v -3 0 4
v -3 1 4
v -3 2 4
v -3 3 4
v -3 4 4
v -2 2 4
v -2 3 4
v -3 0 3
v -3 1 3
v -3 2 3
v -3 3 3
v -3 4 3
v -2 0 3
v -2 1 3
v -2 2 3
v -2 3 3
v -2 4 3
v -4 1 2
v -4 3 2
v -3 1 2
v -3 2 2
v -3 3 2
v -2 0 2
v -2 1 2
v -2 2 2
v -2 3 2
v -2 4 2
v -1 0 2
v -1 1 2
v -1 2 2
v -1 3 2
v -1 4 2
v 0 0 2
v 0 1 2
v 0 2 2
v -1 2 1
v -1 3 1
v -1 4 1
v 0 2 1
v 0 3 1
v 0 4 1
v 0 0 -0
v 0 1 -0
v 0 2 -0
v 0 3 -0
v 0 4 -0
v 1 0 -0
v 1 1 -0
v 1 2 -0
v 1 3 -0
v 1 4 -0
v 2 1 -0
v 2 2 -0
v 1 0 -1
v 1 1 -1
v 1 2 -1
v 1 3 -1
v 1 4 -1
v 2 0 -1
v 2 1 -1
v 2 2 -1
v 2 3 -1
v 2 4 -1
v 3 0 -1
v 3 1 -1
v -4 1 -2
v -4 2 -2
v -3 1 -2
v -3 2 -2
v 2 1 -2
v 2 2 -2
v 2 3 -2
v 2 4 -2
v 3 1 -2
v 3 2 -2
v 3 3 -2
v 3 4 -2
v 3 0 -3
v 3 1 -3
v 3 3 -3
v 3 4 -3
v 4 0 -3
v 4 1 -3
v 4 3 -3
v 4 4 -3
v -4 2 1
v -4 3 1
v -3 2 1
v -3 3 1
v -4 1 -0
v -4 2 -0
v -3 1 -0
v -3 2 -0
v -4 1 -3
v -4 2 -3
v -3 1 -3
v -3 2 -3
v -3 3 -3
v -2 1 -3
v -2 2 -3
v -2 3 -3
v -1 2 -3
v -1 3 -3
v 0 2 -3
v 0 3 -3
v 1 1 -3
v 1 2 -3
v 1 3 -3
v 2 1 -3
v 2 2 -3
v 2 3 -3
v 3 2 -3
v 3 3 -3
v -4 0 -4
v -4 1 -4
v -4 3 -4
v -4 4 -4
v -3 3 -4
v -3 4 -4
v -2 0 -4
v -2 1 -4
v -2 2 -4
v -2 3 -4
v -2 4 -4
v -1 2 -4
v -1 3 -4
v -1 4 -4
v 0 2 -4
v 0 3 -4
v 1 1 -4
v 1 2 -4
v 1 3 -4
v 1 4 -4
v 2 0 -4
v 2 1 -4
v 2 2 -4
v 3 1 -4
v 3 2 -4
v 3 3 -4
v 3 4 -4
v 4 0 -4
v 4 1 -4
v 4 3 -4
v 4 4 -4
v -4 0 4
v -3 0 4
v -3 0 3
v -2 0 3
v -3 0 2
v -2 0 2
v -1 0 2
v 0 0 2
v -4 0 1
v -3 0 1
v -2 0 1
v -1 0 1
v 0 0 1
v -4 0 -0
v -3 0 -0
v -1 0 -0
v 0 0 -0
v 1 0 -0
v -4 0 -1
v -3 0 -1
v -2 0 -1
v -1 0 -1
v 0 0 -1
v 1 0 -1
v 2 0 -1
v 3 0 -1
v -4 0 -2
v -3 0 -2
v -2 0 -2
v -1 0 -2
v 0 0 -2
v 1 0 -2
v 2 0 -2
v 3 0 -2
v -4 0 -3
v -3 0 -3
v -2 0 -3
v -1 0 -3
v 0 0 -3
v 1 0 -3
v 2 0 -3
v 3 0 -3
v 4 0 -3
v -4 0 -4
v -2 0 -4
v 2 0 -4
v 4 0 -4
v 1 1 -0
v 2 1 -0
v 1 1 -1
v 2 1 -1
v -3 2 4
v -2 2 4
v -3 2 3
v -2 2 3
v -4 3 4
v -3 3 4
v -4 3 2
v -3 3 2
v -4 3 1
v -3 3 1
v -3 3 -0
v -3 3 -1
v -4 3 -2
v -3 3 -2
v -4 3 -3
v -3 3 -3
v -2 3 -3
v -1 3 -3
v 0 3 -3
v 1 3 -3
v 2 3 -3
v 3 3 -3
v 4 3 -3
v -4 3 -4
v -3 3 -4
v -2 3 -4
v -1 3 -4
v 0 3 -4
v 1 3 -4
v 3 3 -4
v 4 3 -4
v -4 1 4
v -3 1 4
v -3 1 3
v -4 1 2
v -3 1 2
v -4 1 -0
v -3 1 -0
v -4 1 -1
v -3 1 -1
v 2 1 -1
v 3 1 -1
v -4 1 -2
v -3 1 -2
v 2 1 -2
v 3 1 -2
v -4 1 -3
v -3 1 -3
v -2 1 -3
v 1 1 -3
v 2 1 -3
v 3 1 -3
v 4 1 -3
v -4 1 -4
v -2 1 -4
v 1 1 -4
v 2 1 -4
v 3 1 -4
v 4 1 -4
v -1 2 2
v 0 2 2
v -4 2 1
v -3 2 1
v -1 2 1
v 0 2 1
v -4 2 -0
v -3 2 -0
v 1 2 -0
v 2 2 -0
v 1 2 -1
v 2 2 -1
v -4 2 -2
v -3 2 -2
v -4 2 -3
v -3 2 -3
v -2 2 -3
v -1 2 -3
v 0 2 -3
v 1 2 -3
v 2 2 -3
v 3 2 -3
v -2 2 -4
v -1 2 -4
v 0 2 -4
v 1 2 -4
v 2 2 -4
v 3 2 -4
v -3 3 4
v -2 3 4
v -3 3 3
v -2 3 3
v -4 4 4
v -3 4 4
v -3 4 3
v -2 4 3
v -3 4 2
v -2 4 2
v -1 4 2
v -4 4 1
v -3 4 1
v -2 4 1
v -1 4 1
v 0 4 1
v -3 4 -0
v -1 4 -0
v 0 4 -0
v 1 4 -0
v -2 4 -1
v -1 4 -1
v 1 4 -1
v 2 4 -1
v -4 4 -2
v -3 4 -2
v -2 4 -2
v -1 4 -2
v 0 4 -2
v 1 4 -2
v 2 4 -2
v 3 4 -2
v -4 4 -3
v -3 4 -3
v -2 4 -3
v -1 4 -3
v 0 4 -3
v 1 4 -3
v 2 4 -3
v 3 4 -3
v 4 4 -3
v -4 4 -4
v -3 4 -4
v -2 4 -4
v -1 4 -4
v 1 4 -4
v 3 4 -4
v 4 4 -4

# faces
f 8/1/1 2/1/1 1/1/1
f 9/1/1 2/1/1 8/1/1
f 10/2/1 3/2/1 2/2/1
f 10/1/1 2/1/1 9/1/1
f 11/1/1 4/1/1 3/1/1
f 11/2/1 3/2/1 10/2/1
f 12/2/1 5/2/1 4/2/1
f 12/1/1 4/1/1 11/1/1
f 13/1/1 6/1/1 5/1/1
f 13/2/1 5/2/1 12/2/1
f 14/2/1 7/2/1 6/2/1
f 14/1/1 6/1/1 13/1/1
f 15/2/1 7/2/1 14/2/1
f 16/6/1 10/6/1 9/6/1
f 16/6/1 11/6/1 10/6/1
f 17/6/1 11/6/1 16/6/1
f 18/5/1 14/5/1 13/5/1
f 19/5/1 14/5/1 18/5/1
f 21/6/1 16/6/1 9/6/1
f 22/6/1 16/6/1 21/6/1
f 26/2/1 21/2/1 20/2/1
f 26/2/1 22/2/1 21/2/1
f 27/1/1 23/1/1 22/1/1
f 27/2/1 22/2/1 26/2/1
f 28/2/1 24/2/1 23/2/1
f 28/1/1 23/1/1 27/1/1
f 29/1/1 25/1/1 24/1/1
f 29/2/1 24/2/1 28/2/1
f 30/1/1 25/1/1 29/1/1
f 37/6/1 32/6/1 31/6/1
f 38/6/1 32/6/1 37/6/1
f 40/6/1 35/6/1 34/6/1
f 40/6/1 34/6/1 33/6/1
f 41/6/1 35/6/1 40/6/1
f 42/6/1 35/6/1 41/6/1
f 44/5/1 38/5/1 37/5/1
f 44/5/1 37/5/1 36/5/1
f 45/5/1 38/5/1 44/5/1
f 46/6/1 40/6/1 39/6/1
f 47/5/1 41/5/1 40/5/1
f 47/6/1 40/6/1 46/6/1
f 48/6/1 42/6/1 41/6/1
f 48/5/1 41/5/1 47/5/1
f 49/5/1 43/5/1 42/5/1
f 49/6/1 42/6/1 48/6/1
f 50/5/1 43/5/1 49/5/1
f 53/6/1 52/6/1 51/6/1
f 54/6/1 52/6/1 53/6/1
f 57/5/1 56/5/1 55/5/1
f 58/5/1 56/5/1 57/5/1
f 61/5/1 60/5/1 59/5/1
f 62/5/1 60/5/1 61/5/1
f 63/1/2 64/1/2 65/1/2
f 65/1/2 64/1/2 66/1/2
f 67/2/2 68/2/2 69/2/2
f 69/2/2 68/2/2 70/2/2
f 71/4/2 72/4/2 73/4/2
f 73/4/2 72/4/2 74/4/2
f 73/6/2 74/6/2 76/6/2
f 76/6/2 74/6/2 77/6/2
f 75/5/2 76/5/2 78/5/2
f 76/5/2 77/5/2 78/5/2
f 78/5/2 77/5/2 79/5/2
f 79/5/2 77/5/2 80/5/2
f 79/4/2 80/4/2 81/4/2
f 81/4/2 80/4/2 82/4/2
f 83/6/2 84/6/2 85/6/2
f 85/6/2 84/6/2 86/6/2
f 85/4/2 86/4/2 87/4/2
f 87/4/2 86/4/2 88/4/2
f 89/5/2 90/5/2 92/5/2
f 90/4/2 91/4/2 93/4/2
f 92/5/2 90/5/2 93/5/2
f 93/4/2 91/4/2 94/4/2
f 92/6/2 93/6/2 95/6/2
f 93/6/2 94/6/2 95/6/2
f 95/6/2 94/6/2 96/6/2
f 96/6/2 94/6/2 97/6/2
f 96/6/2 97/6/2 100/6/2
f 100/6/2 97/6/2 101/6/2
f 98/5/2 99/5/2 102/5/2
f 102/5/2 99/5/2 103/5/2
f 100/4/2 101/4/2 104/4/2
f 104/4/2 101/4/2 105/4/2
f 106/3/2 107/3/2 108/3/2
f 108/3/2 107/3/2 109/3/2
f 110/6/2 111/6/2 114/6/2
f 114/6/2 111/6/2 115/6/2
f 112/5/2 113/5/2 116/5/2
f 116/5/2 113/5/2 117/5/2
f 116/3/2 117/3/2 118/3/2
f 118/3/2 117/3/2 119/3/2
f 120/6/2 121/6/2 123/6/2
f 121/6/2 122/6/2 123/6/2
f 123/6/2 122/6/2 124/6/2
f 124/6/2 122/6/2 125/6/2
f 124/6/2 125/6/2 126/6/2
f 126/6/2 125/6/2 127/6/2
f 126/4/2 127/4/2 128/4/2
f 128/4/2 127/4/2 129/4/2
f 130/5/2 131/5/2 133/5/2
f 131/4/2 132/4/2 134/4/2
f 133/5/2 131/5/2 134/5/2
f 134/4/2 132/4/2 135/4/2
f 134/6/2 135/6/2 137/6/2
f 135/5/2 136/5/2 138/5/2
f 137/6/2 135/6/2 138/6/2
f 138/5/2 136/5/2 139/5/2
f 137/5/2 138/5/2 140/5/2
f 140/5/2 138/5/2 141/5/2
f 140/4/2 141/4/2 142/4/2
f 142/4/2 141/4/2 143/4/2
f 144/2/2 145/2/2 146/2/2
f 146/2/2 145/2/2 147/2/2
f 148/2/2 149/2/2 150/2/2
f 150/2/2 149/2/2 151/2/2
f 156/1/3 153/1/3 152/1/3
f 157/1/3 153/1/3 156/1/3
f 159/2/3 155/2/3 154/2/3
f 160/2/3 155/2/3 159/2/3
f 161/5/3 159/5/3 158/5/3
f 162/5/3 159/5/3 161/5/3
f 168/4/3 164/4/3 163/4/3
f 169/6/3 165/6/3 164/6/3
f 169/4/3 164/4/3 168/4/3
f 170/6/3 165/6/3 169/6/3
f 171/4/3 167/4/3 166/4/3
f 172/4/3 167/4/3 171/4/3
f 175/6/3 174/6/3 173/6/3
f 176/6/3 174/6/3 175/6/3
f 177/6/3 174/6/3 176/6/3
f 183/4/3 179/4/3 178/4/3
f 184/5/3 180/5/3 179/5/3
f 184/4/3 179/4/3 183/4/3
f 185/6/3 181/6/3 180/6/3
f 185/5/3 180/5/3 184/5/3
f 186/4/3 182/4/3 181/4/3
f 186/6/3 181/6/3 185/6/3
f 187/4/3 182/4/3 186/4/3
f 188/5/3 184/5/3 183/5/3
f 189/6/3 185/6/3 184/6/3
f 189/5/3 184/5/3 188/5/3
f 190/6/3 185/6/3 189/6/3
f 194/6/3 192/6/3 191/6/3
f 195/4/3 193/4/3 192/4/3
f 195/6/3 192/6/3 194/6/3
f 196/4/3 193/4/3 195/4/3
f 202/3/3 198/3/3 197/3/3
f 203/6/3 199/6/3 198/6/3
f 203/3/3 198/3/3 202/3/3
f 204/5/3 200/5/3 199/5/3
f 204/6/3 199/6/3 203/6/3
f 205/3/3 201/3/3 200/3/3
f 205/5/3 200/5/3 204/5/3
f 206/3/3 201/3/3 205/3/3
f 207/6/3 204/6/3 203/6/3
f 208/6/3 204/6/3 207/6/3
f 214/3/3 210/3/3 209/3/3
f 215/3/3 210/3/3 214/3/3
f 216/6/3 212/6/3 211/6/3
f 217/4/3 213/4/3 212/4/3
f 217/6/3 212/6/3 216/6/3
f 218/4/3 213/4/3 217/4/3
f 219/5/3 215/5/3 214/5/3
f 220/5/3 215/5/3 219/5/3
f 223/5/3 222/5/3 221/5/3
f 224/5/3 222/5/3 223/5/3
f 229/6/3 226/6/3 225/6/3
f 230/5/3 227/5/3 226/5/3
f 230/6/3 226/6/3 229/6/3
f 231/4/3 228/4/3 227/4/3
f 231/5/3 227/5/3 230/5/3
f 232/4/3 228/4/3 231/4/3
f 237/2/3 234/2/3 233/2/3
f 238/2/3 234/2/3 237/2/3
f 239/2/3 236/2/3 235/2/3
f 240/2/3 236/2/3 239/2/3
f 241/6/4 242/6/4 243/6/4
f 243/6/4 242/6/4 244/6/4
f 245/6/4 246/6/4 247/6/4
f 247/6/4 246/6/4 248/6/4
f 249/5/4 250/5/4 251/5/4
f 251/5/4 250/5/4 252/5/4
f 251/6/4 252/6/4 254/6/4
f 252/5/4 253/5/4 255/5/4
f 254/6/4 252/6/4 255/6/4
f 255/5/4 253/5/4 256/5/4
f 255/6/4 256/6/4 257/6/4
f 257/6/4 256/6/4 258/6/4
f 259/6/4 260/6/4 262/6/4
f 262/6/4 260/6/4 263/6/4
f 261/6/4 262/6/4 264/6/4
f 262/6/4 263/6/4 264/6/4
f 264/6/4 263/6/4 265/6/4
f 265/6/4 263/6/4 266/6/4
f 265/5/4 266/5/4 267/5/4
f 267/5/4 266/5/4 268/5/4
f 271/1/4 272/1/4 273/1/4
f 273/1/4 272/1/4 274/1/4
f 269/2/4 270/2/4 275/2/4
f 275/2/4 270/2/4 276/2/4
f 273/2/4 274/2/4 278/2/4
f 278/2/4 274/2/4 279/2/4
f 276/6/4 277/6/4 280/6/4
f 278/1/4 279/1/4 281/1/4
f 281/1/4 279/1/4 282/1/4
f 276/6/4 280/6/4 283/6/4
f 280/5/4 281/5/4 283/5/4
f 281/2/4 282/2/4 284/2/4
f 283/5/4 281/5/4 284/5/4
f 275/1/4 276/1/4 285/1/4
f 276/6/4 283/6/4 285/6/4
f 285/6/4 283/6/4 286/6/4
f 284/2/4 282/2/4 287/2/4
f 287/2/4 282/2/4 288/2/4
f 275/1/4 285/1/4 289/1/4
f 289/1/4 285/1/4 290/1/4
f 289/2/4 290/2/4 292/2/4
f 290/5/4 291/5/4 292/5/4
f 292/5/4 291/5/4 293/5/4
f 287/1/4 288/1/4 294/1/4
f 294/1/4 288/1/4 295/1/4
f 289/2/4 292/2/4 296/2/4
f 296/2/4 292/2/4 297/2/4
f 294/2/4 295/2/4 298/2/4
f 298/2/4 295/2/4 299/2/4
f 302/1/5 301/1/5 300/1/5
f 304/1/5 302/1/5 300/1/5
f 304/4/5 303/4/5 302/4/5
f 305/4/5 303/4/5 304/4/5
f 308/1/5 304/1/5 300/1/5
f 309/3/5 305/3/5 304/3/5
f 309/1/5 304/1/5 308/1/5
f 310/4/5 306/4/5 305/4/5
f 310/3/5 305/3/5 309/3/5
f 311/5/5 307/5/5 306/5/5
f 311/4/5 306/4/5 310/4/5
f 312/5/5 307/5/5 311/5/5
f 313/2/5 309/2/5 308/2/5
f 314/4/5 310/4/5 309/4/5
f 314/2/5 309/2/5 313/2/5
f 315/3/5 311/3/5 310/3/5
f 315/4/5 312/4/5 311/4/5
f 316/4/5 312/4/5 315/4/5
f 318/1/5 314/1/5 313/1/5
f 319/4/5 310/4/5 314/4/5
f 319/1/5 314/1/5 318/1/5
f 320/3/5 316/3/5 315/3/5
f 320/4/5 310/4/5 319/4/5
f 320/3/5 317/3/5 316/3/5
f 320/3/5 315/3/5 310/3/5
f 321/3/5 317/3/5 320/3/5
f 322/3/5 317/3/5 321/3/5
f 323/3/5 317/3/5 322/3/5
f 326/2/5 319/2/5 318/2/5
f 327/3/5 320/3/5 319/3/5
f 327/2/5 319/2/5 326/2/5
f 328/4/5 321/4/5 320/4/5
f 328/3/5 320/3/5 327/3/5
f 329/3/5 322/3/5 321/3/5
f 329/4/5 321/4/5 328/4/5
f 330/4/5 323/4/5 322/4/5
f 330/3/5 322/3/5 329/3/5
f 331/3/5 324/3/5 323/3/5
f 331/4/5 323/4/5 330/4/5
f 332/5/5 325/5/5 324/5/5
f 332/3/5 324/3/5 331/3/5
f 333/5/5 325/5/5 332/5/5
f 334/1/5 327/1/5 326/1/5
f 335/4/5 328/4/5 327/4/5
f 335/1/5 327/1/5 334/1/5
f 336/3/5 329/3/5 328/3/5
f 336/4/5 328/4/5 335/4/5
f 337/4/5 330/4/5 329/4/5
f 337/3/5 329/3/5 336/3/5
f 338/3/5 331/3/5 330/3/5
f 338/4/5 330/4/5 337/4/5
f 339/4/5 332/4/5 331/4/5
f 339/3/5 331/3/5 338/3/5
f 339/4/5 333/4/5 332/4/5
f 340/4/5 333/4/5 339/4/5
f 341/4/5 333/4/5 340/4/5
f 343/2/5 335/2/5 334/2/5
f 343/2/5 336/2/5 335/2/5
f 344/1/5 337/1/5 336/1/5
f 344/2/5 336/2/5 343/2/5
f 344/1/5 340/1/5 339/1/5
f 344/1/5 339/1/5 338/1/5
f 344/1/5 338/1/5 337/1/5
f 345/2/5 341/2/5 340/2/5
f 345/1/5 340/1/5 344/1/5
f 345/2/5 342/2/5 341/2/5
f 346/2/5 342/2/5 345/2/5
f 349/6/5 348/6/5 347/6/5
f 350/6/5 348/6/5 349/6/5
f 353/5/5 352/5/5 351/5/5
f 354/5/5 352/5/5 353/5/5
f 357/2/5 356/2/5 355/2/5
f 358/2/5 356/2/5 357/2/5
f 361/1/5 360/1/5 359/1/5
f 362/1/5 361/1/5 359/1/5
f 363/1/5 362/1/5 359/1/5
f 364/1/5 362/1/5 363/1/5
f 365/2/5 364/2/5 363/2/5
f 366/2/5 364/2/5 365/2/5
f 374/1/5 366/1/5 365/1/5
f 375/2/5 367/2/5 366/2/5
f 375/1/5 366/1/5 374/1/5
f 376/1/5 368/1/5 367/1/5
f 376/2/5 367/2/5 375/2/5
f 377/1/5 368/1/5 376/1/5
f 378/2/5 370/2/5 369/2/5
f 379/1/5 371/1/5 370/1/5
f 379/2/5 370/2/5 378/2/5
f 379/1/5 372/1/5 371/1/5
f 380/2/5 373/2/5 372/2/5
f 380/1/5 372/1/5 379/1/5
f 381/2/5 373/2/5 380/2/5
f 382/1/6 383/1/6 384/1/6
f 382/1/6 384/1/6 385/1/6
f 385/1/6 384/1/6 386/1/6
f 387/1/6 388/1/6 389/1/6
f 389/1/6 388/1/6 390/1/6
f 389/2/6 390/2/6 393/2/6
f 393/2/6 390/2/6 394/2/6
f 391/5/6 392/5/6 395/5/6
f 395/5/6 392/5/6 396/5/6
f 397/2/6 398/2/6 404/2/6
f 398/2/6 399/2/6 404/2/6
f 404/2/6 399/2/6 405/2/6
f 400/1/6 401/1/6 406/1/6
f 406/1/6 401/1/6 407/1/6
f 402/2/6 403/2/6 408/2/6
f 408/2/6 403/2/6 409/2/6
f 410/6/6 411/6/6 414/6/6
f 414/6/6 411/6/6 415/6/6
f 412/6/6 413/6/6 416/6/6
f 416/6/6 413/6/6 417/6/6
f 418/6/6 419/6/6 420/6/6
f 420/6/6 419/6/6 421/6/6
f 422/5/6 423/5/6 424/5/6
f 424/5/6 423/5/6 425/5/6
f 426/6/6 427/6/6 432/6/6
f 432/6/6 427/6/6 433/6/6
f 428/6/6 429/6/6 434/6/6
f 434/6/6 429/6/6 435/6/6
f 430/5/6 431/5/6 436/5/6
f 436/5/6 431/5/6 437/5/6
f 438/5/6 439/5/6 440/5/6
f 440/5/6 439/5/6 441/5/6
f 442/2/6 443/2/6 444/2/6
f 442/2/6 444/2/6 446/2/6
f 444/4/6 445/4/6 446/4/6
f 446/4/6 445/4/6 447/4/6
f 442/2/6 446/2/6 449/2/6
f 446/3/6 447/3/6 450/3/6
f 449/2/6 446/2/6 450/2/6
f 447/4/6 448/4/6 451/4/6
f 450/3/6 447/3/6 451/3/6
f 451/4/6 448/4/6 452/4/6
f 449/1/6 450/1/6 454/1/6
f 450/3/6 451/3/6 454/3/6
f 451/3/6 452/3/6 454/3/6
f 452/4/6 453/4/6 455/4/6
f 454/3/6 452/3/6 455/3/6
f 455/4/6 453/4/6 456/4/6
f 454/4/6 455/4/6 458/4/6
f 455/4/6 456/4/6 458/4/6
f 458/4/6 456/4/6 459/4/6
f 456/3/6 457/3/6 460/3/6
f 449/1/6 454/1/6 462/1/6
f 454/4/6 458/4/6 463/4/6
f 462/1/6 454/1/6 463/1/6
f 458/3/6 459/3/6 464/3/6
f 463/4/6 458/4/6 464/4/6
f 459/4/6 456/4/6 465/4/6
f 464/3/6 459/3/6 465/3/6
f 456/3/6 460/3/6 466/3/6
f 465/4/6 456/4/6 466/4/6
f 460/4/6 461/4/6 467/4/6
f 466/3/6 460/3/6 467/3/6
f 467/4/6 461/4/6 468/4/6
f 462/2/6 463/2/6 470/2/6
f 463/3/6 464/3/6 471/3/6
f 470/2/6 463/2/6 471/2/6
f 464/4/6 465/4/6 472/4/6
f 471/3/6 464/3/6 472/3/6
f 465/3/6 466/3/6 473/3/6
f 472/4/6 465/4/6 473/4/6
f 466/4/6 467/4/6 474/4/6
f 473/3/6 466/3/6 474/3/6
f 467/3/6 468/3/6 475/3/6
f 474/4/6 467/4/6 475/4/6
f 468/4/6 469/4/6 476/4/6
f 475/3/6 468/3/6 476/3/6
f 476/4/6 469/4/6 477/4/6
f 470/1/6 471/1/6 479/1/6
f 471/2/6 472/2/6 480/2/6
f 479/1/6 471/1/6 480/1/6
f 472/1/6 473/1/6 481/1/6
f 480/2/6 472/2/6 481/2/6
f 474/2/6 475/2/6 482/2/6
f 481/1/6 473/1/6 482/1/6
f 473/2/6 474/2/6 482/2/6
f 476/1/6 477/1/6 483/1/6
f 482/2/6 475/2/6 483/2/6
f 475/1/6 476/1/6 483/1/6
f 477/2/6 478/2/6 484/2/6
f 483/1/6 477/1/6 484/1/6
f 484/2/6 478/2/6 485/2/6
