# MagicaVoxel @ Ephtracy

# group
g meat

# material
mtllib meat.mtl
usemtl palette

# normals
vn -1 0 0
vn 1 0 0
vn 0 0 1
vn 0 0 -1
vn 0 -1 0
vn 0 1 0

# texcoords
vt 0.0488281 0.5
vt 0.0605469 0.5
vt 0.0644531 0.5

# verts
v -4 0 2
v -4 0 -2
v -4 1 3
v -4 1 2
v -4 1 -2
v -4 1 -3
v -4 2 1
v -4 2 -1
v -4 4 1
v -4 4 -1
v -4 5 3
v -4 5 2
v -4 5 -2
v -4 5 -3
v -4 6 2
v -4 6 -2
v 3 2 2
v 3 2 1
v 3 2 -1
v 3 2 -2
v 3 4 2
v 3 4 1
v 3 4 -1
v 3 4 -2
v 0 0 2
v 0 0 -2
v 0 1 3
v 0 1 2
v 0 1 -2
v 0 1 -3
v 0 5 3
v 0 5 2
v 0 5 -2
v 0 5 -3
v 0 6 2
v 0 6 -2
v 1 1 2
v 1 1 -2
v 1 2 1
v 1 2 -1
v 1 4 1
v 1 4 -1
v 1 5 2
v 1 5 -2
v 4 2 2
v 4 2 -2
v 4 4 2
v 4 4 -2
v -4 1 3
v -4 5 3
v 0 1 3
v 0 5 3
v -4 0 2
v -4 1 2
v -4 5 2
v -4 6 2
v 0 0 2
v 0 1 2
v 0 5 2
v 0 6 2
v 1 1 2
v 1 5 2
v 3 2 2
v 3 4 2
v 4 2 2
v 4 4 2
v 1 2 1
v 1 4 1
v 3 2 1
v 3 4 1
v 1 2 -1
v 1 4 -1
v 3 2 -1
v 3 4 -1
v -4 0 -2
v -4 1 -2
v -4 5 -2
v -4 6 -2
v 0 0 -2
v 0 1 -2
v 0 5 -2
v 0 6 -2
v 1 1 -2
v 1 5 -2
v 3 2 -2
v 3 4 -2
v 4 2 -2
v 4 4 -2
v -4 1 -3
v -4 5 -3
v 0 1 -3
v 0 5 -3
v -4 0 2
v 0 0 2
v -4 0 -2
v 0 0 -2
v -4 1 3
v 0 1 3
v -4 1 2
v 0 1 2
v 1 1 2
v -4 1 -2
v 0 1 -2
v 1 1 -2
v -4 1 -3
v 0 1 -3
v 3 2 2
v 4 2 2
v 1 2 1
v 3 2 1
v 1 2 -1
v 3 2 -1
v 3 2 -2
v 4 2 -2
v 3 4 2
v 4 4 2
v 1 4 1
v 3 4 1
v 1 4 -1
v 3 4 -1
v 3 4 -2
v 4 4 -2
v -4 5 3
v 0 5 3
v -4 5 2
v 0 5 2
v 1 5 2
v -4 5 -2
v 0 5 -2
v 1 5 -2
v -4 5 -3
v 0 5 -3
v -4 6 2
v 0 6 2
v -4 6 -2
v 0 6 -2

# faces
f 4/2/1 2/2/1 1/2/1
f 5/2/1 2/2/1 4/2/1
f 7/3/1 5/3/1 4/3/1
f 8/3/1 5/3/1 7/3/1
f 9/3/1 7/3/1 4/3/1
f 9/1/1 8/1/1 7/1/1
f 10/3/1 5/3/1 8/3/1
f 10/1/1 8/1/1 9/1/1
f 11/2/1 4/2/1 3/2/1
f 12/3/1 9/3/1 4/3/1
f 12/2/1 4/2/1 11/2/1
f 12/3/1 10/3/1 9/3/1
f 13/3/1 5/3/1 10/3/1
f 13/3/1 10/3/1 12/3/1
f 13/2/1 6/2/1 5/2/1
f 14/2/1 6/2/1 13/2/1
f 15/2/1 13/2/1 12/2/1
f 16/2/1 13/2/1 15/2/1
f 21/1/1 18/1/1 17/1/1
f 22/1/1 18/1/1 21/1/1
f 23/1/1 20/1/1 19/1/1
f 24/1/1 20/1/1 23/1/1
f 25/2/2 26/2/2 28/2/2
f 28/2/2 26/2/2 29/2/2
f 27/2/2 28/2/2 31/2/2
f 31/2/2 28/2/2 32/2/2
f 29/2/2 30/2/2 33/2/2
f 33/2/2 30/2/2 34/2/2
f 32/2/2 33/2/2 35/2/2
f 35/2/2 33/2/2 36/2/2
f 37/2/2 38/2/2 39/2/2
f 39/2/2 38/2/2 40/2/2
f 37/2/2 39/2/2 41/2/2
f 40/2/2 38/2/2 42/2/2
f 37/2/2 41/2/2 43/2/2
f 41/2/2 42/2/2 43/2/2
f 42/2/2 38/2/2 44/2/2
f 43/2/2 42/2/2 44/2/2
f 45/1/2 46/1/2 47/1/2
f 47/1/2 46/1/2 48/1/2
f 51/2/3 50/2/3 49/2/3
f 52/2/3 50/2/3 51/2/3
f 57/2/3 54/2/3 53/2/3
f 58/2/3 54/2/3 57/2/3
f 59/2/3 56/2/3 55/2/3
f 60/2/3 56/2/3 59/2/3
f 61/2/3 59/2/3 58/2/3
f 62/2/3 59/2/3 61/2/3
f 65/1/3 64/1/3 63/1/3
f 66/1/3 64/1/3 65/1/3
f 69/1/3 68/1/3 67/1/3
f 70/1/3 68/1/3 69/1/3
f 71/1/4 72/1/4 73/1/4
f 73/1/4 72/1/4 74/1/4
f 75/2/4 76/2/4 79/2/4
f 79/2/4 76/2/4 80/2/4
f 77/2/4 78/2/4 81/2/4
f 81/2/4 78/2/4 82/2/4
f 80/2/4 81/2/4 83/2/4
f 83/2/4 81/2/4 84/2/4
f 85/1/4 86/1/4 87/1/4
f 87/1/4 86/1/4 88/1/4
f 89/2/4 90/2/4 91/2/4
f 91/2/4 90/2/4 92/2/4
f 95/2/5 94/2/5 93/2/5
f 96/2/5 94/2/5 95/2/5
f 99/2/5 98/2/5 97/2/5
f 100/2/5 98/2/5 99/2/5
f 103/2/5 101/2/5 100/2/5
f 104/2/5 101/2/5 103/2/5
f 105/2/5 103/2/5 102/2/5
f 106/2/5 103/2/5 105/2/5
f 110/1/5 108/1/5 107/1/5
f 111/1/5 110/1/5 109/1/5
f 112/1/5 108/1/5 110/1/5
f 112/1/5 110/1/5 111/1/5
f 113/1/5 108/1/5 112/1/5
f 114/1/5 108/1/5 113/1/5
f 115/1/6 116/1/6 118/1/6
f 117/1/6 118/1/6 119/1/6
f 118/1/6 116/1/6 120/1/6
f 119/1/6 118/1/6 120/1/6
f 120/1/6 116/1/6 121/1/6
f 121/1/6 116/1/6 122/1/6
f 123/2/6 124/2/6 125/2/6
f 125/2/6 124/2/6 126/2/6
f 126/2/6 127/2/6 129/2/6
f 129/2/6 127/2/6 130/2/6
f 128/2/6 129/2/6 131/2/6
f 131/2/6 129/2/6 132/2/6
f 133/2/6 134/2/6 135/2/6
f 135/2/6 134/2/6 136/2/6
