# MagicaVoxel @ Ephtracy

# group
g pigman

# material
mtllib pigman.mtl
usemtl palette

# normals
vn -1 0 0
vn 1 0 0
vn 0 0 1
vn 0 0 -1
vn 0 -1 0
vn 0 1 0

# texcoords
vt 0.00976563 0.5
vt 0.0292969 0.5
vt 0.0488281 0.5
vt 0.146484 0.5
vt 0.396484 0.5
vt 0.455078 0.5
vt 0.529297 0.5
vt 0.654297 0.5
vt 0.779297 0.5
vt 0.958984 0.5
vt 0.986328 0.5

# verts
v -3 2 -0
v -3 2 -1
v -3 3 -0
v -3 3 -1
v -3 5 2
v -3 5 -0
v -3 5 -1
v -3 5 -2
v -3 9 2
v -3 9 -1
v -3 11 -1
v -3 11 -2
v -2 0 1
v -2 0 -2
v -2 1 1
v -2 1 -2
v -2 2 -0
v -2 2 -1
v -2 3 1
v -2 3 -0
v -2 3 -1
v -2 3 -2
v -2 5 3
v -2 5 2
v -2 5 1
v -2 5 -0
v -2 5 -1
v -2 5 -2
v -2 5 -3
v -2 6 3
v -2 6 2
v -2 7 3
v -2 7 2
v -2 9 2
v -2 9 -0
v -2 9 -1
v -2 9 -2
v -2 9 -3
v -2 10 2
v -2 10 -0
v -2 10 -1
v -2 11 -0
v -2 11 -1
v -1 6 4
v -1 6 3
v -1 7 3
v -1 7 2
v -1 8 4
v -1 8 3
v -1 8 2
v -1 9 3
v -1 9 2
v 1 10 -0
v 1 10 -1
v 1 11 -0
v 1 11 -1
v 2 10 -1
v 2 10 -2
v 2 11 -1
v 2 11 -2
v -2 10 -1
v -2 10 -2
v -2 11 -1
v -2 11 -2
v -1 10 -0
v -1 10 -1
v -1 11 -0
v -1 11 -1
v 1 6 4
v 1 6 3
v 1 7 3
v 1 7 2
v 1 8 4
v 1 8 3
v 1 8 2
v 1 9 3
v 1 9 2
v 2 0 1
v 2 0 -2
v 2 1 1
v 2 1 -2
v 2 2 -0
v 2 2 -1
v 2 3 1
v 2 3 -0
v 2 3 -1
v 2 3 -2
v 2 5 3
v 2 5 2
v 2 5 1
v 2 5 -0
v 2 5 -1
v 2 5 -2
v 2 5 -3
v 2 6 3
v 2 6 2
v 2 7 3
v 2 7 2
v 2 9 2
v 2 9 -0
v 2 9 -1
v 2 9 -2
v 2 9 -3
v 2 10 2
v 2 10 -0
v 2 10 -1
v 2 11 -0
v 2 11 -1
v 3 2 -0
v 3 2 -1
v 3 3 -0
v 3 3 -1
v 3 5 2
v 3 5 -0
v 3 5 -1
v 3 5 -2
v 3 9 2
v 3 9 -1
v 3 11 -1
v 3 11 -2
v -1 6 4
v -1 8 4
v 1 6 4
v 1 8 4
v -2 5 3
v -2 6 3
v -2 7 3
v -1 6 3
v -1 7 3
v -1 8 3
v -1 9 3
v 1 6 3
v 1 7 3
v 1 8 3
v 1 9 3
v 2 5 3
v 2 6 3
v 2 7 3
v -3 5 2
v -3 9 2
v -2 5 2
v -2 6 2
v -2 7 2
v -2 8 2
v -2 9 2
v -2 10 2
v -1 7 2
v -1 8 2
v -1 9 2
v 1 7 2
v 1 8 2
v 1 9 2
v 2 5 2
v 2 6 2
v 2 7 2
v 2 8 2
v 2 9 2
v 2 10 2
v 3 5 2
v 3 9 2
v -2 0 1
v -2 1 1
v -2 3 1
v -2 5 1
v 2 0 1
v 2 1 1
v 2 3 1
v 2 5 1
v -3 2 -0
v -3 3 -0
v -3 5 -0
v -2 2 -0
v -2 3 -0
v -2 5 -0
v -2 10 -0
v -2 11 -0
v -1 10 -0
v -1 11 -0
v 1 10 -0
v 1 11 -0
v 2 2 -0
v 2 3 -0
v 2 5 -0
v 2 10 -0
v 2 11 -0
v 3 2 -0
v 3 3 -0
v 3 5 -0
v -3 9 -1
v -3 11 -1
v -2 9 -1
v -2 10 -1
v -2 11 -1
v 2 9 -1
v 2 10 -1
v 2 11 -1
v 3 9 -1
v 3 11 -1
v -3 2 -1
v -3 3 -1
v -3 5 -1
v -2 2 -1
v -2 3 -1
v -2 5 -1
v -2 10 -1
v -2 11 -1
v -1 10 -1
v -1 11 -1
v 1 10 -1
v 1 11 -1
v 2 2 -1
v 2 3 -1
v 2 5 -1
v 2 10 -1
v 2 11 -1
v 3 2 -1
v 3 3 -1
v 3 5 -1
v -3 5 -2
v -3 11 -2
v -2 0 -2
v -2 1 -2
v -2 3 -2
v -2 5 -2
v -2 9 -2
v -2 10 -2
v -2 11 -2
v 2 0 -2
v 2 1 -2
v 2 3 -2
v 2 5 -2
v 2 9 -2
v 2 10 -2
v 2 11 -2
v 3 5 -2
v 3 11 -2
v -2 5 -3
v -2 9 -3
v 2 5 -3
v 2 9 -3
v -2 0 1
v 2 0 1
v -2 0 -2
v 2 0 -2
v -3 2 -0
v -2 2 -0
v 2 2 -0
v 3 2 -0
v -3 2 -1
v -2 2 -1
v 2 2 -1
v 3 2 -1
v -2 5 3
v 2 5 3
v -3 5 2
v -2 5 2
v 2 5 2
v 3 5 2
v -2 5 1
v 2 5 1
v -3 5 -0
v -2 5 -0
v 2 5 -0
v 3 5 -0
v -3 5 -1
v -2 5 -1
v 2 5 -1
v 3 5 -1
v -3 5 -2
v -2 5 -2
v 2 5 -2
v 3 5 -2
v -2 5 -3
v 2 5 -3
v -1 6 4
v 1 6 4
v -1 6 3
v 1 6 3
v -2 7 3
v -1 7 3
v 1 7 3
v 2 7 3
v -2 7 2
v -1 7 2
v 1 7 2
v 2 7 2
v -1 8 4
v 1 8 4
v -1 8 3
v 1 8 3
v -1 9 3
v 1 9 3
v -3 9 2
v -2 9 2
v -1 9 2
v 1 9 2
v 2 9 2
v 3 9 2
v -2 9 -0
v 2 9 -0
v -3 9 -1
v -2 9 -1
v 2 9 -1
v 3 9 -1
v -2 9 -2
v 2 9 -2
v -2 9 -3
v 2 9 -3
v -2 10 2
v 2 10 2
v -2 10 -0
v -1 10 -0
v 1 10 -0
v 2 10 -0
v -2 10 -1
v -1 10 -1
v 1 10 -1
v 2 10 -1
v -2 10 -2
v 2 10 -2
v -2 11 -0
v -1 11 -0
v 1 11 -0
v 2 11 -0
v -3 11 -1
v -2 11 -1
v -1 11 -1
v 1 11 -1
v 2 11 -1
v 3 11 -1
v -3 11 -2
v -2 11 -2
v 2 11 -2
v 3 11 -2

# faces
f 3/2/1 2/2/1 1/2/1
f 4/2/1 2/2/1 3/2/1
f 6/5/1 4/5/1 3/5/1
f 7/5/1 4/5/1 6/5/1
f 9/2/1 7/2/1 6/2/1
f 9/2/1 8/2/1 7/2/1
f 9/2/1 6/2/1 5/2/1
f 10/2/1 8/2/1 9/2/1
f 11/2/1 8/2/1 10/2/1
f 12/2/1 8/2/1 11/2/1
f 15/6/1 14/6/1 13/6/1
f 16/6/1 14/6/1 15/6/1
f 17/8/1 16/8/1 15/8/1
f 18/8/1 16/8/1 17/8/1
f 19/8/1 17/8/1 15/8/1
f 20/8/1 17/8/1 19/8/1
f 21/8/1 16/8/1 18/8/1
f 22/8/1 16/8/1 21/8/1
f 25/5/1 20/5/1 19/5/1
f 26/5/1 20/5/1 25/5/1
f 27/5/1 22/5/1 21/5/1
f 28/5/1 22/5/1 27/5/1
f 30/2/1 24/2/1 23/2/1
f 31/2/1 24/2/1 30/2/1
f 32/3/1 31/3/1 30/3/1
f 33/3/1 31/3/1 32/3/1
f 37/2/1 29/2/1 28/2/1
f 38/2/1 29/2/1 37/2/1
f 39/2/1 35/2/1 34/2/1
f 40/1/1 36/1/1 35/1/1
f 40/2/1 35/2/1 39/2/1
f 41/1/1 36/1/1 40/1/1
f 42/2/1 41/2/1 40/2/1
f 43/2/1 41/2/1 42/2/1
f 46/1/1 45/1/1 44/1/1
f 48/1/1 46/1/1 44/1/1
f 49/2/1 47/2/1 46/2/1
f 49/1/1 46/1/1 48/1/1
f 50/2/1 47/2/1 49/2/1
f 51/2/1 50/2/1 49/2/1
f 52/2/1 50/2/1 51/2/1
f 55/2/1 54/2/1 53/2/1
f 56/2/1 54/2/1 55/2/1
f 59/2/1 58/2/1 57/2/1
f 60/2/1 58/2/1 59/2/1
f 61/2/2 62/2/2 63/2/2
f 63/2/2 62/2/2 64/2/2
f 65/2/2 66/2/2 67/2/2
f 67/2/2 66/2/2 68/2/2
f 69/1/2 70/1/2 71/1/2
f 69/1/2 71/1/2 73/1/2
f 71/2/2 72/2/2 74/2/2
f 73/1/2 71/1/2 74/1/2
f 74/2/2 72/2/2 75/2/2
f 74/2/2 75/2/2 76/2/2
f 76/2/2 75/2/2 77/2/2
f 78/6/2 79/6/2 80/6/2
f 80/6/2 79/6/2 81/6/2
f 80/8/2 81/8/2 82/8/2
f 82/8/2 81/8/2 83/8/2
f 80/8/2 82/8/2 84/8/2
f 84/8/2 82/8/2 85/8/2
f 83/8/2 81/8/2 86/8/2
f 86/8/2 81/8/2 87/8/2
f 84/5/2 85/5/2 90/5/2
f 90/5/2 85/5/2 91/5/2
f 86/5/2 87/5/2 92/5/2
f 92/5/2 87/5/2 93/5/2
f 88/2/2 89/2/2 95/2/2
f 95/2/2 89/2/2 96/2/2
f 95/3/2 96/3/2 97/3/2
f 97/3/2 96/3/2 98/3/2
f 93/2/2 94/2/2 102/2/2
f 102/2/2 94/2/2 103/2/2
f 99/2/2 100/2/2 104/2/2
f 100/1/2 101/1/2 105/1/2
f 104/2/2 100/2/2 105/2/2
f 105/1/2 101/1/2 106/1/2
f 105/2/2 106/2/2 107/2/2
f 107/2/2 106/2/2 108/2/2
f 109/2/2 110/2/2 111/2/2
f 111/2/2 110/2/2 112/2/2
f 111/5/2 112/5/2 114/5/2
f 114/5/2 112/5/2 115/5/2
f 114/2/2 115/2/2 117/2/2
f 115/2/2 116/2/2 117/2/2
f 113/2/2 114/2/2 117/2/2
f 117/2/2 116/2/2 118/2/2
f 118/2/2 116/2/2 119/2/2
f 119/2/2 116/2/2 120/2/2
f 123/1/3 122/1/3 121/1/3
f 124/1/3 122/1/3 123/1/3
f 128/2/3 126/2/3 125/2/3
f 128/3/3 127/3/3 126/3/3
f 129/3/3 127/3/3 128/3/3
f 132/2/3 128/2/3 125/2/3
f 134/2/3 131/2/3 130/2/3
f 135/2/3 131/2/3 134/2/3
f 136/2/3 132/2/3 125/2/3
f 137/3/3 133/3/3 132/3/3
f 137/2/3 132/2/3 136/2/3
f 138/3/3 133/3/3 137/3/3
f 141/2/3 140/2/3 139/2/3
f 142/2/3 140/2/3 141/2/3
f 143/2/3 140/2/3 142/2/3
f 144/2/3 140/2/3 143/2/3
f 145/2/3 140/2/3 144/2/3
f 147/2/3 144/2/3 143/2/3
f 148/11/3 145/11/3 144/11/3
f 148/2/3 144/2/3 147/2/3
f 149/2/3 146/2/3 145/2/3
f 149/11/3 145/11/3 148/11/3
f 152/2/3 146/2/3 149/2/3
f 155/2/3 151/2/3 150/2/3
f 156/11/3 152/11/3 151/11/3
f 156/2/3 151/2/3 155/2/3
f 157/2/3 146/2/3 152/2/3
f 157/11/3 152/11/3 156/11/3
f 158/2/3 146/2/3 157/2/3
f 159/2/3 154/2/3 153/2/3
f 159/2/3 156/2/3 155/2/3
f 159/2/3 157/2/3 156/2/3
f 159/2/3 155/2/3 154/2/3
f 160/2/3 157/2/3 159/2/3
f 165/6/3 162/6/3 161/6/3
f 166/8/3 163/8/3 162/8/3
f 166/6/3 162/6/3 165/6/3
f 167/5/3 164/5/3 163/5/3
f 167/8/3 163/8/3 166/8/3
f 168/5/3 164/5/3 167/5/3
f 172/2/3 170/2/3 169/2/3
f 173/5/3 171/5/3 170/5/3
f 173/2/3 170/2/3 172/2/3
f 174/5/3 171/5/3 173/5/3
f 177/2/3 176/2/3 175/2/3
f 178/2/3 176/2/3 177/2/3
f 184/2/3 180/2/3 179/2/3
f 185/2/3 180/2/3 184/2/3
f 186/2/3 182/2/3 181/2/3
f 187/5/3 183/5/3 182/5/3
f 187/2/3 182/2/3 186/2/3
f 188/5/3 183/5/3 187/5/3
f 191/2/3 190/2/3 189/2/3
f 192/2/3 190/2/3 191/2/3
f 193/2/3 190/2/3 192/2/3
f 197/2/3 195/2/3 194/2/3
f 197/2/3 196/2/3 195/2/3
f 198/2/3 196/2/3 197/2/3
f 199/2/4 200/2/4 202/2/4
f 200/5/4 201/5/4 203/5/4
f 202/2/4 200/2/4 203/2/4
f 203/5/4 201/5/4 204/5/4
f 205/2/4 206/2/4 207/2/4
f 207/2/4 206/2/4 208/2/4
f 209/2/4 210/2/4 214/2/4
f 214/2/4 210/2/4 215/2/4
f 211/2/4 212/2/4 216/2/4
f 212/5/4 213/5/4 217/5/4
f 216/2/4 212/2/4 217/2/4
f 217/5/4 213/5/4 218/5/4
f 219/2/4 220/2/4 224/2/4
f 224/2/4 220/2/4 225/2/4
f 225/2/4 220/2/4 226/2/4
f 226/2/4 220/2/4 227/2/4
f 221/6/4 222/6/4 228/6/4
f 222/8/4 223/8/4 229/8/4
f 228/6/4 222/6/4 229/6/4
f 223/5/4 224/5/4 230/5/4
f 229/8/4 223/8/4 230/8/4
f 230/5/4 224/5/4 231/5/4
f 225/2/4 226/2/4 232/2/4
f 232/2/4 226/2/4 233/2/4
f 233/2/4 234/2/4 235/2/4
f 232/2/4 233/2/4 235/2/4
f 231/2/4 232/2/4 235/2/4
f 235/2/4 234/2/4 236/2/4
f 237/2/4 238/2/4 239/2/4
f 239/2/4 238/2/4 240/2/4
f 243/6/5 242/6/5 241/6/5
f 244/6/5 242/6/5 243/6/5
f 249/2/5 246/2/5 245/2/5
f 250/2/5 246/2/5 249/2/5
f 251/2/5 248/2/5 247/2/5
f 252/2/5 248/2/5 251/2/5
f 256/2/5 254/2/5 253/2/5
f 257/2/5 254/2/5 256/2/5
f 259/2/5 256/2/5 255/2/5
f 259/2/5 258/2/5 257/2/5
f 259/2/5 257/2/5 256/2/5
f 260/2/5 258/2/5 259/2/5
f 261/2/5 259/2/5 255/2/5
f 262/2/5 259/2/5 261/2/5
f 263/2/5 258/2/5 260/2/5
f 264/2/5 258/2/5 263/2/5
f 269/2/5 266/2/5 265/2/5
f 270/2/5 266/2/5 269/2/5
f 271/2/5 268/2/5 267/2/5
f 272/2/5 268/2/5 271/2/5
f 273/2/5 271/2/5 270/2/5
f 274/2/5 271/2/5 273/2/5
f 277/1/5 276/1/5 275/1/5
f 278/1/5 276/1/5 277/1/5
f 279/3/6 280/3/6 283/3/6
f 283/3/6 280/3/6 284/3/6
f 281/3/6 282/3/6 285/3/6
f 285/3/6 282/3/6 286/3/6
f 287/1/6 288/1/6 289/1/6
f 289/1/6 288/1/6 290/1/6
f 291/2/6 292/2/6 295/2/6
f 295/2/6 292/2/6 296/2/6
f 293/2/6 294/2/6 299/2/6
f 297/2/6 298/2/6 300/2/6
f 293/2/6 299/2/6 301/2/6
f 301/2/6 299/2/6 302/2/6
f 300/2/6 298/2/6 303/2/6
f 303/2/6 298/2/6 304/2/6
f 305/2/6 306/2/6 307/2/6
f 307/2/6 306/2/6 308/2/6
f 309/2/6 310/2/6 311/2/6
f 311/2/6 310/2/6 312/2/6
f 312/2/6 310/2/6 313/2/6
f 313/2/6 310/2/6 314/2/6
f 312/2/6 313/2/6 316/2/6
f 316/2/6 313/2/6 317/2/6
f 315/2/6 316/2/6 319/2/6
f 317/2/6 318/2/6 319/2/6
f 316/2/6 317/2/6 319/2/6
f 319/2/6 318/2/6 320/2/6
f 321/2/6 322/2/6 326/2/6
f 326/2/6 322/2/6 327/2/6
f 323/2/6 324/2/6 328/2/6
f 328/2/6 324/2/6 329/2/6
f 325/2/6 326/2/6 331/2/6
f 331/2/6 326/2/6 332/2/6
f 329/2/6 330/2/6 333/2/6
f 333/2/6 330/2/6 334/2/6
