# MagicaVoxel @ Ephtracy

# group
g salsa

# material
mtllib salsa.mtl
usemtl palette

# normals
vn -1 0 0
vn 1 0 0
vn 0 0 1
vn 0 0 -1
vn 0 -1 0
vn 0 1 0

# texcoords
vt 0.146484 0.5
vt 0.173828 0.5
vt 0.392578 0.5
vt 0.416016 0.5
vt 0.556641 0.5
vt 0.685547 0.5
vt 0.689453 0.5
vt 0.982422 0.5

# verts
v -4 0 3
v -4 0 -3
v -4 1 3
v -4 1 -3
v -4 2 -0
v -4 2 -3
v -4 3 -0
v -4 3 -3
v -3 0 4
v -3 0 3
v -3 0 -3
v -3 0 -4
v -3 1 4
v -3 1 3
v -3 1 -0
v -3 1 -3
v -3 1 -4
v -3 2 1
v -3 2 -0
v -3 2 -3
v -3 2 -4
v -3 3 1
v -3 3 -0
v -3 3 -1
v -3 3 -2
v -3 3 -3
v -3 3 -4
v -3 4 -1
v -3 4 -2
v -2 1 3
v -2 1 2
v -2 1 1
v -2 1 -0
v -2 2 3
v -2 2 2
v -2 2 1
v -2 2 -0
v -2 3 -0
v -2 3 -1
v -2 3 -2
v -2 3 -3
v -2 4 -0
v -2 4 -1
v -2 4 -2
v -2 4 -3
v -1 2 3
v -1 2 2
v -1 3 3
v -1 3 2
v 0 1 1
v 0 1 -0
v 0 2 1
v 0 2 -0
v 1 1 3
v 1 1 2
v 1 1 1
v 1 1 -0
v 1 1 -1
v 1 1 -2
v 1 1 -3
v 1 2 3
v 1 2 2
v 1 2 1
v 1 2 -0
v 1 2 -1
v 1 2 -2
v 1 2 -3
v 1 3 1
v 1 3 -0
v 2 1 -1
v 2 1 -2
v 2 2 -0
v 2 2 -1
v 2 2 -2
v 2 3 -0
v 2 3 -1
v -1 1 1
v -1 1 -0
v -1 2 1
v -1 2 -0
v -1 3 -0
v -1 3 -1
v -1 3 -2
v -1 3 -3
v -1 4 -0
v -1 4 -1
v -1 4 -2
v -1 4 -3
v 0 1 3
v 0 1 2
v 0 1 -0
v 0 1 -1
v 0 1 -2
v 0 1 -3
v 0 2 3
v 0 2 2
v 0 2 1
v 0 2 -0
v 0 2 -1
v 0 2 -2
v 0 2 -3
v 0 2 -4
v 0 3 3
v 0 3 2
v 0 3 1
v 0 3 -0
v 0 3 -1
v 0 3 -2
v 0 3 -3
v 0 3 -4
v 0 4 -1
v 0 4 -2
v 1 1 -1
v 1 1 -2
v 1 2 -0
v 1 2 -1
v 1 2 -2
v 1 2 -3
v 1 3 -0
v 1 3 -3
v 2 1 2
v 2 1 1
v 2 1 -2
v 2 1 -3
v 2 2 2
v 2 2 1
v 2 2 -0
v 2 2 -2
v 2 2 -3
v 2 3 1
v 2 3 -0
v 3 0 4
v 3 0 3
v 3 0 -3
v 3 0 -4
v 3 1 4
v 3 1 3
v 3 1 2
v 3 1 1
v 3 1 -1
v 3 1 -2
v 3 1 -3
v 3 1 -4
v 3 2 3
v 3 2 2
v 3 2 1
v 3 2 -0
v 3 2 -1
v 3 2 -2
v 3 3 -0
v 3 3 -1
v 4 0 3
v 4 0 -3
v 4 1 3
v 4 1 -3
v -3 0 4
v -3 1 4
v 3 0 4
v 3 1 4
v -4 0 3
v -4 1 3
v -3 0 3
v -3 1 3
v -2 1 3
v -2 2 3
v -1 2 3
v -1 3 3
v 0 1 3
v 0 2 3
v 0 3 3
v 1 1 3
v 1 2 3
v 2 1 3
v 2 2 3
v 3 0 3
v 3 1 3
v 3 2 3
v 4 0 3
v 4 1 3
v -3 2 1
v -3 3 1
v -2 1 1
v -2 2 1
v -1 1 1
v -1 2 1
v 0 1 1
v 0 2 1
v 0 3 1
v 1 1 1
v 1 2 1
v 1 3 1
v 2 1 1
v 2 2 1
v 2 3 1
v 3 1 1
v 3 2 1
v -4 2 -0
v -4 3 -0
v -3 1 -0
v -3 2 -0
v -3 3 -0
v -2 1 -0
v -2 2 -0
v -2 3 -0
v -2 4 -0
v -1 1 -0
v -1 2 -0
v -1 3 -0
v -1 4 -0
v 0 1 -0
v 0 2 -0
v 0 3 -0
v 1 2 -0
v 1 3 -0
v 2 2 -0
v 2 3 -0
v 3 2 -0
v 3 3 -0
v -3 3 -1
v -3 4 -1
v -2 3 -1
v -2 4 -1
v -1 3 -1
v -1 4 -1
v 0 1 -1
v 0 2 -1
v 0 3 -1
v 0 4 -1
v 1 1 -1
v 1 2 -1
v 1 1 -2
v 1 2 -2
v 2 1 -2
v 2 2 -2
v -2 1 2
v -2 2 2
v -1 2 2
v -1 3 2
v 0 1 2
v 0 2 2
v 0 3 2
v 2 1 2
v 2 2 2
v 3 1 2
v 3 2 2
v 0 1 -0
v 0 2 -0
v 1 1 -0
v 1 2 -0
v 1 3 -0
v 2 2 -0
v 2 3 -0
v 1 1 -1
v 1 2 -1
v 2 1 -1
v 2 2 -1
v 2 3 -1
v 3 2 -1
v 3 3 -1
v -3 3 -2
v -3 4 -2
v -2 3 -2
v -2 4 -2
v -1 3 -2
v -1 4 -2
v 0 1 -2
v 0 2 -2
v 0 3 -2
v 0 4 -2
v 1 1 -2
v 1 2 -2
v 2 1 -2
v 2 2 -2
v 3 1 -2
v 3 2 -2
v -4 0 -3
v -4 1 -3
v -4 2 -3
v -4 3 -3
v -3 0 -3
v -3 1 -3
v -3 2 -3
v -3 3 -3
v -2 3 -3
v -2 4 -3
v -1 3 -3
v -1 4 -3
v 0 1 -3
v 0 2 -3
v 0 3 -3
v 1 1 -3
v 1 2 -3
v 1 3 -3
v 2 1 -3
v 2 2 -3
v 3 0 -3
v 3 1 -3
v 4 0 -3
v 4 1 -3
v -3 0 -4
v -3 1 -4
v -3 2 -4
v -3 3 -4
v 0 2 -4
v 0 3 -4
v 3 0 -4
v 3 1 -4
v -3 0 4
v 3 0 4
v -4 0 3
v -3 0 3
v 3 0 3
v 4 0 3
v -4 0 -3
v -3 0 -3
v 3 0 -3
v 4 0 -3
v -3 0 -4
v 3 0 -4
v -3 2 1
v -2 2 1
v -1 2 1
v 0 2 1
v -4 2 -0
v -3 2 -0
v -2 2 -0
v -1 2 -0
v 0 2 -0
v 1 2 -0
v 0 2 -1
v 1 2 -1
v 0 2 -2
v 1 2 -2
v -4 2 -3
v -3 2 -3
v 0 2 -3
v 1 2 -3
v -3 2 -4
v 0 2 -4
v -3 1 4
v 3 1 4
v -4 1 3
v -3 1 3
v -2 1 3
v 0 1 3
v 1 1 3
v 2 1 3
v 3 1 3
v 4 1 3
v -2 1 2
v 0 1 2
v 1 1 2
v 2 1 2
v 3 1 2
v -2 1 1
v -1 1 1
v 0 1 1
v 1 1 1
v 2 1 1
v 3 1 1
v -3 1 -0
v -2 1 -0
v -1 1 -0
v 0 1 -0
v 1 1 -0
v 0 1 -1
v 1 1 -1
v 2 1 -1
v 3 1 -1
v 0 1 -2
v 1 1 -2
v 2 1 -2
v 3 1 -2
v -4 1 -3
v -3 1 -3
v 0 1 -3
v 1 1 -3
v 2 1 -3
v 3 1 -3
v 4 1 -3
v -3 1 -4
v 3 1 -4
v -2 2 3
v -1 2 3
v 1 2 3
v 2 2 3
v 3 2 3
v -2 2 2
v -1 2 2
v 1 2 2
v 2 2 2
v 3 2 2
v 0 2 1
v 1 2 1
v 2 2 1
v 3 2 1
v 0 2 -0
v 1 2 -0
v 2 2 -0
v 3 2 -0
v 1 2 -1
v 2 2 -1
v 3 2 -1
v 1 2 -2
v 2 2 -2
v 3 2 -2
v 1 2 -3
v 2 2 -3
v -1 3 3
v 0 3 3
v -1 3 2
v 0 3 2
v -3 3 1
v 0 3 1
v 1 3 1
v 2 3 1
v -4 3 -0
v -3 3 -0
v -2 3 -0
v -1 3 -0
v 0 3 -0
v 1 3 -0
v 2 3 -0
v 3 3 -0
v -3 3 -1
v -2 3 -1
v -1 3 -1
v 0 3 -1
v 2 3 -1
v 3 3 -1
v -3 3 -2
v -2 3 -2
v -1 3 -2
v 0 3 -2
v -4 3 -3
v -3 3 -3
v -2 3 -3
v -1 3 -3
v 0 3 -3
v 1 3 -3
v -3 3 -4
v 0 3 -4
v -2 4 -0
v -1 4 -0
v -3 4 -1
v -2 4 -1
v -1 4 -1
v 0 4 -1
v -3 4 -2
v -2 4 -2
v -1 4 -2
v 0 4 -2
v -2 4 -3
v -1 4 -3

# faces
f 3/7/1 2/7/1 1/7/1
f 4/7/1 2/7/1 3/7/1
f 7/8/1 6/8/1 5/8/1
f 8/8/1 6/8/1 7/8/1
f 13/7/1 10/7/1 9/7/1
f 14/7/1 10/7/1 13/7/1
f 16/7/1 12/7/1 11/7/1
f 17/7/1 12/7/1 16/7/1
f 19/8/1 16/8/1 15/8/1
f 20/8/1 16/8/1 19/8/1
f 22/8/1 19/8/1 18/8/1
f 23/8/1 19/8/1 22/8/1
f 26/8/1 21/8/1 20/8/1
f 27/8/1 21/8/1 26/8/1
f 28/2/1 25/2/1 24/2/1
f 29/2/1 25/2/1 28/2/1
f 34/3/1 31/3/1 30/3/1
f 35/3/1 31/3/1 34/3/1
f 36/4/1 33/4/1 32/4/1
f 37/4/1 33/4/1 36/4/1
f 42/1/1 39/1/1 38/1/1
f 43/1/1 39/1/1 42/1/1
f 44/5/1 41/5/1 40/5/1
f 45/5/1 41/5/1 44/5/1
f 48/4/1 47/4/1 46/4/1
f 49/4/1 47/4/1 48/4/1
f 52/4/1 51/4/1 50/4/1
f 53/4/1 51/4/1 52/4/1
f 61/4/1 55/4/1 54/4/1
f 62/3/1 56/3/1 55/3/1
f 62/4/1 55/4/1 61/4/1
f 63/3/1 56/3/1 62/3/1
f 64/4/1 58/4/1 57/4/1
f 65/4/1 58/4/1 64/4/1
f 66/4/1 60/4/1 59/4/1
f 67/4/1 60/4/1 66/4/1
f 68/4/1 64/4/1 63/4/1
f 69/4/1 64/4/1 68/4/1
f 73/3/1 71/3/1 70/3/1
f 74/3/1 71/3/1 73/3/1
f 75/3/1 73/3/1 72/3/1
f 76/3/1 73/3/1 75/3/1
f 77/4/2 78/4/2 79/4/2
f 79/4/2 78/4/2 80/4/2
f 81/1/2 82/1/2 85/1/2
f 85/1/2 82/1/2 86/1/2
f 83/5/2 84/5/2 87/5/2
f 87/5/2 84/5/2 88/5/2
f 89/3/2 90/3/2 95/3/2
f 95/3/2 90/3/2 96/3/2
f 91/8/2 92/8/2 98/8/2
f 98/8/2 92/8/2 99/8/2
f 93/8/2 94/8/2 100/8/2
f 100/8/2 94/8/2 101/8/2
f 95/4/2 96/4/2 103/4/2
f 103/4/2 96/4/2 104/4/2
f 97/8/2 98/8/2 105/8/2
f 105/8/2 98/8/2 106/8/2
f 101/8/2 102/8/2 109/8/2
f 109/8/2 102/8/2 110/8/2
f 107/1/2 108/1/2 111/1/2
f 111/1/2 108/1/2 112/1/2
f 113/3/2 114/3/2 116/3/2
f 116/3/2 114/3/2 117/3/2
f 115/8/2 116/8/2 119/8/2
f 117/8/2 118/8/2 119/8/2
f 116/8/2 117/8/2 119/8/2
f 119/8/2 118/8/2 120/8/2
f 121/3/2 122/3/2 125/3/2
f 125/3/2 122/3/2 126/3/2
f 123/4/2 124/4/2 128/4/2
f 128/4/2 124/4/2 129/4/2
f 126/4/2 127/4/2 130/4/2
f 130/4/2 127/4/2 131/4/2
f 132/7/2 133/7/2 136/7/2
f 136/7/2 133/7/2 137/7/2
f 134/7/2 135/7/2 142/7/2
f 142/7/2 135/7/2 143/7/2
f 137/3/2 138/3/2 144/3/2
f 144/3/2 138/3/2 145/3/2
f 139/4/2 140/4/2 146/4/2
f 146/4/2 140/4/2 147/4/2
f 140/3/2 141/3/2 148/3/2
f 147/4/2 140/4/2 148/4/2
f 148/3/2 141/3/2 149/3/2
f 147/3/2 148/3/2 150/3/2
f 150/3/2 148/3/2 151/3/2
f 152/7/2 153/7/2 154/7/2
f 154/7/2 153/7/2 155/7/2
f 158/7/3 157/7/3 156/7/3
f 159/7/3 157/7/3 158/7/3
f 162/7/3 161/7/3 160/7/3
f 163/7/3 161/7/3 162/7/3
f 166/3/3 165/3/3 164/3/3
f 168/3/3 166/3/3 164/3/3
f 169/4/3 167/4/3 166/4/3
f 169/3/3 166/3/3 168/3/3
f 170/4/3 167/4/3 169/4/3
f 173/4/3 172/4/3 171/4/3
f 174/4/3 172/4/3 173/4/3
f 176/3/3 174/3/3 173/3/3
f 177/3/3 174/3/3 176/3/3
f 178/7/3 176/7/3 175/7/3
f 179/7/3 176/7/3 178/7/3
f 183/8/3 181/8/3 180/8/3
f 184/4/3 183/4/3 182/4/3
f 185/8/3 181/8/3 183/8/3
f 185/4/3 183/4/3 184/4/3
f 187/8/3 181/8/3 185/8/3
f 188/8/3 181/8/3 187/8/3
f 189/4/3 187/4/3 186/4/3
f 190/4/3 187/4/3 189/4/3
f 193/4/3 191/4/3 190/4/3
f 194/4/3 191/4/3 193/4/3
f 195/4/3 193/4/3 192/4/3
f 196/4/3 193/4/3 195/4/3
f 200/8/3 198/8/3 197/8/3
f 201/8/3 198/8/3 200/8/3
f 202/8/3 200/8/3 199/8/3
f 203/8/3 200/8/3 202/8/3
f 208/1/3 205/1/3 204/1/3
f 209/1/3 205/1/3 208/1/3
f 210/8/3 207/8/3 206/8/3
f 211/8/3 207/8/3 210/8/3
f 213/8/3 212/8/3 211/8/3
f 214/8/3 212/8/3 213/8/3
f 217/3/3 216/3/3 215/3/3
f 218/3/3 216/3/3 217/3/3
f 221/2/3 220/2/3 219/2/3
f 222/2/3 220/2/3 221/2/3
f 227/1/3 224/1/3 223/1/3
f 228/1/3 224/1/3 227/1/3
f 229/3/3 226/3/3 225/3/3
f 230/3/3 226/3/3 229/3/3
f 233/4/3 232/4/3 231/4/3
f 234/4/3 232/4/3 233/4/3
f 235/3/4 236/3/4 237/3/4
f 235/3/4 237/3/4 239/3/4
f 237/4/4 238/4/4 240/4/4
f 239/3/4 237/3/4 240/3/4
f 240/4/4 238/4/4 241/4/4
f 242/3/4 243/3/4 244/3/4
f 244/3/4 243/3/4 245/3/4
f 246/4/4 247/4/4 248/4/4
f 248/4/4 247/4/4 249/4/4
f 249/4/4 250/4/4 251/4/4
f 251/4/4 250/4/4 252/4/4
f 253/4/4 254/4/4 255/4/4
f 255/4/4 254/4/4 256/4/4
f 256/3/4 257/3/4 258/3/4
f 258/3/4 257/3/4 259/3/4
f 260/2/4 261/2/4 262/2/4
f 262/2/4 261/2/4 263/2/4
f 264/1/4 265/1/4 268/1/4
f 268/1/4 265/1/4 269/1/4
f 266/3/4 267/3/4 270/3/4
f 270/3/4 267/3/4 271/3/4
f 272/3/4 273/3/4 274/3/4
f 274/3/4 273/3/4 275/3/4
f 276/7/4 277/7/4 280/7/4
f 280/7/4 277/7/4 281/7/4
f 278/8/4 279/8/4 282/8/4
f 282/8/4 279/8/4 283/8/4
f 284/5/4 285/5/4 286/5/4
f 286/5/4 285/5/4 287/5/4
f 281/8/4 282/8/4 288/8/4
f 288/8/4 282/8/4 289/8/4
f 289/8/4 290/8/4 292/8/4
f 292/8/4 290/8/4 293/8/4
f 291/4/4 292/4/4 294/4/4
f 294/4/4 292/4/4 295/4/4
f 296/7/4 297/7/4 298/7/4
f 298/7/4 297/7/4 299/7/4
f 302/8/4 303/8/4 304/8/4
f 304/8/4 303/8/4 305/8/4
f 300/7/4 301/7/4 306/7/4
f 306/7/4 301/7/4 307/7/4
f 311/7/5 309/7/5 308/7/5
f 312/7/5 309/7/5 311/7/5
f 314/7/5 311/7/5 310/7/5
f 315/6/5 312/6/5 311/6/5
f 315/7/5 311/7/5 314/7/5
f 316/7/5 313/7/5 312/7/5
f 316/6/5 312/6/5 315/6/5
f 317/7/5 313/7/5 316/7/5
f 318/7/5 316/7/5 315/7/5
f 319/7/5 316/7/5 318/7/5
f 325/8/5 321/8/5 320/8/5
f 326/8/5 321/8/5 325/8/5
f 327/8/5 323/8/5 322/8/5
f 328/8/5 323/8/5 327/8/5
f 330/8/5 329/8/5 328/8/5
f 331/8/5 329/8/5 330/8/5
f 334/8/5 325/8/5 324/8/5
f 335/8/5 325/8/5 334/8/5
f 336/8/5 333/8/5 332/8/5
f 337/8/5 333/8/5 336/8/5
f 338/8/5 336/8/5 335/8/5
f 339/8/5 336/8/5 338/8/5
f 340/7/6 341/7/6 343/7/6
f 343/7/6 341/7/6 344/7/6
f 344/7/6 341/7/6 345/7/6
f 345/7/6 341/7/6 346/7/6
f 346/7/6 341/7/6 347/7/6
f 347/7/6 341/7/6 348/7/6
f 343/6/6 344/6/6 350/6/6
f 345/6/6 346/6/6 351/6/6
f 351/6/6 346/6/6 352/6/6
f 348/7/6 349/7/6 354/7/6
f 351/6/6 352/6/6 355/6/6
f 343/6/6 350/6/6 355/6/6
f 350/6/6 351/6/6 355/6/6
f 355/6/6 352/6/6 356/6/6
f 356/6/6 352/6/6 357/6/6
f 357/6/6 352/6/6 358/6/6
f 353/6/6 354/6/6 359/6/6
f 354/7/6 349/7/6 360/7/6
f 359/6/6 354/6/6 360/6/6
f 342/7/6 343/7/6 361/7/6
f 343/6/6 355/6/6 361/6/6
f 361/6/6 355/6/6 362/6/6
f 356/6/6 357/6/6 363/6/6
f 363/6/6 357/6/6 364/6/6
f 364/6/6 365/6/6 366/6/6
f 366/6/6 365/6/6 367/6/6
f 360/7/6 349/7/6 369/7/6
f 367/6/6 368/6/6 371/6/6
f 371/6/6 368/6/6 372/6/6
f 369/7/6 349/7/6 373/7/6
f 342/7/6 361/7/6 374/7/6
f 374/7/6 361/7/6 375/7/6
f 370/6/6 371/6/6 376/6/6
f 376/6/6 371/6/6 377/6/6
f 372/6/6 373/6/6 378/6/6
f 373/7/6 349/7/6 379/7/6
f 378/6/6 373/6/6 379/6/6
f 379/7/6 349/7/6 380/7/6
f 376/7/6 377/7/6 381/7/6
f 377/7/6 378/7/6 381/7/6
f 378/7/6 379/7/6 381/7/6
f 375/7/6 376/7/6 381/7/6
f 381/7/6 379/7/6 382/7/6
f 383/3/6 384/3/6 388/3/6
f 388/3/6 384/3/6 389/3/6
f 385/4/6 386/4/6 390/4/6
f 386/3/6 387/3/6 391/3/6
f 390/4/6 386/4/6 391/4/6
f 391/3/6 387/3/6 392/3/6
f 390/3/6 391/3/6 394/3/6
f 394/3/6 391/3/6 395/3/6
f 393/4/6 394/4/6 397/4/6
f 397/4/6 394/4/6 398/4/6
f 395/4/6 396/4/6 399/4/6
f 399/4/6 396/4/6 400/4/6
f 398/4/6 399/4/6 401/4/6
f 401/4/6 399/4/6 402/4/6
f 402/3/6 403/3/6 405/3/6
f 405/3/6 403/3/6 406/3/6
f 404/4/6 405/4/6 407/4/6
f 407/4/6 405/4/6 408/4/6
f 409/4/6 410/4/6 411/4/6
f 411/4/6 410/4/6 412/4/6
f 413/8/6 414/8/6 418/8/6
f 418/8/6 414/8/6 419/8/6
f 419/8/6 414/8/6 420/8/6
f 420/8/6 414/8/6 421/8/6
f 415/4/6 416/4/6 422/4/6
f 422/4/6 416/4/6 423/4/6
f 417/8/6 418/8/6 425/8/6
f 418/5/6 419/5/6 425/5/6
f 425/5/6 419/5/6 426/5/6
f 420/1/6 421/1/6 427/1/6
f 421/8/6 422/8/6 428/8/6
f 427/1/6 421/1/6 428/1/6
f 423/3/6 424/3/6 429/3/6
f 429/3/6 424/3/6 430/3/6
f 417/8/6 425/8/6 431/8/6
f 428/8/6 422/8/6 434/8/6
f 417/8/6 431/8/6 435/8/6
f 431/1/6 432/1/6 436/1/6
f 435/8/6 431/8/6 436/8/6
f 436/1/6 432/1/6 437/1/6
f 433/1/6 434/1/6 438/1/6
f 434/8/6 422/8/6 439/8/6
f 438/1/6 434/1/6 439/1/6
f 439/8/6 422/8/6 440/8/6
f 436/8/6 437/8/6 441/8/6
f 437/8/6 438/8/6 441/8/6
f 438/8/6 439/8/6 441/8/6
f 441/8/6 439/8/6 442/8/6
f 443/1/6 444/1/6 446/1/6
f 446/1/6 444/1/6 447/1/6
f 445/2/6 446/2/6 449/2/6
f 446/2/6 447/2/6 449/2/6
f 449/2/6 447/2/6 450/2/6
f 447/1/6 448/1/6 451/1/6
f 450/2/6 447/2/6 451/2/6
f 451/1/6 448/1/6 452/1/6
f 450/5/6 451/5/6 453/5/6
f 453/5/6 451/5/6 454/5/6
