# MagicaVoxel @ Ephtracy

# group
g spaghetti

# material
mtllib spaghetti.mtl
usemtl palette

# normals
vn -1 0 0
vn 1 0 0
vn 0 0 1
vn 0 0 -1
vn 0 -1 0
vn 0 1 0

# texcoords
vt 0.0644531 0.5
vt 0.146484 0.5
vt 0.412109 0.5
vt 0.416016 0.5
vt 0.583984 0.5
vt 0.958984 0.5
vt 0.962891 0.5

# verts
v -4 1 2
v -4 1 -2
v -4 2 2
v -4 2 -2
v -3 0 2
v -3 0 -2
v -3 1 3
v -3 1 2
v -3 1 -2
v -3 1 -3
v -3 2 3
v -3 2 2
v -3 2 -2
v -3 2 -3
v -2 0 3
v -2 0 2
v -2 0 -2
v -2 0 -3
v -2 1 4
v -2 1 3
v -2 1 2
v -2 1 -2
v -2 1 -3
v -2 1 -4
v -2 2 4
v -2 2 3
v -2 2 2
v -2 2 1
v -2 2 -0
v -2 2 -1
v -2 2 -2
v -2 2 -3
v -2 2 -4
v -2 3 2
v -2 3 -0
v -2 3 -1
v -2 3 -2
v -1 3 1
v -1 3 -0
v -1 4 1
v -1 4 -0
v 0 3 -0
v 0 3 -1
v 0 4 -0
v 0 4 -1
v 0 3 1
v 0 3 -0
v 0 4 1
v 0 4 -0
v 1 3 -0
v 1 3 -1
v 1 4 -0
v 1 4 -1
v 2 0 3
v 2 0 2
v 2 0 -2
v 2 0 -3
v 2 1 4
v 2 1 3
v 2 1 2
v 2 1 -2
v 2 1 -3
v 2 1 -4
v 2 2 4
v 2 2 3
v 2 2 2
v 2 2 1
v 2 2 -0
v 2 2 -1
v 2 2 -2
v 2 2 -3
v 2 2 -4
v 2 3 2
v 2 3 1
v 2 3 -0
v 2 3 -2
v 3 0 2
v 3 0 -2
v 3 1 3
v 3 1 2
v 3 1 -2
v 3 1 -3
v 3 2 3
v 3 2 2
v 3 2 -2
v 3 2 -3
v 4 1 2
v 4 1 -2
v 4 2 2
v 4 2 -2
v -2 1 4
v -2 2 4
v 2 1 4
v 2 2 4
v -3 1 3
v -3 2 3
v -2 0 3
v -2 1 3
v -2 2 3
v 2 0 3
v 2 1 3
v 2 2 3
v 3 1 3
v 3 2 3
v -4 1 2
v -4 2 2
v -3 0 2
v -3 1 2
v -3 2 2
v -2 0 2
v -2 1 2
v -2 2 2
v -2 3 2
v -1 2 2
v -1 3 2
v 0 2 2
v 0 3 2
v 1 2 2
v 2 0 2
v 2 1 2
v 2 2 2
v 2 3 2
v 3 0 2
v 3 1 2
v 3 2 2
v 4 1 2
v 4 2 2
v -1 3 1
v -1 4 1
v 0 3 1
v 0 4 1
v 0 3 -0
v 0 4 -0
v 1 3 -0
v 1 4 -0
v -1 3 -0
v -1 4 -0
v 0 3 -0
v 0 4 -0
v 0 3 -1
v 0 4 -1
v 1 3 -1
v 1 4 -1
v -4 1 -2
v -4 2 -2
v -3 0 -2
v -3 1 -2
v -3 2 -2
v -2 0 -2
v -2 1 -2
v -2 2 -2
v -2 3 -2
v -1 2 -2
v 0 2 -2
v 0 3 -2
v 1 2 -2
v 1 3 -2
v 2 0 -2
v 2 1 -2
v 2 2 -2
v 2 3 -2
v 3 0 -2
v 3 1 -2
v 3 2 -2
v 4 1 -2
v 4 2 -2
v -3 1 -3
v -3 2 -3
v -2 0 -3
v -2 1 -3
v -2 2 -3
v 2 0 -3
v 2 1 -3
v 2 2 -3
v 3 1 -3
v 3 2 -3
v -2 1 -4
v -2 2 -4
v 2 1 -4
v 2 2 -4
v -2 0 3
v 2 0 3
v -3 0 2
v -2 0 2
v -1 0 2
v 1 0 2
v 2 0 2
v 3 0 2
v -2 0 1
v -1 0 1
v 1 0 1
v 2 0 1
v -2 0 -1
v -1 0 -1
v 1 0 -1
v 2 0 -1
v -3 0 -2
v -2 0 -2
v -1 0 -2
v 1 0 -2
v 2 0 -2
v 3 0 -2
v -2 0 -3
v 2 0 -3
v -2 1 4
v 2 1 4
v -3 1 3
v -2 1 3
v 2 1 3
v 3 1 3
v -4 1 2
v -3 1 2
v -2 1 2
v 2 1 2
v 3 1 2
v 4 1 2
v -4 1 -2
v -3 1 -2
v -2 1 -2
v 2 1 -2
v 3 1 -2
v 4 1 -2
v -3 1 -3
v -2 1 -3
v 2 1 -3
v 3 1 -3
v -2 1 -4
v 2 1 -4
v -2 2 4
v 2 2 4
v -3 2 3
v -2 2 3
v -1 2 3
v 0 2 3
v 1 2 3
v 2 2 3
v 3 2 3
v -4 2 2
v -3 2 2
v -2 2 2
v -1 2 2
v 0 2 2
v 1 2 2
v 2 2 2
v 3 2 2
v 4 2 2
v -3 2 1
v -2 2 1
v 2 2 1
v 3 2 1
v -3 2 -0
v -2 2 -0
v 2 2 -0
v 3 2 -0
v -3 2 -1
v -2 2 -1
v 2 2 -1
v 3 2 -1
v -4 2 -2
v -3 2 -2
v -2 2 -2
v -1 2 -2
v 0 2 -2
v 1 2 -2
v 2 2 -2
v 3 2 -2
v 4 2 -2
v -3 2 -3
v -2 2 -3
v -1 2 -3
v 0 2 -3
v 1 2 -3
v 2 2 -3
v 3 2 -3
v -2 2 -4
v 2 2 -4
v -2 3 2
v -1 3 2
v 0 3 2
v 2 3 2
v -1 3 1
v 0 3 1
v 1 3 1
v 2 3 1
v -2 3 -0
v -1 3 -0
v 0 3 -0
v 1 3 -0
v 2 3 -0
v -2 3 -1
v -1 3 -1
v 0 3 -1
v 1 3 -1
v -2 3 -2
v 0 3 -2
v 1 3 -2
v 2 3 -2
v -1 4 1
v 0 4 1
v -1 4 -0
v 0 4 -0
v 1 4 -0
v 0 4 -1
v 1 4 -1

# faces
f 3/6/1 2/6/1 1/6/1
f 4/6/1 2/6/1 3/6/1
f 8/6/1 6/6/1 5/6/1
f 9/6/1 6/6/1 8/6/1
f 11/6/1 8/6/1 7/6/1
f 12/6/1 8/6/1 11/6/1
f 13/6/1 10/6/1 9/6/1
f 14/6/1 10/6/1 13/6/1
f 20/6/1 16/6/1 15/6/1
f 21/6/1 16/6/1 20/6/1
f 22/6/1 18/6/1 17/6/1
f 23/6/1 18/6/1 22/6/1
f 25/6/1 20/6/1 19/6/1
f 26/6/1 20/6/1 25/6/1
f 32/6/1 24/6/1 23/6/1
f 33/6/1 24/6/1 32/6/1
f 34/1/1 28/1/1 27/1/1
f 34/1/1 29/1/1 28/1/1
f 35/2/1 30/2/1 29/2/1
f 35/1/1 29/1/1 34/1/1
f 36/1/1 31/1/1 30/1/1
f 36/2/1 30/2/1 35/2/1
f 37/1/1 31/1/1 36/1/1
f 40/5/1 39/5/1 38/5/1
f 41/5/1 39/5/1 40/5/1
f 44/5/1 43/5/1 42/5/1
f 45/5/1 43/5/1 44/5/1
f 46/5/2 47/5/2 48/5/2
f 48/5/2 47/5/2 49/5/2
f 50/5/2 51/5/2 52/5/2
f 52/5/2 51/5/2 53/5/2
f 54/6/2 55/6/2 59/6/2
f 59/6/2 55/6/2 60/6/2
f 56/6/2 57/6/2 61/6/2
f 61/6/2 57/6/2 62/6/2
f 58/6/2 59/6/2 64/6/2
f 64/6/2 59/6/2 65/6/2
f 62/6/2 63/6/2 71/6/2
f 71/6/2 63/6/2 72/6/2
f 66/1/2 67/1/2 73/1/2
f 67/2/2 68/2/2 74/2/2
f 73/1/2 67/1/2 74/1/2
f 69/1/2 70/1/2 75/1/2
f 74/2/2 68/2/2 75/2/2
f 68/1/2 69/1/2 75/1/2
f 75/1/2 70/1/2 76/1/2
f 77/6/2 78/6/2 80/6/2
f 80/6/2 78/6/2 81/6/2
f 79/6/2 80/6/2 83/6/2
f 83/6/2 80/6/2 84/6/2
f 81/6/2 82/6/2 85/6/2
f 85/6/2 82/6/2 86/6/2
f 87/6/2 88/6/2 89/6/2
f 89/6/2 88/6/2 90/6/2
f 93/6/3 92/6/3 91/6/3
f 94/6/3 92/6/3 93/6/3
f 98/6/3 96/6/3 95/6/3
f 99/6/3 96/6/3 98/6/3
f 100/6/3 98/6/3 97/6/3
f 101/6/3 98/6/3 100/6/3
f 103/6/3 102/6/3 101/6/3
f 104/6/3 102/6/3 103/6/3
f 108/6/3 106/6/3 105/6/3
f 109/6/3 106/6/3 108/6/3
f 110/6/3 108/6/3 107/6/3
f 111/6/3 108/6/3 110/6/3
f 114/1/3 113/1/3 112/1/3
f 115/1/3 113/1/3 114/1/3
f 116/2/3 115/2/3 114/2/3
f 117/2/3 115/2/3 116/2/3
f 118/1/3 117/1/3 116/1/3
f 121/1/3 117/1/3 118/1/3
f 122/1/3 117/1/3 121/1/3
f 123/6/3 120/6/3 119/6/3
f 124/6/3 120/6/3 123/6/3
f 126/6/3 125/6/3 124/6/3
f 127/6/3 125/6/3 126/6/3
f 130/5/3 129/5/3 128/5/3
f 131/5/3 129/5/3 130/5/3
f 134/5/3 133/5/3 132/5/3
f 135/5/3 133/5/3 134/5/3
f 136/5/4 137/5/4 138/5/4
f 138/5/4 137/5/4 139/5/4
f 140/5/4 141/5/4 142/5/4
f 142/5/4 141/5/4 143/5/4
f 144/6/4 145/6/4 147/6/4
f 147/6/4 145/6/4 148/6/4
f 146/6/4 147/6/4 149/6/4
f 149/6/4 147/6/4 150/6/4
f 151/1/4 152/1/4 153/1/4
f 153/1/4 152/1/4 154/1/4
f 154/1/4 152/1/4 155/1/4
f 154/2/4 155/2/4 156/2/4
f 156/2/4 155/2/4 157/2/4
f 156/1/4 157/1/4 160/1/4
f 160/1/4 157/1/4 161/1/4
f 158/6/4 159/6/4 162/6/4
f 162/6/4 159/6/4 163/6/4
f 163/6/4 164/6/4 165/6/4
f 165/6/4 164/6/4 166/6/4
f 167/6/4 168/6/4 170/6/4
f 170/6/4 168/6/4 171/6/4
f 169/6/4 170/6/4 172/6/4
f 172/6/4 170/6/4 173/6/4
f 173/6/4 174/6/4 175/6/4
f 175/6/4 174/6/4 176/6/4
f 177/6/4 178/6/4 179/6/4
f 179/6/4 178/6/4 180/6/4
f 184/6/5 182/6/5 181/6/5
f 185/6/5 182/6/5 184/6/5
f 186/6/5 182/6/5 185/6/5
f 187/6/5 182/6/5 186/6/5
f 189/6/5 184/6/5 183/6/5
f 189/6/5 185/6/5 184/6/5
f 190/7/5 186/7/5 185/7/5
f 190/6/5 185/6/5 189/6/5
f 191/6/5 188/6/5 187/6/5
f 191/7/5 186/7/5 190/7/5
f 191/6/5 187/6/5 186/6/5
f 192/6/5 188/6/5 191/6/5
f 193/7/5 190/7/5 189/7/5
f 193/6/5 189/6/5 183/6/5
f 193/7/5 192/7/5 191/7/5
f 193/7/5 191/7/5 190/7/5
f 194/7/5 192/7/5 193/7/5
f 195/7/5 192/7/5 194/7/5
f 196/6/5 188/6/5 192/6/5
f 196/7/5 192/7/5 195/7/5
f 197/6/5 193/6/5 183/6/5
f 197/6/5 194/6/5 193/6/5
f 198/6/5 194/6/5 197/6/5
f 199/7/5 195/7/5 194/7/5
f 199/6/5 194/6/5 198/6/5
f 200/6/5 196/6/5 195/6/5
f 200/7/5 195/7/5 199/7/5
f 201/6/5 188/6/5 196/6/5
f 201/6/5 196/6/5 200/6/5
f 202/6/5 188/6/5 201/6/5
f 203/6/5 200/6/5 199/6/5
f 203/6/5 201/6/5 200/6/5
f 203/6/5 199/6/5 198/6/5
f 204/6/5 201/6/5 203/6/5
f 208/6/5 206/6/5 205/6/5
f 209/6/5 206/6/5 208/6/5
f 212/6/5 208/6/5 207/6/5
f 213/6/5 208/6/5 212/6/5
f 214/6/5 210/6/5 209/6/5
f 215/6/5 210/6/5 214/6/5
f 217/6/5 212/6/5 211/6/5
f 218/6/5 212/6/5 217/6/5
f 221/6/5 216/6/5 215/6/5
f 222/6/5 216/6/5 221/6/5
f 223/6/5 219/6/5 218/6/5
f 224/6/5 219/6/5 223/6/5
f 225/6/5 221/6/5 220/6/5
f 226/6/5 221/6/5 225/6/5
f 227/6/5 225/6/5 224/6/5
f 228/6/5 225/6/5 227/6/5
f 229/6/6 230/6/6 232/6/6
f 232/6/6 230/6/6 233/6/6
f 233/6/6 230/6/6 234/6/6
f 234/6/6 230/6/6 235/6/6
f 235/6/6 230/6/6 236/6/6
f 231/6/6 232/6/6 239/6/6
f 232/4/6 233/4/6 240/4/6
f 239/6/6 232/6/6 240/6/6
f 233/3/6 234/3/6 241/3/6
f 240/4/6 233/4/6 241/4/6
f 234/4/6 235/4/6 242/4/6
f 241/3/6 234/3/6 242/3/6
f 235/3/6 236/3/6 243/3/6
f 242/4/6 235/4/6 243/4/6
f 236/6/6 237/6/6 244/6/6
f 243/3/6 236/3/6 244/3/6
f 244/6/6 237/6/6 245/6/6
f 238/6/6 239/6/6 247/6/6
f 239/4/6 240/4/6 247/4/6
f 247/4/6 240/4/6 248/4/6
f 244/4/6 245/4/6 249/4/6
f 245/6/6 246/6/6 250/6/6
f 249/4/6 245/4/6 250/4/6
f 247/3/6 248/3/6 251/3/6
f 238/6/6 247/6/6 251/6/6
f 251/3/6 248/3/6 252/3/6
f 249/3/6 250/3/6 253/3/6
f 250/6/6 246/6/6 254/6/6
f 253/3/6 250/3/6 254/3/6
f 251/4/6 252/4/6 255/4/6
f 238/6/6 251/6/6 255/6/6
f 255/4/6 252/4/6 256/4/6
f 253/4/6 254/4/6 257/4/6
f 254/6/6 246/6/6 258/6/6
f 257/4/6 254/4/6 258/4/6
f 238/6/6 255/6/6 259/6/6
f 255/3/6 256/3/6 260/3/6
f 259/6/6 255/6/6 260/6/6
f 260/3/6 256/3/6 261/3/6
f 257/3/6 258/3/6 265/3/6
f 258/6/6 246/6/6 266/6/6
f 265/3/6 258/3/6 266/3/6
f 266/6/6 246/6/6 267/6/6
f 260/6/6 261/6/6 268/6/6
f 261/3/6 262/3/6 269/3/6
f 268/6/6 261/6/6 269/6/6
f 262/4/6 263/4/6 270/4/6
f 269/3/6 262/3/6 270/3/6
f 263/3/6 264/3/6 271/3/6
f 270/4/6 263/4/6 271/4/6
f 264/4/6 265/4/6 272/4/6
f 271/3/6 264/3/6 272/3/6
f 265/6/6 266/6/6 273/6/6
f 272/4/6 265/4/6 273/4/6
f 273/6/6 266/6/6 274/6/6
f 270/6/6 271/6/6 275/6/6
f 269/6/6 270/6/6 275/6/6
f 272/6/6 273/6/6 275/6/6
f 271/6/6 272/6/6 275/6/6
f 275/6/6 273/6/6 276/6/6
f 277/1/6 278/1/6 281/1/6
f 278/2/6 279/2/6 281/2/6
f 279/1/6 280/1/6 282/1/6
f 281/2/6 279/2/6 282/2/6
f 282/1/6 280/1/6 283/1/6
f 283/1/6 280/1/6 284/1/6
f 277/1/6 281/1/6 285/1/6
f 285/1/6 281/1/6 286/1/6
f 282/1/6 283/1/6 287/1/6
f 283/2/6 284/2/6 288/2/6
f 287/1/6 283/1/6 288/1/6
f 288/2/6 284/2/6 289/2/6
f 285/2/6 286/2/6 290/2/6
f 286/1/6 287/1/6 291/1/6
f 290/2/6 286/2/6 291/2/6
f 291/1/6 287/1/6 292/1/6
f 288/1/6 289/1/6 293/1/6
f 291/1/6 292/1/6 294/1/6
f 290/1/6 291/1/6 294/1/6
f 292/2/6 293/2/6 295/2/6
f 294/1/6 292/1/6 295/1/6
f 293/1/6 289/1/6 296/1/6
f 295/2/6 293/2/6 296/2/6
f 296/1/6 289/1/6 297/1/6
f 298/5/6 299/5/6 300/5/6
f 300/5/6 299/5/6 301/5/6
f 301/5/6 302/5/6 303/5/6
f 303/5/6 302/5/6 304/5/6
