<?xml version="1.0" encoding="UTF-8" standalone="no"?>
<!-- Created with Inkscape (http://www.inkscape.org/) -->

<svg
   xmlns:dc="http://purl.org/dc/elements/1.1/"
   xmlns:cc="http://creativecommons.org/ns#"
   xmlns:rdf="http://www.w3.org/1999/02/22-rdf-syntax-ns#"
   xmlns:svg="http://www.w3.org/2000/svg"
   xmlns="http://www.w3.org/2000/svg"
   xmlns:sodipodi="http://sodipodi.sourceforge.net/DTD/sodipodi-0.dtd"
   xmlns:inkscape="http://www.inkscape.org/namespaces/inkscape"
   width="128"
   height="128"
   viewBox="0 0 33.866664 33.866668"
   version="1.1"
   id="svg8"
   inkscape:version="0.92.2 (5c3e80d, 2017-08-06)"
   sodipodi:docname="social_icon_6.svg"
   inkscape:export-filename="C:\Users\Me\Documents\GitHub\ServeTheGods\Assets\Images\SocialMedia\social_icon_5.png"
   inkscape:export-xdpi="96"
   inkscape:export-ydpi="96">
  <defs
     id="defs2" />
  <sodipodi:namedview
     id="base"
     pagecolor="#ffffff"
     bordercolor="#666666"
     borderopacity="1.0"
     inkscape:pageopacity="0.0"
     inkscape:pageshadow="2"
     inkscape:zoom="5.6568542"
     inkscape:cx="67.937684"
     inkscape:cy="47.657412"
     inkscape:document-units="mm"
     inkscape:current-layer="layer1"
     showgrid="true"
     units="px"
     inkscape:snap-bbox="true"
     inkscape:bbox-paths="false"
     inkscape:bbox-nodes="true"
     inkscape:window-width="1920"
     inkscape:window-height="1017"
     inkscape:window-x="-8"
     inkscape:window-y="-8"
     inkscape:window-maximized="1"
     inkscape:snap-global="false">
    <inkscape:grid
       type="xygrid"
       id="grid4504"
       spacingx="4.2333333"
       spacingy="4.2333333"
       empspacing="4" />
  </sodipodi:namedview>
  <metadata
     id="metadata5">
    <rdf:RDF>
      <cc:Work
         rdf:about="">
        <dc:format>image/svg+xml</dc:format>
        <dc:type
           rdf:resource="http://purl.org/dc/dcmitype/StillImage" />
        <dc:title></dc:title>
      </cc:Work>
    </rdf:RDF>
  </metadata>
  <g
     inkscape:label="Layer 1"
     inkscape:groupmode="layer"
     id="layer1"
     transform="translate(0,-263.13332)">
    <rect
       style="fill:#8678ee;fill-opacity:1;stroke:none;stroke-width:5.29166651;stroke-linecap:butt;stroke-linejoin:round;stroke-miterlimit:4;stroke-dasharray:15.8749998, 5.2916666;stroke-dashoffset:0;stroke-opacity:0.74874369"
       id="rect4506"
       width="127"
       height="84.666672"
       x="4.2333331"
       y="165.76665"
       ry="8.4666739" />
    <rect
       ry="4.233335"
       y="191.16666"
       x="8.4666662"
       height="55.033329"
       width="118.53333"
       id="rect4508"
       style="fill:#f3f3f3;fill-opacity:1;stroke:none;stroke-width:5.29166651;stroke-linecap:butt;stroke-linejoin:round;stroke-miterlimit:4;stroke-dasharray:15.8749998, 5.2916666;stroke-dashoffset:0;stroke-opacity:0.74874369" />
    <rect
       style="fill:#f3f3f3;fill-opacity:1;stroke:none;stroke-width:5.29166651;stroke-linecap:butt;stroke-linejoin:round;stroke-miterlimit:4;stroke-dasharray:15.8749998, 5.2916666;stroke-dashoffset:0;stroke-opacity:0.74874369"
       id="rect4510"
       width="80.433334"
       height="12.700003"
       x="29.633333"
       y="169.99998"
       ry="4.1199408" />
    <path
       style="fill:#ffffff;fill-opacity:1;stroke:none;stroke-width:0.26458332px;stroke-linecap:butt;stroke-linejoin:miter;stroke-opacity:1"
       d="m 16.79091,274.87699 c -0.178838,0.0163 -0.345801,0.0845 -0.514181,0.14056 -0.199479,0.0665 -0.09124,0.0465 -0.327629,0.0465 -0.06764,0.0169 -0.122328,0.0676 -0.187068,0.0935 -0.09155,0.0366 -0.189053,0.0569 -0.280603,0.0935 -0.06474,0.0258 -0.124709,0.0623 -0.187069,0.0935 -0.06236,0.0311 -0.129059,0.0548 -0.187068,0.0935 -0.0367,0.0244 -0.06236,0.0623 -0.09353,0.0935 -0.140316,0.14031 -0.28033,0.28085 -0.420646,0.42117 -0.03119,0.0311 -0.05624,0.0708 -0.09405,0.0935 -0.04228,0.0254 -0.100603,0.0169 -0.140043,0.0465 -0.02789,0.0209 -0.03144,0.0623 -0.04703,0.0935 -0.16956,0.33912 0.04931,-0.0737 -0.09353,0.14056 -0.0058,0.009 -0.09053,0.18407 -0.09354,0.18707 -0.02465,0.0247 -0.07419,0.0175 -0.09353,0.0465 -0.0173,0.0259 0.0076,0.0633 0,0.0935 -0.01691,0.0676 -0.07662,0.11937 -0.09353,0.18707 -0.0076,0.0302 0.0099,0.0639 0,0.0935 -0.007,0.021 -0.03661,0.0273 -0.04651,0.047 -0.02205,0.0441 -0.02872,0.0943 -0.04703,0.14005 -0.01295,0.0323 -0.03801,0.0597 -0.04651,0.0935 -0.0076,0.0302 0.0061,0.0629 0,0.0935 -0.0097,0.0483 -0.03144,0.0938 -0.04703,0.14056 -0.01559,0.0468 -0.03092,0.0932 -0.04651,0.14004 -0.01559,0.0468 -0.03893,0.092 -0.04702,0.14056 -0.0077,0.0461 0,0.0932 0,0.14004 -0.01559,0.078 -0.03092,0.1562 -0.04651,0.2341 -0.02391,0.0957 -0.06235,0.1871 -0.09353,0.2806 -0.01559,0.0468 -0.03893,0.0914 -0.04703,0.14004 -0.01538,0.0923 0.01538,0.1883 0,0.2806 -0.02178,0.13069 -0.118263,0.29048 -0.140043,0.42117 -0.0077,0.0461 0.0077,0.0939 0,0.14004 -0.0081,0.0486 -0.03507,0.0928 -0.04703,0.14056 -0.01928,0.0771 -0.03092,0.1561 -0.04651,0.2341 -0.06212,0.31057 -0.09871,0.62149 -0.14056,0.93534 -0.01457,0.10928 -0.03801,0.21719 -0.04651,0.32711 -0.0072,0.0933 0.01033,0.1876 0,0.2806 -0.01088,0.098 -0.07732,0.18331 -0.09353,0.28061 -0.0077,0.0461 0.0066,0.0943 0,0.14056 -0.0091,0.0636 -0.03442,0.12406 -0.04703,0.18706 -0.0186,0.093 -0.03092,0.18711 -0.04651,0.28061 -0.01559,0.0624 -0.03308,0.12437 -0.04703,0.18707 -0.03449,0.15521 -0.06509,0.31124 -0.09353,0.46767 -0.01696,0.0933 -0.02351,0.1886 -0.04651,0.2806 -0.02391,0.0957 -0.06961,0.1849 -0.09353,0.2806 -0.023,0.092 -0.03449,0.18661 -0.04702,0.28061 -0.01866,0.13994 -0.03645,0.28034 -0.04651,0.42116 -0.01662,0.23268 0.0157,0.46904 0,0.70177 0.03118,0.0624 0.06763,0.12236 0.09353,0.18706 0.015,0.0375 -0.01552,0.20258 0,0.23358 0.0099,0.0197 0.03661,0.0273 0.04651,0.047 0.007,0.014 -0.01103,0.0355 0,0.0465 0.01102,0.011 0.03599,-0.011 0.04702,0 0.01103,0.0111 -0.01103,0.036 0,0.047 0.02204,0.0221 0.07149,-0.022 0.09354,0 0.01103,0.011 -0.01103,0.036 0,0.047 0.01102,0.011 0.03257,-0.007 0.04651,0 0.01972,0.01 0.02731,0.0365 0.04703,0.0465 0.01394,0.007 0.03144,0 0.04703,0 0.06949,0 0.128908,0.0117 0.187068,-0.0465 0.01103,-0.011 -0.01103,-0.036 0,-0.047 0.01102,-0.011 0.03257,0.007 0.04651,0 0.01972,-0.01 0.02731,-0.037 0.04703,-0.047 0.01394,-0.007 0.03549,0.011 0.04651,0 0.01103,-0.0111 -0.007,-0.0326 0,-0.0465 0.0099,-0.0197 0.03143,-0.0314 0.04702,-0.047 0,-0.0156 -0.007,-0.0326 0,-0.0465 0.02806,-0.0561 0.111983,-0.0845 0.140043,-0.14056 0.007,-0.014 -0.0049,-0.0317 0,-0.0465 0.01102,-0.033 0.036,-0.0604 0.04703,-0.0935 0.0099,-0.0295 -0.01394,-0.0656 0,-0.0935 0.09734,-0.19468 -0.0032,0.0498 0.09353,-0.047 0.02205,-0.022 -0.01394,-0.0656 0,-0.0935 0.06882,-0.13732 0.04651,0.0729 0.04651,-0.14005 0.0084,-0.0338 0.03144,-0.0623 0.04703,-0.0935 0.01559,-0.0311 0.02717,-0.0645 0.04651,-0.0935 0.01223,-0.0184 0.03713,-0.0273 0.04703,-0.047 0.007,-0.014 -0.007,-0.0326 0,-0.0465 0.0099,-0.0198 0.03661,-0.0273 0.04651,-0.047 0.007,-0.014 0,-0.0309 0,-0.0465 0.01559,-0.0311 0.03144,-0.0623 0.04703,-0.0935 0.05706,-0.0856 0.05962,-0.005 0.09353,-0.14056 0.0076,-0.0302 -0.01394,-0.0656 0,-0.0935 0.007,-0.0139 0.03548,0.011 0.04651,0 0.01103,-0.0111 -0.007,-0.0326 0,-0.0465 0.01972,-0.0394 0.07381,-0.0541 0.09354,-0.0935 0.007,-0.014 -0.01103,-0.036 0,-0.047 0.01102,-0.011 0.03599,0.011 0.04702,0 0.01103,-0.011 -0.01103,-0.0355 0,-0.0465 0.01102,-0.011 0.03548,0.011 0.04651,0 0.01103,-0.0111 -0.01103,-0.036 0,-0.047 0.01102,-0.011 0.03308,0.007 0.04703,0 0.01972,-0.01 0.02816,-0.0348 0.04651,-0.047 0.029,-0.0194 0.06236,-0.0309 0.09353,-0.0465 0.03118,-0.0156 0.05971,-0.039 0.09353,-0.047 0.256809,-0.0642 -0.07793,0.086 0.187069,-0.0465 l 0.09353,-0.047 c 0.03119,0 0.06395,0.01 0.09353,0 0.05898,-0.0197 0.103919,-0.18164 0.187069,-0.14004 0.194652,0.0975 -0.04974,-0.003 0.04703,0.0935 0.01102,0.011 0.03548,-0.011 0.04651,0 0.118139,0.11812 0.01823,0.0536 0.04703,0.14004 0.02204,0.0661 0.07662,0.11947 0.09353,0.18707 0.0076,0.0302 -0.01158,0.0645 0,0.0935 0.03353,0.0838 0.117343,0.14329 0.140044,0.23409 0.0076,0.0302 -0.0076,0.0632 0,0.0935 0.0084,0.0338 0.03407,0.0611 0.04702,0.0935 0.01831,0.0458 0.02446,0.0959 0.04651,0.14004 0.01972,0.0394 0.06907,0.0568 0.09353,0.0935 0.1206,0.18109 -0.02707,0.006 0.09353,0.18707 0.01223,0.0184 0.0338,0.0294 0.04703,0.047 0.03372,0.045 0.05378,0.10035 0.09353,0.14005 0.02466,0.0247 0.06888,0.0223 0.09354,0.047 0.01103,0.0111 -0.0087,0.0335 0,0.0465 0.01717,0.0258 0.208604,0.21499 0.234094,0.23409 0.02789,0.0209 0.06564,0.0256 0.09353,0.0465 0.03527,0.0264 0.0541,0.0738 0.09353,0.0935 0.02789,0.0139 0.06328,-0.008 0.09353,0 0.08145,0.0203 0.139647,0.10423 0.233577,0.0935 0.03057,0.006 0.06236,0 0.09353,0 h 0.280603 c 0.01829,0 0.307458,0.007 0.327628,0 0.04183,-0.0139 0.0541,-0.0738 0.09353,-0.0935 0.01394,-0.007 0.03548,0.011 0.04651,0 0.01103,-0.011 -0.01103,-0.0355 0,-0.0465 0.01102,-0.011 0.03599,0.011 0.04703,0 0.01103,-0.011 -0.007,-0.0331 0,-0.047 0.09734,-0.19469 -0.0032,0.0503 0.09353,-0.0465 0.01103,-0.011 -0.01103,-0.036 0,-0.047 0.01102,-0.011 0.03548,0.011 0.04651,0 0.01103,-0.0111 -0.007,-0.0326 0,-0.0465 0.0099,-0.0197 0.03713,-0.0273 0.04703,-0.047 0.01395,-0.0278 -0.02205,-0.0715 0,-0.0935 0.01102,-0.011 0.03548,0.011 0.04651,0 0.01103,-0.011 -0.007,-0.0331 0,-0.047 0.0099,-0.0197 0.03712,-0.0268 0.04703,-0.0465 0.007,-0.014 -0.01103,-0.036 0,-0.047 0.01102,-0.011 0.03791,0.013 0.04651,0 0.20254,-0.30382 -6.75e-4,-0.044 0.04703,-0.18707 0.01102,-0.033 0.02717,-0.0645 0.04651,-0.0935 0.01223,-0.0184 0.04003,-0.0256 0.04703,-0.0465 0.0099,-0.0295 -0.01394,-0.0656 0,-0.0935 0.007,-0.0139 0.03951,0.0139 0.04651,0 0.01395,-0.0278 -0.01394,-0.0656 0,-0.0935 0.007,-0.0139 0.03143,0 0.04702,0 0.01559,-0.0156 0.03661,-0.0273 0.04651,-0.047 0.007,-0.014 -0.01103,-0.0355 0,-0.0465 0.01102,-0.011 0.04003,0.0139 0.04703,0 0.01395,-0.0278 -0.01394,-0.0656 0,-0.0935 0.007,-0.014 0.03548,0.011 0.04651,0 0.02465,-0.0246 0.02769,-0.0645 0.04703,-0.0935 0.01223,-0.0184 0.03661,-0.0273 0.04651,-0.047 0.007,-0.014 -0.007,-0.0326 0,-0.0465 0.02073,-0.0414 0.11217,-0.098 0.140559,-0.14056 0.01934,-0.029 0.02186,-0.0688 0.04651,-0.0935 0.01102,-0.011 0.036,0.011 0.04703,0 0.02465,-0.0246 0.02186,-0.0689 0.04651,-0.0935 0.0047,-0.005 0.135859,-0.005 0.140559,0 0.01103,0.0111 -0.01103,0.036 0,0.047 0.02204,0.022 0.06564,-0.0139 0.09353,0 0.01242,0.006 0.133843,0.12764 0.140043,0.14004 0.007,0.014 -0.01103,0.036 0,0.047 0.06236,0.0624 0.04487,-0.099 0.09353,0.047 0.03707,0.11119 -0.05511,0.0849 0.04703,0.18707 0.01102,0.011 0.036,-0.011 0.04703,0 0.01103,0.011 -0.007,0.0325 0,0.0465 0.0099,0.0198 0.03661,0.0273 0.04651,0.047 0.007,0.014 -0.01103,0.0355 0,0.0465 0.01102,0.011 0.036,-0.011 0.04703,0 0.01103,0.011 -0.01103,0.036 0,0.047 0.01102,0.011 0.03548,-0.011 0.04651,0 0.118139,0.11812 0.01823,0.0536 0.04703,0.14004 0.01102,0.033 0.02857,0.0636 0.04651,0.0935 0.02892,0.0482 0.06461,0.0924 0.09353,0.14056 0.01793,0.0299 0.02611,0.0656 0.04703,0.0935 0.02645,0.0352 0.06907,0.0568 0.09353,0.0935 0.0086,0.013 -0.007,0.0326 0,0.0465 0.02513,0.0503 0.06839,0.0903 0.09353,0.14056 0.007,0.014 -0.01103,0.0355 0,0.0465 0.02465,0.0247 0.06888,0.0223 0.09353,0.047 0.01103,0.0111 -0.01103,0.036 0,0.047 0.08833,0.0884 0.08827,0.0218 0.187069,0.0465 0.03382,0.009 0.06235,0.0314 0.09353,0.047 0.01559,0.0156 0.02559,0.0395 0.04651,0.0465 0.02958,0.01 0.06328,-0.008 0.09353,0 0.03382,0.009 0.06452,0.0277 0.09353,0.047 0.01834,0.0123 0.02564,0.0415 0.04703,0.0465 0.04538,0.0113 0.09466,-0.0113 0.140043,0 0.02139,0.005 0.02611,0.04 0.04702,0.047 0.04437,0.0148 0.09327,0 0.140044,0 0.01559,0 0.03308,0.007 0.04703,0 0.01972,-0.01 0.02679,-0.037 0.04651,-0.047 0.01394,-0.007 0.03308,0.007 0.04702,0 0.01972,-0.01 0.02816,-0.0343 0.04651,-0.0465 0.029,-0.0194 0.06889,-0.0223 0.09353,-0.047 0.01103,-0.011 -0.01103,-0.0355 0,-0.0465 0.02465,-0.0247 0.06888,-0.0224 0.09353,-0.047 0.01103,-0.011 -0.01103,-0.0355 0,-0.0465 0.01102,-0.011 0.036,0.011 0.04703,0 0.01103,-0.0111 -0.01103,-0.036 0,-0.047 0.01102,-0.011 0.03548,0.011 0.04651,0 0.01103,-0.011 -0.007,-0.0331 0,-0.047 0.01786,-0.0357 0.129999,-0.10834 0.140559,-0.14004 0.0099,-0.0295 -0.0076,-0.0632 0,-0.0935 0.0084,-0.0338 0.03092,-0.0623 0.04651,-0.0935 0.01559,-0.0311 0.02769,-0.0645 0.04703,-0.0935 0.01223,-0.0184 0.03661,-0.0268 0.04651,-0.0465 0.007,-0.014 -0.0049,-0.0322 0,-0.047 0.01102,-0.0331 0.036,-0.0604 0.04703,-0.0935 0.0049,-0.0148 -0.01103,-0.036 0,-0.047 0.01102,-0.011 0.03548,0.011 0.04651,0 0.01103,-0.0111 -0.007,-0.0326 0,-0.0465 0.0099,-0.0197 0.03712,-0.0273 0.04702,-0.047 0.01395,-0.0278 -0.01394,-0.0656 0,-0.0935 0.0099,-0.0198 0.03951,-0.0256 0.04651,-0.0465 0.01479,-0.0444 0,-0.0938 0,-0.14056 v -0.32712 c 0,-0.0377 -0.0098,-0.15766 0,-0.18706 0.06769,-0.20306 0.04703,0.0319 0.04703,-0.2341 0.0068,-0.0341 0.03548,-0.0604 0.04651,-0.0935 0.009,-0.0271 0,-0.14657 0,-0.18707 v -0.46767 -0.46768 c 0,-0.0392 0.0089,-0.19849 0,-0.23409 -0.0084,-0.0338 -0.03548,-0.0604 -0.04651,-0.0935 -0.01255,-0.0376 0.01494,-0.15717 0,-0.18707 -0.0099,-0.0197 -0.04003,-0.0256 -0.04703,-0.0465 -0.0071,-0.0213 0,-0.29593 0,-0.32763 v -0.18707 -0.0935 c 0,-0.0156 0.007,-0.0325 0,-0.0465 -0.0099,-0.0198 -0.03951,-0.0261 -0.04651,-0.047 -0.0099,-0.0295 0,-0.0623 0,-0.0935 0,-0.0468 0.0092,-0.0941 0,-0.14004 -0.01367,-0.0684 -0.07662,-0.11947 -0.09353,-0.18707 -0.0076,-0.0302 0.0061,-0.0629 0,-0.0935 -0.0097,-0.0483 -0.03144,-0.0938 -0.04703,-0.14056 -0.01559,-0.0468 -0.03092,-0.0932 -0.04651,-0.14004 -0.01559,-0.0468 -0.03893,-0.092 -0.04703,-0.14056 -0.05407,-0.32441 0.08597,0.0698 -0.04651,-0.32763 -0.02204,-0.0661 -0.07986,-0.11867 -0.09353,-0.18707 -0.0092,-0.0459 0.0077,-0.0939 0,-0.14004 -0.0226,-0.13562 -0.11796,-0.23852 -0.14056,-0.37414 -0.0077,-0.0461 0.0092,-0.0947 0,-0.14056 -4.4e-4,-0.002 -0.09093,-0.18107 -0.09353,-0.18707 -0.11559,-0.28897 0.01615,-0.0142 -0.09353,-0.23357 -0.03118,-0.0624 -0.06235,-0.12467 -0.09353,-0.18707 -0.01559,-0.0311 -0.03801,-0.0597 -0.04651,-0.0935 -0.0076,-0.0302 0.0076,-0.0632 0,-0.0935 -0.01691,-0.0676 -0.07986,-0.11867 -0.09353,-0.18707 -0.0092,-0.0459 0.0092,-0.0947 0,-0.14056 -0.02039,-0.10193 -0.11536,-0.13277 -0.14056,-0.23358 -0.0076,-0.0302 0.01158,-0.0645 0,-0.0935 -0.03353,-0.0838 -0.117343,-0.1433 -0.140043,-0.2341 -0.0076,-0.0302 0.01395,-0.0656 0,-0.0935 -0.01972,-0.0394 -0.07084,-0.0557 -0.09353,-0.0935 -0.09433,-0.15726 0.0011,-0.10737 -0.09354,-0.23357 -0.02645,-0.0352 -0.07381,-0.0541 -0.09353,-0.0935 -0.01395,-0.0278 0.01604,-0.0668 0,-0.0935 -0.03403,-0.0567 -0.09924,-0.089 -0.14056,-0.14056 -0.119516,-0.14939 0.04522,-0.0481 -0.140043,-0.18707 -0.02789,-0.0209 -0.06889,-0.0219 -0.09353,-0.0465 -0.03974,-0.0397 -0.05378,-0.10076 -0.09353,-0.14056 -0.02465,-0.0247 -0.06452,-0.0272 -0.09353,-0.0465 -0.06486,-0.0432 -0.127179,-0.0907 -0.187069,-0.14056 -0.06775,-0.0565 -0.118715,-0.13197 -0.187585,-0.18707 -0.0439,-0.0351 -0.09184,-0.0646 -0.140043,-0.0935 -0.0081,-0.005 -0.185369,-0.0915 -0.187069,-0.0935 -0.01103,-0.0111 0.01395,-0.0395 0,-0.0465 -0.02789,-0.014 -0.06395,0.01 -0.09353,0 -0.04184,-0.0139 -0.05409,-0.0738 -0.09353,-0.0935 -0.01394,-0.007 -0.03224,0.005 -0.04703,0 -0.06614,-0.022 -0.120029,-0.0743 -0.187069,-0.0935 -0.217211,-0.0621 -0.245596,-0.047 -0.467672,-0.047 H 17.633286 17.07208 c -0.09354,0 -0.187959,-0.008 -0.281119,0 z m 0.86403,1.726 c 0.0084,0.001 0.01701,0.004 0.0248,0.004 0.0323,0 0.172849,-0.007 0.187069,0 0.01972,0.01 0.02612,0.04 0.04703,0.047 0.02958,0.01 0.06564,-0.014 0.09353,0 0.01395,0.007 -0.01103,0.0355 0,0.0465 0.01103,0.011 0.03172,-0.005 0.04651,0 0.03307,0.011 0.06452,0.0276 0.09353,0.047 0.155123,0.15513 -0.04411,-0.0219 0.09353,0.047 0.01972,0.01 0.02731,0.0366 0.04703,0.0465 0.02789,0.0139 0.07149,-0.022 0.09353,0 0.01103,0.011 -0.007,0.033 0,0.047 0.0099,0.0197 0.03092,0.0309 0.04651,0.0465 0.01559,0.0156 0.02731,0.0371 0.04703,0.047 0.01395,0.007 0.03549,-0.011 0.04651,0 0.01103,0.011 -0.007,0.0325 0,0.0465 0.0099,0.0197 0.03717,0.0273 0.04703,0.047 0.007,0.0139 -0.01103,0.0354 0,0.0465 0.01103,0.011 0.03549,-0.011 0.04651,0 0.01103,0.011 -0.007,0.033 0,0.047 0.01972,0.0394 0.07381,0.0541 0.09353,0.0935 0.007,0.0139 -0.01103,0.0359 0,0.047 0.01103,0.011 0.03601,-0.011 0.04703,0 0.02205,0.0221 -0.02205,0.071 0,0.093 0.01103,0.011 0.03549,-0.011 0.04651,0 0.143562,0.14356 -0.02707,0.0389 0.04703,0.18707 0.007,0.0139 0.03549,-0.011 0.04651,0 0.01103,0.011 0,0.0314 0,0.047 v 0.28061 0.047 c 0,0.0156 0.007,0.0325 0,0.0465 -0.03735,0.0747 -0.05618,0.0188 -0.09353,0.0935 -0.007,0.014 0.007,0.033 0,0.047 -0.0099,0.0197 -0.03665,0.0267 -0.04651,0.0465 -0.007,0.0139 0.01103,0.036 0,0.047 -0.01103,0.011 -0.036,-0.011 -0.04703,0 -0.02205,0.022 0.02205,0.0715 0,0.0935 -0.02205,0.022 -0.07149,-0.0221 -0.09353,0 -0.01103,0.011 0.01103,0.0354 0,0.0465 -0.01103,0.011 -0.03549,-0.011 -0.04651,0 -0.01103,0.011 0.01103,0.036 0,0.047 -0.01103,0.011 -0.03601,-0.011 -0.04703,0 -0.01103,0.011 0.01103,0.036 0,0.047 -0.01126,0.0113 -0.175813,-0.0113 -0.187068,0 -0.01103,0.011 0.01103,0.0355 0,0.0465 -0.01103,0.011 -0.03092,0 -0.04651,0 h -0.234094 c -0.01559,0 -0.03549,0.011 -0.04651,0 -0.01103,-0.011 0.01103,-0.0354 0,-0.0465 -0.01448,-0.0145 -0.219611,0.0145 -0.234094,0 -0.01103,-0.011 0.01103,-0.036 0,-0.047 -0.0057,-0.006 -0.07433,0.005 -0.09353,0 -0.04783,-0.012 -0.09327,-0.0314 -0.140043,-0.047 -0.06617,-0.10099 0.02647,-0.22175 0,-0.32763 -0.0085,-0.0338 -0.03409,-0.0612 -0.04703,-0.0935 -0.03662,-0.0915 -0.06236,-0.18707 -0.09353,-0.28061 -0.01559,-0.0468 -0.03092,-0.0932 -0.04651,-0.14004 -0.01559,-0.0468 -0.03736,-0.0922 -0.04703,-0.14056 -0.0061,-0.0306 0.0099,-0.064 0,-0.0935 -0.01395,-0.0418 -0.07381,-0.0541 -0.09353,-0.0935 -0.0032,-0.006 -0.0032,-0.27421 0,-0.2806 0.09733,-0.19465 -0.0032,0.0503 0.09353,-0.0465 0.01103,-0.011 -0.007,-0.033 0,-0.047 0.0099,-0.0197 0.03717,-0.0268 0.04703,-0.0465 0.007,-0.0139 -0.01103,-0.0359 0,-0.047 0.01103,-0.011 0.03549,0.011 0.04651,0 0.01103,-0.011 -0.01103,-0.036 0,-0.047 0.02205,-0.022 0.07148,0.0221 0.09353,0 0.01103,-0.011 -0.01103,-0.0354 0,-0.0465 0.02339,-0.0234 0.117173,0.0234 0.140559,0 0.01103,-0.011 -0.01103,-0.036 0,-0.047 0.0055,-0.005 0.01334,-0.006 0.02171,-0.004 z m -2.547648,0.004 c 0.0015,-0.002 0.129216,0 0.140559,0 0.0323,0 0.172849,-0.007 0.187069,0 0.01972,0.01 0.02679,0.0371 0.04651,0.047 0.01394,0.007 0.03144,0 0.04702,0 0.03118,0.0156 0.06453,0.0276 0.09353,0.047 0.01835,0.0122 0.02679,0.0366 0.04651,0.0465 0.02789,0.0139 0.06564,-0.0139 0.09353,0 0.01972,0.01 0.02731,0.0371 0.04702,0.047 0.01394,0.007 0.03257,-0.007 0.04651,0 0.01972,0.01 0.03144,0.0309 0.04703,0.0465 0.01559,0.0156 0.03665,0.0272 0.04651,0.047 0.007,0.0139 -0.01103,0.0355 0,0.0465 0.01103,0.011 0.03601,-0.011 0.04703,0 0.01103,0.011 -0.01103,0.0359 0,0.047 0.01103,0.011 0.03549,-0.011 0.04651,0 0,0.12473 -0.01534,-0.0159 0.04702,0.0465 0.01103,0.011 -0.007,0.033 0,0.047 0.0099,0.0197 0.03665,0.0272 0.04651,0.047 0.007,0.014 -0.01103,0.0355 0,0.0465 0.01103,0.011 0.04006,-0.0139 0.04703,0 0.01395,0.0279 -0.0099,0.064 0,0.0935 0.007,0.0209 0.03665,0.0272 0.04651,0.047 0.007,0.0139 -0.01103,0.0355 0,0.0465 0.01103,0.011 0.03601,-0.011 0.04703,0 0.0015,0.002 0,0.12921 0,0.14056 v 0.23358 0.047 c 0,0.0156 0.007,0.0325 0,0.0465 -0.0099,0.0197 -0.03717,0.0272 -0.04703,0.047 -0.007,0.014 0.007,0.033 0,0.047 -0.0099,0.0197 -0.03665,0.0267 -0.04651,0.0465 -0.007,0.0139 0.007,0.033 0,0.047 -0.09733,0.19465 0.0032,-0.0503 -0.09354,0.0465 -0.02205,0.022 0.02205,0.0715 0,0.0935 -0.01103,0.011 -0.036,-0.011 -0.04702,0 -0.01103,0.011 0.01103,0.0359 0,0.047 -0.01103,0.011 -0.03549,-0.011 -0.04651,0 -0.01103,0.011 0.01103,0.0355 0,0.0465 -0.01103,0.011 -0.03308,-0.007 -0.04703,0 -0.01972,0.01 -0.02679,0.0371 -0.04651,0.047 -0.01394,0.007 -0.03601,-0.011 -0.04703,0 -0.09677,0.0968 0.148144,-0.004 -0.04651,0.0935 -0.01395,0.007 -0.03144,0 -0.04702,0 h -0.04651 -0.280603 -0.04702 c -0.01559,0 -0.03549,-0.011 -0.04651,0 -0.01103,0.011 0.01103,0.0355 0,0.0465 -0.02205,0.0221 -0.07148,-0.022 -0.09353,0 -0.01103,0.011 0.01103,0.036 0,0.047 -0.02205,0.022 -0.06564,-0.0139 -0.09353,0 -0.01972,0.01 -0.02869,0.0342 -0.04703,0.0465 -0.02355,0.10305 -0.09595,0.0249 -0.140044,0.047 -0.01972,0.01 -0.02731,0.0371 -0.04702,0.047 -0.0096,0.005 -0.133446,0.007 -0.140043,0 -0.01103,-0.011 0.01103,-0.036 0,-0.047 -0.06236,-0.0624 -0.04703,0.0777 -0.04703,-0.047 0,-0.0156 -0.01247,-0.0371 0,-0.0465 0.05578,-0.0418 0.124706,-0.0624 0.187069,-0.0935 v -5.2e-4 c -0.01559,-0.078 -0.03527,-0.1554 -0.04651,-0.2341 -0.01002,-0.0702 0,-0.20516 0,-0.2806 v -0.51418 -0.23409 c 0,-0.0312 -0.0099,-0.064 0,-0.0935 0.007,-0.0209 0.03954,-0.0255 0.04651,-0.0465 0.0099,-0.0296 -0.0099,-0.064 0,-0.0935 0.007,-0.0209 0.03716,-0.0272 0.04702,-0.047 0.007,-0.014 -0.007,-0.033 0,-0.047 0.0762,-0.1524 0.01732,0.0594 0.09354,-0.093 0.007,-0.0139 -0.01103,-0.0359 0,-0.047 0.01103,-0.011 0.03549,0.011 0.04651,0 0.01103,-0.011 -0.01103,-0.036 0,-0.047 z m 1.71204,2.1947 c 0.04648,-0.001 0.09126,-0.001 0.112137,0.004 0.03382,0.008 0.05971,0.038 0.09353,0.0465 0.03025,0.008 0.06328,-0.008 0.09353,0 0.06764,0.0169 0.119426,0.0766 0.187069,0.0935 0.03025,0.008 0.06395,-0.01 0.09353,0 0.01868,0.006 0.07486,0.0873 0.09353,0.0935 0.02958,0.01 0.06565,-0.0139 0.09353,0 0.01395,0.007 -0.007,0.033 0,0.047 0.0099,0.0197 0.0273,0.0366 0.04702,0.0465 0.04989,0.0249 0.06252,-0.0461 0.09353,0.047 0.0099,0.0296 -0.0173,0.0676 0,0.0935 0.01934,0.029 0.06888,0.0218 0.09353,0.0465 0.01103,0.011 -0.0049,0.0322 0,0.047 0.01103,0.0331 0.03092,0.0624 0.04651,0.0935 0.01559,0.0312 0.02769,0.0645 0.04703,0.0935 0.01223,0.0183 0.03092,0.0309 0.04651,0.0465 0.01559,0.0468 0.02498,0.0964 0.04703,0.14056 0.0099,0.0197 0.03665,0.0267 0.04651,0.0465 0.007,0.0139 0,0.0314 0,0.047 0.01559,0.0312 0.02769,0.0645 0.04702,0.0935 0.01223,0.0183 0.03665,0.0273 0.04651,0.047 0.007,0.0139 -0.007,0.0325 0,0.0465 0.0099,0.0197 0.03717,0.0272 0.04703,0.047 0.01395,0.0279 -0.01394,0.0657 0,0.0935 0.0099,0.0197 0.03954,0.0256 0.04651,0.0465 0.02129,0.0639 -0.02129,0.21673 0,0.2806 0.007,0.0209 0.03717,0.0272 0.04703,0.047 0.0071,0.0142 0,0.11898 0,0.14004 0,0.0377 0.0098,0.15772 0,0.18707 -0.01103,0.0331 -0.03601,0.0605 -0.04703,0.0935 -0.0099,0.0296 0.02205,0.0715 0,0.0935 -0.01103,0.011 -0.03549,-0.011 -0.04651,0 -0.02205,0.022 0.02205,0.0715 0,0.0935 -0.01103,0.011 -0.03309,-0.007 -0.04703,0 -0.01242,0.006 -0.133834,0.12814 -0.140043,0.14056 -0.007,0.0139 0.01103,0.0355 0,0.0465 -0.0015,0.002 -0.129216,0 -0.14056,0 -0.02116,0 -0.268138,0.006 -0.280603,0 -0.01972,-0.01 -0.02679,-0.0366 -0.04651,-0.0465 -0.01395,-0.007 -0.03406,0.009 -0.04703,0 -0.03669,-0.0245 -0.06236,-0.0624 -0.09353,-0.0935 -0.01559,-0.0156 -0.03665,-0.0272 -0.04651,-0.047 -0.007,-0.014 0,-0.0309 0,-0.0465 -0.01559,-0.0312 -0.0277,-0.0645 -0.04703,-0.0935 -0.01223,-0.0183 -0.03954,-0.0261 -0.04651,-0.047 -0.0099,-0.0296 0.0076,-0.0633 0,-0.0935 -0.0085,-0.0338 -0.03144,-0.0624 -0.04703,-0.0935 -0.03118,-0.0624 -0.07148,-0.12092 -0.09353,-0.18707 -0.0049,-0.0148 0.007,-0.0325 0,-0.0465 -0.0099,-0.0197 -0.03428,-0.0286 -0.04651,-0.047 -0.01934,-0.029 -0.02238,-0.0689 -0.04703,-0.0935 -0.01103,-0.011 -0.03549,0.011 -0.04651,0 -0.01103,-0.011 0.01103,-0.0355 0,-0.0465 -0.01103,-0.011 -0.04006,0.0139 -0.04703,0 -0.01394,-0.0279 0.01395,-0.0657 0,-0.0935 -0.007,-0.0139 -0.03549,0.011 -0.04651,0 -0.01103,-0.011 0.01103,-0.0359 0,-0.047 -0.01103,-0.011 -0.03601,0.011 -0.04703,0 -0.01103,-0.011 0.01103,-0.0355 0,-0.0465 -0.01103,-0.011 -0.03092,0 -0.04651,0 -0.01559,0 -0.03308,-0.007 -0.04703,0 -0.115593,0.0578 0.01616,0.0465 -0.09353,0.0465 h -0.04703 c -0.01559,0 -0.03954,-0.0139 -0.04651,0 -0.01395,0.0279 0.0099,0.064 0,0.0935 -0.01395,0.0418 -0.06907,0.0568 -0.09353,0.0935 -0.103047,0.0236 -0.02498,0.0959 -0.04703,0.14004 -0.0099,0.0197 -0.03665,0.0272 -0.04651,0.047 -0.007,0.014 0.01103,0.036 0,0.047 -0.01103,0.011 -0.03601,-0.011 -0.04703,0 -0.01103,0.011 0.0049,0.0317 0,0.0465 -0.132498,0.265 0.01769,-0.0697 -0.04651,0.18707 -0.01691,0.0676 -0.07148,0.12093 -0.09353,0.18707 -0.0049,0.0148 0.007,0.033 0,0.047 -0.0099,0.0197 -0.04168,0.0251 -0.04703,0.0465 -0.01135,0.0454 0.01134,0.0951 0,0.14056 -0.0053,0.0214 -0.03665,0.0267 -0.04651,0.0465 -0.01519,0.0304 0.01483,0.20442 0,0.23409 -0.0099,0.0197 -0.03716,0.0272 -0.04702,0.047 -0.007,0.0139 0.0049,0.0317 0,0.0465 -0.01103,0.0331 -0.03549,0.0605 -0.04651,0.0935 -0.0049,0.0148 0.007,0.033 0,0.047 -0.0289,0.0578 -0.04515,0.0465 -0.09353,0.0465 -0.01559,0 -0.03309,0.007 -0.04703,0 -0.01972,-0.01 -0.02679,-0.0366 -0.04651,-0.0465 -0.01395,-0.007 -0.03308,0.007 -0.04702,0 -0.05613,-0.0281 -0.08392,-0.1125 -0.140043,-0.14056 -0.01395,-0.007 -0.03309,0.007 -0.04703,0 -0.01972,-0.01 -0.02679,-0.0366 -0.04651,-0.0465 -0.01395,-0.007 -0.04325,0.0151 -0.04702,0 -0.01513,-0.0605 0,-0.12471 0,-0.18707 v -5.2e-4 -0.42116 c 0,-0.0624 -0.0088,-0.12533 0,-0.18707 0.007,-0.0488 0.03348,-0.0926 0.04702,-0.14004 0.01766,-0.0618 0.03742,-0.12344 0.04651,-0.18707 0.0066,-0.0463 -0.0092,-0.0947 0,-0.14056 0.01367,-0.0684 0.07662,-0.11943 0.09353,-0.18707 0.0076,-0.0302 -0.0076,-0.0633 0,-0.0935 0.0085,-0.0338 0.03408,-0.0612 0.04703,-0.0935 0.01831,-0.0458 0.0282,-0.0942 0.04651,-0.14004 0.01295,-0.0324 0.03858,-0.0597 0.04702,-0.0935 0.0076,-0.0303 -0.0076,-0.0633 0,-0.0935 0.0085,-0.0338 0.03092,-0.0624 0.04651,-0.0935 0.04158,-0.0831 0.07428,-0.13777 0.09353,-0.2341 0.0061,-0.0306 -0.0099,-0.064 0,-0.0935 0.01394,-0.0418 0.07382,-0.0536 0.09354,-0.093 0.007,-0.0139 -0.007,-0.033 0,-0.047 0.0099,-0.0197 0.03144,-0.0314 0.04702,-0.047 0.01559,-0.0156 0.02679,-0.0366 0.04651,-0.0465 0.01394,-0.007 0.03309,0.007 0.04703,0 0.03944,-0.0197 0.05408,-0.0738 0.09353,-0.0935 0.01394,-0.007 0.03139,0.004 0.04651,0 0.04783,-0.012 0.09646,-0.0249 0.14056,-0.047 0.01972,-0.01 0.02679,-0.0366 0.04651,-0.0465 0.01422,-0.007 0.154771,0 0.187068,0 0.02707,0 0.07548,-0.003 0.121957,-0.004 z"
       id="path5670"
       inkscape:connector-curvature="0" />
  </g>
</svg>
