<?xml version="1.0" encoding="UTF-8" standalone="no"?>
<!-- Created with Inkscape (http://www.inkscape.org/) -->

<svg
   xmlns:dc="http://purl.org/dc/elements/1.1/"
   xmlns:cc="http://creativecommons.org/ns#"
   xmlns:rdf="http://www.w3.org/1999/02/22-rdf-syntax-ns#"
   xmlns:svg="http://www.w3.org/2000/svg"
   xmlns="http://www.w3.org/2000/svg"
   xmlns:sodipodi="http://sodipodi.sourceforge.net/DTD/sodipodi-0.dtd"
   xmlns:inkscape="http://www.inkscape.org/namespaces/inkscape"
   width="128"
   height="128"
   viewBox="0 0 33.866664 33.866668"
   version="1.1"
   id="svg8"
   inkscape:version="0.92.2 (5c3e80d, 2017-08-06)"
   sodipodi:docname="social_icon_8.svg"
   inkscape:export-filename="C:\Users\Me\Documents\GitHub\ServeTheGods\Assets\Images\SocialMedia\social_icon_7.png"
   inkscape:export-xdpi="96"
   inkscape:export-ydpi="96">
  <defs
     id="defs2" />
  <sodipodi:namedview
     id="base"
     pagecolor="#ffffff"
     bordercolor="#666666"
     borderopacity="1.0"
     inkscape:pageopacity="0.0"
     inkscape:pageshadow="2"
     inkscape:zoom="5.6568542"
     inkscape:cx="67.937684"
     inkscape:cy="47.657412"
     inkscape:document-units="mm"
     inkscape:current-layer="layer1"
     showgrid="true"
     units="px"
     inkscape:snap-bbox="true"
     inkscape:bbox-paths="false"
     inkscape:bbox-nodes="true"
     inkscape:window-width="1920"
     inkscape:window-height="1017"
     inkscape:window-x="-8"
     inkscape:window-y="-8"
     inkscape:window-maximized="1"
     inkscape:snap-global="false">
    <inkscape:grid
       type="xygrid"
       id="grid4504"
       spacingx="4.2333333"
       spacingy="4.2333333"
       empspacing="4" />
  </sodipodi:namedview>
  <metadata
     id="metadata5">
    <rdf:RDF>
      <cc:Work
         rdf:about="">
        <dc:format>image/svg+xml</dc:format>
        <dc:type
           rdf:resource="http://purl.org/dc/dcmitype/StillImage" />
        <dc:title></dc:title>
      </cc:Work>
    </rdf:RDF>
  </metadata>
  <g
     inkscape:label="Layer 1"
     inkscape:groupmode="layer"
     id="layer1"
     transform="translate(0,-263.13332)">
    <rect
       style="fill:#8678ee;fill-opacity:1;stroke:none;stroke-width:5.29166651;stroke-linecap:butt;stroke-linejoin:round;stroke-miterlimit:4;stroke-dasharray:15.8749998, 5.2916666;stroke-dashoffset:0;stroke-opacity:0.74874369"
       id="rect4506"
       width="127"
       height="84.666672"
       x="4.2333331"
       y="165.76665"
       ry="8.4666739" />
    <rect
       ry="4.233335"
       y="191.16666"
       x="8.4666662"
       height="55.033329"
       width="118.53333"
       id="rect4508"
       style="fill:#f3f3f3;fill-opacity:1;stroke:none;stroke-width:5.29166651;stroke-linecap:butt;stroke-linejoin:round;stroke-miterlimit:4;stroke-dasharray:15.8749998, 5.2916666;stroke-dashoffset:0;stroke-opacity:0.74874369" />
    <rect
       style="fill:#f3f3f3;fill-opacity:1;stroke:none;stroke-width:5.29166651;stroke-linecap:butt;stroke-linejoin:round;stroke-miterlimit:4;stroke-dasharray:15.8749998, 5.2916666;stroke-dashoffset:0;stroke-opacity:0.74874369"
       id="rect4510"
       width="80.433334"
       height="12.700003"
       x="29.633333"
       y="169.99998"
       ry="4.1199408" />
    <path
       style="fill:none;stroke:#ffffff;stroke-width:1;stroke-linecap:butt;stroke-linejoin:miter;stroke-opacity:1;stroke-miterlimit:4;stroke-dasharray:none"
       d="m 12.394624,284.69891 c 0.109135,-0.12473 0.238906,-0.23406 0.327405,-0.37418 0.100596,-0.15928 0.13894,-0.35177 0.233861,-0.51449 0.12421,-0.21294 0.293016,-0.39733 0.42095,-0.60804 0.358899,-0.59113 0.623581,-1.23467 0.888671,-1.87089 0.07795,-0.18709 0.172089,-0.36823 0.233861,-0.56127 0.06339,-0.19811 0.09177,-0.40577 0.140316,-0.60803 0.045,-0.18753 0.08632,-0.37614 0.140317,-0.56127 0.110437,-0.37864 0.254588,-0.74668 0.374177,-1.12253 0.04935,-0.15511 0.08654,-0.31409 0.140316,-0.46772 0.09222,-0.26349 0.242634,-0.57063 0.327406,-0.8419 0.1148,-0.36736 0.08662,-0.3725 0.140316,-0.74836 0.01341,-0.0939 0.03424,-0.18663 0.04677,-0.28063 0.166408,-1.24805 -0.04496,-0.099 0.09355,-0.51449 0.03441,-0.10324 -0.05969,0.0129 0.04677,-0.0935 0.03118,-0.0312 0.06236,-0.0624 0.09354,-0.0935 0.01559,-0.0156 0.03691,-0.027 0.04677,-0.0468 0.007,-0.014 -0.007,-0.0328 0,-0.0468 0.09733,-0.19465 -0.0032,0.05 0.09354,-0.0468 0.01103,-0.011 -0.01103,-0.0358 0,-0.0468 0.01103,-0.011 0.03742,-0.0125 0.04677,0 0.09466,0.12622 0.209439,0.5307 0.233861,0.60804 0.04902,0.15521 0.09096,0.31261 0.140316,0.46772 0.05979,0.18792 0.129093,0.37278 0.187089,0.56126 0.06676,0.21697 0.111176,0.44088 0.187089,0.65481 0.09585,0.27013 0.210354,0.53349 0.327405,0.79513 0.98541,2.20268 -0.03061,-0.20818 0.888671,1.91766 0.771421,1.78391 -0.03453,-0.0973 0.514494,1.44994 0.102273,0.28822 0.577481,1.38055 0.701582,1.63702 0.100264,0.20721 0.224459,0.40215 0.327406,0.60804 0.08425,0.1685 0.15735,0.34235 0.23386,0.5145 0.116807,0.26281 0.15455,0.34366 0.233861,0.60803 0.01847,0.0616 0.03768,0.12346 0.04677,0.18709 0.01323,0.0926 -0.01538,0.18836 0,0.28064 0.0081,0.0486 0.04677,0.091 0.04677,0.14031 0,0.0156 -0.03118,0 -0.04677,0 -0.01559,0 -0.03575,0.011 -0.04677,0 -0.01103,-0.011 0.007,-0.0328 0,-0.0468 -0.03899,-0.078 -0.09354,-0.0211 -0.09354,-0.14032 0,-0.12472 0.01559,0.0156 -0.04677,-0.0468 -0.02205,-0.0221 0.02205,-0.0715 0,-0.0935 -0.03975,-0.0398 -0.09354,-0.0624 -0.140316,-0.0935 -0.09354,-0.0624 -0.189972,-0.1206 -0.280633,-0.18709 -0.19285,-0.14142 -0.715353,-0.56292 -0.888671,-0.70158 -0.311814,-0.24945 -0.631188,-0.48974 -0.935443,-0.74835 -0.159819,-0.13585 -0.311815,-0.28064 -0.467722,-0.42095 -0.155907,-0.14032 -0.315452,-0.2767 -0.467722,-0.42095 -0.144056,-0.13648 -0.276893,-0.28448 -0.420949,-0.42095 -0.278468,-0.26381 -0.625344,-0.56663 -0.935444,-0.79513 -0.417247,-0.30744 -0.850595,-0.51884 -1.30962,-0.74835 -0.124852,-0.0624 -0.368869,-0.19415 -0.514494,-0.23386 -0.09149,-0.025 -0.188057,-0.0262 -0.280633,-0.0468 -0.291982,-0.0649 -0.01236,-0.0197 -0.233861,-0.0935 -0.01479,-0.005 -0.03118,0 -0.04677,0 -0.03118,0 -0.06236,0 -0.09354,0 -0.03118,0 -0.06329,0.008 -0.09355,0 -0.06764,-0.0169 -0.120943,-0.0715 -0.187088,-0.0935 -0.01479,-0.005 -0.03283,0.007 -0.04677,0 -0.194654,-0.0973 0.05,0.003 -0.04677,-0.0935 -0.01103,-0.011 -0.03283,0.007 -0.04677,0 -0.04603,-0.023 -0.141064,-0.16408 -0.187089,-0.18709 -0.01395,-0.007 -0.03198,0.005 -0.04677,0 -0.33879,-0.11293 0.07374,0.0135 -0.140316,-0.0935 -0.01394,-0.007 -0.03283,0.007 -0.04677,0 -0.194655,-0.0973 0.05,0.003 -0.04677,-0.0935 -0.02465,-0.0247 -0.07421,-0.0178 -0.09354,-0.0468 -0.0173,-0.0259 0.01394,-0.0657 0,-0.0935 -0.007,-0.014 -0.03575,0.011 -0.04677,0 -0.01103,-0.011 0.007,-0.0328 0,-0.0468 -0.01972,-0.0394 -0.0796,-0.0517 -0.09355,-0.0935 -0.0099,-0.0296 0.0099,-0.064 0,-0.0935 -0.01394,-0.0418 -0.07382,-0.0541 -0.09354,-0.0935 -0.007,-0.0139 0.007,-0.0328 0,-0.0468 -0.0099,-0.0197 -0.03691,-0.027 -0.04677,-0.0468 -0.007,-0.014 0.007,-0.0328 0,-0.0468 -0.0099,-0.0197 -0.03691,-0.027 -0.04677,-0.0468 -0.007,-0.0139 0.007,-0.0328 0,-0.0468 -0.107029,-0.21406 0.01939,0.19847 -0.09355,-0.14032 -0.0277,-0.0831 0.08691,-0.10979 0.140317,-0.14031 0.06054,-0.0346 0.120305,-0.0735 0.187089,-0.0935 0.09084,-0.0272 0.187328,-0.0298 0.280633,-0.0468 0.07822,-0.0142 0.155646,-0.0326 0.233861,-0.0468 0.29672,-0.0539 0.329542,-0.0529 0.65481,-0.0935 0.124726,-0.0156 0.250191,-0.0261 0.374177,-0.0468 0.156832,-0.0261 0.313051,-0.0567 0.467722,-0.0935 0.172928,-0.0412 0.34204,-0.0972 0.514494,-0.14032 0.201795,-0.0505 0.406688,-0.0881 0.608038,-0.14031 2.656601,-0.68875 -1.217376,0.27126 1.262848,-0.32741 0.249951,-0.0603 0.498405,-0.12676 0.748355,-0.18709 0.219695,-0.053 0.940496,-0.21099 1.169304,-0.28063 0.174579,-0.0531 0.339031,-0.13696 0.514494,-0.18709 0.339223,-0.0969 0.546727,-0.0976 0.888671,-0.14032 0.816998,-0.10212 0.08489,0.0185 0.42095,-0.0935 0.02958,-0.01 0.0715,0.0221 0.09354,0 0.01103,-0.011 -0.01394,-0.0398 0,-0.0468 0.02789,-0.014 0.06297,0.006 0.09354,0 0.04835,-0.01 0.09197,-0.0371 0.140317,-0.0468 0.03058,-0.006 0.06236,0 0.09354,0 0.04677,-0.0156 0.09249,-0.0348 0.140317,-0.0468 0.01513,-0.004 0.03283,0.007 0.04677,0 0.03345,-0.0167 0.06708,-0.0997 0.09354,-0.0468 0.01394,0.0279 0,0.0624 0,0.0935 0,0.0312 0.0076,0.0633 0,0.0935 -0.0085,0.0338 -0.03383,0.0612 -0.04677,0.0935 -0.01831,0.0458 -0.02472,0.0962 -0.04677,0.14032 -0.05028,0.10056 -0.127503,0.1853 -0.187089,0.28063 -0.04818,0.0771 -0.09678,0.15406 -0.140316,0.23386 -0.05008,0.0918 -0.08417,0.1924 -0.140317,0.28064 -0.0536,0.0842 -0.128372,0.15312 -0.187089,0.23386 -0.002,0.003 -0.373274,0.56016 -0.374177,0.56126 -0.06981,0.0853 -0.159703,0.15229 -0.233861,0.23386 -0.08191,0.0901 -0.14376,0.19873 -0.23386,0.28064 -0.08319,0.0756 -0.187089,0.12472 -0.280633,0.18709 -0.04584,0.0306 -0.398465,0.25814 -0.467722,0.3274 -0.05512,0.0551 -0.08898,0.12842 -0.140317,0.18709 -0.24906,0.28464 -0.110478,0.0967 -0.374177,0.3274 -0.06637,0.0581 -0.11822,0.132 -0.187089,0.18709 -0.0069,0.005 -0.557466,0.37073 -0.561266,0.37418 -0.0901,0.0819 -0.147758,0.19453 -0.23386,0.28063 -0.619697,0.6197 -0.06579,-0.026 -0.561266,0.5145 -0.09713,0.10596 -0.170905,0.23456 -0.280633,0.3274 -0.09596,0.0812 -0.220355,0.12121 -0.327406,0.18709 -0.09575,0.0589 -0.183521,0.13044 -0.280633,0.18709 -0.226142,0.13192 -0.498082,0.20459 -0.701582,0.37418 -0.08469,0.0706 -0.155907,0.1559 -0.233861,0.23386 -0.03653,0.0365 -0.11341,0.1 -0.140316,0.14031 -0.03868,0.058 -0.05487,0.12908 -0.09355,0.18709 -0.03669,0.055 -0.099,0.0887 -0.140316,0.14032 -0.07525,0.0941 -0.09174,0.13671 -0.140317,0.23386 -0.01559,0.0312 -0.02743,0.0645 -0.04677,0.0935 -0.01223,0.0183 -0.03691,0.027 -0.04677,0.0468 -0.007,0.0139 0.007,0.0328 0,0.0468 -0.0099,0.0197 -0.03691,0.0271 -0.04677,0.0468 -0.007,0.0139 0.007,0.0328 0,0.0468 -0.09733,0.19466 0.0032,-0.05 -0.09354,0.0468 -0.01103,0.011 0.01103,0.0357 0,0.0468 -0.01103,0.011 -0.03575,-0.011 -0.04677,0 -0.01103,0.011 0.01103,0.0358 0,0.0468 -0.01103,0.011 -0.03575,-0.011 -0.04677,0 -0.09677,0.0968 0.147882,-0.004 -0.04677,0.0935 -0.01395,0.007 -0.03575,-0.011 -0.04677,0 -0.01103,0.011 0.01103,0.0358 0,0.0468 -0.01103,0.011 -0.03575,-0.011 -0.04677,0 -0.01103,0.011 0.007,0.0328 0,0.0468 -0.0099,0.0197 -0.03691,0.0271 -0.04677,0.0468 -0.007,0.0139 0.01103,0.0357 0,0.0468 -0.02205,0.022 -0.06396,-0.01 -0.09354,0 -0.33879,0.11293 0.07374,-0.0135 -0.140317,0.0935 -0.01394,0.007 -0.03283,-0.007 -0.04677,0 -0.01972,0.01 -0.02705,0.0369 -0.04677,0.0468 -0.05143,0.0257 -0.09441,-0.045 -0.140316,0.0468 -0.007,0.0139 0,0.0312 0,0.0468 0,0.0156 0,0.0312 0,0.0468"
       id="path5694"
       inkscape:connector-curvature="0" />
  </g>
</svg>
