<?xml version="1.0" encoding="UTF-8" standalone="no"?>
<!-- Created with Inkscape (http://www.inkscape.org/) -->

<svg
   xmlns:dc="http://purl.org/dc/elements/1.1/"
   xmlns:cc="http://creativecommons.org/ns#"
   xmlns:rdf="http://www.w3.org/1999/02/22-rdf-syntax-ns#"
   xmlns:svg="http://www.w3.org/2000/svg"
   xmlns="http://www.w3.org/2000/svg"
   xmlns:sodipodi="http://sodipodi.sourceforge.net/DTD/sodipodi-0.dtd"
   xmlns:inkscape="http://www.inkscape.org/namespaces/inkscape"
   width="128"
   height="128"
   viewBox="0 0 33.866664 33.866668"
   version="1.1"
   id="svg8"
   inkscape:version="0.92.2 (5c3e80d, 2017-08-06)"
   sodipodi:docname="social_icon_4.svg"
   inkscape:export-filename="C:\Users\Me\Documents\GitHub\ServeTheGods\Assets\Images\SocialMedia\social_icon_3.png"
   inkscape:export-xdpi="96"
   inkscape:export-ydpi="96">
  <defs
     id="defs2" />
  <sodipodi:namedview
     id="base"
     pagecolor="#ffffff"
     bordercolor="#666666"
     borderopacity="1.0"
     inkscape:pageopacity="0.0"
     inkscape:pageshadow="2"
     inkscape:zoom="5.6568542"
     inkscape:cx="64.893248"
     inkscape:cy="56.658024"
     inkscape:document-units="mm"
     inkscape:current-layer="layer1"
     showgrid="true"
     units="px"
     inkscape:snap-bbox="true"
     inkscape:bbox-paths="false"
     inkscape:bbox-nodes="true"
     inkscape:window-width="1920"
     inkscape:window-height="1017"
     inkscape:window-x="-8"
     inkscape:window-y="-8"
     inkscape:window-maximized="1"
     inkscape:snap-global="false">
    <inkscape:grid
       type="xygrid"
       id="grid4504"
       spacingx="4.2333333"
       spacingy="4.2333333"
       empspacing="4" />
  </sodipodi:namedview>
  <metadata
     id="metadata5">
    <rdf:RDF>
      <cc:Work
         rdf:about="">
        <dc:format>image/svg+xml</dc:format>
        <dc:type
           rdf:resource="http://purl.org/dc/dcmitype/StillImage" />
        <dc:title></dc:title>
      </cc:Work>
    </rdf:RDF>
  </metadata>
  <g
     inkscape:label="Layer 1"
     inkscape:groupmode="layer"
     id="layer1"
     transform="translate(0,-263.13332)">
    <rect
       style="fill:#8678ee;fill-opacity:1;stroke:none;stroke-width:5.29166651;stroke-linecap:butt;stroke-linejoin:round;stroke-miterlimit:4;stroke-dasharray:15.8749998, 5.2916666;stroke-dashoffset:0;stroke-opacity:0.74874369"
       id="rect4506"
       width="127"
       height="84.666672"
       x="4.2333331"
       y="165.76665"
       ry="8.4666739" />
    <rect
       ry="4.233335"
       y="191.16666"
       x="8.4666662"
       height="55.033329"
       width="118.53333"
       id="rect4508"
       style="fill:#f3f3f3;fill-opacity:1;stroke:none;stroke-width:5.29166651;stroke-linecap:butt;stroke-linejoin:round;stroke-miterlimit:4;stroke-dasharray:15.8749998, 5.2916666;stroke-dashoffset:0;stroke-opacity:0.74874369" />
    <rect
       style="fill:#f3f3f3;fill-opacity:1;stroke:none;stroke-width:5.29166651;stroke-linecap:butt;stroke-linejoin:round;stroke-miterlimit:4;stroke-dasharray:15.8749998, 5.2916666;stroke-dashoffset:0;stroke-opacity:0.74874369"
       id="rect4510"
       width="80.433334"
       height="12.700003"
       x="29.633333"
       y="169.99998"
       ry="4.1199408" />
    <path
       style="fill:#ffffff;stroke:none;stroke-width:0.26458332px;stroke-linecap:butt;stroke-linejoin:miter;stroke-opacity:1;fill-opacity:1"
       d="m 20.392665,284.13764 c 0,-0.10913 0.0084,-0.21859 0,-0.3274 -0.0073,-0.0946 -0.03235,-0.18691 -0.04677,-0.28064 -0.03353,-0.21792 -0.0644,-0.43626 -0.09354,-0.65481 -0.01661,-0.12459 -0.03713,-0.24885 -0.04677,-0.37418 -0.006,-0.0777 0,-0.1559 0,-0.23386 0,-0.10913 0,-0.21827 0,-0.3274 0,-0.12473 -0.01547,-0.25042 0,-0.37418 0.01595,-0.12757 0.06833,-0.24811 0.09354,-0.37418 0.0746,-0.37299 0.01625,-0.2602 0.09355,-0.60803 0.01069,-0.0481 0.04066,-0.0914 0.04677,-0.14032 0.0097,-0.0773 0,-0.15591 0,-0.23386 0,-0.10914 0,-0.21827 0,-0.32741 0,-0.0468 -0.0077,-0.0942 0,-0.14031 0.0081,-0.0486 0.03867,-0.0917 0.04677,-0.14032 0.0077,-0.0461 0,-0.0935 0,-0.14032 0.01559,-0.0468 0.0371,-0.092 0.04677,-0.14031 0.0061,-0.0306 0,-0.0624 0,-0.0935 0.01559,-0.0312 0.03832,-0.0597 0.04677,-0.0935 0.0076,-0.0302 0,-0.0624 0,-0.0935 0,-0.0312 0,-0.0624 0,-0.0935 0,-0.10914 0,-0.21827 0,-0.32741 0,-0.0935 0,-0.18708 0,-0.28063 0,-0.0312 0.0061,-0.063 0,-0.0935 -0.0097,-0.0483 -0.0371,-0.092 -0.04677,-0.14032 -0.0061,-0.0306 0,-0.0624 0,-0.0935 0,-0.0468 0,-0.0935 0,-0.14032 0,-0.0156 0.007,-0.0328 0,-0.0468 -0.0099,-0.0197 -0.0398,-0.0259 -0.04677,-0.0468 0,-0.21292 0.02205,-0.003 -0.04677,-0.14032 -0.01871,-0.0374 0.01871,-0.1029 0,-0.14032 -0.007,-0.0139 -0.03575,0.011 -0.04677,0 -0.01103,-0.011 0.0049,-0.032 0,-0.0468 -0.01103,-0.0331 -0.03575,-0.0605 -0.04677,-0.0935 -0.0049,-0.0148 0.007,-0.0328 0,-0.0468 -0.0099,-0.0197 -0.03691,-0.027 -0.04677,-0.0468 -0.02205,-0.0441 -0.02846,-0.0945 -0.04677,-0.14031 -0.01295,-0.0324 -0.03832,-0.0597 -0.04677,-0.0935 -0.0076,-0.0303 0.0076,-0.0633 0,-0.0935 -0.05646,-0.22586 -0.02223,0.002 -0.09354,-0.14032 -0.007,-0.0139 0,-0.0312 0,-0.0468 -0.01559,-0.0156 -0.03691,-0.027 -0.04677,-0.0468 -0.007,-0.014 0.007,-0.0328 0,-0.0468 -0.01972,-0.0394 -0.06908,-0.0568 -0.09354,-0.0935 -0.103047,-0.0236 -0.02472,-0.0962 -0.04677,-0.14032 -0.01083,-0.0217 -0.15958,-0.15958 -0.187088,-0.18709 -0.01559,-0.0156 -0.03691,-0.027 -0.04677,-0.0468 -0.007,-0.0139 0.01103,-0.0358 0,-0.0468 -0.01103,-0.011 -0.03283,0.007 -0.04677,0 -0.03944,-0.0197 -0.0541,-0.0738 -0.09354,-0.0935 -0.01394,-0.007 -0.03198,0.005 -0.04677,0 -0.03307,-0.011 -0.06236,-0.0312 -0.09354,-0.0468 -0.07634,-0.0382 -0.147166,-0.0791 -0.233861,-0.0935 -0.04613,-0.008 -0.09418,0.008 -0.140316,0 -0.04863,-0.008 -0.09354,-0.0312 -0.140317,-0.0468 -0.04677,-0.0156 -0.09354,-0.0312 -0.140316,-0.0468 -0.04677,-0.0156 -0.09249,-0.0348 -0.140317,-0.0468 -0.01513,-0.004 -0.03283,0.007 -0.04677,0 -0.214058,-0.10703 0.198474,0.0194 -0.140316,-0.0935 -0.01479,-0.005 -0.03283,0.007 -0.04677,0 -0.214057,-0.10703 0.198474,0.0194 -0.140316,-0.0935 -0.01479,-0.005 -0.03118,0 -0.04677,0 -0.03118,0 -0.06236,0 -0.09354,0 -0.124725,0 -0.249451,0 -0.374177,0 -0.04677,0 -0.09445,0.009 -0.140316,0 -0.03418,-0.007 -0.05972,-0.0383 -0.09354,-0.0468 -0.03025,-0.008 -0.06329,0.008 -0.09354,0 -0.03382,-0.008 -0.05972,-0.0383 -0.09354,-0.0468 -0.03557,-0.009 -0.194695,0 -0.233861,0 -0.202679,0 -0.405359,0 -0.608038,0 -0.109135,0 -0.21827,0 -0.327405,0 -0.01593,0 -0.161776,-0.008 -0.187089,0 -0.03307,0.011 -0.06236,0.0312 -0.09354,0.0468 -0.04677,0 -0.09445,-0.009 -0.140317,0 -0.06837,0.0137 -0.120943,0.0715 -0.187089,0.0935 -0.01479,0.005 -0.03283,-0.007 -0.04677,0 -0.01972,0.01 -0.02705,0.0369 -0.04677,0.0468 -0.01394,0.007 -0.03198,-0.005 -0.04677,0 -0.03307,0.011 -0.05972,0.0383 -0.09354,0.0468 -0.03025,0.008 -0.06297,-0.006 -0.09354,0 -0.04834,0.01 -0.09197,0.0371 -0.140316,0.0468 -0.03058,0.006 -0.06297,-0.006 -0.09355,0 -0.04834,0.01 -0.09454,0.0285 -0.140316,0.0468 -0.03237,0.0129 -0.05936,0.0399 -0.09354,0.0468 -0.09173,0.0183 -0.188362,-0.0154 -0.280633,0 -0.04863,0.008 -0.09197,0.0371 -0.140317,0.0468 -0.03058,0.006 -0.06236,0 -0.09354,0 -0.04677,0.0156 -0.09249,0.0348 -0.140317,0.0468 -0.03025,0.008 -0.06236,0 -0.09354,0 -0.109135,0 -0.21827,0 -0.327405,0 -0.03118,0 -0.06236,0 -0.09354,0 -0.03118,0 -0.06329,-0.008 -0.09354,0 -0.03382,0.008 -0.06047,0.0358 -0.09354,0.0468 -0.02958,0.01 -0.0715,-0.022 -0.09354,0 -0.01103,0.011 0.01103,0.0358 0,0.0468 -0.0096,0.01 -0.121771,-0.009 -0.140316,0 -0.194655,0.0973 0.05,-0.003 -0.04677,0.0935 -0.01103,0.011 -0.03283,-0.007 -0.04677,0 -0.03944,0.0197 -0.0541,0.0738 -0.09355,0.0935 -0.01395,0.007 -0.03575,-0.011 -0.04677,0 -0.02465,0.0247 -0.02212,0.0689 -0.04677,0.0935 -0.01103,0.011 -0.03283,-0.007 -0.04677,0 -0.194655,0.0973 0.05,-0.003 -0.04677,0.0935 -0.01103,0.011 -0.03575,-0.011 -0.04677,0 -0.01102,0.011 0.007,0.0328 0,0.0468 -0.0099,0.0197 -0.03691,0.027 -0.04677,0.0468 -0.007,0.0139 0.007,0.0328 0,0.0468 -0.0099,0.0197 -0.03118,0.0312 -0.04677,0.0468 -0.01559,0.0468 -0.02472,0.0962 -0.04677,0.14032 -0.0099,0.0197 -0.04143,0.0254 -0.04677,0.0468 -0.01134,0.0454 0.0092,0.0944 0,0.14032 -0.0068,0.0342 -0.03118,0.0624 -0.04677,0.0935 -0.03817,0.0763 -0.0791,0.14717 -0.09354,0.23386 -0.0077,0.0461 0.0092,0.0944 0,0.14032 -0.01367,0.0684 -0.07663,0.11944 -0.09354,0.18709 -0.0076,0.0303 0.0076,0.0633 0,0.0935 -0.0085,0.0338 -0.03832,0.0597 -0.04677,0.0935 -0.0076,0.0302 0.0076,0.0633 0,0.0935 -0.0085,0.0338 -0.03832,0.0597 -0.04677,0.0935 -0.0076,0.0303 0.0076,0.0633 0,0.0935 -0.0085,0.0338 -0.03994,0.0594 -0.04677,0.0935 -0.02151,0.10756 0.01834,0.26412 0,0.37418 -0.0081,0.0486 -0.0371,0.092 -0.04677,0.14032 -0.0061,0.0306 0.0076,0.0633 0,0.0935 -0.0085,0.0338 -0.03832,0.0597 -0.04677,0.0935 -0.0076,0.0302 0.0076,0.0633 0,0.0935 -0.0085,0.0338 -0.03832,0.0597 -0.04677,0.0935 -0.0076,0.0303 0,0.0624 0,0.0935 0,0.10913 0,0.21827 0,0.3274 0,0.14032 0,0.28064 0,0.42095 0,0.0468 -0.0092,0.0945 0,0.14032 0.0068,0.0342 0.03832,0.0597 0.04677,0.0935 0.01513,0.0605 -0.01513,0.12659 0,0.18709 0.0085,0.0338 0.03118,0.0624 0.04677,0.0935 0.01559,0.0468 0.0371,0.092 0.04677,0.14031 0.01223,0.0612 0,0.12473 0,0.18709 0,0.0935 0,0.18709 0,0.28064 0,0.0312 0,0.0624 0,0.0935 0,0.0156 -0.007,0.0328 0,0.0468 0.0099,0.0197 0.03691,0.027 0.04677,0.0468 0.007,0.014 0,0.0312 0,0.0468 0,0.0156 0,0.0312 0,0.0468 0,0.0935 0,0.18709 0,0.28063 0,0.0935 0.0116,0.18781 0,0.28063 -0.0099,0.0789 -0.03799,0.15485 -0.04677,0.23387 -0.0069,0.062 0,0.12472 0,0.18708 0,0.12473 0,0.24946 0,0.37418 0,0.10914 0,0.21827 0,0.32741 0,0.0468 -0.0092,0.0944 0,0.14031 0.0068,0.0342 0.03383,0.0612 0.04677,0.0935 0.01831,0.0458 0.02846,0.0945 0.04677,0.14031 0.01295,0.0324 0.03832,0.0597 0.04677,0.0935 0.0247,0.0988 -0.04156,0.0987 0.04677,0.18709 0.01103,0.011 0.0398,-0.014 0.04677,0 0.01395,0.0279 -0.0099,0.064 0,0.0935 0.007,0.0209 0.03691,0.027 0.04677,0.0468 0.007,0.0139 -0.01103,0.0358 0,0.0468 0.01103,0.011 0.03575,-0.011 0.04677,0 0.02205,0.022 -0.02205,0.0715 0,0.0935 0.01103,0.011 0.03575,-0.011 0.04677,0 0.01103,0.011 -0.01103,0.0358 0,0.0468 0.01103,0.011 0.03575,-0.011 0.04677,0 0.02205,0.022 -0.01395,0.0657 0,0.0935 0.02806,0.0561 0.112253,0.0842 0.140316,0.14031 0.007,0.0139 -0.007,0.0328 0,0.0468 0.0099,0.0197 0.03691,0.0271 0.04677,0.0468 0.007,0.0139 -0.01103,0.0357 0,0.0468 0.01102,0.011 0.03575,-0.011 0.04677,0 0.01103,0.011 -0.01103,0.0358 0,0.0468 0.09677,0.0968 -0.0038,-0.14788 0.09354,0.0468 0.01394,0.0279 -0.02205,0.0715 0,0.0935 0.01103,0.011 0.03575,-0.011 0.04677,0 0.01434,0.0143 -0.01445,0.2194 0,0.23386 0.01103,0.011 0.03118,0 0.04677,0 0.04677,0 0.09354,0 0.140317,0 0.155907,0 0.312455,0.0141 0.467721,0 0.07917,-0.007 0.155646,-0.0326 0.233861,-0.0468 0.0933,-0.017 0.187089,-0.0312 0.280633,-0.0468 0.09354,-0.0156 0.187329,-0.0298 0.280633,-0.0468 0.07822,-0.0142 0.154978,-0.0369 0.233861,-0.0468 0.04641,-0.006 0.09355,0 0.140317,0 0.04677,-0.0156 0.09197,-0.0371 0.140316,-0.0468 0.03058,-0.006 0.06566,0.0139 0.09354,0 0.01394,-0.007 -0.01102,-0.0358 0,-0.0468 0.02205,-0.0221 0.06396,0.01 0.09355,0 0.03307,-0.011 0.05936,-0.0399 0.09354,-0.0468 0.04586,-0.009 0.09354,0 0.140317,0 0.04677,0 0.09354,0 0.140316,0 0.140317,0 0.280633,0 0.42095,0 0.05363,0 0.138638,0.0121 0.187088,0 0.305357,-0.0763 -0.176713,-0.0251 0.233861,-0.0935 0.04614,-0.008 0.09383,0.005 0.140317,0 0.09425,-0.0105 0.186378,-0.0363 0.280633,-0.0468 0.04649,-0.005 0.09354,0 0.140316,0 0.03118,0 0.06396,0.01 0.09355,0 0.02092,-0.007 0.02705,-0.0369 0.04677,-0.0468 0.03742,-0.0187 0.102898,0.0187 0.140316,0 0.01972,-0.01 0.02515,-0.0424 0.04677,-0.0468 0.06115,-0.0122 0.124726,0 0.187089,0 0.09354,0 0.187089,0 0.280633,0 0.249452,0 0.498903,0 0.748355,0 0.09354,0 0.187088,0 0.280633,0 0.03118,0 0.06565,0.0139 0.09354,0 0.01394,-0.007 -0.01103,-0.0358 0,-0.0468 0.01103,-0.011 0.03165,0.004 0.04677,0 0.04783,-0.012 0.09197,-0.0371 0.140317,-0.0468 0.06115,-0.0122 0.124726,0 0.187088,0 0.09355,0 0.187089,0 0.280633,0 0.03118,0 0.06329,0.008 0.09354,0 0.03382,-0.008 0.06047,-0.0358 0.09354,-0.0468 0.01479,-0.005 0.03283,0.007 0.04677,0 0.01972,-0.01 0.02705,-0.0369 0.04677,-0.0468 0.0294,-0.0147 0.157691,0.0147 0.187088,0 0.01972,-0.01 0.02705,-0.0369 0.04677,-0.0468 0.01692,-0.008 0.201329,0 0.233861,0 0.01559,0 0.03575,-0.011 0.04677,0 0.05512,0.0551 0.09354,0.12473 0.140317,0.18709 z"
       id="path5650"
       inkscape:connector-curvature="0" />
    <path
       style="fill:#828282;stroke:none;stroke-width:0.26458332px;stroke-linecap:butt;stroke-linejoin:miter;stroke-opacity:1;fill-opacity:1"
       d="m 15.060638,279.60074 c 0.06236,0.078 0.124726,0.15591 0.187088,0.23386 0.09355,0.0935 0.194539,0.18019 0.280633,0.28063 0.101463,0.11838 0.190014,0.24731 0.280633,0.37418 0.06535,0.0915 0.122617,0.18853 0.187089,0.28063 0.08941,0.12773 0.194151,0.24446 0.280633,0.37418 0.01934,0.029 0.02743,0.0645 0.04677,0.0935 0.01223,0.0183 0.03691,0.027 0.04677,0.0468 0.007,0.0139 -0.01103,0.0358 0,0.0468 0.01103,0.011 0.03118,0 0.04677,0 0.03118,0.0312 0.07086,0.0557 0.09354,0.0935 0.02537,0.0423 0.02141,0.098 0.04677,0.14032 0.02269,0.0378 0.06236,0.0624 0.09354,0.0935 0.01559,0.0156 0.0398,0.0258 0.04677,0.0468 0,0.26504 -0.03118,0.0156 0.04677,0.0935 0.06236,0.0624 -0.07795,0.0468 0.04677,0.0468 0.01559,0 0.03575,-0.011 0.04677,0 0.01102,0.011 -0.007,0.0328 0,0.0468 0.0099,0.0197 0.03118,0.0312 0.04677,0.0468 0.01559,0.0156 0.02705,0.0369 0.04677,0.0468 0.01394,0.007 0.03283,-0.007 0.04677,0 0.194654,0.0973 -0.05,-0.003 0.04677,0.0935 0.01103,0.011 0.04098,0.0145 0.04677,0 0.01926,-0.0481 0.08872,-0.48794 0.09354,-0.5145 0.07297,-0.40136 0.02463,-0.0666 0.09354,-0.51449 0.01676,-0.10896 0.02705,-0.21894 0.04677,-0.32741 0.02965,-0.1631 0.100517,-0.30852 0.140316,-0.46772 0.0038,-0.0151 0,-0.0312 0,-0.0468 0.01559,-0.0156 0.03691,-0.027 0.04677,-0.0468 0.007,-0.014 -0.007,-0.0328 0,-0.0468 0.0099,-0.0197 0.03691,-0.027 0.04677,-0.0468 0.02205,-0.0441 0.03019,-0.0939 0.04677,-0.14031 0.06138,-0.17186 0.109918,-0.34913 0.187088,-0.5145 0.09313,-0.19956 0.229579,-0.18709 0.09354,-0.18709"
       id="path5644"
       inkscape:connector-curvature="0" />
    <path
       style="fill:#000000;stroke:none;stroke-width:0.26458332px;stroke-linecap:butt;stroke-linejoin:miter;stroke-opacity:1;fill-opacity:1"
       d="m 13.096207,277.96371 c 0.178013,0.1163 0.318983,0.27222 0.467721,0.42095 0.01559,0.0156 0.02843,0.0346 0.04677,0.0468 0.02901,0.0193 0.06454,0.0274 0.09355,0.0468 0.01835,0.0122 0.02705,0.0369 0.04677,0.0468 0.01394,0.007 0.03283,-0.007 0.04677,0 0.03944,0.0197 0.05171,0.0796 0.09355,0.0935 0.02958,0.01 0.06396,-0.01 0.09354,0 0.04183,0.014 0.0541,0.0738 0.09354,0.0935 0.02789,0.0139 0.06396,-0.01 0.09355,0 0.03307,0.011 0.05972,0.0383 0.09354,0.0468 0.03165,0.008 0.297307,0 0.327405,0 0.03118,0 0.06236,0 0.09354,0 0.03118,0 0.06329,0.008 0.09354,0 0.03382,-0.008 0.05972,-0.0383 0.09354,-0.0468 0.0605,-0.0151 0.126588,0.0151 0.187089,0 0.08465,0.0282 0.08699,-0.0758 0.140316,-0.0935 0.02958,-0.01 0.06566,0.014 0.09354,0 0.01394,-0.007 -0.007,-0.0328 0,-0.0468 0.0099,-0.0197 0.03118,-0.0312 0.04677,-0.0468 0.01559,-0.0156 0.02705,-0.0369 0.04677,-0.0468 0.01394,-0.007 0.03283,0.007 0.04677,0 0.009,-0.004 0.182612,-0.17814 0.187089,-0.18709 0.0061,-0.0123 0,-0.16263 0,-0.18709 0,-0.0113 0.0015,-0.13881 0,-0.14032 -0.01103,-0.011 -0.03118,0 -0.04677,0 -0.04677,0 -0.09355,0 -0.140317,0 -0.03118,0 -0.06297,-0.006 -0.09354,0 -0.04835,0.01 -0.09355,0.0312 -0.140317,0.0468 -0.04677,0.0156 -0.09169,0.0387 -0.140316,0.0468 -0.04614,0.008 -0.09355,0 -0.140317,0 -0.155907,0 -0.311814,0 -0.467721,0 -0.07795,0 -0.155908,0 -0.233861,0 -0.01559,0 -0.03283,0.007 -0.04677,0 -0.01972,-0.01 -0.02585,-0.0398 -0.04677,-0.0468 -0.02781,-0.009 -0.225385,0 -0.280633,0 -0.124726,0 -0.249451,0 -0.374177,0 -0.05029,0 -0.134407,0.0105 -0.187089,0 -0.06303,-0.0126 -0.124725,-0.0312 -0.187088,-0.0468 z"
       id="path5646"
       inkscape:connector-curvature="0" />
    <path
       style="fill:#000000;stroke:none;stroke-width:0.26458332px;stroke-linecap:butt;stroke-linejoin:miter;stroke-opacity:1;fill-opacity:1"
       d="m 16.604119,277.87017 c 0.06236,0.0156 0.131967,0.0137 0.187089,0.0468 0.02989,0.0179 0.02212,0.0689 0.04677,0.0935 0.01102,0.011 0.03575,-0.011 0.04677,0 0.01103,0.011 -0.01103,0.0357 0,0.0468 0.01103,0.011 0.0338,-0.009 0.04677,0 0.27119,0.18079 0.03464,0.0225 0.09354,0.14032 0.09733,0.19465 -0.0032,-0.05 0.09354,0.0468 0.01103,0.011 -0.01103,0.0358 0,0.0468 0.01103,0.011 0.03575,-0.011 0.04677,0 0.01103,0.011 -0.007,0.0328 0,0.0468 0.0099,0.0197 0.03118,0.0312 0.04677,0.0468 0.01559,0.0156 0.02705,0.0369 0.04677,0.0468 0.01394,0.007 0.03575,-0.011 0.04677,0 0.01103,0.011 -0.01103,0.0357 0,0.0468 0.01103,0.011 0.03575,-0.011 0.04677,0 0.01103,0.011 -0.01103,0.0358 0,0.0468 0.01103,0.011 0.03283,-0.007 0.04677,0 0.01972,0.01 0.02705,0.0369 0.04677,0.0468 0.02789,0.0139 0.0715,-0.0221 0.09355,0 0.01103,0.011 -0.01103,0.0358 0,0.0468 0.01103,0.011 0.03118,0 0.04677,0 0.07795,0 0.155907,0 0.233861,0 0.09354,0 0.187088,0 0.280632,0 0.01559,0 0.03118,0 0.04677,0 0.01559,0 0.03283,0.007 0.04677,0 0.194654,-0.0973 -0.05,0.003 0.04677,-0.0935 0.01103,-0.011 0.03283,0.007 0.04677,0 0.03944,-0.0197 0.0541,-0.0738 0.09354,-0.0935 0.01395,-0.007 0.03575,0.011 0.04677,0 0.01103,-0.011 -0.007,-0.0328 0,-0.0468 0.09733,-0.19465 -0.0032,0.05 0.09354,-0.0468 0.01103,-0.011 -0.01103,-0.0358 0,-0.0468 0.01103,-0.011 0.03575,0.011 0.04677,0 0.01103,-0.011 -0.007,-0.0328 0,-0.0468 0.0099,-0.0197 0.03691,-0.027 0.04677,-0.0468 0.007,-0.014 -0.007,-0.0328 0,-0.0468 0.0099,-0.0197 0.02705,-0.0369 0.04677,-0.0468 0.01394,-0.007 0.0398,0.0139 0.04677,0 0.01395,-0.0279 -0.01394,-0.0657 0,-0.0935 0.007,-0.014 0.03575,0.011 0.04677,0 0.01103,-0.011 -0.007,-0.0328 0,-0.0468 0.0099,-0.0197 0.03691,-0.027 0.04677,-0.0468 0.006,-0.0121 0,-0.24748 0,-0.28063"
       id="path5652"
       inkscape:connector-curvature="0" />
    <path
       style="fill:#ffffff;stroke:none;stroke-width:0.26458332px;stroke-linecap:butt;stroke-linejoin:miter;stroke-opacity:1;fill-opacity:1"
       d="m 13.6107,276.37346 c 0.01937,-0.10489 0.107244,-0.18141 0.140317,-0.28063 0.0049,-0.0148 -0.007,-0.0328 0,-0.0468 0.09733,-0.19466 -0.0032,0.05 0.09354,-0.0468 0.05512,-0.0551 0.09354,-0.12472 0.140317,-0.18709 0.09354,-0.12472 0.180824,-0.2544 0.280633,-0.37417 0.07058,-0.0847 0.155907,-0.15591 0.233861,-0.23386 0.03118,-0.0312 0.06709,-0.0583 0.09354,-0.0935 0.103047,-0.0236 0.02472,-0.0962 0.04677,-0.14031 0.01972,-0.0394 0.07382,-0.0541 0.09355,-0.0935 0.0576,-0.1152 -0.135768,0.0422 0.04677,-0.14032 0.03975,-0.0397 0.09642,-0.0584 0.140316,-0.0935 0.03443,-0.0276 0.06236,-0.0624 0.09354,-0.0935 0.06236,-0.0624 0.129013,-0.12072 0.187089,-0.18709 0.05133,-0.0587 0.08113,-0.13636 0.140317,-0.18709 0.05294,-0.0454 0.130352,-0.053 0.187088,-0.0935 0.05382,-0.0384 0.0895,-0.098 0.140317,-0.14031 0.01063,-0.009 0.165526,-0.0972 0.187089,-0.14032 0.007,-0.0139 -0.01103,-0.0358 0,-0.0468 0.01103,-0.011 0.0398,-0.0139 0.04677,0 0.01394,0.0279 0,0.0624 0,0.0935 0,0.48872 0.01972,-0.0716 -0.04677,0.32741 -0.01538,0.0923 0.01323,0.18803 0,0.28063 -0.03262,0.22837 -0.06092,0.14581 -0.09355,0.37418 -0.01103,0.0772 0,0.15591 0,0.23386 0,0.18709 0,0.37418 0,0.56127 0,0.14031 0,0.28063 0,0.42095 0,0.0468 0,0.0935 0,0.14031 0,0.0156 -0.007,0.0607 0,0.0468 0.02205,-0.0441 0.03323,-0.0929 0.04677,-0.14031 0.02513,-0.0879 0.03435,-0.20171 0.09355,-0.28064 0.02646,-0.0353 0.06709,-0.0583 0.09354,-0.0935 0.02092,-0.0279 0.02884,-0.0637 0.04677,-0.0935 0.02892,-0.0482 0.06236,-0.0935 0.09354,-0.14032 0.03118,-0.0468 0.05843,-0.0964 0.09354,-0.14032 0.185141,-0.23142 -0.0092,0.056 0.233861,-0.18709 0.243102,-0.2431 -0.04434,-0.0487 0.187088,-0.23386 0.04389,-0.0351 0.100568,-0.0538 0.140317,-0.0935 0.02465,-0.0246 0.02212,-0.0689 0.04677,-0.0935 0.08833,-0.0883 0.08829,-0.0221 0.187089,-0.0468 0.06764,-0.0169 0.120943,-0.0715 0.187088,-0.0935 0.01479,-0.005 0.03118,0 0.04677,0 0.04677,-0.0156 0.09622,-0.0247 0.140316,-0.0468 0.01972,-0.01 0.02705,-0.0369 0.04677,-0.0468 0.02789,-0.0139 0.0715,0.0221 0.09355,0 0.01103,-0.011 -0.01103,-0.0357 0,-0.0468 0.01103,-0.011 0.03118,0 0.04677,0 0.03118,0 0.06566,-0.0139 0.09354,0 0.01395,0.007 -0.01103,0.0358 0,0.0468 0.01103,0.011 0.0398,-0.0139 0.04677,0 0.02092,0.0418 0,0.0935 0,0.14032 0,0.0774 0.01056,0.26405 0,0.32741 -0.01621,0.0973 -0.07733,0.18337 -0.09354,0.28063 -0.0077,0.0461 0.0077,0.0942 0,0.14032 -0.0081,0.0486 -0.03118,0.0935 -0.04677,0.14031 -0.01559,0.0468 -0.03118,0.0935 -0.04677,0.14032 -0.01559,0.0468 -0.0371,0.092 -0.04677,0.14031 -0.0061,0.0306 0.0099,0.064 0,0.0935 -0.01394,0.0418 -0.07382,0.0541 -0.09354,0.0935 -0.006,0.0121 0,0.24748 0,0.28064 0,0.0156 -0.01103,0.0357 0,0.0468 0.01103,0.011 0.03283,-0.007 0.04677,0 0.01972,0.01 0.02705,0.0369 0.04677,0.0468 0.01394,0.007 0.03118,0 0.04677,0 0.01559,0 0.03118,0 0.04677,0 0.09354,0 0.187088,0 0.280633,0"
       id="path5654"
       inkscape:connector-curvature="0" />
  </g>
</svg>
