<?xml version="1.0" encoding="UTF-8" standalone="no"?>
<!-- Created with Inkscape (http://www.inkscape.org/) -->

<svg
   xmlns:dc="http://purl.org/dc/elements/1.1/"
   xmlns:cc="http://creativecommons.org/ns#"
   xmlns:rdf="http://www.w3.org/1999/02/22-rdf-syntax-ns#"
   xmlns:svg="http://www.w3.org/2000/svg"
   xmlns="http://www.w3.org/2000/svg"
   xmlns:sodipodi="http://sodipodi.sourceforge.net/DTD/sodipodi-0.dtd"
   xmlns:inkscape="http://www.inkscape.org/namespaces/inkscape"
   width="128"
   height="128"
   viewBox="0 0 33.866664 33.866668"
   version="1.1"
   id="svg8"
   inkscape:version="0.92.2 (5c3e80d, 2017-08-06)"
   sodipodi:docname="social_icon_3.svg"
   inkscape:export-filename="C:\Users\Me\Documents\GitHub\ServeTheGods\Assets\Images\SocialMedia\social_icon_2.png"
   inkscape:export-xdpi="96"
   inkscape:export-ydpi="96">
  <defs
     id="defs2" />
  <sodipodi:namedview
     id="base"
     pagecolor="#ffffff"
     bordercolor="#666666"
     borderopacity="1.0"
     inkscape:pageopacity="0.0"
     inkscape:pageshadow="2"
     inkscape:zoom="5.6568542"
     inkscape:cx="64.893248"
     inkscape:cy="56.658024"
     inkscape:document-units="mm"
     inkscape:current-layer="layer1"
     showgrid="true"
     units="px"
     inkscape:snap-bbox="true"
     inkscape:bbox-paths="false"
     inkscape:bbox-nodes="true"
     inkscape:window-width="1920"
     inkscape:window-height="1017"
     inkscape:window-x="-8"
     inkscape:window-y="-8"
     inkscape:window-maximized="1"
     inkscape:snap-global="false">
    <inkscape:grid
       type="xygrid"
       id="grid4504"
       spacingx="4.2333333"
       spacingy="4.2333333"
       empspacing="4" />
  </sodipodi:namedview>
  <metadata
     id="metadata5">
    <rdf:RDF>
      <cc:Work
         rdf:about="">
        <dc:format>image/svg+xml</dc:format>
        <dc:type
           rdf:resource="http://purl.org/dc/dcmitype/StillImage" />
        <dc:title></dc:title>
      </cc:Work>
    </rdf:RDF>
  </metadata>
  <g
     inkscape:label="Layer 1"
     inkscape:groupmode="layer"
     id="layer1"
     transform="translate(0,-263.13332)">
    <path
       style="fill:#ffffff;stroke:none;stroke-width:0.26458332px;stroke-linecap:butt;stroke-linejoin:miter;stroke-opacity:1;fill-opacity:1"
       d="m 13.751017,283.15542 c 0,-0.60803 0,-1.21607 0,-1.82411 0,-0.14032 0.0074,-0.28083 0,-0.42095 -0.0093,-0.17667 -0.06743,-0.64607 -0.09354,-0.8419 -0.01457,-0.10927 -0.03892,-0.21744 -0.04677,-0.3274 -0.0078,-0.10886 0,-0.21827 0,-0.32741 0,-0.1715 0,-0.34299 0,-0.51449 0,-0.078 0,-0.15591 0,-0.23386 0,-0.0935 -0.0093,-0.18756 0,-0.28064 0.01472,-0.14717 0.09304,-0.3259 0.140317,-0.46772 0.128188,-0.38456 -0.01643,0.0986 0.04677,-0.28063 0.0081,-0.0486 0.03118,-0.0935 0.04677,-0.14032 0.01559,-0.0468 0.02846,-0.0945 0.04677,-0.14031 0.01295,-0.0324 0.03832,-0.0597 0.04677,-0.0935 0.01513,-0.0605 -0.01513,-0.12659 0,-0.18709 0.0085,-0.0338 0.03832,-0.0597 0.04677,-0.0935 0.0076,-0.0302 -0.0076,-0.0633 0,-0.0935 0.0085,-0.0338 0.03575,-0.0605 0.04677,-0.0935 0.0049,-0.0148 -0.0049,-0.032 0,-0.0468 0.01102,-0.0331 0.02743,-0.0645 0.04677,-0.0935 0.01223,-0.0183 0.0398,-0.0258 0.04677,-0.0468 0.0099,-0.0296 -0.0099,-0.064 0,-0.0935 0.007,-0.0209 0.03454,-0.0284 0.04677,-0.0468 0.01934,-0.029 0.02743,-0.0645 0.04677,-0.0935 0.01223,-0.0183 0.0398,-0.0259 0.04677,-0.0468 0.0099,-0.0296 -0.0099,-0.064 0,-0.0935 0.007,-0.0209 0.03691,-0.027 0.04677,-0.0468 0.0576,-0.1152 -0.135767,0.0422 0.04677,-0.14031 0.02465,-0.0247 0.06454,-0.0274 0.09355,-0.0468 0.03669,-0.0245 0.0541,-0.0738 0.09354,-0.0935 0.01394,-0.007 0.03575,0.011 0.04677,0 0.01103,-0.011 -0.007,-0.0328 0,-0.0468 0.05171,-0.10342 0.02903,-0.0145 0.09354,-0.0468 0.01972,-0.01 0.02585,-0.0398 0.04677,-0.0468 0.02958,-0.01 0.06565,0.0139 0.09354,0 0.07155,-0.0124 0.08115,-0.11073 0.140316,-0.14031 0.01394,-0.007 0.03283,0.007 0.04677,0 0.01972,-0.01 0.02705,-0.0369 0.04677,-0.0468 0.01394,-0.007 0.03575,0.011 0.04677,0 0.01103,-0.011 -0.01103,-0.0357 0,-0.0468 0.01103,-0.011 0.03575,0.011 0.04677,0 0.01103,-0.011 -0.01103,-0.0358 0,-0.0468 0.01103,-0.011 0.03283,0.007 0.04677,0 0.01972,-0.01 0.02705,-0.0369 0.04677,-0.0468 0.01394,-0.007 0.03283,0.007 0.04677,0 0.01972,-0.01 0.02705,-0.0369 0.04677,-0.0468 0.0098,-0.005 0.233841,-1e-5 0.233861,0 0.03382,0.008 0.06047,0.0357 0.09354,0.0468 0.08991,0.03 0.237318,0.0485 0.327405,0.0935 0.05028,0.0251 0.08699,0.0758 0.140317,0.0935 0.04437,0.0148 0.09418,-0.008 0.140316,0 0.04863,0.008 0.09354,0.0312 0.140317,0.0468 0.04677,0.0156 0.09454,0.0285 0.140316,0.0468 0.03237,0.0129 0.06047,0.0357 0.09354,0.0468 0.01479,0.005 0.03283,-0.007 0.04677,0 0.01972,0.01 0.02705,0.0369 0.04677,0.0468 0.01395,0.007 0.03283,-0.007 0.04677,0 0.03944,0.0197 0.0541,0.0738 0.09354,0.0935 0.01395,0.007 0.03283,-0.007 0.04677,0 0.01972,0.01 0.03118,0.0312 0.04677,0.0468 0.01559,0.0156 0.03691,0.027 0.04677,0.0468 0.007,0.014 -0.01103,0.0358 0,0.0468 0.01103,0.011 0.03283,-0.007 0.04677,0 0.155124,0.15512 -0.0441,-0.0221 0.09354,0.0468 0.01972,0.01 0.02843,0.0345 0.04677,0.0468 0.02901,0.0193 0.06454,0.0274 0.09354,0.0468 0.03669,0.0245 0.0541,0.0738 0.09354,0.0935 0.01394,0.007 0.03575,-0.011 0.04677,0 0.01103,0.011 -0.007,0.0328 0,0.0468 0.0062,0.0124 0.127898,0.13411 0.140317,0.14032 0.01394,0.007 0.03575,-0.011 0.04677,0 0.02205,0.022 -0.02205,0.0715 0,0.0935 0.01103,0.011 0.03575,-0.011 0.04677,0 0.01103,0.011 -0.01395,0.0398 0,0.0468 0.02789,0.0139 0.06565,-0.0139 0.09354,0 0.01395,0.007 -0.01103,0.0358 0,0.0468 0.01103,0.011 0.03575,-0.011 0.04677,0 0.01103,0.011 -0.007,0.0328 0,0.0468 0.0099,0.0197 0.03118,0.0312 0.04677,0.0468 0.01559,0.0156 0.02705,0.0369 0.04677,0.0468 0.01395,0.007 0.03575,-0.011 0.04677,0 0.01103,0.011 -0.01103,0.0357 0,0.0468 0.01103,0.011 0.03575,-0.011 0.04677,0 0.01103,0.011 -0.007,0.0328 0,0.0468 0.10646,0.10646 0.01236,-0.01 0.04677,0.0935 -0.0847,0.19568 0.07382,0.0541 0.09354,0.0935 0.01394,0.0279 -0.0076,0.0633 0,0.0935 0.0085,0.0338 0.03832,0.0597 0.04677,0.0935 0.0076,0.0302 -0.0099,0.064 0,0.0935 0.007,0.0209 0.03691,0.027 0.04677,0.0468 0.007,0.0139 0,0.0312 0,0.0468 0,0.0468 0,0.0935 0,0.14032 0,0.0624 0,0.12472 0,0.18709 0,0.0312 0,0.0624 0,0.0935 0,0.0156 -0.0049,0.032 0,0.0468 0.01103,0.0331 0.03832,0.0597 0.04677,0.0935 0.0076,0.0303 -0.0099,0.064 0,0.0935 0.007,0.0209 0.03691,0.027 0.04677,0.0468 0.007,0.014 0,0.0312 0,0.0468 0,0.0468 0,0.0935 0,0.14031 0,0.0312 -0.0061,0.063 0,0.0935 0.0097,0.0483 0.03867,0.0917 0.04677,0.14031 0.0077,0.0461 0,0.0935 0,0.14032 0,0.14032 0,0.28063 0,0.42095 0,0.23386 0,0.46772 0,0.70158 0,0.0468 0,0.0935 0,0.14032 0,0.0624 0.0088,0.12535 0,0.18709 -0.007,0.0488 -0.03867,0.0917 -0.04677,0.14031 -0.0077,0.0461 0,0.0935 0,0.14032 0,0.0468 0,0.0935 0,0.14032 0,0.17149 0,0.34299 0,0.51449 0,0.0935 0,0.18709 0,0.28063 0,0.0624 -0.0062,0.12504 0,0.18709 0.01197,0.11968 0.0683,0.3883 0.09354,0.5145 0.01559,0.0779 0.03886,0.15475 0.04677,0.23386 0.0078,0.0776 -0.0097,0.1565 0,0.23386 0.0061,0.0489 0.03118,0.0935 0.04677,0.14031 0.03098,0.0929 0.06257,0.18771 0.09354,0.28064 0.01559,0.0468 0.0371,0.092 0.04677,0.14031 0.01223,0.0611 -0.01513,0.12659 0,0.18709 0.01691,0.0676 0.07663,0.11945 0.09354,0.18709 0.0076,0.0303 0,0.0624 0,0.0935 0,0.0156 -0.007,0.0328 0,0.0468 0.0099,0.0197 0.0398,0.0258 0.04677,0.0468 0.0099,0.0296 -0.01395,0.0657 0,0.0935 0.007,0.0139 0.03575,-0.011 0.04677,0 0.0015,0.002 0,0.12898 0,0.14032 0,0.0156 0.01559,0.0468 0,0.0468 -0.02205,0 -0.02705,-0.0369 -0.04677,-0.0468 -0.01705,-0.009 -0.206911,0 -0.233861,0 -0.07795,0 -0.155907,0 -0.233861,0 -0.03073,0 -0.113927,-0.009 -0.140316,0 -0.03307,0.011 -0.06047,0.0358 -0.09354,0.0468 -0.01479,0.005 -0.03198,-0.005 -0.04677,0 -0.112611,0.0375 -0.07448,0.056 -0.187089,0.0935 -0.01479,0.005 -0.03198,-0.005 -0.04677,0 -0.03307,0.011 -0.06047,0.0357 -0.09354,0.0468 -0.01479,0.005 -0.03575,-0.011 -0.04677,0 -0.01103,0.011 0.01103,0.0358 0,0.0468 -0.02205,0.0221 -0.06396,-0.01 -0.09354,0 -0.03307,0.011 -0.06047,0.0358 -0.09354,0.0468 -0.139232,0.0464 0.09597,-0.11075 -0.140316,0.0468 -0.01835,0.0122 -0.02705,0.0369 -0.04677,0.0468 -0.02789,0.0139 -0.06565,-0.014 -0.09354,0 -0.01972,0.01 -0.02705,0.0369 -0.04677,0.0468 -0.01394,0.007 -0.03283,-0.007 -0.04677,0 -0.01972,0.01 -0.02843,0.0345 -0.04677,0.0468 -0.02901,0.0193 -0.06236,0.0312 -0.09354,0.0468 -0.03118,0.0156 -0.05972,0.0383 -0.09355,0.0468 -0.03025,0.008 -0.06236,0 -0.09354,0 -0.09355,0 -0.187089,0 -0.280633,0 -0.05592,0 -0.250107,0.0102 -0.280633,0 -0.03307,-0.011 -0.06454,-0.0274 -0.09354,-0.0468 -0.01835,-0.0122 -0.02586,-0.0398 -0.04677,-0.0468 -0.02958,-0.01 -0.06396,0.01 -0.09354,0 -0.04183,-0.0139 -0.0541,-0.0738 -0.09354,-0.0935 -0.01394,-0.007 -0.03118,0 -0.04677,0 -0.03118,0 -0.06396,0.01 -0.09355,0 -0.02092,-0.007 -0.02843,-0.0345 -0.04677,-0.0468 -0.02901,-0.0193 -0.06047,-0.0357 -0.09354,-0.0468 -0.0182,-0.006 -0.133058,0.007 -0.140317,0 -0.01103,-0.011 0.007,-0.0328 0,-0.0468 -0.0099,-0.0197 -0.03118,-0.0312 -0.04677,-0.0468 -0.01559,-0.0156 -0.02705,-0.0369 -0.04677,-0.0468 -0.01395,-0.007 -0.03575,0.011 -0.04677,0 -0.01103,-0.011 0.01103,-0.0358 0,-0.0468 -0.01103,-0.011 -0.03575,0.011 -0.04677,0 -0.01103,-0.011 0.01103,-0.0357 0,-0.0468 -0.02465,-0.0247 -0.06454,-0.0274 -0.09354,-0.0468 -0.01835,-0.0122 -0.02705,-0.0369 -0.04677,-0.0468 -0.115198,-0.0576 0.04222,0.13576 -0.140317,-0.0468 -0.01102,-0.011 0.01103,-0.0358 0,-0.0468 -0.02205,-0.022 -0.07149,0.022 -0.09354,0 -0.01103,-0.011 0.01103,-0.0357 0,-0.0468 -0.02205,-0.0221 -0.06565,0.0139 -0.09354,0 -0.01972,-0.01 -0.03118,-0.0312 -0.04677,-0.0468 -0.03118,0 -0.06565,0.0139 -0.09354,0 -0.01394,-0.007 0.01103,-0.0358 0,-0.0468 -0.01103,-0.011 -0.03283,0.007 -0.04677,0 -0.155124,-0.15513 0.0441,0.022 -0.09354,-0.0468 -0.01972,-0.01 -0.02705,-0.0369 -0.04677,-0.0468 -0.02789,-0.0139 -0.0715,0.022 -0.09354,0 -0.01103,-0.011 0.01103,-0.0358 0,-0.0468 -0.01103,-0.011 -0.03283,0.007 -0.04677,0 -0.194654,-0.0973 0.05,0.003 -0.04677,-0.0935 -0.01103,-0.011 -0.03575,0.011 -0.04677,0 -0.01103,-0.011 0.01395,-0.0398 0,-0.0468 -0.02789,-0.0139 -0.06565,0.014 -0.09354,0 -0.01394,-0.007 0.01103,-0.0357 0,-0.0468 -0.01103,-0.011 -0.03283,0.007 -0.04677,0 -0.03944,-0.0197 -0.0541,-0.0738 -0.09354,-0.0935 -0.02789,-0.014 -0.0715,0.022 -0.09354,0 -0.01103,-0.011 0,-0.0312 0,-0.0468 -0.06236,0 -0.124726,0 -0.187089,0 z"
       id="path5642"
       inkscape:connector-curvature="0" />
    <rect
       style="fill:#8678ee;fill-opacity:1;stroke:none;stroke-width:5.29166651;stroke-linecap:butt;stroke-linejoin:round;stroke-miterlimit:4;stroke-dasharray:15.8749998, 5.2916666;stroke-dashoffset:0;stroke-opacity:0.74874369"
       id="rect4506"
       width="127"
       height="84.666672"
       x="4.2333331"
       y="165.76665"
       ry="8.4666739" />
    <rect
       ry="4.233335"
       y="191.16666"
       x="8.4666662"
       height="55.033329"
       width="118.53333"
       id="rect4508"
       style="fill:#f3f3f3;fill-opacity:1;stroke:none;stroke-width:5.29166651;stroke-linecap:butt;stroke-linejoin:round;stroke-miterlimit:4;stroke-dasharray:15.8749998, 5.2916666;stroke-dashoffset:0;stroke-opacity:0.74874369" />
    <rect
       style="fill:#f3f3f3;fill-opacity:1;stroke:none;stroke-width:5.29166651;stroke-linecap:butt;stroke-linejoin:round;stroke-miterlimit:4;stroke-dasharray:15.8749998, 5.2916666;stroke-dashoffset:0;stroke-opacity:0.74874369"
       id="rect4510"
       width="80.433334"
       height="12.700003"
       x="29.633333"
       y="169.99998"
       ry="4.1199408" />
    <path
       style="fill:#cccccc;stroke:none;stroke-width:0.26458332px;stroke-linecap:butt;stroke-linejoin:miter;stroke-opacity:1;fill-opacity:1"
       d="m 17.071841,279.60074 c 0.25003,0.0958 0.456579,0.26918 0.701582,0.37418 0.04532,0.0194 0.09354,0.0312 0.140317,0.0468 0.04677,0.0156 0.09151,0.0398 0.140317,0.0468 0.06174,0.009 0.125574,-0.0103 0.187088,0 0.06245,0.0104 0.211359,0.123 0.280633,0.14032 0.03025,0.008 0.06396,-0.01 0.09354,0 0.02092,0.007 0.03118,0.0312 0.04677,0.0468 0.03118,0.0156 0.06047,0.0357 0.09354,0.0468 0.01479,0.005 0.03198,-0.005 0.04677,0 0.187089,0.0624 -0.0095,0.0449 0.233861,0.0935 0.03058,0.006 0.06329,-0.008 0.09354,0 0.22586,0.0565 -0.0023,0.0222 0.140317,0.0935 0.01394,0.007 0.03575,-0.011 0.04677,0 0.01103,0.011 -0.01103,0.0358 0,0.0468 0.09677,0.0968 -0.0038,-0.14788 0.09354,0.0468 0.007,0.0139 -0.01103,0.0357 0,0.0468 0.01103,0.011 0.03198,-0.005 0.04677,0 0.03307,0.011 0.06889,0.0221 0.09354,0.0468 0.01103,0.011 -0.01103,0.0358 0,0.0468 0.01103,0.011 0.03575,-0.011 0.04677,0 0.01103,0.011 -0.01394,0.0398 0,0.0468 0.02789,0.014 0.06565,-0.0139 0.09354,0 0.01394,0.007 -0.01103,0.0358 0,0.0468 0.01103,0.011 0.03575,-0.011 0.04677,0 0.09677,0.0968 -0.147883,-0.004 0.04677,0.0935 0.01394,0.007 0.03575,-0.011 0.04677,0 0.01103,0.011 -0.0038,0.0316 0,0.0468 0.01196,0.0478 0.03481,0.0925 0.04677,0.14032 0.0038,0.0151 -0.0049,0.032 0,0.0468 0.01103,0.0331 0.03575,0.0605 0.04677,0.0935 0.0034,0.0103 0.0035,0.18013 0,0.18708 -0.05171,0.10342 -0.02903,0.0145 -0.09354,0.0468 -0.03944,0.0197 -0.05685,0.0691 -0.09354,0.0935 -0.02901,0.0193 -0.06566,0.0259 -0.09354,0.0468 -0.03528,0.0265 -0.0541,0.0738 -0.09354,0.0935 -0.02789,0.0139 -0.06297,-0.006 -0.09354,0 -0.04834,0.01 -0.095,0.0274 -0.140316,0.0468 -0.06409,0.0275 -0.123003,0.0661 -0.187089,0.0935 -0.09063,0.0389 -0.188307,0.0589 -0.280633,0.0935 -0.07861,0.0295 -0.153443,0.0694 -0.233861,0.0935 -0.07614,0.0229 -0.155645,0.0326 -0.233861,0.0468 -0.0933,0.017 -0.186187,0.0382 -0.280633,0.0468 -0.07763,0.007 -0.155907,0 -0.23386,0 -0.09354,0 -0.187089,0 -0.280633,0 -0.07795,0 -0.155907,0 -0.233861,0 -0.06236,0 -0.125353,0.009 -0.187089,0 -0.04881,-0.007 -0.09291,-0.0332 -0.140316,-0.0468 -0.164326,-0.047 -0.186131,-0.0468 -0.327406,-0.0468"
       id="path5634"
       inkscape:connector-curvature="0" />
    <path
       style="fill:#000000;stroke:none;stroke-width:0.26458332px;stroke-linecap:butt;stroke-linejoin:miter;stroke-opacity:1;fill-opacity:1"
       d="m 14.592916,277.26213 c -0.03118,0.0935 -0.06963,0.18497 -0.09354,0.28063 -0.0076,0.0303 0,0.0624 0,0.0935 0,0.078 0,0.15591 0,0.23386 0,0.0468 0,0.0935 0,0.14032 0,0.0468 -0.0077,0.0942 0,0.14031 0.0081,0.0486 0.03867,0.0917 0.04677,0.14032 0.0077,0.0461 -0.0077,0.0942 0,0.14032 0.0702,0.4212 0.0034,-0.10837 0.140316,0.23386 0.01737,0.0434 -0.01737,0.0969 0,0.14031 0.02339,0.0585 0.105238,0.0877 0.140317,0.14032 0.01559,0.0312 0.03118,0.0624 0.04677,0.0935 0.01559,0 0.03575,-0.011 0.04677,0 0.01103,0.011 -0.01103,0.0358 0,0.0468 0.01103,0.011 0.03118,0 0.04677,0 0.04677,0 0.09355,0 0.140317,0 0.01559,0 0.03118,0 0.04677,0 0.01559,0 0.03575,0.011 0.04677,0 0.01103,-0.011 -0.007,-0.0328 0,-0.0468 0.05941,-0.11882 0.0559,0.0479 0.09354,-0.14031 0.0092,-0.0459 -0.0092,-0.0944 0,-0.14032 0.01167,-0.0583 0.124575,-0.20238 0.140317,-0.23386 0.02205,-0.0441 0.03867,-0.0917 0.04677,-0.14032 0.01047,-0.0628 0,-0.30324 0,-0.37417 0,-0.0295 0.0064,-0.35806 0,-0.37418 -0.01638,-0.0409 -0.07382,-0.0541 -0.09354,-0.0935 -0.01395,-0.0279 0.01394,-0.0657 0,-0.0935 -0.01972,-0.0394 -0.07086,-0.0557 -0.09354,-0.0935 -0.02537,-0.0423 -0.02472,-0.0962 -0.04677,-0.14032 -0.02514,-0.0503 -0.06462,-0.0921 -0.09354,-0.14032 -0.03587,-0.0598 -0.05171,-0.13131 -0.09354,-0.18709 -0.02646,-0.0353 -0.07382,-0.0541 -0.09355,-0.0935 0,-0.26504 0.03118,-0.0156 -0.04677,-0.0935 -0.01103,-0.011 0.01103,-0.0358 0,-0.0468 -0.01103,-0.011 -0.03283,0.007 -0.04677,0 -0.03803,-0.019 -0.0387,-0.0742 -0.09354,-0.0468 -0.05105,0.0255 -0.06913,0.0996 -0.09354,0.14032 -0.0473,0.0788 -0.140316,0.1769 -0.140316,0.28063 0,0.0795 0.03118,0.15591 0.04677,0.23386 z"
       id="path5636"
       inkscape:connector-curvature="0" />
    <path
       style="fill:#000000;fill-opacity:1;stroke:none;stroke-width:0.26458332px;stroke-linecap:butt;stroke-linejoin:miter;stroke-opacity:1"
       d="m 17.773423,276.56055 c -0.07124,0.11567 -0.09084,0.2505 -0.140316,0.37418 -0.01295,0.0324 -0.03832,0.0597 -0.04677,0.0935 -0.05352,0.21406 0.09447,-0.0486 -0.04677,0.23386 -0.0099,0.0197 -0.03691,0.027 -0.04677,0.0468 -0.007,0.014 0,0.0312 0,0.0468 0,0.0312 -0.01158,0.0646 0,0.0935 0.02088,0.0522 0.0684,0.09 0.09354,0.14032 0.02205,0.0441 0.02846,0.0945 0.04677,0.14031 0.02589,0.0647 0.06236,0.12473 0.09354,0.18709 0.01559,0.0312 0.03832,0.0597 0.04677,0.0935 0.03565,0.14259 -0.06622,0.0644 0.04677,0.23386 0.0086,0.013 0.03575,-0.011 0.04677,0 0.01103,0.011 -0.007,0.0328 0,0.0468 0.01972,0.0394 0.07382,0.0541 0.09354,0.0935 0.007,0.014 -0.01103,0.0358 0,0.0468 0.01103,0.011 0.03575,-0.011 0.04677,0 0.01103,0.011 -0.007,0.0328 0,0.0468 0.0099,0.0197 0.03691,0.0271 0.04677,0.0468 0.007,0.0139 -0.01394,0.0398 0,0.0468 0.02789,0.0139 0.06565,-0.0139 0.09354,0 0.01394,0.007 -0.007,0.0328 0,0.0468 0.0099,0.0197 0.03118,0.0312 0.04677,0.0468 0.03118,0.0312 0.06236,0.0624 0.09354,0.0935 0.02462,0.0246 0.115336,0.12783 0.140317,0.14032 0.01395,0.007 0.03198,0.005 0.04677,0 0.145513,-0.0485 0.05717,-0.0294 0.140316,-0.14032 0.27407,-0.36543 -0.08326,0.21329 0.140317,-0.23386 0.0099,-0.0197 0.03454,-0.0284 0.04677,-0.0468 0.01934,-0.029 0.02743,-0.0645 0.04677,-0.0935 0.01223,-0.0183 0.04143,-0.0254 0.04677,-0.0468 0.01891,-0.0756 -0.01891,-0.15823 0,-0.23386 0.0085,-0.0338 0.03832,-0.0597 0.04677,-0.0935 0.0092,-0.0368 0,-0.232 0,-0.28064 0,-0.0468 0,-0.0935 0,-0.14031 0,-0.0468 0.0092,-0.0945 0,-0.14032 -0.01367,-0.0684 -0.0715,-0.12094 -0.09354,-0.18709 -0.0049,-0.0148 0,-0.0312 0,-0.0468 -0.01559,-0.0468 -0.02472,-0.0962 -0.04677,-0.14032 -0.0099,-0.0197 -0.03691,-0.027 -0.04677,-0.0468 -0.007,-0.014 0.007,-0.0328 0,-0.0468 -0.0099,-0.0197 -0.03691,-0.027 -0.04677,-0.0468 -0.007,-0.014 0.01103,-0.0358 0,-0.0468 -0.01103,-0.011 -0.03283,0.007 -0.04677,0 -0.01972,-0.01 -0.02705,-0.0369 -0.04677,-0.0468 -0.01395,-0.007 -0.03575,0.011 -0.04677,0 -0.01103,-0.011 0.007,-0.0328 0,-0.0468 -0.0099,-0.0197 -0.03118,-0.0312 -0.04677,-0.0468 -0.01559,-0.0156 -0.02705,-0.0369 -0.04677,-0.0468 -0.01394,-0.007 -0.03118,0 -0.04677,0 -0.03118,0 -0.06236,0 -0.09354,0 -0.01829,0 -0.307233,0.007 -0.327406,0 -0.02092,-0.007 -0.02705,-0.0369 -0.04677,-0.0468 -0.01395,-0.007 -0.03118,0 -0.04677,0 -0.04677,-0.0312 -0.09354,-0.0624 -0.140317,-0.0935 z"
       id="path5638"
       inkscape:connector-curvature="0" />
  </g>
</svg>
