<?xml version="1.0" encoding="UTF-8" standalone="no"?>
<!-- Created with Inkscape (http://www.inkscape.org/) -->

<svg
   xmlns:dc="http://purl.org/dc/elements/1.1/"
   xmlns:cc="http://creativecommons.org/ns#"
   xmlns:rdf="http://www.w3.org/1999/02/22-rdf-syntax-ns#"
   xmlns:svg="http://www.w3.org/2000/svg"
   xmlns="http://www.w3.org/2000/svg"
   xmlns:sodipodi="http://sodipodi.sourceforge.net/DTD/sodipodi-0.dtd"
   xmlns:inkscape="http://www.inkscape.org/namespaces/inkscape"
   width="128"
   height="128"
   viewBox="0 0 33.866664 33.866668"
   version="1.1"
   id="svg8"
   inkscape:version="0.92.2 (5c3e80d, 2017-08-06)"
   sodipodi:docname="social_icon_9.svg"
   inkscape:export-filename="C:\Users\Me\Documents\GitHub\ServeTheGods\Assets\Images\SocialMedia\social_icon_8.png"
   inkscape:export-xdpi="96"
   inkscape:export-ydpi="96">
  <defs
     id="defs2" />
  <sodipodi:namedview
     id="base"
     pagecolor="#ffffff"
     bordercolor="#666666"
     borderopacity="1.0"
     inkscape:pageopacity="0.0"
     inkscape:pageshadow="2"
     inkscape:zoom="5.6568542"
     inkscape:cx="67.937684"
     inkscape:cy="47.657412"
     inkscape:document-units="mm"
     inkscape:current-layer="layer1"
     showgrid="true"
     units="px"
     inkscape:snap-bbox="true"
     inkscape:bbox-paths="false"
     inkscape:bbox-nodes="true"
     inkscape:window-width="1920"
     inkscape:window-height="1017"
     inkscape:window-x="-8"
     inkscape:window-y="-8"
     inkscape:window-maximized="1"
     inkscape:snap-global="false">
    <inkscape:grid
       type="xygrid"
       id="grid4504"
       spacingx="4.2333333"
       spacingy="4.2333333"
       empspacing="4" />
  </sodipodi:namedview>
  <metadata
     id="metadata5">
    <rdf:RDF>
      <cc:Work
         rdf:about="">
        <dc:format>image/svg+xml</dc:format>
        <dc:type
           rdf:resource="http://purl.org/dc/dcmitype/StillImage" />
        <dc:title></dc:title>
      </cc:Work>
    </rdf:RDF>
  </metadata>
  <g
     inkscape:label="Layer 1"
     inkscape:groupmode="layer"
     id="layer1"
     transform="translate(0,-263.13332)">
    <rect
       style="fill:#8678ee;fill-opacity:1;stroke:none;stroke-width:5.29166651;stroke-linecap:butt;stroke-linejoin:round;stroke-miterlimit:4;stroke-dasharray:15.8749998, 5.2916666;stroke-dashoffset:0;stroke-opacity:0.74874369"
       id="rect4506"
       width="127"
       height="84.666672"
       x="4.2333331"
       y="165.76665"
       ry="8.4666739" />
    <rect
       ry="4.233335"
       y="191.16666"
       x="8.4666662"
       height="55.033329"
       width="118.53333"
       id="rect4508"
       style="fill:#f3f3f3;fill-opacity:1;stroke:none;stroke-width:5.29166651;stroke-linecap:butt;stroke-linejoin:round;stroke-miterlimit:4;stroke-dasharray:15.8749998, 5.2916666;stroke-dashoffset:0;stroke-opacity:0.74874369" />
    <rect
       style="fill:#f3f3f3;fill-opacity:1;stroke:none;stroke-width:5.29166651;stroke-linecap:butt;stroke-linejoin:round;stroke-miterlimit:4;stroke-dasharray:15.8749998, 5.2916666;stroke-dashoffset:0;stroke-opacity:0.74874369"
       id="rect4510"
       width="80.433334"
       height="12.700003"
       x="29.633333"
       y="169.99998"
       ry="4.1199408" />
    <path
       style="fill:none;stroke:#ffffff;stroke-width:1;stroke-linecap:butt;stroke-linejoin:miter;stroke-opacity:1;stroke-miterlimit:4;stroke-dasharray:none"
       d="m 17.212157,280.30232 c -0.04677,0.0624 -0.08043,0.13719 -0.140316,0.18709 -0.03787,0.0316 -0.09622,0.0247 -0.140317,0.0468 -0.05028,0.0251 -0.08895,0.0707 -0.140316,0.0935 -0.255282,0.11346 -0.525423,0.13315 -0.795127,0.18709 -0.06303,0.0126 -0.124055,0.0342 -0.187089,0.0468 -0.272307,0.0545 -0.212658,0.0468 -0.420949,0.0468 -0.04677,0 -0.09354,0 -0.140317,0 -0.03118,0 -0.06396,0.01 -0.09354,0 -0.02092,-0.007 -0.02585,-0.0398 -0.04677,-0.0468 -0.02958,-0.01 -0.06565,0.0139 -0.09355,0 -0.01394,-0.007 0.007,-0.0328 0,-0.0468 -0.0099,-0.0197 -0.02705,-0.0369 -0.04677,-0.0468 -0.01394,-0.007 -0.03283,0.007 -0.04677,0 -0.103416,-0.0517 -0.01451,-0.029 -0.04677,-0.0935 -0.09282,-0.18564 -0.01478,0.20672 -0.09354,-0.18709 -0.0061,-0.0306 0.0076,-0.0633 0,-0.0935 -0.01831,-0.0732 -0.126456,-0.21133 -0.140317,-0.28064 -0.0092,-0.0459 0.0066,-0.094 0,-0.14031 -0.0091,-0.0636 -0.03768,-0.12345 -0.04677,-0.18709 -0.0066,-0.0463 0,-0.0935 0,-0.14032 0,-0.0468 0,-0.0935 0,-0.14031 0,-0.0468 0,-0.0935 0,-0.14032 0,-0.0312 -0.0061,-0.063 0,-0.0935 0.01926,-0.0963 0.05197,-0.15071 0.09354,-0.23386 0.01559,-0.0312 0.03832,-0.0597 0.04677,-0.0935 0.0076,-0.0302 -0.0099,-0.064 0,-0.0935 0.002,-0.006 0.181108,-0.1851 0.187088,-0.18709 0.02958,-0.01 0.06566,0.0139 0.09354,0 0.03944,-0.0197 0.05827,-0.0671 0.09355,-0.0935 0.02789,-0.0209 0.06632,-0.025 0.09354,-0.0468 0.05165,-0.0413 0.08649,-0.10187 0.140317,-0.14032 0.05674,-0.0405 0.130352,-0.053 0.187088,-0.0935 0.05382,-0.0384 0.08649,-0.10187 0.140317,-0.14032 0.0958,-0.0684 0.303279,-0.14786 0.420949,-0.18709 0.04677,-0.0156 0.09169,-0.0387 0.140317,-0.0468 0.04614,-0.008 0.09418,0.008 0.140316,0 0.04863,-0.008 0.09169,-0.0387 0.140317,-0.0468 0.04614,-0.008 0.09354,0 0.140316,0 0.140317,0 0.280633,0 0.42095,0 0.109135,0 0.21827,0 0.327405,0 0.04677,0 0.09354,0 0.140317,0 0.03118,0 0.06329,-0.008 0.09354,0 0.07323,0.0183 0.21133,0.12646 0.280633,0.14032 0.04586,0.009 0.09689,-0.0174 0.140317,0 0.04094,0.0164 0.0541,0.0738 0.09354,0.0935 0.02789,0.0139 0.06236,0 0.09354,0 0.03118,0.0312 0.05573,0.0709 0.09354,0.0935 0.04228,0.0254 0.101818,0.016 0.140317,0.0468 0.04389,0.0351 0.05843,0.0964 0.09354,0.14031 0.02755,0.0344 0.06236,0.0624 0.09355,0.0935 0.109135,0.10913 0.21827,0.21827 0.327405,0.3274 0.03118,0.0312 0.07086,0.0557 0.09354,0.0935 0.02537,0.0423 0.02141,0.098 0.04677,0.14031 0.02269,0.0378 0.07717,0.0526 0.09354,0.0935 0.01737,0.0434 -0.0092,0.0944 0,0.14031 0.0068,0.0342 0.03382,0.0612 0.04677,0.0935 0.01831,0.0458 0.02846,0.0945 0.04677,0.14032 0.01295,0.0324 0.03383,0.0612 0.04677,0.0935 0.03662,0.0916 0.06236,0.18709 0.09354,0.28063 0.01559,0.0468 0.03867,0.0917 0.04677,0.14032 0.01538,0.0923 -0.01538,0.18836 0,0.28063 0.0081,0.0486 0.03867,0.0917 0.04677,0.14032 0.0077,0.0461 0,0.0935 0,0.14032 0,0.12472 0,0.24945 0,0.37417 0,0.0397 0.0086,0.25485 0,0.28064 -0.01394,0.0418 -0.07382,0.0541 -0.09354,0.0935 -0.007,0.0139 0.007,0.0328 0,0.0468 -0.0099,0.0197 -0.03454,0.0284 -0.04677,0.0468 -0.03868,0.058 -0.05487,0.12908 -0.09354,0.18709 -0.0429,0.0643 -0.07216,0.0481 -0.140317,0.0935 -0.01835,0.0122 -0.03118,0.0312 -0.04677,0.0468 -0.06236,0.0624 -0.124726,0.12473 -0.187088,0.18709 -0.01559,0.0156 -0.02843,0.0345 -0.04677,0.0468 -0.05801,0.0387 -0.129074,0.0549 -0.187088,0.0935 -0.107453,0.0716 0.02005,0.0267 -0.09355,0.14031 -0.01103,0.011 -0.0338,-0.009 -0.04677,0 -0.03669,0.0245 -0.05827,0.0671 -0.09354,0.0935 -0.126203,0.0947 -0.07665,-8e-4 -0.233861,0.0935 -0.03781,0.0227 -0.0541,0.0738 -0.09354,0.0935 -0.0575,0.0288 -0.126105,0.0265 -0.187089,0.0468 -0.06615,0.022 -0.119447,0.0766 -0.187089,0.0935 -0.03025,0.008 -0.06565,-0.0139 -0.09354,0 -0.03944,0.0197 -0.05573,0.0709 -0.09354,0.0935 -0.282325,0.16939 -0.01991,-0.0246 -0.233861,0.0468 -0.02092,0.007 -0.02705,0.0369 -0.04677,0.0468 -0.01394,0.007 -0.03283,-0.007 -0.04677,0 -0.01972,0.01 -0.02585,0.0398 -0.04677,0.0468 -0.02958,0.01 -0.06236,0 -0.09354,0 -0.03118,0.0156 -0.06118,0.0338 -0.09354,0.0468 -0.04578,0.0183 -0.09454,0.0285 -0.140317,0.0468 -0.03237,0.0129 -0.05972,0.0383 -0.09354,0.0468 -0.03025,0.008 -0.06297,-0.006 -0.09355,0 -0.04834,0.01 -0.09354,0.0312 -0.140316,0.0468 -0.04677,0.0156 -0.09354,0.0312 -0.140316,0.0468 -0.04677,0.0156 -0.09169,0.0387 -0.140317,0.0468 -0.04614,0.008 -0.09354,0 -0.140316,0 -0.140317,0 -0.280633,0 -0.42095,0 -0.0555,0 -0.328784,0.009 -0.374177,0 -0.06837,-0.0137 -0.119447,-0.0766 -0.187089,-0.0935 -0.03025,-0.008 -0.06329,0.008 -0.09354,0 -0.03382,-0.008 -0.06118,-0.0338 -0.09355,-0.0468 -0.04578,-0.0183 -0.09454,-0.0285 -0.140316,-0.0468 -0.03237,-0.0129 -0.05972,-0.0383 -0.09354,-0.0468 -0.03025,-0.008 -0.06565,0.014 -0.09355,0 -0.03944,-0.0197 -0.05573,-0.0709 -0.09354,-0.0935 -0.04228,-0.0254 -0.09804,-0.0214 -0.140317,-0.0468 -0.03781,-0.0227 -0.05827,-0.0671 -0.09354,-0.0935 -0.02789,-0.0209 -0.06889,-0.0221 -0.09354,-0.0468 -0.03975,-0.0398 -0.04965,-0.1052 -0.09354,-0.14032 -0.0385,-0.0308 -0.09804,-0.0214 -0.140316,-0.0468 -0.03781,-0.0227 -0.06236,-0.0624 -0.09354,-0.0935 -0.04677,-0.0468 -0.0895,-0.098 -0.140317,-0.14032 -0.04318,-0.036 -0.100568,-0.0538 -0.140317,-0.0935 -0.03975,-0.0398 -0.06462,-0.0921 -0.09354,-0.14032 -0.01794,-0.0299 -0.02212,-0.0689 -0.04677,-0.0935 -0.03975,-0.0398 -0.09642,-0.0584 -0.140317,-0.0935 -0.231426,-0.18514 0.05601,0.009 -0.187088,-0.23386 -0.03975,-0.0398 -0.1052,-0.0497 -0.140317,-0.0935 -0.0308,-0.0385 -0.02231,-0.0975 -0.04677,-0.14032 -0.228943,-0.40065 -0.04367,0.004 -0.280633,-0.3274 -0.04053,-0.0567 -0.05895,-0.12656 -0.09354,-0.18709 -0.02789,-0.0488 -0.06841,-0.09 -0.09354,-0.14032 -0.02205,-0.0441 -0.03118,-0.0935 -0.04677,-0.14032 -0.01559,-0.0468 -0.03118,-0.0935 -0.04677,-0.14031 -0.01559,-0.0468 -0.02846,-0.0945 -0.04677,-0.14032 -0.01295,-0.0324 -0.03832,-0.0597 -0.04677,-0.0935 -0.0106,-0.0424 0,-0.17953 0,-0.23386 0,-0.10914 0,-0.21827 0,-0.32741 0,-0.0312 -0.0061,-0.063 0,-0.0935 0.01934,-0.0967 0.06646,-0.18583 0.09354,-0.28064 0.01766,-0.0618 0.01488,-0.13127 0.04677,-0.18709 0.03282,-0.0574 0.10526,-0.0842 0.140317,-0.14031 0.0445,-0.0712 0.056,-0.15877 0.09354,-0.23386 0.02514,-0.0503 0.06375,-0.0926 0.09355,-0.14032 0.04818,-0.0771 0.08577,-0.16113 0.140316,-0.23386 0.03969,-0.0529 0.10187,-0.0865 0.140317,-0.14032 0.04053,-0.0567 0.05302,-0.13035 0.09354,-0.18709 0.03845,-0.0538 0.10187,-0.0865 0.140316,-0.14031 0.04053,-0.0567 0.04891,-0.13353 0.09354,-0.18709 0.03599,-0.0432 0.100568,-0.0538 0.140316,-0.0935 0.03975,-0.0397 0.05756,-0.0971 0.09354,-0.14031 0.04235,-0.0508 0.09797,-0.0895 0.140317,-0.14032 0.03599,-0.0432 0.05756,-0.0971 0.09354,-0.14031 0.04235,-0.0508 0.09797,-0.0895 0.140317,-0.14032 0.03599,-0.0432 0.05696,-0.0976 0.09354,-0.14032 0.100444,-0.11718 0.21827,-0.21827 0.327405,-0.3274 0.06236,-0.0624 0.118221,-0.132 0.187089,-0.18709 0.648028,-0.51842 -0.05963,0.12818 0.514494,-0.37418 0.04978,-0.0436 0.09354,-0.0935 0.140316,-0.14032 0.06236,-0.0468 0.127902,-0.0896 0.187089,-0.14031 0.05022,-0.043 0.08649,-0.10187 0.140317,-0.14032 0.05674,-0.0405 0.130352,-0.053 0.187088,-0.0935 0.05383,-0.0385 0.08649,-0.10187 0.140317,-0.14032 0.05674,-0.0405 0.126139,-0.0597 0.187088,-0.0935 0.07947,-0.0442 0.158221,-0.0899 0.233861,-0.14032 0.129723,-0.0865 0.241969,-0.198 0.374177,-0.28063 0.05913,-0.037 0.12614,-0.0597 0.187089,-0.0935 0.07947,-0.0442 0.151101,-0.1027 0.233861,-0.14031 0.08977,-0.0408 0.187089,-0.0624 0.280633,-0.0935 0.09354,-0.0312 0.185503,-0.0676 0.280633,-0.0935 0.0767,-0.0209 0.156737,-0.0275 0.233861,-0.0468 0.04783,-0.012 0.09168,-0.0387 0.140317,-0.0468 0.04613,-0.008 0.09354,0 0.140316,0 0.124726,0 0.249452,0 0.374177,0 0.124726,0 0.249452,0 0.374178,0 0.02106,0 0.126082,-0.007 0.140316,0 0.01972,0.01 0.03118,0.0312 0.04677,0.0468 0.03118,0 0.06459,-0.0116 0.09354,0 0.05219,0.0209 0.08812,0.0727 0.140316,0.0935 0.02895,0.0116 0.06565,-0.0139 0.09354,0 0.03944,0.0197 0.05827,0.0671 0.09354,0.0935 0.02789,0.0209 0.06365,0.0288 0.09354,0.0468 0.0482,0.0289 0.09211,0.0646 0.140316,0.0935 0.02989,0.0179 0.06632,0.025 0.09354,0.0468 0.08556,0.0684 0.148302,0.16542 0.233861,0.23386 0.04389,0.0351 0.100568,0.0538 0.140316,0.0935 0.02465,0.0247 0.02212,0.0689 0.04677,0.0935 0.02465,0.0247 0.06365,0.0288 0.09355,0.0468 0.0482,0.0289 0.09642,0.0584 0.140316,0.0935 0.12548,0.10038 0.07904,0.0988 0.187089,0.23386 0.05097,0.0637 0.232636,0.23264 0.280633,0.28063 0.03118,0.0312 0.06236,0.0624 0.09354,0.0935 0.01559,0.0156 0.03691,0.027 0.04677,0.0468 0.02205,0.0441 0.02141,0.098 0.04677,0.14032 0.02269,0.0378 0.06709,0.0583 0.09354,0.0935 0.0253,0.0337 0.122732,0.23667 0.140316,0.28063 0.01831,0.0458 0.02472,0.0962 0.04677,0.14032 0.02514,0.0503 0.07577,0.087 0.09355,0.14032 0.01479,0.0444 -0.01737,0.0969 0,0.14031 0.01638,0.041 0.07086,0.0557 0.09354,0.0935 0.02537,0.0423 0.02472,0.0962 0.04677,0.14031 0.01574,0.0315 0.128649,0.17553 0.140317,0.23386 0.0092,0.0459 -0.0092,0.0945 0,0.14032 0.0068,0.0342 0.03383,0.0612 0.04677,0.0935 0.01831,0.0458 0.03118,0.0935 0.04677,0.14032 0.01559,0.0468 0.0371,0.092 0.04677,0.14032 0.01529,0.0764 -0.01282,0.15697 0,0.23386 0.0081,0.0486 0.03323,0.0929 0.04677,0.14032 0.01766,0.0618 0.02911,0.12528 0.04677,0.18708 0.01354,0.0474 0.0371,0.092 0.04677,0.14032 0.0061,0.0306 -0.0061,0.063 0,0.0935 0.0097,0.0484 0.03867,0.0917 0.04677,0.14032 0.0077,0.0461 0,0.0935 0,0.14032 0,0.10913 0,0.21827 0,0.3274 0,0.0468 -0.0092,0.0945 0,0.14032 0.0068,0.0342 0.03994,0.0594 0.04677,0.0935 0.0092,0.0459 -0.0077,0.0942 0,0.14032 0.0081,0.0486 0.03867,0.0917 0.04677,0.14032 0.0077,0.0461 -0.0077,0.0942 0,0.14031 0.0081,0.0486 0.03867,0.0917 0.04677,0.14032 0.0077,0.0461 0,0.0935 0,0.14032 0,0.17149 0,0.34299 0,0.51449 0,0.0624 -0.0077,0.12521 0,0.18709 0.0725,0.58001 0.01588,-0.13857 0.09354,0.3274 0.0077,0.0461 -0.0077,0.0942 0,0.14032 0.0081,0.0486 0.03867,0.0917 0.04677,0.14032 0.0077,0.0461 0,0.0935 0,0.14031 0,0.14032 0,0.28064 0,0.42095 0,0.10914 0,0.21827 0,0.32741 0,0.0468 0.0077,0.0942 0,0.14031 -0.01621,0.0973 -0.08131,0.18279 -0.09354,0.28064 -0.0097,0.0774 0.02465,0.15991 0,0.23386 -0.02465,0.074 -0.102459,0.11894 -0.140317,0.18709 -0.04077,0.0734 -0.056,0.15876 -0.09354,0.23386 -0.02514,0.0503 -0.0714,0.0887 -0.09354,0.14031 -0.02532,0.0591 -0.01802,0.1296 -0.04677,0.18709 -0.01972,0.0394 -0.06709,0.0583 -0.09354,0.0935 -0.04183,0.0558 -0.05171,0.13131 -0.09354,0.18709 -0.02646,0.0353 -0.07086,0.0557 -0.09354,0.0935 -0.02537,0.0423 -0.02472,0.0962 -0.04677,0.14032 -0.02514,0.0503 -0.06462,0.0921 -0.09354,0.14031 -0.01794,0.0299 -0.025,0.0663 -0.04677,0.0935 -0.04132,0.0516 -0.10187,0.0865 -0.140317,0.14031 -0.04053,0.0567 -0.05302,0.13036 -0.09354,0.18709 -0.03845,0.0538 -0.10187,0.0865 -0.140317,0.14032 -0.04053,0.0567 -0.05302,0.13035 -0.09354,0.18709 -0.03845,0.0538 -0.09727,0.0901 -0.140316,0.14031 -0.05073,0.0592 -0.08958,0.12791 -0.140317,0.18709 -0.04305,0.0502 -0.09354,0.0935 -0.140316,0.14032 -0.04677,0.0468 -0.0895,0.098 -0.140317,0.14032 -0.04318,0.036 -0.09642,0.0584 -0.140316,0.0935 -0.202304,0.2023 0.01239,0.007 -0.187089,0.14032 -0.01835,0.0122 -0.02705,0.0369 -0.04677,0.0468 -0.0294,0.0147 -0.157692,-0.0147 -0.187089,0 -0.01972,0.01 -0.03118,0.0312 -0.04677,0.0468 -0.04677,0 -0.09445,-0.009 -0.140316,0 -0.06837,0.0137 -0.119447,0.0766 -0.187089,0.0935 -0.03025,0.008 -0.06329,-0.008 -0.09354,0 -0.03382,0.008 -0.05936,0.0399 -0.09354,0.0468 -0.04586,0.009 -0.09354,0 -0.140316,0 -0.04677,0 -0.09354,0 -0.140317,0 -0.171498,0 -0.342996,0 -0.514494,0 -0.06236,0 -0.125574,-0.0102 -0.187089,0 -0.09726,0.0162 -0.185822,0.0664 -0.280633,0.0935 -0.147803,0.0422 -0.317368,0.0768 -0.467721,0.0935 -0.04649,0.005 -0.09418,-0.008 -0.140317,0 -0.04863,0.008 -0.09197,0.0371 -0.140316,0.0468 -0.04586,0.009 -0.09354,0 -0.140317,0"
       id="path5696"
       inkscape:connector-curvature="0" />
  </g>
</svg>
