<?xml version="1.0" encoding="UTF-8" standalone="no"?>
<!-- Created with Inkscape (http://www.inkscape.org/) -->

<svg
   xmlns:dc="http://purl.org/dc/elements/1.1/"
   xmlns:cc="http://creativecommons.org/ns#"
   xmlns:rdf="http://www.w3.org/1999/02/22-rdf-syntax-ns#"
   xmlns:svg="http://www.w3.org/2000/svg"
   xmlns="http://www.w3.org/2000/svg"
   xmlns:sodipodi="http://sodipodi.sourceforge.net/DTD/sodipodi-0.dtd"
   xmlns:inkscape="http://www.inkscape.org/namespaces/inkscape"
   width="128"
   height="128"
   viewBox="0 0 33.866664 33.866668"
   version="1.1"
   id="svg8"
   inkscape:version="0.92.2 (5c3e80d, 2017-08-06)"
   sodipodi:docname="social_icon_5.svg"
   inkscape:export-filename="C:\Users\Me\Documents\GitHub\ServeTheGods\Assets\Images\SocialMedia\social_icon_4.png"
   inkscape:export-xdpi="96"
   inkscape:export-ydpi="96">
  <defs
     id="defs2" />
  <sodipodi:namedview
     id="base"
     pagecolor="#ffffff"
     bordercolor="#666666"
     borderopacity="1.0"
     inkscape:pageopacity="0.0"
     inkscape:pageshadow="2"
     inkscape:zoom="5.6568542"
     inkscape:cx="67.937684"
     inkscape:cy="47.657412"
     inkscape:document-units="mm"
     inkscape:current-layer="layer1"
     showgrid="true"
     units="px"
     inkscape:snap-bbox="true"
     inkscape:bbox-paths="false"
     inkscape:bbox-nodes="true"
     inkscape:window-width="1920"
     inkscape:window-height="1017"
     inkscape:window-x="-8"
     inkscape:window-y="-8"
     inkscape:window-maximized="1"
     inkscape:snap-global="false">
    <inkscape:grid
       type="xygrid"
       id="grid4504"
       spacingx="4.2333333"
       spacingy="4.2333333"
       empspacing="4" />
  </sodipodi:namedview>
  <metadata
     id="metadata5">
    <rdf:RDF>
      <cc:Work
         rdf:about="">
        <dc:format>image/svg+xml</dc:format>
        <dc:type
           rdf:resource="http://purl.org/dc/dcmitype/StillImage" />
        <dc:title></dc:title>
      </cc:Work>
    </rdf:RDF>
  </metadata>
  <g
     inkscape:label="Layer 1"
     inkscape:groupmode="layer"
     id="layer1"
     transform="translate(0,-263.13332)">
    <rect
       style="fill:#8678ee;fill-opacity:1;stroke:none;stroke-width:5.29166651;stroke-linecap:butt;stroke-linejoin:round;stroke-miterlimit:4;stroke-dasharray:15.8749998, 5.2916666;stroke-dashoffset:0;stroke-opacity:0.74874369"
       id="rect4506"
       width="127"
       height="84.666672"
       x="4.2333331"
       y="165.76665"
       ry="8.4666739" />
    <rect
       ry="4.233335"
       y="191.16666"
       x="8.4666662"
       height="55.033329"
       width="118.53333"
       id="rect4508"
       style="fill:#f3f3f3;fill-opacity:1;stroke:none;stroke-width:5.29166651;stroke-linecap:butt;stroke-linejoin:round;stroke-miterlimit:4;stroke-dasharray:15.8749998, 5.2916666;stroke-dashoffset:0;stroke-opacity:0.74874369" />
    <rect
       style="fill:#f3f3f3;fill-opacity:1;stroke:none;stroke-width:5.29166651;stroke-linecap:butt;stroke-linejoin:round;stroke-miterlimit:4;stroke-dasharray:15.8749998, 5.2916666;stroke-dashoffset:0;stroke-opacity:0.74874369"
       id="rect4510"
       width="80.433334"
       height="12.700003"
       x="29.633333"
       y="169.99998"
       ry="4.1199408" />
    <path
       style="fill:#ffffff;stroke:none;stroke-width:0.26458332px;stroke-linecap:butt;stroke-linejoin:miter;stroke-opacity:1;fill-opacity:1"
       d="m 13.283295,284.32473 c -0.03118,-0.0935 -0.07215,-0.18438 -0.09354,-0.28063 -0.01015,-0.0457 0,-0.0935 0,-0.14032 0,-0.0624 0,-0.12473 0,-0.18709 0,-0.23386 0,-0.46772 0,-0.70158 0,-0.21827 0,-0.43654 0,-0.65481 0,-0.0468 0,-0.0935 0,-0.14032 0,-0.0468 -0.0092,-0.0944 0,-0.14031 0.0068,-0.0342 0.03993,-0.0594 0.04677,-0.0935 0.01529,-0.0764 0,-0.15591 0,-0.23386 0,-0.0312 -0.0076,-0.0633 0,-0.0935 0.0085,-0.0338 0.03575,-0.0605 0.04677,-0.0935 0.0099,-0.0296 -0.02205,-0.0715 0,-0.0935 0.01103,-0.011 0.0398,0.0139 0.04677,0 0.01395,-0.0279 0,-0.0624 0,-0.0935 0,-0.0401 -0.0091,-0.25327 0,-0.28063 0.007,-0.0209 0.03118,-0.0312 0.04677,-0.0468 0.01559,-0.0312 0.03832,-0.0597 0.04677,-0.0935 0.0076,-0.0303 0,-0.0624 0,-0.0935 0,-0.0468 0,-0.0935 0,-0.14032 0,-0.0156 -0.0049,-0.032 0,-0.0468 0.01103,-0.0331 0.03575,-0.0605 0.04677,-0.0935 0.0049,-0.0148 0,-0.0312 0,-0.0468 0,-0.0312 -0.0099,-0.064 0,-0.0935 0.007,-0.0209 0.0398,-0.0259 0.04677,-0.0468 0.0099,-0.0296 0,-0.0624 0,-0.0935 0,-0.0624 0,-0.12472 0,-0.18709 0,-0.0312 -0.0061,-0.063 0,-0.0935 0.0097,-0.0483 0.0371,-0.092 0.04677,-0.14032 0.0061,-0.0306 0,-0.0624 0,-0.0935 0,-0.0935 0,-0.18709 0,-0.28063 0,-0.21827 0,-0.43654 0,-0.65481 0,-0.0482 -0.0069,-0.3136 0,-0.32741 0.0099,-0.0197 0.03691,-0.0271 0.04677,-0.0468 0.007,-0.0139 -0.007,-0.0328 0,-0.0468 0.0099,-0.0197 0.03691,-0.0271 0.04677,-0.0468 0.01395,-0.0279 -0.02205,-0.0715 0,-0.0935 0.01103,-0.011 0.03575,0.011 0.04677,0 0.07801,-0.078 -0.07801,-0.0155 0,-0.0935 0.01103,-0.011 0.03575,0.011 0.04677,0 0.01103,-0.011 -0.01102,-0.0358 0,-0.0468 0.01103,-0.011 0.03575,0.011 0.04677,0 0.02465,-0.0247 0.02744,-0.0645 0.04677,-0.0935 0.02691,-0.0404 0.103784,-0.10378 0.140317,-0.14032 0.01559,-0.0156 0.03118,-0.0312 0.04677,-0.0468 0.01559,-0.0156 0.02705,-0.0369 0.04677,-0.0468 0.01395,-0.007 0.03198,0.005 0.04677,0 0.06615,-0.022 0.122352,-0.0677 0.187089,-0.0935 0.06648,-0.0266 0.268271,-0.0876 0.327405,-0.0935 0.09308,-0.009 0.187473,0.008 0.280633,0 0.04941,-0.004 0.44862,-0.0876 0.514494,-0.0935 0.07763,-0.007 0.156509,0.01 0.233861,0 0.04892,-0.006 0.09169,-0.0387 0.140316,-0.0468 0.07689,-0.0128 0.155908,0 0.233861,0 0.03118,0 0.06329,0.008 0.09354,0 0.03382,-0.008 0.05972,-0.0383 0.09354,-0.0468 0.03025,-0.008 0.06236,0 0.09354,0 0.03118,0 0.06236,0 0.09355,0 0.171497,0 0.342996,0 0.514493,0 0.140317,0 0.280633,0 0.42095,0 0.06236,0 0.125574,-0.0103 0.187089,0 0.04863,0.008 0.09168,0.0387 0.140316,0.0468 0.04614,0.008 0.09445,-0.009 0.140317,0 0.03419,0.007 0.06236,0.0312 0.09354,0.0468 0.03118,0.0156 0.06454,0.0274 0.09354,0.0468 0.01835,0.0122 0.02585,0.0398 0.04677,0.0468 0.02958,0.01 0.06396,-0.01 0.09354,0 0.04183,0.014 0.0541,0.0738 0.09354,0.0935 0.01395,0.007 0.03575,-0.011 0.04677,0 0.01103,0.011 -0.01395,0.0398 0,0.0468 0.02789,0.0139 0.06236,0 0.09354,0 0.04677,0 0.09445,-0.009 0.140317,0 0.03418,0.007 0.06236,0.0312 0.09354,0.0468 0.06236,0.0312 0.120943,0.0715 0.187089,0.0935 0.0182,0.006 0.133058,-0.007 0.140317,0 0.01103,0.011 -0.0086,0.0338 0,0.0468 0.168215,0.25233 0.01456,-0.0322 0.187088,0.14032 0.02465,0.0246 0.02884,0.0636 0.04677,0.0935 0.02892,0.0482 0.05843,0.0964 0.09355,0.14031 0.03118,0.0312 0.06236,0.0624 0.09354,0.0935 0.03118,0.0156 0.06889,0.0221 0.09354,0.0468 0.02465,0.0247 0.01776,0.0742 0.04677,0.0935 0.02595,0.0173 0.06565,-0.0139 0.09354,0 0.01395,0.007 -0.007,0.0328 0,0.0468 0.0099,0.0197 0.02705,0.0369 0.04677,0.0468 0.124726,0 -0.01559,-0.0156 0.04677,0.0468 0.01103,0.011 0.03575,-0.011 0.04677,0 0.01103,0.011 -0.01103,0.0358 0,0.0468 0.01103,0.011 0.03575,-0.011 0.04677,0 0.01103,0.011 -0.007,0.0328 0,0.0468 0.02806,0.0561 0.112254,0.0842 0.140317,0.14032 0.0576,0.1152 -0.135767,-0.0422 0.04677,0.14032 0.01103,0.011 0.03575,-0.011 0.04677,0 0.01103,0.011 -0.01103,0.0357 0,0.0468 0.01103,0.011 0.03575,-0.011 0.04677,0 0.01103,0.011 -0.007,0.0328 0,0.0468 0.0099,0.0197 0.03691,0.027 0.04677,0.0468 0.007,0.0139 -0.01103,0.0358 0,0.0468 0.01103,0.011 0.03575,-0.011 0.04677,0 4.5e-5,5e-5 -7.1e-5,0.14011 0,0.14032 0.007,0.0209 0.03118,0.0312 0.04677,0.0468 0.01559,0.0312 0.03832,0.0597 0.04677,0.0935 0.0076,0.0303 -0.0076,0.0633 0,0.0935 0.01691,0.0676 0.07663,0.11945 0.09354,0.18709 0.0076,0.0302 -0.0099,0.064 0,0.0935 0.04866,0.14599 0.03118,-0.0156 0.09354,0.0468 0.0096,0.01 -0.0093,0.12177 0,0.14031 0.0099,0.0197 0.0398,0.0259 0.04677,0.0468 0.01936,0.0581 -0.01537,0.17236 0,0.23386 0.0085,0.0338 0.03575,0.0605 0.04677,0.0935 0.0049,0.0148 -0.007,0.0328 0,0.0468 0.0099,0.0197 0.03691,0.027 0.04677,0.0468 0.007,0.0139 0,0.0312 0,0.0468 0,0.0156 0,0.0312 0,0.0468 0,0.078 0,0.15591 0,0.23386 0,0.23386 0,0.46772 0,0.70158 0,0.29623 0,0.59245 0,0.88867 0,0.0172 0.0019,0.18521 0,0.18709 -0.01103,0.011 -0.03575,-0.011 -0.04677,0 -0.01103,0.011 0,0.0312 0,0.0468 0,0.0935 0,0.18708 0,0.28063 0,0.0156 0,0.0312 0,0.0468 0,0.0156 0.01103,0.0358 0,0.0468 -0.01103,0.011 -0.03575,-0.011 -0.04677,0 -0.0021,0.002 0,0.21181 0,0.23386 0,0.12473 0,0.24946 0,0.37418 0,0.0245 -0.0061,0.17479 0,0.18709 0.0099,0.0197 0.03691,0.0271 0.04677,0.0468 0.0147,0.0294 -0.0147,0.15769 0,0.18709 0.0099,0.0197 0.03691,0.0271 0.04677,0.0468 0.0138,0.0276 -0.01072,0.10815 0,0.14032 0.01103,0.0331 0.03575,0.0605 0.04677,0.0935 0.0088,0.0264 0,0.10959 0,0.14032 0,0.078 0,0.15591 0,0.23386 0,0.0156 0,0.0312 0,0.0468 0,0.0156 0.01103,0.0358 0,0.0468 -0.01103,0.011 -0.03575,-0.011 -0.04677,0 -0.01103,0.011 0,0.0312 0,0.0468 0,0.0156 0.01103,0.0358 0,0.0468 -0.01103,0.011 -0.0398,-0.0139 -0.04677,0 -0.01394,0.0279 0.01395,0.0657 0,0.0935 -0.01972,0.0394 -0.06236,0.0624 -0.09354,0.0935 -0.01559,0.0156 -0.0398,0.0258 -0.04677,0.0468 -0.0099,0.0296 0.01394,0.0657 0,0.0935 -0.007,0.014 -0.03575,-0.011 -0.04677,0 -0.01103,0.011 0,0.0312 0,0.0468 -0.01559,0 -0.03283,-0.007 -0.04677,0 -0.194654,0.0973 0.05,-0.003 -0.04677,0.0935 -0.01103,0.011 -0.03575,-0.011 -0.04677,0 -0.01103,0.011 0.01103,0.0357 0,0.0468 -0.01103,0.011 -0.03575,-0.011 -0.04677,0 -0.01103,0.011 0.01394,0.0398 0,0.0468 -0.276605,0.1383 0.100036,-0.16858 -0.187089,0.0468 -0.03528,0.0265 -0.0541,0.0738 -0.09354,0.0935 -0.02789,0.0139 -0.06329,-0.008 -0.09354,0 -0.03382,0.008 -0.06236,0.0312 -0.09354,0.0468 -0.03118,0.0156 -0.06454,0.0274 -0.09354,0.0468 -0.01835,0.0122 -0.02705,0.0369 -0.04677,0.0468 -0.01394,0.007 -0.03575,-0.011 -0.04677,0 -0.01103,0.011 0.01103,0.0358 0,0.0468 -0.01103,0.011 -0.03283,-0.007 -0.04677,0 -0.01972,0.01 -0.02705,0.0369 -0.04677,0.0468 -0.01395,0.007 -0.03198,-0.005 -0.04677,0 -0.03307,0.011 -0.06118,0.0338 -0.09354,0.0468 -0.04578,0.0183 -0.09622,0.0247 -0.140317,0.0468 -0.174189,0.0871 -0.125471,0.10456 -0.280633,0.23386 -0.04318,0.036 -0.09535,0.0598 -0.140316,0.0935 -0.03528,0.0265 -0.0541,0.0738 -0.09355,0.0935 -0.02558,0.0128 -0.108486,-0.008 -0.140316,0 -0.04783,0.012 -0.09454,0.0285 -0.140317,0.0468 -0.03237,0.0129 -0.05972,0.0383 -0.09354,0.0468 -0.04845,0.0121 -0.133457,0 -0.187088,0 -0.05363,0 -0.138638,0.0121 -0.187089,0 -0.03382,-0.008 -0.06236,-0.0312 -0.09354,-0.0468 -0.06236,-0.0156 -0.123681,-0.0362 -0.187088,-0.0468 -0.155907,-0.026 -0.03898,0.039 -0.233861,0 -0.03419,-0.007 -0.05972,-0.0383 -0.09354,-0.0468 -0.03025,-0.008 -0.06236,0 -0.09354,0 -0.07795,0 -0.155907,0 -0.233861,0 -0.01559,0 -0.03283,0.007 -0.04677,0 -0.01972,-0.01 -0.02705,-0.0369 -0.04677,-0.0468 -0.01394,-0.007 -0.03198,0.005 -0.04677,0 -0.03307,-0.011 -0.06047,-0.0358 -0.09355,-0.0468 -0.01479,-0.005 -0.03283,0.007 -0.04677,0 -0.01972,-0.01 -0.02585,-0.0398 -0.04677,-0.0468 -0.02958,-0.01 -0.06396,0.01 -0.09354,0 -0.02092,-0.007 -0.02705,-0.0369 -0.04677,-0.0468 -0.01395,-0.007 -0.03283,0.007 -0.04677,0 -0.03944,-0.0197 -0.05171,-0.0796 -0.09355,-0.0935 -0.02958,-0.01 -0.06396,0.01 -0.09354,0 -0.04184,-0.0139 -0.05171,-0.0796 -0.09354,-0.0935 -0.05658,-0.0189 -0.216923,0.0159 -0.280633,0 -0.03382,-0.008 -0.06118,-0.0338 -0.09355,-0.0468 -0.04578,-0.0183 -0.09249,-0.0348 -0.140316,-0.0468 -0.03025,-0.008 -0.06566,0.0139 -0.09355,0 -0.01972,-0.01 -0.02705,-0.0369 -0.04677,-0.0468 -0.01394,-0.007 -0.03283,0.007 -0.04677,0 -0.01972,-0.01 -0.02705,-0.0369 -0.04677,-0.0468 -0.02789,-0.014 -0.06396,0.01 -0.09354,0 -0.06615,-0.022 -0.118718,-0.0799 -0.187088,-0.0935 -0.04586,-0.009 -0.09445,0.009 -0.140317,0 -0.121116,-0.0242 -0.06393,-0.0426 -0.140316,-0.0935 -0.02901,-0.0193 -0.06454,-0.0274 -0.09354,-0.0468 -0.03669,-0.0245 -0.0541,-0.0738 -0.09355,-0.0935 -0.01394,-0.007 -0.03283,0.007 -0.04677,0 -0.07545,-0.0377 -0.0181,-0.0558 -0.09354,-0.0935 -0.01394,-0.007 -0.03283,0.007 -0.04677,0 -0.05028,-0.0251 -0.09211,-0.0646 -0.140317,-0.0935 -0.05979,-0.0359 -0.129075,-0.0549 -0.187089,-0.0935 -0.01835,-0.0122 -0.02705,-0.0369 -0.04677,-0.0468 -0.01394,-0.007 -0.03283,0.007 -0.04677,0 -0.01972,-0.01 -0.02705,-0.0369 -0.04677,-0.0468 -0.01394,-0.007 -0.03575,0.011 -0.04677,0 -0.02205,-0.0221 0.02205,-0.0715 0,-0.0935 -0.01103,-0.011 -0.03118,0 -0.04677,0 0,-0.0156 0.01103,-0.0358 0,-0.0468 -0.01103,-0.011 -0.03575,0.011 -0.04677,0 -0.01103,-0.011 0.01103,-0.0358 0,-0.0468 -0.09677,-0.0968 0.0038,0.14788 -0.09354,-0.0468 -0.007,-0.014 0.01103,-0.0358 0,-0.0468 -0.01102,-0.011 -0.03283,0.007 -0.04677,0 -0.03944,-0.0197 -0.0541,-0.0738 -0.09355,-0.0935 -0.01394,-0.007 -0.03575,0.011 -0.04677,0 -0.01103,-0.011 0.007,-0.0328 0,-0.0468 -0.01972,-0.0394 -0.07382,-0.0541 -0.09354,-0.0935 -0.007,-0.0139 0.01103,-0.0358 0,-0.0468 -0.02205,-0.022 -0.06565,0.0139 -0.09354,0 -0.07905,-0.0395 -0.07984,-0.17903 -0.09354,-0.23386 z"
       id="path5660"
       inkscape:connector-curvature="0" />
    <path
       style="fill:#a4a4a4;stroke:none;stroke-width:0.26458332px;stroke-linecap:butt;stroke-linejoin:miter;stroke-opacity:1;fill-opacity:1"
       d="m 13.938106,279.92815 c -0.0051,-0.0221 -0.328273,0.0153 -0.374178,0 -0.03307,-0.011 -0.05972,-0.0383 -0.09354,-0.0468 -0.214058,-0.0535 0.04863,0.0945 -0.233861,-0.0468 -0.01972,-0.01 -0.02585,-0.0398 -0.04677,-0.0468 -0.02958,-0.01 -0.06329,0.008 -0.09354,0 -0.03382,-0.008 -0.06236,-0.0312 -0.09354,-0.0468 -0.08315,-0.0416 -0.137533,-0.0743 -0.23386,-0.0935 -0.03058,-0.006 -0.06329,0.008 -0.09355,0 -0.03382,-0.008 -0.06118,-0.0338 -0.09354,-0.0468 -0.04578,-0.0183 -0.09354,-0.0312 -0.140317,-0.0468 -0.04677,-0.0156 -0.09197,-0.0371 -0.140316,-0.0468 -0.127315,-0.0255 -0.08852,0.0501 -0.233861,-0.0468 -0.01297,-0.009 0.01103,-0.0357 0,-0.0468 -0.01103,-0.011 -0.03283,0.007 -0.04677,0 -0.01972,-0.01 -0.03118,-0.0312 -0.04677,-0.0468 -0.01559,-0.0156 -0.03118,-0.0312 -0.04677,-0.0468 -0.08664,-0.0866 -0.111798,-0.0913 -0.140316,-0.23386 -0.0061,-0.0306 0.0061,-0.063 0,-0.0935 -0.01934,-0.0967 -0.06646,-0.18582 -0.09354,-0.28063 -0.158971,-0.5564 0.02661,0.11289 -0.04677,-0.32741 -0.0081,-0.0486 -0.03118,-0.0935 -0.04677,-0.14031 -0.01559,-0.0624 -0.03768,-0.12346 -0.04677,-0.18709 -0.0066,-0.0463 0,-0.0935 0,-0.14032 0,-0.0624 0,-0.12472 0,-0.18709 0,-0.0468 0.0077,-0.0942 0,-0.14031 -0.0081,-0.0486 -0.03867,-0.0917 -0.04677,-0.14032 -0.0077,-0.0461 0.0077,-0.0942 0,-0.14032 -0.0081,-0.0486 -0.03867,-0.0917 -0.04677,-0.14031 -0.0077,-0.0461 0,-0.0935 0,-0.14032 0,-0.0935 0,-0.18709 0,-0.28063 0,-0.0317 -0.0071,-0.3061 0,-0.32741 0.007,-0.0209 0.0398,-0.0258 0.04677,-0.0468 0.0099,-0.0296 -0.0076,-0.0633 0,-0.0935 0.0085,-0.0338 0.03832,-0.0597 0.04677,-0.0935 0.0076,-0.0303 -0.0076,-0.0633 0,-0.0935 0.0136,-0.0544 0.121455,-0.20871 0.140317,-0.23386 0.01323,-0.0176 0.03454,-0.0284 0.04677,-0.0468 0.01934,-0.029 0.03118,-0.0624 0.04677,-0.0935 0.03118,-0.0312 0.06709,-0.0583 0.09354,-0.0935 0.100583,-0.0377 0.01112,-0.13361 0.04677,-0.18709 0.01934,-0.029 0.07421,-0.0178 0.09355,-0.0468 0.0173,-0.026 -0.01394,-0.0657 0,-0.0935 0.007,-0.0139 0.03283,0.007 0.04677,0 0.194655,-0.0973 -0.05,0.003 0.04677,-0.0935 0.01103,-0.011 0.03283,0.007 0.04677,0 0.01972,-0.01 0.02585,-0.0398 0.04677,-0.0468 0.02958,-0.01 0.06297,0.006 0.09354,0 0.04834,-0.01 0.09132,-0.0413 0.140316,-0.0468 0.09297,-0.0103 0.187553,0.009 0.280633,0 0.06396,-0.006 0.123303,-0.0388 0.187089,-0.0468 0.06188,-0.008 0.124726,0 0.187089,0 0.124725,0 0.249451,0 0.374177,0 0.02499,0 0.220475,-0.007 0.233861,0 0.01972,0.01 0.02705,0.0369 0.04677,0.0468 0.02789,0.0139 0.0715,-0.0221 0.09354,0 0.0015,0.002 0,0.12898 0,0.14032 0,0.0156 0.01103,0.0358 0,0.0468 -0.01103,0.011 -0.03575,-0.011 -0.04677,0 -0.01103,0.011 0.007,0.0328 0,0.0468 -0.0099,0.0197 -0.03691,0.027 -0.04677,0.0468 -0.007,0.0139 0.007,0.0328 0,0.0468 -0.02806,0.0561 -0.112253,0.0842 -0.140317,0.14031 -0.007,0.014 0.01103,0.0358 0,0.0468 -0.01103,0.011 -0.03575,-0.011 -0.04677,0 -0.01103,0.011 0.01103,0.0357 0,0.0468 -0.01103,0.011 -0.03575,-0.011 -0.04677,0 -0.01103,0.011 0.007,0.0328 0,0.0468 -0.01972,0.0394 -0.07382,0.0541 -0.09354,0.0935 -0.007,0.014 0,0.0312 0,0.0468 0,0.0312 0.0061,0.063 0,0.0935 -0.0097,0.0483 -0.03118,0.0935 -0.04677,0.14032 -0.01559,0.0468 -0.02846,0.0945 -0.04677,0.14031 -0.01295,0.0324 -0.03832,0.0597 -0.04677,0.0935 -0.01135,0.0454 0.01479,0.0959 0,0.14032 -0.01103,0.0331 -0.03575,0.0605 -0.04677,0.0935 -0.0049,0.0148 0,0.0312 0,0.0468 0,0.0312 0,0.0624 0,0.0935 0,0.0779 0,0.1559 0,0.23386 0,0.0486 -0.0092,0.24384 0,0.28063 0.02322,0.0929 0.117096,0.18775 0.140317,0.28063 0.03458,0.13831 -0.0526,0.0546 0.04677,0.18709 0.02646,0.0353 0.07086,0.0557 0.09354,0.0935 0.02537,0.0423 0.02141,0.098 0.04677,0.14031 -0.04002,0.217 0.100568,0.0538 0.140317,0.0935 0.09677,0.0968 -0.147883,-0.004 0.04677,0.0935 0.01394,0.007 0.03575,-0.011 0.04677,0 0.01103,0.011 -0.01103,0.0357 0,0.0468 0.01103,0.011 0.03283,-0.007 0.04677,0 0.05613,0.0281 0.08419,0.11226 0.140317,0.14032 0.0294,0.0147 0.157691,-0.0147 0.187089,0 0.01972,0.01 0.02705,0.0369 0.04677,0.0468 0.02789,0.0139 0.0715,-0.0221 0.09354,0 0.01103,0.011 -0.01103,0.0358 0,0.0468 0.01103,0.011 0.03118,0 0.04677,0 0.01559,0 0.03118,0 0.04677,0"
       id="path5656"
       inkscape:connector-curvature="0" />
    <path
       style="fill:#a4a4a4;stroke:none;stroke-width:0.26458332px;stroke-linecap:butt;stroke-linejoin:miter;stroke-opacity:1;fill-opacity:1"
       d="m 18.662095,278.38466 c 0.06236,-0.0156 0.123681,-0.0362 0.187088,-0.0468 0.03076,-0.005 0.06297,0.006 0.09354,0 0.15421,-0.0308 0.277924,-0.12988 0.420949,-0.18709 0.04578,-0.0183 0.09454,-0.0285 0.140317,-0.0468 0.03237,-0.013 0.06118,-0.0338 0.09354,-0.0468 0.09508,-0.038 0.151594,-0.0387 0.233861,-0.0935 0.02284,-0.0152 0.171861,-0.16424 0.187088,-0.18708 0.01934,-0.029 0.02744,-0.0645 0.04677,-0.0935 0.01223,-0.0183 0.03454,-0.0284 0.04677,-0.0468 0.01934,-0.029 0.01776,-0.0742 0.04677,-0.0935 0.02595,-0.0173 0.0686,0.0187 0.09354,0 0.04497,-0.0337 0.05843,-0.0964 0.09354,-0.14031 0.05509,-0.0689 0.134171,-0.11653 0.187088,-0.18709 0.04701,-0.0627 0.06659,-0.16648 0.09354,-0.23386 0.01295,-0.0324 0.02743,-0.0645 0.04677,-0.0935 0.01223,-0.0183 0.0398,-0.0258 0.04677,-0.0468 0.0099,-0.0296 -0.0099,-0.064 0,-0.0935 0.007,-0.0209 0.03691,-0.027 0.04677,-0.0468 0.007,-0.014 -0.007,-0.0328 0,-0.0468 0.0099,-0.0197 0.0398,-0.0258 0.04677,-0.0468 0.0071,-0.0213 0,-0.29573 0,-0.3274 0,-0.12473 0,-0.24946 0,-0.37418 0,-0.0245 0.0061,-0.17479 0,-0.18709 -0.0099,-0.0197 -0.03691,-0.0271 -0.04677,-0.0468 -0.02205,-0.0441 -0.02472,-0.0962 -0.04677,-0.14032 -0.0099,-0.0197 -0.03691,-0.0271 -0.04677,-0.0468 -0.01394,-0.0279 0.01395,-0.0657 0,-0.0935 -0.155124,-0.15513 0.02205,0.0441 -0.04677,-0.0935 -0.0099,-0.0197 -0.03691,-0.0271 -0.04677,-0.0468 -0.007,-0.0139 0.01103,-0.0358 0,-0.0468 -0.01103,-0.011 -0.03575,0.011 -0.04677,0 -0.01103,-0.011 0.01103,-0.0358 0,-0.0468 -0.02205,-0.022 -0.0715,0.0221 -0.09354,0 -0.01103,-0.011 0.01103,-0.0357 0,-0.0468 -0.01103,-0.011 -0.03118,0 -0.04677,0 -0.01559,0 -0.06236,0 -0.04677,0 0.21292,0 0.0027,0.022 0.140316,-0.0468 0.01394,-0.007 0.03283,0.007 0.04677,0 0.03944,-0.0197 0.0541,-0.0738 0.09354,-0.0935 0.01394,-0.007 0.03198,0.005 0.04677,0 0.03307,-0.011 0.05972,-0.0383 0.09354,-0.0468 0.03025,-0.008 0.06396,0.01 0.09354,0 0.02092,-0.007 0.02705,-0.0369 0.04677,-0.0468 0.007,-0.003 0.176818,-0.003 0.187088,0 0.03307,0.011 0.05972,0.0383 0.09355,0.0468 0.03025,0.008 0.06565,-0.0139 0.09354,0 0.01394,0.007 -0.01103,0.0358 0,0.0468 0.01103,0.011 0.03283,-0.007 0.04677,0 0.0249,0.0125 0.06864,0.0811 0.09354,0.0935 0.01394,0.007 0.03283,-0.007 0.04677,0 0.03944,0.0197 0.0541,0.0738 0.09355,0.0935 0.01394,0.007 0.03118,0 0.04677,0 0.01559,0.0156 0.02705,0.0369 0.04677,0.0468 0.01395,0.007 0.03575,-0.011 0.04677,0 0.02465,0.0247 0.02212,0.0689 0.04677,0.0935 0.02465,0.0246 0.06889,0.0221 0.09354,0.0468 0.02465,0.0247 0.02212,0.0689 0.04677,0.0935 0.02465,0.0247 0.06889,0.0221 0.09354,0.0468 0.01103,0.011 -0.0038,0.0317 0,0.0468 0.01196,0.0478 0.01719,0.10088 0.04677,0.14032 0.02092,0.0279 0.06889,0.0221 0.09354,0.0468 0.01103,0.011 -0.0049,0.032 0,0.0468 0.01103,0.0331 0.02743,0.0645 0.04677,0.0935 0.08923,0.13384 0.0088,-0.0716 0.09354,0.14031 0.01831,0.0458 0.02472,0.0962 0.04677,0.14032 0.0099,0.0197 0.0398,0.0259 0.04677,0.0468 0.0099,0.0296 -0.0076,0.0633 0,0.0935 0.0085,0.0338 0.03118,0.0624 0.04677,0.0935 0.01559,0.0468 0.0371,0.092 0.04677,0.14032 0.0061,0.0306 -0.0076,0.0633 0,0.0935 0.02322,0.0929 0.117095,0.18775 0.140317,0.28063 0.0076,0.0303 -0.0099,0.064 0,0.0935 0.01395,0.0418 0.0796,0.0517 0.09354,0.0935 0.0084,0.0251 0,0.14749 0,0.18709 0,0.1715 0,0.343 0,0.5145 0,0.0935 0,0.18708 0,0.28063 0,0.0211 0.0071,0.12608 0,0.14032 -0.0099,0.0197 -0.03691,0.027 -0.04677,0.0468 -0.007,0.0139 0.007,0.0328 0,0.0468 -0.0099,0.0197 -0.0398,0.0259 -0.04677,0.0468 -0.0099,0.0296 0.0076,0.0633 0,0.0935 -0.0085,0.0338 -0.03575,0.0605 -0.04677,0.0935 -0.0049,0.0148 0.007,0.0328 0,0.0468 -0.0099,0.0197 -0.03691,0.027 -0.04677,0.0468 -0.007,0.014 0.01103,0.0358 0,0.0468 -0.01103,0.011 -0.03575,-0.011 -0.04677,0 -0.01103,0.011 0.007,0.0328 0,0.0468 -0.0099,0.0197 -0.03691,0.0271 -0.04677,0.0468 -0.007,0.0139 0.01103,0.0358 0,0.0468 -0.01103,0.011 -0.03118,0 -0.04677,0 -0.01559,0.0156 -0.03454,0.0284 -0.04677,0.0468 -0.145514,0.21827 0.06756,-0.0156 -0.140317,0.14031 -0.01097,0.008 -0.181436,0.18426 -0.187089,0.18709 -0.02789,0.0139 -0.06565,-0.014 -0.09354,0 0,0.0484 0.01103,0.0646 -0.04677,0.0935 -0.01395,0.007 -0.03118,0 -0.04677,0 -0.01559,0.0156 -0.02705,0.0369 -0.04677,0.0468 -0.01394,0.007 -0.03283,-0.007 -0.04677,0 -0.03944,0.0197 -0.0541,0.0738 -0.09354,0.0935 -0.0441,0.022 -0.09804,0.0214 -0.140317,0.0468 -0.03781,0.0227 -0.05827,0.0671 -0.09354,0.0935 -0.02789,0.0209 -0.06454,0.0274 -0.09354,0.0468 -0.01835,0.0122 -0.02585,0.0398 -0.04677,0.0468 -0.02958,0.01 -0.06565,-0.0139 -0.09354,0 0,0.0484 0.01103,0.0646 -0.04677,0.0935 -0.02789,0.0139 -0.06565,-0.014 -0.09354,0 -0.01972,0.01 -0.02538,0.0414 -0.04677,0.0468 -0.04538,0.0113 -0.09355,0 -0.140317,0 -0.03118,0 -0.06396,-0.01 -0.09354,0 -0.04183,0.0139 -0.0541,0.0738 -0.09354,0.0935 -0.01854,0.009 -0.130755,-0.01 -0.140317,0 -0.01103,0.011 0.01103,0.0358 0,0.0468 -0.01103,0.011 -0.03575,-0.011 -0.04677,0 -0.01103,0.011 0.01394,0.0398 0,0.0468 -0.02789,0.0139 -0.06396,-0.01 -0.09354,0 -0.02092,0.007 -0.02705,0.0369 -0.04677,0.0468 -0.01395,0.007 -0.03283,-0.007 -0.04677,0 -0.194654,0.0973 0.05,-0.003 -0.04677,0.0935 -0.01103,0.011 -0.03575,-0.011 -0.04677,0 -0.01103,0.011 0.01103,0.0358 0,0.0468 -0.01103,0.011 -0.03118,0 -0.04677,0 -0.01559,0 -0.03118,0 -0.04677,0"
       id="path5658"
       inkscape:connector-curvature="0" />
    <path
       style="fill:#000000;fill-opacity:1;stroke:none;stroke-width:0.20877622px;stroke-linecap:butt;stroke-linejoin:miter;stroke-opacity:1"
       d="m 14.077403,282.21349 c 0.03265,-0.0358 -0.01748,-0.26226 0,-0.33217 0.01334,-0.0533 0.05338,-0.0965 0.07381,-0.14762 0.01445,-0.0361 0.02747,-0.073 0.03691,-0.11072 0.003,-0.0119 -0.0055,-0.0259 0,-0.0369 0.01556,-0.0311 0.05451,-0.0449 0.07381,-0.0738 0.08937,-0.13406 -0.01081,-0.0261 0.07381,-0.11071 0.01943,-0.0194 0.100864,-0.091 0.11072,-0.11073 0.0055,-0.011 -0.0087,-0.0282 0,-0.0369 0.0087,-0.009 0.02821,0.009 0.0369,0 0.0087,-0.009 -0.0087,-0.0282 0,-0.0369 0.0087,-0.009 0.0259,0.006 0.03691,0 0.03112,-0.0155 0.04269,-0.0582 0.07382,-0.0738 0.01098,-0.006 0.205915,0 0.22144,0 0.0123,0 0.02821,-0.009 0.03691,0 0.0087,0.009 -0.0087,0.0283 0,0.0369 0.0087,0.009 0.02523,-0.004 0.0369,0 0.02609,0.009 0.05093,0.0216 0.07382,0.0369 0.02895,0.0193 0.04269,0.0582 0.07381,0.0738 0.011,0.006 0.03141,-0.011 0.03691,0 0.011,0.022 -0.006,0.05 0,0.0738 0.01334,0.0534 0.06047,0.0943 0.07381,0.14763 0.006,0.0238 -0.006,0.05 0,0.0738 0.0067,0.0267 0.0246,0.0492 0.03691,0.0738 0.0328,0.0656 0.05861,0.10852 0.07381,0.18453 0.0048,0.0241 0,0.0492 0,0.0738 0,0.0615 0,0.12302 0,0.18453 0,0.1188 -0.0087,-0.063 0.0369,0.0738 0.007,0.021 0,0.14978 0,0.18454 0,0.0166 0.0056,0.0995 0,0.11072 -0.0049,0.01 -0.100921,0.10582 -0.11072,0.11071 -0.01122,0.006 -0.122142,0 -0.147627,0 -0.0246,0 -0.04921,0 -0.07381,0 -0.0246,0 -0.05047,0.008 -0.07382,0 -0.01651,-0.006 -0.02135,-0.0291 -0.03691,-0.0369 -0.02953,-0.0147 -0.08119,0.0148 -0.110721,0 -0.153597,-0.0768 0.03945,0.002 -0.0369,-0.0738 -0.0174,-0.0174 -0.0518,0.011 -0.07381,0 -0.01556,-0.008 -0.02135,-0.0291 -0.03691,-0.0369 -0.02201,-0.0111 -0.05642,0.0174 -0.07382,0 -0.0087,-0.009 0.0087,-0.0283 0,-0.0369 -0.02456,-0.0245 -0.04925,0.0245 -0.07381,0 -0.0087,-0.009 0.0087,-0.0282 0,-0.0369 -0.0089,-0.009 -0.138747,0.009 -0.147627,0 -0.0087,-0.009 0.0055,-0.0259 0,-0.0369 -0.03631,-0.0726 -0.02609,-0.0178 -0.07382,-0.0369 -0.05108,-0.0204 -0.09842,-0.0492 -0.147627,-0.0738 z"
       id="path5666"
       inkscape:connector-curvature="0" />
    <path
       style="fill:#000000;fill-opacity:1;stroke:none;stroke-width:0.2450965px;stroke-linecap:butt;stroke-linejoin:miter;stroke-opacity:1"
       d="m 18.237501,282.37623 c -0.01444,-0.0578 -0.03353,-0.11457 -0.04333,-0.17331 -0.0047,-0.0285 0,-0.0578 0,-0.0866 0,-0.0866 0,-0.17331 0,-0.25996 0,-0.0227 -0.0057,-0.16191 0,-0.17331 0.0092,-0.0182 0.02888,-0.0289 0.04333,-0.0433 0.10161,-0.1016 -0.01022,0.0307 0.04332,-0.12998 0.0065,-0.0194 0.03419,-0.025 0.04332,-0.0434 0.0065,-0.013 -0.0065,-0.0304 0,-0.0433 0.01827,-0.0365 0.06838,-0.0501 0.08665,-0.0866 0.06375,-0.1275 -0.100372,0.0571 0.04332,-0.0866 0.01444,-0.0145 0.02888,-0.0289 0.04333,-0.0434 0.01444,-0.0145 0.03687,-0.0239 0.04332,-0.0434 0.0092,-0.0274 -0.01291,-0.0609 0,-0.0866 0.0065,-0.013 0.03312,0.0102 0.04332,0 0.01022,-0.0102 -0.01022,-0.0332 0,-0.0434 0.01022,-0.0102 0.03312,0.0102 0.04333,0 0.01022,-0.0102 -0.01022,-0.0331 0,-0.0434 0.08964,-0.0897 -0.0035,0.13699 0.08665,-0.0433 0.0065,-0.0129 -0.01022,-0.0331 0,-0.0434 0.01022,-0.0102 0.03041,0.006 0.04333,0 0.01827,-0.009 0.02506,-0.0342 0.04333,-0.0434 0.01291,-0.006 0.02888,0 0.04333,0 0.01444,-0.0145 0.02506,-0.0342 0.04333,-0.0434 0.01318,-0.006 0.110469,0 0.129981,0 0.01444,0 0.02888,0 0.04333,0 0.01444,0 0.03312,-0.0102 0.04332,0 0.01022,0.0102 -0.01022,0.0332 0,0.0434 0.01022,0.0102 0.03041,-0.006 0.04333,0 0.01827,0.009 0.02888,0.0289 0.04333,0.0434 0.01444,0.0145 0.03419,0.0251 0.04332,0.0434 0.0065,0.0129 -0.01022,0.0332 0,0.0433 0.01022,0.0102 0.03312,-0.0102 0.04333,0 0.01022,0.0102 -0.01022,0.0332 0,0.0434 0.08964,0.0897 -0.0035,-0.13699 0.08666,0.0434 0.0056,0.0112 0,0.22925 0,0.25996 0,0.0587 0.0096,0.27463 0,0.30329 -0.0065,0.0194 -0.03419,0.0251 -0.04332,0.0433 -0.01292,0.0259 0.02043,0.0662 0,0.0866 -0.01022,0.0102 -0.03041,-0.006 -0.04332,0 -0.01827,0.009 -0.02506,0.0342 -0.04333,0.0434 -0.01291,0.006 -0.03312,-0.0102 -0.04332,0 -0.02043,0.0204 0.02043,0.0662 0,0.0866 -0.01022,0.0102 -0.03312,-0.0102 -0.04332,0 -0.08964,0.0897 0.13699,-0.004 -0.04333,0.0866 -0.01291,0.006 -0.03312,-0.0102 -0.04332,0 -0.02043,0.0204 0.02043,0.0662 0,0.0866 -0.01022,0.0102 -0.03312,-0.0102 -0.04332,0 -0.01022,0.0102 0.01022,0.0331 0,0.0434 -0.01022,0.0102 -0.03312,-0.0102 -0.04333,0 -0.08964,0.0897 0.136991,-0.004 -0.04333,0.0866 -0.01292,0.006 -0.03312,-0.0102 -0.04332,0 -0.02043,0.0204 0.02043,0.0662 0,0.0866 -0.02043,0.0204 -0.05925,-0.009 -0.08665,0 -0.03063,0.0102 -0.05602,0.0332 -0.08665,0.0433 -0.0137,0.005 -0.03312,-0.0102 -0.04332,0 -0.01022,0.0102 0.01022,0.0332 0,0.0434 -0.01022,0.0102 -0.03041,-0.006 -0.04332,0 -0.01827,0.009 -0.02506,0.0342 -0.04333,0.0434 -0.02584,0.013 -0.06623,-0.0204 -0.08665,0 -0.01022,0.0102 0.01291,0.0369 0,0.0433 -0.02584,0.0129 -0.05777,0 -0.08665,0 -0.0954,0 -0.03131,0.008 -0.17331,-0.0866 z"
       id="path5668"
       inkscape:connector-curvature="0" />
  </g>
</svg>
