<?xml version="1.0" encoding="UTF-8" standalone="no"?>
<!-- Created with Inkscape (http://www.inkscape.org/) -->

<svg
   xmlns:dc="http://purl.org/dc/elements/1.1/"
   xmlns:cc="http://creativecommons.org/ns#"
   xmlns:rdf="http://www.w3.org/1999/02/22-rdf-syntax-ns#"
   xmlns:svg="http://www.w3.org/2000/svg"
   xmlns="http://www.w3.org/2000/svg"
   xmlns:sodipodi="http://sodipodi.sourceforge.net/DTD/sodipodi-0.dtd"
   xmlns:inkscape="http://www.inkscape.org/namespaces/inkscape"
   width="128"
   height="128"
   viewBox="0 0 33.866664 33.866668"
   version="1.1"
   id="svg8"
   inkscape:version="0.92.2 (5c3e80d, 2017-08-06)"
   sodipodi:docname="social_icon_7.svg"
   inkscape:export-filename="C:\Users\Me\Documents\GitHub\ServeTheGods\Assets\Images\SocialMedia\social_icon_6.png"
   inkscape:export-xdpi="96"
   inkscape:export-ydpi="96">
  <defs
     id="defs2" />
  <sodipodi:namedview
     id="base"
     pagecolor="#ffffff"
     bordercolor="#666666"
     borderopacity="1.0"
     inkscape:pageopacity="0.0"
     inkscape:pageshadow="2"
     inkscape:zoom="5.6568542"
     inkscape:cx="67.937684"
     inkscape:cy="47.657412"
     inkscape:document-units="mm"
     inkscape:current-layer="layer1"
     showgrid="true"
     units="px"
     inkscape:snap-bbox="true"
     inkscape:bbox-paths="false"
     inkscape:bbox-nodes="true"
     inkscape:window-width="1920"
     inkscape:window-height="1017"
     inkscape:window-x="-8"
     inkscape:window-y="-8"
     inkscape:window-maximized="1"
     inkscape:snap-global="false">
    <inkscape:grid
       type="xygrid"
       id="grid4504"
       spacingx="4.2333333"
       spacingy="4.2333333"
       empspacing="4" />
  </sodipodi:namedview>
  <metadata
     id="metadata5">
    <rdf:RDF>
      <cc:Work
         rdf:about="">
        <dc:format>image/svg+xml</dc:format>
        <dc:type
           rdf:resource="http://purl.org/dc/dcmitype/StillImage" />
        <dc:title></dc:title>
      </cc:Work>
    </rdf:RDF>
  </metadata>
  <g
     inkscape:label="Layer 1"
     inkscape:groupmode="layer"
     id="layer1"
     transform="translate(0,-263.13332)">
    <rect
       style="fill:#8678ee;fill-opacity:1;stroke:none;stroke-width:5.29166651;stroke-linecap:butt;stroke-linejoin:round;stroke-miterlimit:4;stroke-dasharray:15.8749998, 5.2916666;stroke-dashoffset:0;stroke-opacity:0.74874369"
       id="rect4506"
       width="127"
       height="84.666672"
       x="4.2333331"
       y="165.76665"
       ry="8.4666739" />
    <rect
       ry="4.233335"
       y="191.16666"
       x="8.4666662"
       height="55.033329"
       width="118.53333"
       id="rect4508"
       style="fill:#f3f3f3;fill-opacity:1;stroke:none;stroke-width:5.29166651;stroke-linecap:butt;stroke-linejoin:round;stroke-miterlimit:4;stroke-dasharray:15.8749998, 5.2916666;stroke-dashoffset:0;stroke-opacity:0.74874369" />
    <rect
       style="fill:#f3f3f3;fill-opacity:1;stroke:none;stroke-width:5.29166651;stroke-linecap:butt;stroke-linejoin:round;stroke-miterlimit:4;stroke-dasharray:15.8749998, 5.2916666;stroke-dashoffset:0;stroke-opacity:0.74874369"
       id="rect4510"
       width="80.433334"
       height="12.700003"
       x="29.633333"
       y="169.99998"
       ry="4.1199408" />
    <path
       style="fill:#ffffff;stroke:none;stroke-width:0.26458332px;stroke-linecap:butt;stroke-linejoin:miter;stroke-opacity:1;fill-opacity:1"
       d="m 13.423612,280.39587 c 0.07795,0.0779 0.155907,0.1559 0.233861,0.23386 0.109135,0.10913 0.22771,0.20958 0.327405,0.3274 0.198133,0.23416 0.294921,0.52879 0.514494,0.74836 0.05512,0.0551 0.135756,0.0817 0.187088,0.14031 0.05986,0.0684 0.08748,0.15989 0.140317,0.23387 0.127274,0.17818 0.08087,-0.004 0.140316,0.23386 0.0038,0.0151 -0.01103,0.0357 0,0.0468 0.01103,0.011 0.03118,0 0.04677,0 0.01559,0 0.04184,0.0148 0.04677,0 0.02999,-0.09 0.01155,-0.19258 0.04677,-0.28063 0.02895,-0.0724 0.113676,-0.11383 0.140316,-0.18709 0.03768,-0.10361 0.01649,-0.22141 0.04677,-0.32741 0.03262,-0.11417 0.107698,-0.21324 0.140317,-0.3274 0.03029,-0.10601 0.03001,-0.21845 0.04677,-0.32741 0.04704,-0.30574 0.02086,-0.20289 0.09355,-0.42095 0.01559,-0.0468 0.0371,-0.092 0.04677,-0.14032 0.0061,-0.0306 0,-0.0624 0,-0.0935 0,-0.0312 -0.01559,-0.078 0.04677,-0.0468 0.08747,0.0437 0.13102,0.29332 0.140316,0.3274 0.04184,0.1534 0.05498,0.31348 0.09355,0.46773 0.01196,0.0478 0.03118,0.0935 0.04677,0.14031 0.01559,0.0468 0.02846,0.0945 0.04677,0.14032 0.01295,0.0324 0.03832,0.0597 0.04677,0.0935 0.01383,0.0553 -0.03183,0.11412 0.04677,0.14032 0.154074,0.0514 0.0642,-0.0202 0.09354,-0.0935 0.03353,-0.0838 0.117616,-0.14305 0.140316,-0.23386 0.05352,-0.21405 -0.09447,0.0486 0.04677,-0.23386 0.02514,-0.0503 0.0684,-0.09 0.09354,-0.14031 0.02205,-0.0441 0.0371,-0.092 0.04677,-0.14032 0.0061,-0.0306 -0.0173,-0.0676 0,-0.0935 0.01934,-0.029 0.06889,-0.0221 0.09354,-0.0468 0.01103,-0.011 -0.01103,-0.0357 0,-0.0468 0.01103,-0.011 0.03575,0.011 0.04677,0 0.01103,-0.011 -0.01103,-0.0358 0,-0.0468 0.03119,-0.0312 0.166651,0.0663 0.187089,0.0935 0.06275,0.0837 0.09354,0.18709 0.140317,0.28064 0.04677,0.0935 0.09649,0.18567 0.140316,0.28063 0.36303,0.78656 -0.07267,-0.0986 0.280633,0.60804 0.04677,0.0935 0.08651,0.19095 0.140317,0.28063 0.294898,0.4915 0.04659,-0.0945 0.140316,0.37418 7.94e-4,0.004 0.06502,0.0848 0.09354,0.0468 0.04183,-0.0558 0.06236,-0.12473 0.09354,-0.18709 0.124725,-0.24945 0.243685,-0.50187 0.374177,-0.74835 0.08209,-0.15507 0.262233,-0.4789 0.374177,-0.65481 0.06036,-0.0949 0.129246,-0.18423 0.187089,-0.28064 0.364682,-0.72936 -0.1628,0.24825 0.233861,-0.28063 0.01871,-0.0249 -0.01395,-0.0657 0,-0.0935 0.007,-0.014 0.03575,-0.011 0.04677,0 0.01103,0.011 0,0.0312 0,0.0468 0,0.0468 -0.0092,0.0944 0,0.14031 0.0068,0.0342 0.03383,0.0612 0.04677,0.0935 0.01831,0.0458 0.02846,0.0945 0.04677,0.14032 0.01295,0.0324 0.03832,0.0597 0.04677,0.0935 0.0076,0.0303 -0.0099,0.064 0,0.0935 0.01642,0.0493 0.09883,0.0744 0.140316,0.0468 0.02901,-0.0193 0.02212,-0.0689 0.04677,-0.0935 0.419201,-0.4192 -0.08608,0.22142 0.187089,-0.23386 0.02269,-0.0378 0.06709,-0.0583 0.09354,-0.0935 0.02092,-0.0279 0.02585,-0.0657 0.04677,-0.0935 0.02646,-0.0353 0.07717,-0.0526 0.09354,-0.0935 0.01737,-0.0434 -0.0092,-0.0944 0,-0.14032 0.0068,-0.0342 0.03575,-0.0605 0.04677,-0.0935 0.0049,-0.0148 -0.007,-0.0328 0,-0.0468 0.0099,-0.0197 0.03118,-0.0624 0.04677,-0.0468 0.02205,0.022 0,0.0624 0,0.0935 0,0.0779 0,0.1559 0,0.23386 0,0.35858 0,0.71717 0,1.07576 0,0.12472 0,0.24945 0,0.37418 0,0.0312 0.03118,0.0935 0,0.0935 -0.03118,0 -0.0061,-0.063 0,-0.0935 0.0097,-0.0484 0.03118,-0.0935 0.04677,-0.14032 0.01559,-0.0468 0.02946,-0.0942 0.04677,-0.14032 0.0051,-0.0135 0.129701,-0.31048 0.140317,-0.37417 0.0077,-0.0461 -0.0092,-0.0945 0,-0.14032 0.01367,-0.0684 0.0715,-0.12094 0.09354,-0.18709 0.0099,-0.0296 -0.02205,-0.0715 0,-0.0935 0.09361,-0.0936 -6.7e-5,0.0936 0.09354,0 0.01103,-0.011 -0.01103,-0.0358 0,-0.0468 0.01103,-0.011 0.04184,0.0148 0.04677,0 0.01479,-0.0444 0,-0.0935 0,-0.14031 0,-0.0935 0,-0.18709 0,-0.28064 0,-0.0312 -0.0076,-0.0633 0,-0.0935 0.0085,-0.0338 0.03575,-0.0605 0.04677,-0.0935 0.0077,-0.0232 0.004,-0.13634 0,-0.14032 -0.01103,-0.011 -0.03283,0.007 -0.04677,0 -0.01972,-0.01 -0.02843,-0.0345 -0.04677,-0.0468 -0.02355,-0.10305 -0.09622,-0.0247 -0.140317,-0.0468 -0.01972,-0.01 -0.02585,-0.0398 -0.04677,-0.0468 -0.02958,-0.01 -0.06329,0.008 -0.09354,0 -0.264996,-0.1325 0.06972,0.0174 -0.187088,-0.0468 -0.06764,-0.0169 -0.120943,-0.0715 -0.187089,-0.0935 -0.05484,-0.0183 -0.13558,0.0258 -0.187088,0 -0.01394,-0.007 0.01103,-0.0358 0,-0.0468 -0.0096,-0.01 -0.121772,0.009 -0.140317,0 -0.01972,-0.01 -0.02705,-0.0369 -0.04677,-0.0468 -0.01394,-0.007 -0.03118,0 -0.04677,0 -0.01559,0 -0.03118,0 -0.04677,0 -0.07795,0 -0.155908,0 -0.233861,0 -0.01559,0 -0.03198,0.005 -0.04677,0 -0.03307,-0.011 -0.06047,-0.0358 -0.09354,-0.0468 -0.02958,-0.01 -0.06565,0.0139 -0.09354,0 -0.01972,-0.01 -0.02705,-0.0369 -0.04677,-0.0468 -0.01394,-0.007 -0.03118,0 -0.04677,0 -0.01559,0 -0.03118,0 -0.04677,0 -0.04677,0 -0.09354,0 -0.140316,0 -0.140317,0 -0.280633,0 -0.420949,0 -0.04677,0 -0.09354,0 -0.140317,0 -0.04677,0 -0.09445,0.009 -0.140317,0 -0.03419,-0.007 -0.05936,-0.0399 -0.09354,-0.0468 -0.04586,-0.009 -0.09354,0 -0.140316,0 -0.03118,0 -0.06396,0.01 -0.09355,0 -0.02092,-0.007 -0.02705,-0.0369 -0.04677,-0.0468 -0.01048,-0.005 -0.175974,0 -0.187089,0 -0.07795,0 -0.155907,0 -0.23386,0 -0.03118,0 -0.06297,-0.006 -0.09355,0 -0.04834,0.01 -0.09197,0.0371 -0.140316,0.0468 -0.03058,0.006 -0.06329,-0.008 -0.09354,0 -0.03382,0.008 -0.06047,0.0358 -0.09354,0.0468 -0.01479,0.005 -0.03198,-0.005 -0.04677,0 -0.03307,0.011 -0.06047,0.0358 -0.09354,0.0468 -0.01479,0.005 -0.03198,-0.005 -0.04677,0 -0.33879,0.11293 0.07374,-0.0135 -0.140316,0.0935 -0.01394,0.007 -0.03118,0 -0.04677,0 -0.03118,0 -0.06396,-0.01 -0.09354,0 -0.02092,0.007 -0.02705,0.0369 -0.04677,0.0468 -0.02789,0.0139 -0.06566,-0.014 -0.09354,0 -0.01972,0.01 -0.02705,0.0369 -0.04677,0.0468 -0.01394,0.007 -0.03575,-0.011 -0.04677,0 -0.01103,0.011 0.01103,0.0358 0,0.0468 -0.02205,0.0221 -0.06396,-0.01 -0.09355,0 -0.33879,0.11293 0.07374,-0.0135 -0.140316,0.0935 -0.03104,0.0155 -0.23527,-0.0151 -0.280633,0 -0.03307,0.011 -0.05972,0.0383 -0.09355,0.0468 -0.03025,0.008 -0.06236,0 -0.09354,0 -0.09354,0 -0.187089,0 -0.280633,0 -0.02106,0 -0.126082,-0.007 -0.140316,0 -0.214058,0.10703 0.198473,-0.0194 -0.140317,0.0935 -0.04437,0.0148 -0.09494,-0.0113 -0.140316,0 -0.03382,0.008 -0.06047,0.0357 -0.09355,0.0468 -0.01479,0.005 -0.03283,-0.007 -0.04677,0 -0.01972,0.01 -0.02705,0.0369 -0.04677,0.0468 -0.0284,0.0142 -0.252232,-0.0142 -0.280633,0 -0.03944,0.0197 -0.05171,0.0796 -0.09354,0.0935 -0.02958,0.01 -0.06329,-0.008 -0.09355,0 -0.06764,0.0169 -0.120943,0.0715 -0.187089,0.0935 -0.02958,0.01 -0.07149,-0.022 -0.09354,0 -0.01103,0.011 0.01103,0.0358 0,0.0468 -0.01103,0.011 -0.04098,-0.0145 -0.04677,0 -0.02952,0.0738 -0.03118,0.1559 -0.04677,0.23386 z"
       id="path5682"
       inkscape:connector-curvature="0" />
    <path
       style="fill:#ffffff;stroke:none;stroke-width:0.26458332px;stroke-linecap:butt;stroke-linejoin:miter;stroke-opacity:1;fill-opacity:1"
       d="m 13.423612,284.3715 c 0.451728,-0.45173 -0.09784,0.1223 0.374177,-0.46772 0.488714,-0.48871 -0.05183,0.0913 0.280633,-0.37418 0.03845,-0.0538 0.103625,-0.0853 0.140317,-0.14031 0.242867,-0.36431 -0.151011,0.0575 0.140316,-0.23387 0.01559,-0.0156 0.02472,-0.0468 0.04677,-0.0468 0.03576,0 0.09329,0.13998 0.09354,0.14032 0.02646,0.0353 0.06531,0.0597 0.09354,0.0935 0.0499,0.0599 0.08958,0.12791 0.140317,0.18709 0.04305,0.0502 0.10187,0.0865 0.140316,0.14032 0.04053,0.0567 0.04891,0.13352 0.09354,0.18709 0.03599,0.0432 0.100568,0.0538 0.140317,0.0935 0.02465,0.0246 0.02884,0.0636 0.04677,0.0935 0.02892,0.0482 0.0538,0.10056 0.09354,0.14031 0.03975,0.0397 0.100568,0.0538 0.140317,0.0935 0.05697,0.057 0.02191,0.1045 0.09354,0.14031 0.06452,0.0323 0.04184,-0.0566 0.09355,0.0468 0.007,0.0139 -0.01103,0.0357 0,0.0468 0.01103,0.011 0.03575,0.011 0.04677,0 0.01103,-0.011 -0.0038,-0.0317 0,-0.0468 0.01196,-0.0478 0.03118,-0.0935 0.04677,-0.14032 0.01559,-0.0468 0.02735,-0.095 0.04677,-0.14032 0.02747,-0.0641 0.06608,-0.123 0.09354,-0.18709 0.01942,-0.0453 0.02472,-0.0962 0.04677,-0.14031 0.02514,-0.0503 0.06841,-0.09 0.09354,-0.14032 0.02205,-0.0441 0.03481,-0.0925 0.04677,-0.14032 0.0048,-0.0192 -0.0057,-0.0879 0,-0.0935 0.01103,-0.011 0.03283,-0.007 0.04677,0 0.06724,0.0336 0.072,0.13322 0.09354,0.18709 0.114665,0.28666 -0.01625,-0.14429 0.04677,0.23386 0.0081,0.0486 0.0371,0.092 0.04677,0.14032 0.0061,0.0306 -0.0061,0.063 0,0.0935 0.0097,0.0484 0.03867,0.0917 0.04677,0.14032 0.0077,0.0461 0,0.0935 0,0.14031 0.01559,0.0468 0.03482,0.0925 0.04677,0.14032 0.0038,0.0151 -0.01103,0.0358 0,0.0468 0.01103,0.011 0.03283,-0.007 0.04677,0 0.01972,0.01 0.02585,0.0398 0.04677,0.0468 0.08485,0.0283 0.114351,-0.0177 0.187088,-0.0468 0.04578,-0.0183 0.09804,-0.0214 0.140317,-0.0468 0.03781,-0.0227 0.05827,-0.0671 0.09354,-0.0935 0.02789,-0.0209 0.06565,-0.0259 0.09354,-0.0468 0.03528,-0.0265 0.0526,-0.0772 0.09354,-0.0935 0.04343,-0.0174 0.102898,0.0281 0.140316,0 0.03944,-0.0296 0.01719,-0.10088 0.04677,-0.14032 0.04183,-0.0558 0.137787,-0.0442 0.187089,-0.0935 0.02465,-0.0247 0.02743,-0.0645 0.04677,-0.0935 0.01223,-0.0183 0.03454,-0.0284 0.04677,-0.0468 0.01934,-0.029 0.02744,-0.0645 0.04677,-0.0935 0.01223,-0.0183 0.03691,-0.027 0.04677,-0.0468 0.007,-0.014 -0.007,-0.0328 0,-0.0468 0.0099,-0.0197 0.03118,-0.0312 0.04677,-0.0468 0.01559,-0.0156 0.02472,-0.0468 0.04677,-0.0468 0.03571,0 0.09338,0.13998 0.09354,0.14032 0.05258,0.10515 0.11693,0.21047 0.140317,0.3274 0.04997,0.24988 -0.08888,-0.10526 0.04677,0.23386 -0.01655,0.0798 0.0684,0.09 0.09354,0.14032 0.007,0.0139 -0.01103,0.0358 0,0.0468 0.01103,0.011 0.03118,0 0.04677,0 0.07239,0 0.08803,0.011 0.140317,-0.0935 0.01395,-0.0279 -0.01604,-0.0668 0,-0.0935 0.03403,-0.0567 0.107499,-0.0829 0.140316,-0.14032 0.03189,-0.0558 0.02145,-0.128 0.04677,-0.18708 0.02214,-0.0517 0.06462,-0.0921 0.09354,-0.14032 0.01794,-0.0299 0.03118,-0.0624 0.04677,-0.0935 1.68e-4,-3.5e-4 0.05783,-0.14032 0.09355,-0.14032 0.02205,0 0.03118,0.0312 0.04677,0.0468 0.03118,0.0312 0.066,0.0591 0.09354,0.0935 0.03512,0.0439 0.06236,0.0935 0.09354,0.14031 0.112883,0.16933 0.0684,0.09 0.140317,0.23386 0.01559,0.0312 0.03993,0.0594 0.04677,0.0935 0.0092,0.0459 -0.01479,0.0959 0,0.14031 0.0049,0.0148 0.03283,-0.007 0.04677,0 0.08929,0.0446 0.0085,0.12898 0.140317,-0.0468 0.02092,-0.0279 0.02884,-0.0637 0.04677,-0.0935 0.02892,-0.0482 0.07267,-0.0881 0.09354,-0.14032 0.01158,-0.0289 -0.0061,-0.063 0,-0.0935 0.02878,-0.14392 0.111534,-0.27704 0.140317,-0.42095 0.01853,-0.0926 -0.03466,-0.10566 0.04677,-0.18709 0.03006,-0.0301 0.119356,0.0411 0.140317,0.0935 0.01737,0.0434 -0.01285,0.0953 0,0.14032 0.01916,0.067 0.06236,0.12472 0.09354,0.18709 0.01559,0.0312 0.03993,0.0594 0.04677,0.0935 0.0092,0.0459 -0.0092,0.0944 0,0.14032 0.0068,0.0342 0.03575,0.0605 0.04677,0.0935 0.0049,0.0148 -0.007,0.0328 0,0.0468 0.0099,0.0197 0.03691,0.0271 0.04677,0.0468 0.007,0.0139 -0.01103,0.0357 0,0.0468 0.01103,0.011 0.03575,-0.011 0.04677,0 0.01103,0.011 -0.01103,0.0358 0,0.0468 0.01103,0.011 0.03575,-0.011 0.04677,0 0.01103,0.011 -0.01103,0.0357 0,0.0468 0.01103,0.011 0.03575,-0.011 0.04677,0 0.01103,0.011 -0.01103,0.0358 0,0.0468 0.01103,0.011 0.03575,0.011 0.04677,0 0.08341,-0.0834 0.02568,-0.12841 0.04677,-0.23387 0.0068,-0.0342 0.03383,-0.0612 0.04677,-0.0935 0.01831,-0.0458 0.02846,-0.0945 0.04677,-0.14032 0.01295,-0.0324 0.03994,-0.0594 0.04677,-0.0935 0.0092,-0.0459 -0.0092,-0.0944 0,-0.14032 0.0068,-0.0342 0.03382,-0.0612 0.04677,-0.0935 0.05387,-0.13469 0.04677,-0.15139 0.04677,-0.28063 0,-0.11919 0.05456,-0.0623 0.09354,-0.14032 0.007,-0.0139 -0.01559,-0.0468 0,-0.0468 0.02205,0 0.03691,0.027 0.04677,0.0468 0.05663,0.11326 0.04677,0.12683 0.04677,0.23386 0,0.0312 -0.0076,0.0633 0,0.0935 0.01691,0.0677 0.07987,0.11872 0.09354,0.18709 0.01529,0.0764 0,0.15591 0,0.23386 0,0.14032 0,0.28064 0,0.42095 0,0.0156 0,0.0312 0,0.0468 0,0.0156 0.01103,0.0357 0,0.0468 -0.01103,0.011 -0.03575,-0.011 -0.04677,0 -0.02205,0.022 0.01395,0.0657 0,0.0935 -0.02806,0.0561 -0.112254,0.0842 -0.140317,0.14032 -0.007,0.0139 0.01103,0.0358 0,0.0468 -0.01103,0.011 -0.03575,-0.011 -0.04677,0 -0.01103,0.011 0.01103,0.0358 0,0.0468 -0.01103,0.011 -0.03575,-0.011 -0.04677,0 -0.01103,0.011 0.01394,0.0398 0,0.0468 -0.02789,0.0139 -0.06396,-0.01 -0.09354,0 -0.02092,0.007 -0.03118,0.0312 -0.04677,0.0468 -0.03118,0.0156 -0.05972,0.0383 -0.09354,0.0468 -0.03025,0.008 -0.06297,-0.006 -0.09354,0 -0.04834,0.01 -0.09354,0.0312 -0.140317,0.0468 -0.04677,0.0156 -0.09454,0.0285 -0.140316,0.0468 -0.03237,0.0129 -0.05972,0.0383 -0.09354,0.0468 -0.03025,0.008 -0.06329,-0.008 -0.09354,0 -0.06764,0.0169 -0.120943,0.0715 -0.187089,0.0935 -0.02806,0.009 -0.196538,0 -0.23386,0 -0.171498,0 -0.342996,0 -0.514494,0 -0.06236,0 -0.124726,0 -0.187089,0 -0.01559,0 -0.03575,-0.011 -0.04677,0 -0.01103,0.011 0.01103,0.0358 0,0.0468 -0.01103,0.011 -0.03118,0 -0.04677,0 -0.09354,0 -0.187089,0 -0.280633,0 -0.21827,0 -0.436541,0 -0.654811,0 -0.07795,0 -0.155907,0 -0.23386,0 -0.03118,0 -0.06329,-0.008 -0.09354,0 -0.03382,0.008 -0.06047,0.0358 -0.09354,0.0468 -0.02639,0.009 -0.109582,0 -0.140317,0 -0.09354,0 -0.187088,0 -0.280633,0 -0.06236,0 -0.125936,-0.0122 -0.187088,0 -0.04834,0.01 -0.09197,0.0371 -0.140317,0.0468 -0.03058,0.006 -0.06329,-0.008 -0.09354,0 -0.03382,0.008 -0.06047,0.0357 -0.09354,0.0468 -0.02639,0.009 -0.109583,0 -0.140317,0 -0.124726,0 -0.249451,0 -0.374177,0 -0.05459,0 -0.244143,0.009 -0.280633,0 -0.09288,-0.0232 -0.187749,-0.1171 -0.280633,-0.14032 -0.03025,-0.008 -0.06297,0.006 -0.09355,0 -0.04834,-0.01 -0.09197,-0.0371 -0.140316,-0.0468 -0.03058,-0.006 -0.06329,0.008 -0.09354,0 -0.225861,-0.0565 0.0023,-0.0222 -0.140317,-0.0935 -0.01394,-0.007 -0.03118,0 -0.04677,0 -0.03118,0 -0.06329,0.008 -0.09354,0 -0.225861,-0.0565 0.0023,-0.0222 -0.140317,-0.0935 -0.01394,-0.007 -0.03575,0.011 -0.04677,0 -0.01103,-0.011 0.01103,-0.0358 0,-0.0468 -0.01103,-0.011 -0.03283,0.007 -0.04677,0 -0.01972,-0.01 -0.02705,-0.0369 -0.04677,-0.0468 -0.02789,-0.014 -0.0715,0.022 -0.09355,0 -0.01103,-0.011 0.01103,-0.0358 0,-0.0468 -0.02205,-0.0221 -0.06565,0.0139 -0.09354,0 -0.214058,-0.10703 0.198474,0.0194 -0.140317,-0.0936 -0.01479,-0.005 -0.03118,0 -0.04677,0 -0.01559,-0.0156 -0.02705,-0.0369 -0.04677,-0.0468 -0.01395,-0.007 -0.03575,0.011 -0.04677,0 -0.01103,-0.011 0.01103,-0.0358 0,-0.0468 -0.0029,-0.1317 -0.105455,-0.0119 -0.140317,-0.0468 -0.02205,-0.022 0.02205,-0.0715 0,-0.0935 -0.01103,-0.011 -0.03118,0 -0.04677,0 -0.03118,-0.0624 -0.06236,-0.12473 -0.09354,-0.18709 z"
       id="path5684"
       inkscape:connector-curvature="0" />
    <path
       style="fill:#000000;stroke:#000000;stroke-width:0.26458332px;stroke-linecap:butt;stroke-linejoin:miter;stroke-opacity:1;fill-opacity:1"
       d="m 14.218739,276.1396 c -0.08991,0.0367 -0.188906,-0.0183 -0.280633,0 -0.04834,0.01 -0.09454,0.0285 -0.140317,0.0468 -0.06474,0.0259 -0.120943,0.0715 -0.187089,0.0935 -0.01479,0.005 -0.03283,-0.007 -0.04677,0 -0.05028,0.0251 -0.08812,0.0727 -0.140316,0.0935 -0.02895,0.0116 -0.06565,-0.0139 -0.09355,0 -0.18637,0.0932 -2.05e-4,0.0936 -0.187088,0.14032 -0.03025,0.008 -0.06565,-0.014 -0.09354,0 -0.01395,0.007 0.01103,0.0357 0,0.0468 -0.01103,0.011 -0.03118,0 -0.04677,0 0,0.0312 0.01395,0.0657 0,0.0935 -0.007,0.014 -0.03575,-0.011 -0.04677,0 -0.01103,0.011 0.0049,0.032 0,0.0468 -0.01103,0.0331 -0.02743,0.0645 -0.04677,0.0935 -0.01223,0.0183 -0.0398,0.0259 -0.04677,0.0468 -0.0099,0.0296 0,0.0624 0,0.0935 -0.01559,0.0468 -0.02846,0.0945 -0.04677,0.14031 -0.0259,0.0647 -0.07663,0.11945 -0.09355,0.18709 -0.0052,0.0209 -0.0025,0.32001 0,0.32741 0.007,0.0209 0.03691,0.027 0.04677,0.0468 0.007,0.014 -0.007,0.0328 0,0.0468 0.0099,0.0197 0.03118,0.0312 0.04677,0.0468 0.01559,0.0156 0.02585,0.0398 0.04677,0.0468 0.02958,0.01 0.06396,-0.01 0.09354,0 0.02092,0.007 0.03118,0.0312 0.04677,0.0468 0.03118,0.0312 0.05827,0.0671 0.09354,0.0935 0.02789,0.0209 0.06236,0.0312 0.09354,0.0468 0.04677,0.0312 0.09642,0.0584 0.140316,0.0935 0.06887,0.0551 0.118221,0.13199 0.187089,0.18709 0.0439,0.0351 0.09642,0.0584 0.140317,0.0935 0.03443,0.0275 0.05573,0.0709 0.09354,0.0935 0.169563,0.10173 0.09123,0.0182 0.233861,0.0468 0.09633,0.0193 0.15071,0.052 0.233861,0.0935 0.03118,0.0156 0.06047,0.0358 0.09354,0.0468 0.02958,0.01 0.06236,0 0.09354,0 0.06093,0 0.181825,0.0104 0.233861,0 0.04835,-0.01 0.09249,-0.0348 0.140317,-0.0468 0.01513,-0.004 0.03283,0.007 0.04677,0 0.01972,-0.01 0.02705,-0.0369 0.04677,-0.0468 0.0441,-0.0221 0.09622,-0.0247 0.140316,-0.0468 0.01972,-0.01 0.02705,-0.0369 0.04677,-0.0468 0.01394,-0.007 0.03283,0.007 0.04677,0 0.194654,-0.0973 -0.05,0.003 0.04677,-0.0935 0.01103,-0.011 0.03575,0.011 0.04677,0 0.01103,-0.011 -0.007,-0.0328 0,-0.0468 0.01972,-0.0394 0.0796,-0.0517 0.09354,-0.0935 0.01403,-0.0421 -0.01403,-0.0982 0,-0.14032 0.03846,-0.11539 0.122079,-0.19974 0.140317,-0.32741 0.0088,-0.0617 0,-0.12472 0,-0.18709 0,-0.0312 -0.0076,-0.0633 0,-0.0935 0.0085,-0.0338 0.03832,-0.0597 0.04677,-0.0935 0.0054,-0.0214 0.0049,-0.26105 0,-0.28064 -0.01196,-0.0478 -0.02472,-0.0962 -0.04677,-0.14031 -0.0099,-0.0197 -0.03691,-0.027 -0.04677,-0.0468 -0.007,-0.0139 0.0038,-0.0316 0,-0.0468 -0.01196,-0.0478 -0.02472,-0.0962 -0.04677,-0.14031 -0.02806,-0.0561 -0.112254,-0.0842 -0.140317,-0.14032 -0.007,-0.0139 0.01103,-0.0357 0,-0.0468 -0.02205,-0.022 -0.0715,0.022 -0.09354,0 -0.01103,-0.011 0.01103,-0.0358 0,-0.0468 -0.01103,-0.011 -0.03575,0.011 -0.04677,0 -0.01103,-0.011 0.01102,-0.0358 0,-0.0468 -0.01103,-0.011 -0.03283,0.007 -0.04677,0 -0.01972,-0.01 -0.02705,-0.0369 -0.04677,-0.0468 -0.01394,-0.007 -0.03283,0.007 -0.04677,0 -0.0498,-0.0249 -0.04374,-0.0686 -0.09354,-0.0935 -0.02789,-0.014 -0.0715,0.022 -0.09354,0 -0.01103,-0.011 0,-0.0312 0,-0.0468 -0.01559,0 -0.03575,0.011 -0.04677,0 -0.01103,-0.011 0.01103,-0.0357 0,-0.0468 -0.0096,-0.01 -0.121771,0.009 -0.140316,0 -0.01972,-0.01 -0.02705,-0.0369 -0.04677,-0.0468 -0.01394,-0.007 -0.03118,0 -0.04677,0 -0.01559,0 -0.03118,0 -0.04677,0 -0.06236,0 -0.124725,0 -0.187088,0 z"
       id="path5686"
       inkscape:connector-curvature="0" />
    <path
       style="fill:#000000;stroke:#000000;stroke-width:0.26458332px;stroke-linecap:butt;stroke-linejoin:miter;stroke-opacity:1;fill-opacity:1"
       d="m 19.691082,276.56055 c -0.264436,0.0529 -0.154363,0.0468 -0.327405,0.0468 -0.01559,0 -0.03283,-0.007 -0.04677,0 -0.194655,0.0973 0.05,-0.003 -0.04677,0.0935 -0.01103,0.011 -0.03283,-0.007 -0.04677,0 -0.01972,0.01 -0.02705,0.0369 -0.04677,0.0468 -0.01394,0.007 -0.03575,-0.011 -0.04677,0 -0.01103,0.011 0.007,0.0328 0,0.0468 -0.0099,0.0197 -0.03118,0.0312 -0.04677,0.0468 -0.01559,0.0156 -0.02705,0.0369 -0.04677,0.0468 -0.01395,0.007 -0.03575,-0.011 -0.04677,0 -0.01103,0.011 0.01103,0.0358 0,0.0468 -0.01103,0.011 -0.03575,-0.011 -0.04677,0 -0.01103,0.011 0.007,0.0328 0,0.0468 -0.09733,0.19465 0.0032,-0.05 -0.09354,0.0468 -0.01103,0.011 0.01103,0.0358 0,0.0468 -0.01103,0.011 -0.03575,-0.011 -0.04677,0 -4.5e-5,5e-5 7.1e-5,0.14011 0,0.14032 -0.007,0.0209 -0.0398,0.0259 -0.04677,0.0468 -0.0099,0.0296 0,0.0624 0,0.0935 0,0.10913 0,0.21827 0,0.3274 0,0.0935 0,0.18709 0,0.28063 0,0.0312 -0.0076,0.0633 0,0.0935 0.0085,0.0338 0.02212,0.0689 0.04677,0.0935 0.02465,0.0247 0.07421,0.0178 0.09354,0.0468 0.0173,0.0259 -0.02205,0.0715 0,0.0935 0.02205,0.0221 0.06565,-0.0139 0.09354,0 0.03944,0.0197 0.05827,0.0671 0.09354,0.0935 0.03438,0.0258 0.366896,0.18397 0.374177,0.18709 0.244723,0.10488 0.03406,0.006 0.280634,0.0468 0.04863,0.008 0.09354,0.0312 0.140316,0.0468 0.04677,0.0156 0.09354,0.0312 0.140316,0.0468 0.04677,0.0156 0.09197,0.0371 0.140317,0.0468 0.03058,0.006 0.06236,0 0.09354,0 0.06236,0 0.124726,0 0.187089,0 0.155907,0 0.311814,0 0.467722,0 0.01559,0 0.03575,0.011 0.04677,0 0.01103,-0.011 -0.01103,-0.0358 0,-0.0468 0.02205,-0.022 0.0715,0.0221 0.09354,0 0.01103,-0.011 -0.007,-0.0328 0,-0.0468 0.0099,-0.0197 0.03691,-0.027 0.04677,-0.0468 0.007,-0.0139 -0.0049,-0.032 0,-0.0468 0.01103,-0.0331 0.03832,-0.0597 0.04677,-0.0935 0.0076,-0.0302 0,-0.0624 0,-0.0935 0,-0.0779 0,-0.1559 0,-0.23386 0,-0.0935 0,-0.18709 0,-0.28063 0,-0.0312 0.0076,-0.0633 0,-0.0935 -0.0085,-0.0338 -0.02743,-0.0645 -0.04677,-0.0935 -0.01223,-0.0183 -0.04142,-0.0254 -0.04677,-0.0468 -0.01134,-0.0454 0.01134,-0.0949 0,-0.14032 -0.0053,-0.0214 -0.03454,-0.0284 -0.04677,-0.0468 -0.01934,-0.029 -0.03118,-0.0624 -0.04677,-0.0935 -0.08861,0.005 -0.03118,-0.10914 -0.04677,-0.14032 -0.0099,-0.0197 -0.03691,-0.027 -0.04677,-0.0468 -0.007,-0.014 0.01103,-0.0358 0,-0.0468 -0.01103,-0.011 -0.03575,0.011 -0.04677,0 -0.09677,-0.0968 0.147883,0.004 -0.04677,-0.0935 -0.06452,-0.0323 -0.04184,0.0566 -0.09354,-0.0468 -0.007,-0.0139 0.01103,-0.0358 0,-0.0468 -0.01103,-0.011 -0.03283,0.007 -0.04677,0 -0.01972,-0.01 -0.02705,-0.0369 -0.04677,-0.0468 -0.01395,-0.007 -0.03283,0.007 -0.04677,0 -0.01972,-0.01 -0.02843,-0.0345 -0.04677,-0.0468 -0.02901,-0.0193 -0.06889,-0.0221 -0.09354,-0.0468 -0.01103,-0.011 0.01103,-0.0358 0,-0.0468 -0.01126,-0.0113 -0.175834,0.0113 -0.187089,0 -0.01103,-0.011 0.01103,-0.0358 0,-0.0468 -0.01103,-0.011 -0.03283,0.007 -0.04677,0 -0.03944,-0.0197 -0.05171,-0.0796 -0.09354,-0.0935 -0.02958,-0.01 -0.06396,0.01 -0.09354,0 -0.04183,-0.0139 -0.04945,-0.0935 -0.09354,-0.0935 -0.06428,0 -0.124726,0.0312 -0.187089,0.0468 z"
       id="path5688"
       inkscape:connector-curvature="0" />
  </g>
</svg>
